<svg width="90" height="46" viewBox="0 0 90 46" fill="none" xmlns="http://www.w3.org/2000/svg">
<g clip-path="url(#clip0_5_181)">
<path d="M11.9791 2.0202C12.4138 2.0202 13.0304 2.72727 13.0304 3.84848V32.9697H46.3799C46.9662 32.9798 47.4312 33.4545 47.4312 34.0404V42.9394C47.4312 43.5151 46.9561 43.9899 46.3799 43.9899H3.07312C2.4868 43.9798 2.02179 43.5051 2.02179 42.9192V3.84848C2.02179 2.73737 2.64855 2.0202 3.07312 2.0202H11.9791ZM11.9791 0H3.07312C1.37482 0 0 1.72727 0 3.84848V42.9192C0 44.6162 1.37482 45.9899 3.07312 45.9899H46.3799C48.0782 46 49.453 44.6263 49.453 42.9293V34.0303C49.453 32.3333 48.0782 30.9596 46.3799 30.9596H15.3151L15.0623 30.9495V3.84848C15.0623 1.72727 13.6875 0 11.9892 0H11.9791Z" fill="#231F20"/>
<path d="M65.9508 2.03027C66.3855 2.03027 67.0021 2.73734 67.0021 3.85856V32.9798H86.9269C87.5031 32.9798 87.9782 33.4545 87.9782 34.0303V42.9293C87.9782 43.505 87.5031 43.9798 86.9269 43.9798H57.0448C56.4585 43.9798 55.9935 43.505 55.9935 42.9293V3.85856C55.9935 2.74744 56.6203 2.03027 57.0448 2.03027H65.9508ZM65.9508 0.0100708H57.0448C55.3465 0.0100708 53.9717 1.73734 53.9717 3.85856V42.9293C53.9717 44.6262 55.3465 46 57.0448 46H86.9269C88.6252 46 90 44.6262 90 42.9293V34.0303C90 32.3333 88.6252 30.9596 86.9269 30.9596H69.0239V3.85856C69.0239 1.73734 67.6491 0.0100708 65.9508 0.0100708Z" fill="#231F20"/>
<path d="M46.6427 2.03027H46.7944H66.335C66.709 2.03027 67.0325 2.39391 67.0325 2.82825V12.5151C67.0325 12.9495 66.7191 13.3131 66.335 13.3131H47.4818V42.404C47.4818 43.3636 46.9561 43.9697 46.6832 43.9697H37.7772C37.5042 43.9697 36.9786 43.3535 36.9786 42.404V13.3232H22.3004C21.9263 13.3232 21.6028 12.9596 21.6028 12.5252V2.82825C21.6028 2.39391 21.9162 2.03027 22.3004 2.03027H46.6427ZM46.7944 0.0100708H22.3004C20.8042 0.0100708 19.5811 1.2727 19.5811 2.82825V12.5151C19.5811 14.0707 20.7941 15.3333 22.3004 15.3333H34.9568V42.404C34.9568 44.3838 36.2204 45.9899 37.7772 45.9899H46.6832C48.2399 45.9899 49.5036 44.3838 49.5036 42.404V15.3434H66.335C67.8311 15.3434 69.0543 14.0808 69.0543 12.5252V2.82825C69.0543 1.2727 67.8412 0.0100708 66.335 0.0100708H46.7944Z" fill="#231F20"/>
</g>
<defs>
<clipPath id="clip0_5_181">
<rect width="90" height="46" fill="white"/>
</clipPath>
</defs>
</svg>
