<svg width="486" height="290" viewBox="0 0 486 290" fill="none" xmlns="http://www.w3.org/2000/svg">
<g clip-path="url(#clip0_797_531)">
<path d="M233.001 252.011H5.6958V289.991H233.001V252.011Z" fill="#C2CDE1"/>
<path d="M232.275 245.921H116.419V252.011H232.275V245.921Z" fill="#566580"/>
<path fill-rule="evenodd" clip-rule="evenodd" d="M101.399 147.421C104.755 148.464 106.65 152.065 105.617 155.436L94.7633 190.884L83.4058 187.36L94.5242 151.056C95.4123 148.156 98.5122 146.531 101.407 147.421H101.399Z" fill="#F9C9B3"/>
<path fill-rule="evenodd" clip-rule="evenodd" d="M169.399 127.447L140.501 87.9958C137.683 81.5631 137.888 76.482 140.458 72.4445L138.195 71.8286C134.079 76.5162 132.303 81.9737 135.223 88.9881L154.557 129.603C156.282 136.763 160.782 139.748 164.924 139.046C169.236 138.319 173.37 132.853 169.407 127.439L169.399 127.447Z" fill="#F9C9B3"/>
<path fill-rule="evenodd" clip-rule="evenodd" d="M120.296 199.866C123.644 201.97 128.102 200.952 130.202 197.599L167.597 137.951C169.698 134.598 168.681 130.133 165.334 128.029C161.986 125.924 157.529 126.942 155.428 130.295L118.033 189.943C115.933 193.296 116.949 197.761 120.296 199.866Z" fill="#F9C9B3"/>
<path fill-rule="evenodd" clip-rule="evenodd" d="M120.296 199.866C124.301 202.389 129.638 201.166 132.149 197.154L147.742 172.279L133.174 163.118L117.581 187.993C115.062 192.005 116.283 197.351 120.288 199.866H120.296Z" fill="#034585"/>
<path fill-rule="evenodd" clip-rule="evenodd" d="M116.42 251.9L130.706 208.839C133.097 201.79 136.624 194.579 132.619 186.804C128.887 179.558 123.533 181.5 117.581 181.5H47.608C42.1598 181.5 37.7021 187.043 37.7021 193.818C37.7021 197.334 38.9062 200.524 40.8191 202.774L60.3319 252.011L116.42 251.892V251.9Z" fill="#034585"/>
<path fill-rule="evenodd" clip-rule="evenodd" d="M77.4963 181.432H102.782C99.9468 185.888 95.344 188.788 90.1348 188.788C84.9257 188.788 80.3229 185.888 77.4878 181.432H77.4963Z" fill="#F9C9B3"/>
<path fill-rule="evenodd" clip-rule="evenodd" d="M100.109 162.732L105.771 152.262L106.334 164.666L100.109 162.732Z" fill="#F9C9B3"/>
<path fill-rule="evenodd" clip-rule="evenodd" d="M97.197 153.802H97.1628L96.4113 156.214C95.4037 158.319 93.3798 159.901 90.519 159.354L92.671 152.399H92.6539C94.0117 147.994 98.5462 145.488 102.765 146.796C104.105 147.215 105.301 148.028 106.249 149.089C105.335 150.415 103.38 152.784 101.057 152.066C99.366 151.544 97.8374 152.331 97.197 153.802Z" fill="#001E60"/>
<path fill-rule="evenodd" clip-rule="evenodd" d="M185.12 179.729L161.184 252.011H233.001L256.937 179.729H185.12Z" fill="#566580"/>
<path d="M309.609 230.481H270.942V290H309.609V230.481Z" fill="#034585"/>
<path d="M363.442 182.39H324.775V290H363.442V182.39Z" fill="#C2CDE1"/>
<path d="M417.275 112.768H378.608V290H417.275V112.768Z" fill="#034585"/>
<path fill-rule="evenodd" clip-rule="evenodd" d="M5.69587 290C2.2032 286.844 0 282.267 0 277.177C0 272.088 2.19466 267.52 5.69587 264.355C2.2032 261.198 0 256.622 0 251.532C0 242.003 7.7112 234.279 17.2242 234.279C26.7373 234.279 34.4485 242.003 34.4485 251.532C34.4485 256.622 32.2538 261.19 28.7526 264.355C32.2538 267.511 34.4485 272.088 34.4485 277.177C34.4485 282.267 32.2538 286.835 28.7526 290H5.69587Z" fill="#F7F7EF"/>
<path fill-rule="evenodd" clip-rule="evenodd" d="M5.63632 127.276L40.8704 93.376C44.7474 87.525 45.4135 82.4781 43.5775 78.0642L45.9173 77.8418C49.1623 83.171 49.9906 88.8509 45.9087 95.2579L19.9059 131.955C16.9768 138.713 12.0324 140.877 8.07863 139.482C3.95404 138.028 0.820028 131.929 5.6534 127.276H5.63632Z" fill="#F9C9B3"/>
<path fill-rule="evenodd" clip-rule="evenodd" d="M52.5097 199.866C49.1622 201.97 44.7046 200.952 42.6039 197.599L5.20927 137.943C3.10854 134.59 4.12475 130.125 7.47224 128.02C10.8197 125.916 15.2774 126.934 17.3781 130.287L54.7727 189.935C56.8734 193.288 55.8572 197.753 52.5097 199.857V199.866Z" fill="#F9C9B3"/>
<path fill-rule="evenodd" clip-rule="evenodd" d="M52.5095 199.866C48.5045 202.389 43.1673 201.166 40.6567 197.154L25.0635 172.279L39.6319 163.118L55.2251 187.993C57.7443 192.005 56.5231 197.351 52.5181 199.866H52.5095Z" fill="#034585"/>
<path d="M132.74 104.477C142.694 82.269 132.791 56.1821 110.621 46.2106C88.4502 36.2391 62.4076 46.159 52.453 68.3673C42.4985 90.5757 52.4015 116.663 74.5721 126.634C96.7427 136.606 122.785 126.686 132.74 104.477Z" fill="#E9B317"/>
<path d="M104.925 93.4018C104.925 92.0417 104.711 90.8783 104.319 89.8946C103.926 88.9194 103.396 88.0897 102.722 87.3883C102.064 86.7039 101.304 86.1137 100.476 85.6347C99.6475 85.1471 98.7936 84.7194 97.9055 84.3601C97.0259 83.9923 96.1805 83.633 95.3522 83.2994V76.9865C96.0268 77.2089 96.6075 77.5767 97.0771 78.0729C97.5554 78.5605 97.9396 79.2191 98.2471 80.0318L104.549 76.3364C103.934 74.9678 103.174 73.813 102.244 72.8635C101.321 71.9225 100.279 71.1783 99.1181 70.6308C97.9482 70.0834 96.7014 69.7241 95.3522 69.553V65.3872H92.0815V69.4589C90.8348 69.5787 89.6392 69.8524 88.5035 70.3143C87.3677 70.7677 86.3515 71.3922 85.4719 72.1962C84.5753 73.0003 83.8665 73.9755 83.3541 75.1303C82.8332 76.2936 82.5685 77.6281 82.5599 79.1421C82.5599 80.391 82.7478 81.4945 83.0979 82.4526C83.4481 83.4021 83.9263 84.2489 84.5326 84.9589C85.1389 85.686 85.822 86.3105 86.5906 86.8408C87.3592 87.3797 88.1619 87.8502 88.9988 88.2522C89.8356 88.6457 90.6725 89.0135 91.4923 89.3386C91.5862 89.3814 91.6887 89.4241 91.7997 89.4584C91.9107 89.4926 92.0132 89.5268 92.1071 89.5781V96.0364C91.0653 95.8482 90.1857 95.4291 89.4684 94.7704C88.7511 94.1118 88.1533 93.2307 87.6666 92.1016L81.2192 95.8397C81.7914 97.3366 82.577 98.6283 83.6188 99.7147C84.6436 100.801 85.8733 101.656 87.3079 102.289C88.7426 102.914 90.3309 103.299 92.0986 103.419V107.49H95.3692V103.376C96.7612 103.213 98.0421 102.88 99.2035 102.366C100.373 101.862 101.381 101.186 102.235 100.348C103.089 99.5094 103.755 98.5086 104.216 97.3452C104.694 96.1904 104.925 94.8816 104.934 93.4189L104.925 93.4018ZM90.032 79.1849C90.032 78.6118 90.2028 78.1242 90.5529 77.7222C90.8945 77.3116 91.4069 77.0207 92.0901 76.8497V81.7597C91.5521 81.4517 91.1336 81.1524 90.8262 80.8701C90.5273 80.5878 90.3224 80.3141 90.2028 80.0403C90.0833 79.758 90.0235 79.4758 90.032 79.1849ZM95.3522 95.9338V90.9297C96.0524 91.2718 96.5819 91.6396 96.932 92.0331C97.2821 92.4352 97.4529 92.9228 97.4529 93.4959C97.4529 93.8295 97.3931 94.1545 97.2565 94.471C97.1284 94.7875 96.9064 95.0698 96.5989 95.3264C96.2915 95.5831 95.8731 95.7798 95.3436 95.9252L95.3522 95.9338Z" fill="white"/>
<path d="M363.451 0H187.093V119.483H363.451V0Z" fill="#F7F7EF"/>
<path d="M211.276 91.3062H338.968" stroke="#B2B2B2" stroke-width="0.48" stroke-miterlimit="22.93"/>
<path d="M211.276 91.3059V24.1821" stroke="#B2B2B2" stroke-width="0.48" stroke-miterlimit="22.93"/>
<path fill-rule="evenodd" clip-rule="evenodd" d="M230.969 79.9123L211.276 91.3063V80.8532L230.969 69.4678V79.9123Z" fill="#04315B"/>
<path fill-rule="evenodd" clip-rule="evenodd" d="M230.969 79.9123L250.661 79.9551V69.502L230.969 69.4678V79.9123Z" fill="#034585"/>
<path fill-rule="evenodd" clip-rule="evenodd" d="M284.392 57.2011L250.661 79.9806V69.5275L284.392 46.748V57.2011Z" fill="#04315B"/>
<path fill-rule="evenodd" clip-rule="evenodd" d="M284.392 57.2012L318.123 57.1328V46.6797L284.392 46.7481V57.2012Z" fill="#034585"/>
<path fill-rule="evenodd" clip-rule="evenodd" d="M347.448 40.2385L318.123 57.1327V46.6797L347.448 29.7939V40.2385Z" fill="#04315B"/>
<path fill-rule="evenodd" clip-rule="evenodd" d="M116.274 255.21C111.799 255.21 107.402 258.94 108.136 263.362L110.057 274.979C111.202 281.925 122.072 281.625 122.978 274.594L124.421 263.362C124.993 258.914 120.757 255.21 116.283 255.21H116.274Z" fill="#034585"/>
<path fill-rule="evenodd" clip-rule="evenodd" d="M116.325 255.159C111.808 255.159 108.145 258.829 108.145 263.354C108.145 267.879 111.808 271.549 116.325 271.549C120.843 271.549 124.506 267.879 124.506 263.354C124.506 258.829 120.843 255.159 116.325 255.159Z" fill="white"/>
<path d="M116.49 269.129C120.37 269.026 123.433 265.793 123.331 261.906C123.228 258.019 120 254.951 116.12 255.054C112.24 255.156 109.177 258.39 109.279 262.277C109.382 266.164 112.61 269.231 116.49 269.129Z" fill="#E5E5E5"/>
<path fill-rule="evenodd" clip-rule="evenodd" d="M116.539 256.656C115.788 256.656 115.173 257.272 115.173 258.025C115.173 258.778 115.788 259.394 116.539 259.394C117.291 259.394 117.906 258.778 117.906 258.025C117.906 257.272 117.291 256.656 116.539 256.656Z" fill="#1F1F1F"/>
<path fill-rule="evenodd" clip-rule="evenodd" d="M65.9082 276.254L67.3855 279.308L68.8714 276.254V258.812H67.3855H65.9082V276.254Z" fill="#E9B317"/>
<path fill-rule="evenodd" clip-rule="evenodd" d="M67.3853 260.3C68.2051 260.3 68.8712 259.633 68.8712 258.812C68.8712 257.99 68.2051 257.323 67.3853 257.323C66.5655 257.323 65.8994 257.99 65.8994 258.812C65.8994 259.633 66.5655 260.3 67.3853 260.3Z" fill="#4D4D4D"/>
<path fill-rule="evenodd" clip-rule="evenodd" d="M68.82 276.253L67.3853 279.307L65.9507 276.253C66.1215 276.904 66.7107 277.357 67.3853 277.357C68.0599 277.357 68.6406 276.904 68.82 276.253Z" fill="#4D4D4D"/>
</g>
<defs>
<clipPath id="clip0_797_531">
<rect width="488" height="290" fill="white"/>
</clipPath>
</defs>
</svg>
