<svg width="442" height="303" viewBox="0 0 442 303" fill="none" xmlns="http://www.w3.org/2000/svg">
<g clip-path="url(#clip0_797_861)">
<path fill-rule="evenodd" clip-rule="evenodd" d="M300.025 195.441C339.272 195.441 371.088 227.229 371.088 266.441C371.088 279.816 367.385 292.32 360.952 303H239.099C232.665 292.32 228.962 279.816 228.962 266.441C228.962 227.229 260.779 195.441 300.025 195.441Z" fill="#04315B"/>
<path fill-rule="evenodd" clip-rule="evenodd" d="M291.698 159.008C293.047 157.484 295.728 158.263 297.143 159.142C301.466 161.828 305.738 165.118 310.84 174.082L308.628 175.663C306.157 171.956 298.794 167.428 293.826 164.866C290.425 163.544 290.065 160.866 291.707 159.016L291.698 159.008Z" fill="#F9C9B3"/>
<path fill-rule="evenodd" clip-rule="evenodd" d="M241.118 140.611C242.642 137.28 246.63 135.799 249.955 137.33L295.267 158.229C295.728 158.455 296.155 158.681 296.549 158.899L293.818 164.858C293.642 164.808 293.466 164.758 293.298 164.691L244.401 149.441C240.9 148.353 239.593 143.942 241.118 140.611Z" fill="#F9C9B3"/>
<path fill-rule="evenodd" clip-rule="evenodd" d="M315.623 165.109C315.255 163.075 312.197 162.171 310.295 162.079C304.49 161.795 298.35 162.029 287.954 166.457L289.118 169.034C293.767 167.411 303.636 167.938 309.994 168.708C314.082 169.578 316.067 167.586 315.623 165.117V165.109Z" fill="#F9C9B3"/>
<path fill-rule="evenodd" clip-rule="evenodd" d="M375.637 179.179C376.207 175.563 373.275 172.039 369.128 171.378L312.658 162.406C312.072 162.322 311.527 162.264 311.016 162.213L310.002 168.692C310.203 168.75 310.405 168.809 310.606 168.859L367.076 184.544C371.122 185.665 375.076 182.794 375.645 179.179H375.637Z" fill="#F9C9B3"/>
<path fill-rule="evenodd" clip-rule="evenodd" d="M320.046 166.825C319.653 169.051 317.525 170.541 315.288 170.139C313.06 169.746 311.569 167.62 311.971 165.385C312.365 163.159 314.492 161.669 316.729 162.071C318.957 162.464 320.448 164.59 320.046 166.825Z" fill="#04315B"/>
<path fill-rule="evenodd" clip-rule="evenodd" d="M243.421 214.181L240.556 143.766C240.414 140.209 243.204 137.188 246.764 137.054C250.324 136.92 253.357 139.724 253.499 143.273L256.364 213.687C256.506 217.244 253.717 220.266 250.157 220.399C246.596 220.533 243.564 217.729 243.421 214.181Z" fill="#F9C9B3"/>
<path fill-rule="evenodd" clip-rule="evenodd" d="M243.429 214.424L241.846 175.496L254.814 175.58L256.372 213.938C256.514 217.361 253.717 220.274 250.156 220.408C246.596 220.542 243.572 217.847 243.429 214.424Z" fill="#034585"/>
<path fill-rule="evenodd" clip-rule="evenodd" d="M249.042 263.168H309.475V285.457C309.475 292.806 306.375 298.723 301.584 303H256.925C252.142 298.723 249.042 292.806 249.042 285.457V263.168Z" fill="#001E60"/>
<path fill-rule="evenodd" clip-rule="evenodd" d="M249.025 263.052L243.413 217.487C242.969 213.88 245.222 209.159 248.548 206.657C251.656 204.313 255.987 204.028 259.254 204.765L322.216 218.918C329.328 220.517 332.168 224.258 332.26 228.694C332.352 233.163 328.557 237.591 325.718 242.956L307.941 276.56L249.025 263.06V263.052Z" fill="#034585"/>
<path fill-rule="evenodd" clip-rule="evenodd" d="M303.409 167.042C306.333 167.745 308.151 170.717 307.447 173.638L297.52 214.817C296.817 217.738 293.843 219.554 290.919 218.851C287.996 218.148 286.178 215.177 286.881 212.255L296.808 171.077C297.512 168.156 300.486 166.339 303.409 167.042Z" fill="#F9C9B3"/>
<path fill-rule="evenodd" clip-rule="evenodd" d="M302.865 169.93L298.769 167.176C302.195 165.084 306.66 166.163 308.754 169.578C310.848 173.002 309.768 177.463 306.35 179.555C302.689 176.91 301.181 172.851 302.857 169.93H302.865Z" fill="#001E60"/>
<path fill-rule="evenodd" clip-rule="evenodd" d="M295.686 180.828L297.797 169.026L290.115 179.488L295.686 180.828Z" fill="#F9C9B3"/>
<path fill-rule="evenodd" clip-rule="evenodd" d="M265.964 303L166.905 245.266C160.053 241.273 158.067 234.954 160.455 231.071C162.792 227.263 167.617 224.793 176.346 229.02L281.42 278.92C289.738 282.946 290.308 290.981 287.585 297.551C286.731 299.602 285.55 301.502 284.042 303.017H265.964V303Z" fill="#A3A4A5"/>
<path fill-rule="evenodd" clip-rule="evenodd" d="M240.288 303L157.707 283.047C150.092 281.205 146.431 275.798 147.588 271.446C148.718 267.186 152.58 263.478 162.038 265.01L275.556 282.486C284.561 283.942 287.384 291.383 286.664 298.363C286.496 299.97 286.136 301.544 285.558 303.008H240.288V303Z" fill="#001E60"/>
<path d="M307.437 103.361C334.865 98.9127 353.49 73.0915 349.038 45.6876C344.586 18.2838 318.742 -0.325319 291.314 4.12295C263.886 8.57121 245.261 34.3924 249.713 61.7962C254.165 89.2001 280.009 107.809 307.437 103.361Z" fill="#E9B317"/>
<path d="M309.458 54.0848C310.17 55.1729 310.748 56.3781 311.192 57.7005C311.636 59.0229 311.829 60.5211 311.778 62.1783C311.728 63.8439 311.326 65.3839 310.58 66.8151C309.701 68.5477 308.361 69.9789 306.576 71.1172C304.792 72.2554 302.865 72.8915 300.788 73.0254H300.587L300.536 75.9799L298.141 75.9297L298.191 72.8748C297.311 72.7409 296.373 72.4982 295.384 72.1634C291.07 70.5982 287.418 67.6688 284.427 63.3501L288.658 60.3956C291.037 63.8271 293.86 66.1288 297.119 67.3173C297.529 67.4512 297.914 67.5684 298.291 67.6772L298.492 52.754C296.926 52.1096 295.602 51.3647 294.513 50.5109C293.424 49.6656 292.561 48.4771 291.916 46.9455C290.794 44.2337 290.794 41.6976 291.916 39.3625C292.561 38.0066 293.508 36.8851 294.748 35.9979C295.988 35.1191 297.336 34.6085 298.802 34.4662L298.853 31.5117H301.248L301.198 34.5667C302.388 34.801 303.502 35.2781 304.541 35.9895C305.579 36.7009 306.459 37.6132 307.188 38.7097C307.917 39.8145 308.419 41.0281 308.687 42.3505L303.644 43.3716C303.301 41.7395 302.471 40.5845 301.148 39.9065L300.997 48.2093C300.997 48.2093 301.165 48.2595 301.408 48.3599C302.287 48.7031 302.991 48.9877 303.493 49.222C304.004 49.4564 304.658 49.8079 305.454 50.2682C306.25 50.7286 306.987 51.2726 307.649 51.9003C308.31 52.528 308.913 53.2478 309.458 54.0681V54.0848ZM298.601 47.1128L298.702 39.7308C297.713 40.0404 297.001 40.6514 296.557 41.5637C296.08 42.5514 296.113 43.7064 296.658 45.0288C297.035 45.8741 297.68 46.5772 298.593 47.1128H298.601ZM306.04 64.48C306.585 63.1576 306.752 61.8435 306.551 60.5378C306.35 59.2322 305.889 58.0353 305.177 56.9472C304.298 55.6248 302.865 54.5535 300.897 53.7416L300.696 67.8948C301.751 67.7609 302.773 67.401 303.778 66.8235C304.784 66.246 305.537 65.4676 306.048 64.48H306.04Z" fill="white"/>
<path fill-rule="evenodd" clip-rule="evenodd" d="M299.372 120.373C301.156 120.373 302.614 118.917 302.614 117.134C302.614 115.351 301.156 113.895 299.372 113.895C297.587 113.895 296.13 115.351 296.13 117.134C296.13 118.917 297.587 120.373 299.372 120.373Z" fill="#C2CDE1"/>
<path fill-rule="evenodd" clip-rule="evenodd" d="M316.662 230.167L364.613 174.165C366.925 171.462 371.038 171.144 373.744 173.454C376.449 175.764 376.768 179.873 374.456 182.577L326.505 238.578C324.193 241.282 320.08 241.6 317.374 239.29C314.668 236.98 314.35 232.87 316.662 230.167Z" fill="#F9C9B3"/>
<path fill-rule="evenodd" clip-rule="evenodd" d="M316.662 230.167L342.991 199.425L352.449 208.288L326.505 238.587C324.193 241.29 320.08 241.608 317.374 239.298C314.668 236.988 314.35 232.879 316.662 230.175V230.167Z" fill="#034585"/>
<path fill-rule="evenodd" clip-rule="evenodd" d="M68.1561 238.269C67.243 240.713 64.043 239.943 62.6273 239.382C61.2115 238.821 62.4011 239.29 62.2922 239.24C60.8932 238.654 56.1769 236.695 55.5067 236.427C53.9486 235.716 53.5549 234.787 53.9318 233.707L61.7393 212.934L62.7613 213.335C61.5466 218.257 58.0366 225.723 64.3529 232.268C65.5844 233.548 69.9153 233.582 68.1561 238.277V238.269Z" fill="#F9C9B3"/>
<path fill-rule="evenodd" clip-rule="evenodd" d="M157.104 279.791L59.8457 238.218L62.895 230.493C63.3976 231.104 64.2437 232.226 66.9076 233.046L163.076 262.633C175.734 266.525 170.122 285.357 157.104 279.791Z" fill="#A3A4A5"/>
<path d="M84.575 76.0972H81.8608V108.295H84.575V76.0972Z" fill="#04315B"/>
<path d="M95.9764 62.6807H93.2622V108.296H95.9764V62.6807Z" fill="#04315B"/>
<path d="M107.386 49.2642H104.672V108.296H107.386V49.2642Z" fill="#04315B"/>
<path d="M118.795 35.8477H116.081V108.296H118.795V35.8477Z" fill="#04315B"/>
<path d="M130.205 22.4307H127.491V108.295H130.205V22.4307Z" fill="#04315B"/>
<path d="M141.615 9.01416H138.9V108.296H141.615V9.01416Z" fill="#E9B317"/>
<path d="M66.0784 0.594249L68.4408 4.24344L67.6701 4.74562L66.1538 2.41047V120.331H174.738L172.4 118.816L172.903 118.046L176.547 120.407L177.15 120.792L176.547 121.185L172.903 123.545L172.652 123.16L172.4 122.775L174.738 121.26H65.6931H65.2323V120.792V2.41047L63.7077 4.74562L63.3224 4.49453L62.937 4.24344L65.2993 0.594249L65.6931 0L66.0784 0.594249Z" fill="#04315B"/>
<path d="M442 259.478H0V303H442V259.478Z" fill="#04315B"/>
<path fill-rule="evenodd" clip-rule="evenodd" d="M72.8556 254.757C73.3248 257.318 70.1833 258.297 68.6838 258.548C67.1843 258.791 68.4409 258.582 68.3236 258.599C66.8241 258.816 61.7728 259.553 61.0607 259.662C59.3602 259.854 58.5476 259.252 58.313 258.13L54.3423 236.293L55.4229 236.118C56.9057 240.964 57.735 249.174 66.5142 251.551C68.2315 252.012 71.9677 249.827 72.864 254.757H72.8556Z" fill="#F9C9B3"/>
<path fill-rule="evenodd" clip-rule="evenodd" d="M170.532 244.789L65.7096 258.967L64.3525 250.773C65.0981 251.041 66.4049 251.568 69.1107 250.907L166.846 227.003C179.713 223.856 184.564 242.897 170.532 244.789Z" fill="#A3A4A5"/>
<path d="M131.294 221.889L123.185 250.02V250.053C122.657 251.552 122.397 252.874 122.389 254.004C122.389 254.849 122.515 255.569 122.791 256.172C123.068 256.766 123.478 257.235 124.039 257.578C124.71 257.988 125.572 258.206 126.636 258.231H139.244V259.486H126.636C125.438 259.461 124.441 259.202 123.662 258.716C122.925 258.264 122.372 257.628 122.004 256.833C121.635 256.038 121.459 255.084 121.468 253.996C121.476 252.698 121.769 251.208 122.339 249.551L130.439 221.446L131.319 221.889H131.294Z" fill="#C2CDE1"/>
<path fill-rule="evenodd" clip-rule="evenodd" d="M68.0054 150.512H166.419L183.45 222.358H85.036L68.0054 150.512Z" fill="#C2CDE1"/>
<path fill-rule="evenodd" clip-rule="evenodd" d="M133.43 150.512H151.977L126.846 210.297H108.291L133.43 150.512Z" fill="white"/>
<path fill-rule="evenodd" clip-rule="evenodd" d="M124.793 150.512H130.239L105.107 210.297H99.6538L124.793 150.512Z" fill="white"/>
<path fill-rule="evenodd" clip-rule="evenodd" d="M117.564 199.869H118.712L122.347 213.444H121.208L117.564 199.869Z" fill="#034585"/>
<path fill-rule="evenodd" clip-rule="evenodd" d="M120.856 194.21H122.004L127.164 213.444H126.016L120.856 194.21Z" fill="#034585"/>
<path fill-rule="evenodd" clip-rule="evenodd" d="M124.148 188.553H125.296L131.973 213.444H130.825L124.148 188.553Z" fill="#034585"/>
<path fill-rule="evenodd" clip-rule="evenodd" d="M127.44 182.895H128.588L136.781 213.444H135.633L127.44 182.895Z" fill="#034585"/>
<path fill-rule="evenodd" clip-rule="evenodd" d="M130.741 177.237H131.88L141.59 213.444H140.45L130.741 177.237Z" fill="#034585"/>
<path fill-rule="evenodd" clip-rule="evenodd" d="M134.033 171.579H135.172L146.406 213.444H145.258L134.033 171.579Z" fill="#034585"/>
<path d="M102.644 167.779L116.173 218.232H162.674V219.203H115.805H115.428L115.336 218.843L101.706 168.03L102.644 167.779Z" fill="#034585"/>
<path fill-rule="evenodd" clip-rule="evenodd" d="M170.566 264.667H185.377V290.228H170.566C169.921 290.228 169.393 289.399 169.393 288.755V265.839C169.393 265.194 169.921 264.667 170.566 264.667Z" fill="#F7F7EF"/>
<path fill-rule="evenodd" clip-rule="evenodd" d="M170.868 287.407H185.385V290.228H170.868C168.899 290.228 168.899 287.407 170.868 287.407Z" fill="#034585"/>
<path fill-rule="evenodd" clip-rule="evenodd" d="M203.555 272.534L198.369 275.053L203.555 277.573H233.184V275.053V272.534H203.555Z" fill="#9AAACF"/>
<path fill-rule="evenodd" clip-rule="evenodd" d="M230.663 275.053C230.663 276.443 231.794 277.573 233.185 277.573C234.575 277.573 235.706 276.443 235.706 275.053C235.706 273.664 234.575 272.534 233.185 272.534C231.794 272.534 230.663 273.664 230.663 275.053Z" fill="#001E60"/>
<path fill-rule="evenodd" clip-rule="evenodd" d="M203.555 277.489L198.361 275.054L203.555 272.618C202.449 272.911 201.687 273.915 201.687 275.054C201.687 276.192 202.457 277.196 203.555 277.489Z" fill="#001E60"/>
<path fill-rule="evenodd" clip-rule="evenodd" d="M406.171 271.781C403.373 274.3 401.623 277.941 401.623 282.001C401.623 289.6 407.788 295.76 415.394 295.76C423.001 295.76 429.166 289.6 429.166 282.001C429.166 277.941 427.407 274.3 424.618 271.781C427.416 269.262 429.166 265.621 429.166 261.562C429.166 257.502 427.407 253.862 424.618 251.342C427.416 248.823 429.166 245.182 429.166 241.123C429.166 237.064 427.407 233.423 424.618 230.904C427.416 228.384 429.166 224.743 429.166 220.684C429.166 213.084 423.001 206.924 415.394 206.924C407.788 206.924 401.623 213.084 401.623 220.684C401.623 224.743 403.382 228.384 406.171 230.904C403.373 233.423 401.623 237.064 401.623 241.123C401.623 245.182 403.382 248.823 406.171 251.342C403.373 253.862 401.623 257.502 401.623 261.562C401.623 265.621 403.382 269.262 406.171 271.781Z" fill="#C2CDE1"/>
<path fill-rule="evenodd" clip-rule="evenodd" d="M299.372 131.145C301.156 131.145 302.614 129.688 302.614 127.906C302.614 126.123 301.156 124.667 299.372 124.667C297.587 124.667 296.13 126.123 296.13 127.906C296.13 129.688 297.587 131.145 299.372 131.145Z" fill="#C2CDE1"/>
<path fill-rule="evenodd" clip-rule="evenodd" d="M299.372 142.327C301.156 142.327 302.614 140.87 302.614 139.088C302.614 137.305 301.156 135.849 299.372 135.849C297.587 135.849 296.13 137.305 296.13 139.088C296.13 140.87 297.587 142.327 299.372 142.327Z" fill="#C2CDE1"/>
<path d="M361.577 290.009C365.37 281.002 361.137 270.628 352.122 266.838C343.107 263.048 332.724 267.278 328.931 276.285C325.138 285.292 329.371 295.666 338.386 299.455C347.4 303.245 357.784 299.016 361.577 290.009Z" fill="#EDEDE8"/>
<path fill-rule="evenodd" clip-rule="evenodd" d="M345.228 259.118C339.833 259.118 335.427 263.529 335.427 268.91V282.863C335.427 288.253 339.841 292.655 345.228 292.655C350.623 292.655 355.029 288.244 355.029 282.863V268.91C355.029 263.52 350.614 259.118 345.228 259.118Z" fill="#9AAACF"/>
<path fill-rule="evenodd" clip-rule="evenodd" d="M345.295 259.16C339.908 259.16 335.552 263.52 335.552 268.894C335.552 274.267 339.917 278.628 345.295 278.628C350.673 278.628 355.037 274.267 355.037 268.894C355.037 263.52 350.673 259.16 345.295 259.16Z" fill="#EDEDE8"/>
<path fill-rule="evenodd" clip-rule="evenodd" d="M335.929 271.597C337.102 275.665 340.847 278.636 345.295 278.636C349.743 278.636 353.488 275.665 354.66 271.597C353.488 267.529 349.743 264.558 345.295 264.558C340.847 264.558 337.102 267.529 335.929 271.597Z" fill="#E65E30"/>
<path d="M347.021 235.825C347.9 236.846 348.503 237.8 348.88 238.712C349.274 239.641 349.433 240.528 349.433 241.374C349.433 242.37 349.215 243.299 348.88 244.186C348.554 245.048 348.126 245.877 347.699 246.697C346.87 248.254 346.149 249.961 346.024 251.576C345.906 253.125 346.35 254.615 347.85 255.845L347.473 256.582C345.714 255.134 345.194 253.359 345.337 251.501C345.479 249.71 346.25 247.877 347.129 246.212C347.548 245.425 347.959 244.63 348.26 243.818C348.554 243.031 348.746 242.219 348.746 241.382C348.746 240.671 348.604 239.926 348.269 239.122C347.925 238.294 347.372 237.415 346.56 236.478L347.029 235.833L347.021 235.825Z" fill="white"/>
<path d="M342.715 235.825C343.594 236.846 344.198 237.8 344.575 238.712C344.968 239.641 345.127 240.528 345.127 241.374C345.127 242.37 344.91 243.299 344.575 244.186C344.248 245.048 343.821 245.877 343.393 246.697C342.564 248.254 341.844 249.961 341.718 251.576C341.601 253.125 342.045 254.615 343.544 255.845L343.167 256.582C341.408 255.134 340.889 253.359 341.031 251.501C341.174 249.71 341.944 247.877 342.824 246.212C343.243 245.425 343.653 244.63 343.955 243.818C344.248 243.031 344.441 242.219 344.441 241.382C344.441 240.671 344.298 239.926 343.963 239.122C343.62 238.294 343.067 237.415 342.254 236.478L342.723 235.833L342.715 235.825Z" fill="white"/>
</g>
<defs>
<clipPath id="clip0_797_861">
<rect width="442" height="303" fill="white"/>
</clipPath>
</defs>
</svg>
