<svg width="295" height="420" viewBox="0 0 295 420" fill="none" xmlns="http://www.w3.org/2000/svg">
<g clip-path="url(#clip0_797_654)">
<path d="M295 158.724H0V271.995H295V158.724Z" fill="#C6D1E5"/>
<path d="M295 158.724H0V271.995H295V158.724Z" fill="#C2CDE1"/>
<path d="M295 272.003H0V367.341H295V272.003Z" fill="#91B6A5"/>
<path d="M295 272.003H0V367.341H295V272.003Z" fill="#04315B"/>
<path fill-rule="evenodd" clip-rule="evenodd" d="M215.374 186.964C223.738 196.231 235.847 202.051 249.315 202.051C274.546 202.051 295 181.618 295 156.416C295 131.213 274.546 110.781 249.315 110.781C235.847 110.781 223.738 116.6 215.374 125.868C207.009 116.6 194.901 110.781 181.432 110.781C167.963 110.781 155.855 116.6 147.491 125.868C139.126 116.6 127.018 110.781 113.549 110.781C100.08 110.781 87.9722 116.6 79.6078 125.868C71.2434 116.6 59.1351 110.781 45.6662 110.781C20.4361 110.781 -0.0183105 131.213 -0.0183105 156.416C-0.0183105 181.618 20.4361 202.051 45.6662 202.051C59.1351 202.051 71.2434 196.231 79.6078 186.964C87.9722 196.231 100.08 202.051 113.549 202.051C127.018 202.051 139.126 196.231 147.491 186.964C155.855 196.231 167.963 202.051 181.432 202.051C194.901 202.051 207.009 196.231 215.374 186.964Z" fill="#DAE1EE"/>
<path fill-rule="evenodd" clip-rule="evenodd" d="M215.374 186.964C223.738 196.231 235.847 202.051 249.315 202.051C274.546 202.051 295 181.618 295 156.416C295 131.213 274.546 110.781 249.315 110.781C235.847 110.781 223.738 116.6 215.374 125.868C207.009 116.6 194.901 110.781 181.432 110.781C167.963 110.781 155.855 116.6 147.491 125.868C139.126 116.6 127.018 110.781 113.549 110.781C100.08 110.781 87.9722 116.6 79.6078 125.868C71.2434 116.6 59.1351 110.781 45.6662 110.781C20.4361 110.781 -0.0183105 131.213 -0.0183105 156.416C-0.0183105 181.618 20.4361 202.051 45.6662 202.051C59.1351 202.051 71.2434 196.231 79.6078 186.964C87.9722 196.231 100.08 202.051 113.549 202.051C127.018 202.051 139.126 196.231 147.491 186.964C155.855 196.231 167.963 202.051 181.432 202.051C194.901 202.051 207.009 196.231 215.374 186.964Z" fill="#C2CDE1"/>
<path fill-rule="evenodd" clip-rule="evenodd" d="M215.374 404.913C223.738 414.18 235.847 420 249.315 420C274.546 420 295 399.568 295 374.365C295 349.162 274.546 328.73 249.315 328.73C235.847 328.73 223.738 334.549 215.374 343.817C207.009 334.549 194.901 328.73 181.432 328.73C167.963 328.73 155.855 334.549 147.491 343.817C139.126 334.549 127.018 328.73 113.549 328.73C100.08 328.73 87.9722 334.549 79.6078 343.817C71.2434 334.549 59.1351 328.73 45.6662 328.73C20.4361 328.73 -0.0183105 349.162 -0.0183105 374.365C-0.0183105 399.568 20.4361 420 45.6662 420C59.1351 420 71.2434 414.171 79.6078 404.913C87.9722 414.18 100.08 420 113.549 420C127.018 420 139.126 414.171 147.491 404.913C155.855 414.18 167.963 420 181.432 420C194.901 420 207.009 414.171 215.374 404.913Z" fill="#91B6A5"/>
<path fill-rule="evenodd" clip-rule="evenodd" d="M215.374 404.913C223.738 414.18 235.847 420 249.315 420C274.546 420 295 399.568 295 374.365C295 349.162 274.546 328.73 249.315 328.73C235.847 328.73 223.738 334.549 215.374 343.817C207.009 334.549 194.901 328.73 181.432 328.73C167.963 328.73 155.855 334.549 147.491 343.817C139.126 334.549 127.018 328.73 113.549 328.73C100.08 328.73 87.9722 334.549 79.6078 343.817C71.2434 334.549 59.1351 328.73 45.6662 328.73C20.4361 328.73 -0.0183105 349.162 -0.0183105 374.365C-0.0183105 399.568 20.4361 420 45.6662 420C59.1351 420 71.2434 414.171 79.6078 404.913C87.9722 414.18 100.08 420 113.549 420C127.018 420 139.126 414.171 147.491 404.913C155.855 414.18 167.963 420 181.432 420C194.901 420 207.009 414.171 215.374 404.913Z" fill="#04315B"/>
<path fill-rule="evenodd" clip-rule="evenodd" d="M295 374.365C295 349.162 274.546 328.73 249.315 328.73C235.847 328.73 223.738 334.549 215.374 343.817C207.009 334.549 194.901 328.73 181.432 328.73C167.963 328.73 155.855 334.549 147.491 343.817C139.126 334.549 127.018 328.73 113.549 328.73C100.08 328.73 87.9722 334.549 79.6078 343.817C71.2434 334.549 59.1351 328.73 45.6662 328.73C20.4361 328.73 -0.0183105 349.162 -0.0183105 374.365H294.982H295Z" fill="#F7F7EF"/>
<path fill-rule="evenodd" clip-rule="evenodd" d="M21.8606 375.004C18.6555 377.895 16.6375 382.082 16.6375 386.734C16.6375 395.454 23.7143 402.523 32.444 402.523C41.1736 402.523 48.2505 395.454 48.2505 386.734C48.2505 382.082 46.2324 377.895 43.0273 375.004C46.2324 372.112 48.2505 367.925 48.2505 363.273C48.2505 358.621 46.2324 354.435 43.0273 351.543C46.2324 348.652 48.2505 344.465 48.2505 339.813C48.2505 335.161 46.2324 330.974 43.0273 328.083C46.2324 325.191 48.2505 321.004 48.2505 316.352C48.2505 307.632 41.1736 300.563 32.444 300.563C23.7143 300.563 16.6375 307.632 16.6375 316.352C16.6375 321.004 18.6555 325.191 21.8606 328.083C18.6555 330.974 16.6375 335.161 16.6375 339.813C16.6375 344.465 18.6555 348.652 21.8606 351.543C18.6555 354.435 16.6375 358.621 16.6375 363.273C16.6375 367.925 18.6555 372.112 21.8606 375.004Z" fill="#E9B317"/>
<path fill-rule="evenodd" clip-rule="evenodd" d="M80.2836 133.612H81.8633C84.1096 133.612 85.9359 135.445 85.9359 137.68V160.83H77.0054V136.877C77.0054 135.08 78.4755 133.612 80.2744 133.612H80.2836Z" fill="#E75E30"/>
<path fill-rule="evenodd" clip-rule="evenodd" d="M80.2836 133.612H81.8633C84.1096 133.612 85.9359 135.445 85.9359 137.68V160.83H77.0054V136.877C77.0054 135.08 78.4755 133.612 80.2744 133.612H80.2836Z" fill="#F9C9B3"/>
<path d="M110.125 160.301H107.587C105.03 160.301 102.957 162.372 102.957 164.926V225.128C102.957 227.682 105.03 229.752 107.587 229.752H110.125C112.682 229.752 114.755 227.682 114.755 225.128V164.926C114.755 162.372 112.682 160.301 110.125 160.301Z" fill="#001E60"/>
<path d="M110.125 160.301H107.587C105.03 160.301 102.957 162.372 102.957 164.926V225.128C102.957 227.682 105.03 229.752 107.587 229.752H110.125C112.682 229.752 114.755 227.682 114.755 225.128V164.926C114.755 162.372 112.682 160.301 110.125 160.301Z" fill="#001E60"/>
<path fill-rule="evenodd" clip-rule="evenodd" d="M108.025 219.071L140.487 206.922C140.615 206.876 140.752 206.83 140.88 206.785L141.3 206.447L142.852 213.407L114.198 229.589C109.44 232.27 105.733 231.176 104.217 228.375C102.646 225.466 103.459 220.768 108.007 219.062L108.025 219.071Z" fill="#FFFFCC"/>
<path fill-rule="evenodd" clip-rule="evenodd" d="M108.025 219.071L140.487 206.922C140.615 206.876 140.752 206.83 140.88 206.785L141.3 206.447L142.852 213.407L114.198 229.589C109.44 232.27 105.733 231.176 104.217 228.375C102.646 225.466 103.459 220.768 108.007 219.062L108.025 219.071Z" fill="#F7F7EF"/>
<path fill-rule="evenodd" clip-rule="evenodd" d="M137.099 208.189L140.487 206.922C140.615 206.876 140.752 206.83 140.88 206.785L141.345 206.42L145.19 212.039C144.56 212.486 143.665 212.951 142.861 213.407L140.551 214.711L137.099 208.189Z" fill="white"/>
<path fill-rule="evenodd" clip-rule="evenodd" d="M137.099 208.189L140.487 206.922C140.615 206.876 140.752 206.83 140.88 206.785L141.345 206.42L145.19 212.039C144.56 212.486 143.665 212.951 142.861 213.407L140.551 214.711L137.099 208.189Z" fill="white"/>
<path fill-rule="evenodd" clip-rule="evenodd" d="M141.309 206.456L152.961 197.17L154.486 199.168C153.399 200.673 145.573 211.838 145.135 212.184L141.309 206.456Z" fill="#FE6A6A"/>
<path fill-rule="evenodd" clip-rule="evenodd" d="M141.309 206.456L152.961 197.17L154.486 199.168C153.399 200.673 145.573 211.838 145.135 212.184L141.309 206.456Z" fill="#FE6A6A"/>
<path fill-rule="evenodd" clip-rule="evenodd" d="M101.149 208.582L111.878 179.083C113.677 174.257 116.325 169.314 113.321 163.987C110.518 159.025 106.5 160.356 102.035 160.356H49.5016C45.4107 160.356 42.0686 164.151 42.0686 168.794C42.0686 171.202 42.9726 173.391 44.4063 174.932L59.4001 206.356L101.167 208.582H101.149Z" fill="#001E60"/>
<path fill-rule="evenodd" clip-rule="evenodd" d="M101.149 208.582L111.878 179.083C113.677 174.257 116.325 169.314 113.321 163.987C110.518 159.025 106.5 160.356 102.035 160.356H49.5016C45.4107 160.356 42.0686 164.151 42.0686 168.794C42.0686 171.202 42.9726 173.391 44.4063 174.932L59.4001 206.356L101.167 208.582H101.149Z" fill="#001E60"/>
<path d="M49.0542 162.682H46.5156C43.9587 162.682 41.886 164.753 41.886 167.307V227.509C41.886 230.063 43.9587 232.133 46.5156 232.133H49.0542C51.611 232.133 53.6838 230.063 53.6838 227.509V167.307C53.6838 164.753 51.611 162.682 49.0542 162.682Z" fill="#001E60"/>
<path d="M49.0542 162.682H46.5156C43.9587 162.682 41.886 164.753 41.886 167.307V227.509C41.886 230.063 43.9587 232.133 46.5156 232.133H49.0542C51.611 232.133 53.6838 230.063 53.6838 227.509V167.307C53.6838 164.753 51.611 162.682 49.0542 162.682Z" fill="#001E60"/>
<path fill-rule="evenodd" clip-rule="evenodd" d="M102.3 205.526V211.154C102.3 263.065 99.6606 313.041 96.218 365.143H96.2363C96.0262 367.606 97.3412 369.394 99.277 370.653C99.7153 370.936 100.19 371.2 100.692 371.428C100.72 371.446 100.747 371.455 100.784 371.465C100.839 371.492 100.902 371.519 100.957 371.547C101.012 371.574 101.067 371.592 101.112 371.62H101.14C101.186 371.656 101.24 371.674 101.286 371.693L101.332 371.711C101.377 371.729 101.423 371.747 101.478 371.766L101.532 371.784C101.532 371.784 101.624 371.82 101.669 371.839L101.752 371.866C101.752 371.866 101.825 371.893 101.852 371.902C101.889 371.912 101.925 371.93 101.962 371.939L102.044 371.966C102.044 371.966 102.117 371.994 102.153 372.003C102.19 372.012 102.226 372.03 102.263 372.039L102.363 372.076C102.363 372.076 102.427 372.094 102.464 372.112L102.573 372.149L102.665 372.176C102.71 372.194 102.756 372.203 102.811 372.222L102.857 372.24C102.902 372.258 102.957 372.267 103.003 372.286L103.057 372.304C103.112 372.322 103.158 372.331 103.213 372.349H103.258C103.313 372.377 103.359 372.395 103.414 372.404H103.459C103.514 372.431 103.569 372.45 103.624 372.459H103.651C103.715 372.486 103.779 372.495 103.834 372.514H103.843C103.907 372.532 103.961 372.55 104.025 372.559H104.053C104.117 372.577 104.171 372.596 104.235 372.605H104.254C104.318 372.623 104.372 372.641 104.436 372.65H104.464C104.528 372.669 104.582 372.687 104.646 372.696H104.665C104.728 372.714 104.792 372.723 104.847 372.742H104.865C104.929 372.76 105.002 372.769 105.066 372.787C108.226 373.398 108.144 374.374 105.833 374.338H92.5472C91.7984 374.338 91.1592 373.408 91.1866 372.76C91.1866 372.723 91.1866 372.687 91.1866 372.641V372.568C91.1866 372.495 91.1866 372.413 91.1866 372.322V372.231C91.1866 372.067 91.1866 371.884 91.1683 371.684V371.656V371.647C91.1683 371.528 91.1683 371.392 91.1592 371.264V371.246V371.164V371.127V371.045V370.999V370.954V370.908V370.863V370.835V370.817V370.771V370.726V370.689V370.644C91.0679 368.363 90.9035 365.198 91.004 365.198H91.0313C87.9541 324.89 85.5434 284.838 82.5848 244.575H79.9823C78.3387 285.157 76.3663 324.553 73.8734 365.134H73.8917C73.6999 367.606 74.9783 369.394 76.8594 370.653C77.0329 370.771 77.2155 370.881 77.3981 370.99C77.4529 371.018 77.4986 371.054 77.5534 371.082H77.5625C77.6081 371.118 77.6629 371.145 77.7086 371.173L77.736 371.191C77.7816 371.218 77.8364 371.246 77.8821 371.264H77.9003C78.0099 371.328 78.1195 371.383 78.2291 371.437C78.2565 371.455 78.2839 371.465 78.3113 371.474C78.3569 371.492 78.4026 371.519 78.4482 371.538L78.4848 371.556C78.4848 371.556 78.5669 371.592 78.6126 371.611L78.6674 371.638C78.6674 371.638 78.7496 371.674 78.7861 371.693L78.8592 371.72C78.8592 371.72 78.9322 371.757 78.9779 371.766L79.0509 371.793C79.0509 371.793 79.124 371.82 79.1696 371.839L79.2518 371.875C79.2518 371.875 79.3249 371.902 79.3523 371.912C79.3888 371.93 79.4253 371.939 79.4618 371.948L79.5349 371.975C79.5349 371.975 79.6079 372.003 79.6445 372.021L79.7266 372.048C79.7266 372.048 79.8088 372.076 79.8453 372.094L79.9184 372.121C79.9184 372.121 80.0097 372.149 80.0462 372.167L80.1102 372.185C80.1558 372.203 80.2106 372.222 80.2563 372.231L80.311 372.249C80.3567 372.267 80.4024 372.276 80.4572 372.295L80.5119 372.313C80.5576 372.331 80.6124 372.34 80.658 372.359H80.7037C80.7494 372.386 80.8041 372.404 80.8498 372.413H80.8955C80.9502 372.441 80.9959 372.459 81.0507 372.468H81.0872C81.1511 372.495 81.2059 372.514 81.2698 372.523H81.279C81.3338 372.541 81.3977 372.559 81.4525 372.568H81.4799C81.5347 372.587 81.5894 372.605 81.6534 372.614H81.6808C81.7355 372.632 81.7903 372.65 81.8451 372.66H81.8817C81.9364 372.678 82.0004 372.696 82.0552 372.705H82.0734C82.1373 372.723 82.1921 372.732 82.256 372.751H82.2743C82.3382 372.769 82.4021 372.778 82.4661 372.796C85.5342 373.408 85.452 374.383 83.2148 374.347H70.3395C69.6181 374.347 68.9972 373.417 69.0155 372.769C69.0155 372.751 69.0155 372.742 69.0155 372.723V372.669V372.632V372.596V372.541V372.514V372.486V372.431V372.413V372.377V372.349V372.322V372.286V372.258V372.231V372.203V372.14V372.121V372.103V372.067V372.03V372.003V371.966V371.93V371.893V371.866V371.829V371.793V371.775V371.757V371.72V371.684V371.656V371.611V371.574V371.565V371.492V371.456V371.419V371.401V371.373V371.328V371.282V371.255V371.237V371.191V371.145V371.109V371.063V371.018V370.972V370.926V370.881V370.835V370.808V370.79V370.744V370.698V370.662V370.616C68.915 368.336 68.7598 365.171 68.8511 365.171H68.8785C65.025 314.793 58.9983 260.127 58.9983 211.108V205.48H102.345L102.3 205.526Z" fill="#758AAF"/>
<path fill-rule="evenodd" clip-rule="evenodd" d="M102.3 205.526V211.154C102.3 263.065 99.6606 313.041 96.218 365.143H96.2363C96.0262 367.606 97.3412 369.394 99.277 370.653C99.7153 370.936 100.19 371.2 100.692 371.428C100.72 371.446 100.747 371.455 100.784 371.465C100.839 371.492 100.902 371.519 100.957 371.547C101.012 371.574 101.067 371.592 101.112 371.62H101.14C101.186 371.656 101.24 371.674 101.286 371.693L101.332 371.711C101.377 371.729 101.423 371.747 101.478 371.766L101.532 371.784C101.532 371.784 101.624 371.82 101.669 371.839L101.752 371.866C101.752 371.866 101.825 371.893 101.852 371.902C101.889 371.912 101.925 371.93 101.962 371.939L102.044 371.966C102.044 371.966 102.117 371.994 102.153 372.003C102.19 372.012 102.226 372.03 102.263 372.039L102.363 372.076C102.363 372.076 102.427 372.094 102.464 372.112L102.573 372.149L102.665 372.176C102.71 372.194 102.756 372.203 102.811 372.222L102.857 372.24C102.902 372.258 102.957 372.267 103.003 372.286L103.057 372.304C103.112 372.322 103.158 372.331 103.213 372.349H103.258C103.313 372.377 103.359 372.395 103.414 372.404H103.459C103.514 372.431 103.569 372.45 103.624 372.459H103.651C103.715 372.486 103.779 372.495 103.834 372.514H103.843C103.907 372.532 103.961 372.55 104.025 372.559H104.053C104.117 372.577 104.171 372.596 104.235 372.605H104.254C104.318 372.623 104.372 372.641 104.436 372.65H104.464C104.528 372.669 104.582 372.687 104.646 372.696H104.665C104.728 372.714 104.792 372.723 104.847 372.742H104.865C104.929 372.76 105.002 372.769 105.066 372.787C108.226 373.398 108.144 374.374 105.833 374.338H92.5472C91.7984 374.338 91.1592 373.408 91.1866 372.76C91.1866 372.723 91.1866 372.687 91.1866 372.641V372.568C91.1866 372.495 91.1866 372.413 91.1866 372.322V372.231C91.1866 372.067 91.1866 371.884 91.1683 371.684V371.656V371.647C91.1683 371.528 91.1683 371.392 91.1592 371.264V371.246V371.164V371.127V371.045V370.999V370.954V370.908V370.863V370.835V370.817V370.771V370.726V370.689V370.644C91.0679 368.363 90.9035 365.198 91.004 365.198H91.0313C87.9541 324.89 85.5434 284.838 82.5848 244.575H79.9823C78.3387 285.157 76.3663 324.553 73.8734 365.134H73.8917C73.6999 367.606 74.9783 369.394 76.8594 370.653C77.0329 370.771 77.2155 370.881 77.3981 370.99C77.4529 371.018 77.4986 371.054 77.5534 371.082H77.5625C77.6081 371.118 77.6629 371.145 77.7086 371.173L77.736 371.191C77.7816 371.218 77.8364 371.246 77.8821 371.264H77.9003C78.0099 371.328 78.1195 371.383 78.2291 371.437C78.2565 371.455 78.2839 371.465 78.3113 371.474C78.3569 371.492 78.4026 371.519 78.4482 371.538L78.4848 371.556C78.4848 371.556 78.5669 371.592 78.6126 371.611L78.6674 371.638C78.6674 371.638 78.7496 371.674 78.7861 371.693L78.8592 371.72C78.8592 371.72 78.9322 371.757 78.9779 371.766L79.0509 371.793C79.0509 371.793 79.124 371.82 79.1696 371.839L79.2518 371.875C79.2518 371.875 79.3249 371.902 79.3523 371.912C79.3888 371.93 79.4253 371.939 79.4618 371.948L79.5349 371.975C79.5349 371.975 79.6079 372.003 79.6445 372.021L79.7266 372.048C79.7266 372.048 79.8088 372.076 79.8453 372.094L79.9184 372.121C79.9184 372.121 80.0097 372.149 80.0462 372.167L80.1102 372.185C80.1558 372.203 80.2106 372.222 80.2563 372.231L80.311 372.249C80.3567 372.267 80.4024 372.276 80.4572 372.295L80.5119 372.313C80.5576 372.331 80.6124 372.34 80.658 372.359H80.7037C80.7494 372.386 80.8041 372.404 80.8498 372.413H80.8955C80.9502 372.441 80.9959 372.459 81.0507 372.468H81.0872C81.1511 372.495 81.2059 372.514 81.2698 372.523H81.279C81.3338 372.541 81.3977 372.559 81.4525 372.568H81.4799C81.5347 372.587 81.5894 372.605 81.6534 372.614H81.6808C81.7355 372.632 81.7903 372.65 81.8451 372.66H81.8817C81.9364 372.678 82.0004 372.696 82.0552 372.705H82.0734C82.1373 372.723 82.1921 372.732 82.256 372.751H82.2743C82.3382 372.769 82.4021 372.778 82.4661 372.796C85.5342 373.408 85.452 374.383 83.2148 374.347H70.3395C69.6181 374.347 68.9972 373.417 69.0155 372.769C69.0155 372.751 69.0155 372.742 69.0155 372.723V372.669V372.632V372.596V372.541V372.514V372.486V372.431V372.413V372.377V372.349V372.322V372.286V372.258V372.231V372.203V372.14V372.121V372.103V372.067V372.03V372.003V371.966V371.93V371.893V371.866V371.829V371.793V371.775V371.757V371.72V371.684V371.656V371.611V371.574V371.565V371.492V371.456V371.419V371.401V371.373V371.328V371.282V371.255V371.237V371.191V371.145V371.109V371.063V371.018V370.972V370.926V370.881V370.835V370.808V370.79V370.744V370.698V370.662V370.616C68.915 368.336 68.7598 365.171 68.8511 365.171H68.8785C65.025 314.793 58.9983 260.127 58.9983 211.108V205.48H102.345L102.3 205.526Z" fill="#A3A4A5"/>
<path fill-rule="evenodd" clip-rule="evenodd" d="M98.2086 369.841C98.5373 370.133 98.8934 370.397 99.2769 370.652C99.7153 370.935 100.19 371.2 100.692 371.428C100.72 371.446 100.747 371.455 100.784 371.464C100.838 371.492 100.902 371.519 100.957 371.546C101.012 371.574 101.067 371.592 101.112 371.619H101.14C101.185 371.656 101.24 371.674 101.286 371.692L101.332 371.711C101.377 371.729 101.423 371.747 101.478 371.765L101.532 371.784C101.532 371.784 101.624 371.82 101.669 371.838L101.752 371.866C101.752 371.866 101.825 371.893 101.852 371.902C101.889 371.911 101.925 371.93 101.962 371.939L102.044 371.966C102.044 371.966 102.117 371.993 102.153 372.002C102.19 372.012 102.226 372.03 102.263 372.039L102.363 372.075C102.363 372.075 102.427 372.094 102.464 372.112L102.573 372.148L102.665 372.176C102.71 372.194 102.756 372.203 102.811 372.221L102.856 372.24C102.902 372.258 102.957 372.267 103.003 372.285L103.057 372.303C103.112 372.322 103.158 372.331 103.213 372.349H103.258C103.313 372.376 103.359 372.395 103.413 372.404H103.459C103.514 372.431 103.569 372.449 103.624 372.459H103.651C103.715 372.486 103.779 372.495 103.834 372.513H103.843C103.907 372.532 103.961 372.55 104.025 372.559H104.053C104.117 372.577 104.171 372.595 104.235 372.604H104.254C104.317 372.623 104.372 372.641 104.436 372.65H104.464C104.528 372.668 104.582 372.687 104.646 372.696H104.664C104.728 372.714 104.792 372.723 104.847 372.741H104.865C104.929 372.76 105.002 372.769 105.066 372.787C108.226 373.398 108.144 374.374 105.833 374.338H92.5471C91.7983 374.338 91.1591 373.407 91.1865 372.76C91.1865 372.723 91.1865 372.687 91.1865 372.641V372.568C91.1865 372.495 91.1865 372.413 91.1865 372.322V372.23C91.1865 372.066 91.1865 371.884 91.1682 371.683V371.656V371.647C91.1682 371.528 91.1682 371.391 91.1591 371.264V371.245V371.163V371.127V371.045V370.999V370.953V370.908V370.862V370.835V370.817V370.771V370.725V370.689V370.643C91.15 370.379 91.1317 370.114 91.1226 369.832H98.2177L98.2086 369.841ZM75.8092 369.841C76.1288 370.133 76.4758 370.406 76.8502 370.652C77.0237 370.771 77.2063 370.881 77.3889 370.99C77.4437 371.017 77.4894 371.054 77.5441 371.081H77.5533C77.5989 371.118 77.6537 371.145 77.6994 371.172L77.7268 371.191C77.7724 371.218 77.8272 371.245 77.8729 371.264H77.8911C78.0007 371.327 78.1103 371.382 78.2199 371.437C78.2473 371.455 78.2747 371.464 78.302 371.473C78.3477 371.492 78.3934 371.519 78.439 371.537L78.4755 371.556C78.4755 371.556 78.5577 371.592 78.6034 371.61L78.6582 371.638C78.6582 371.638 78.7404 371.674 78.7769 371.692L78.8499 371.72C78.8499 371.72 78.923 371.756 78.9686 371.765L79.0417 371.793C79.0417 371.793 79.1147 371.82 79.1604 371.838L79.2426 371.875C79.2426 371.875 79.3156 371.902 79.343 371.911C79.3796 371.93 79.4161 371.939 79.4526 371.948L79.5257 371.975C79.5257 371.975 79.5987 372.002 79.6352 372.021L79.7174 372.048C79.7174 372.048 79.7996 372.075 79.8361 372.094L79.9092 372.121C79.9092 372.121 80.0005 372.148 80.037 372.167L80.1009 372.185C80.1466 372.203 80.2014 372.221 80.247 372.23L80.3018 372.249C80.3475 372.267 80.3931 372.276 80.4479 372.294L80.5027 372.313C80.5484 372.331 80.6032 372.34 80.6488 372.358H80.6945C80.7401 372.386 80.7949 372.404 80.8406 372.413H80.8862C80.941 372.44 80.9867 372.459 81.0415 372.468H81.078C81.1419 372.495 81.1967 372.513 81.2606 372.522H81.2698C81.3246 372.541 81.3885 372.559 81.4433 372.568H81.4707C81.5254 372.586 81.5802 372.604 81.6442 372.614H81.6715C81.7263 372.632 81.7811 372.65 81.8359 372.659H81.8724C81.9272 372.677 81.9911 372.696 82.0459 372.705H82.0642C82.1281 372.723 82.1829 372.732 82.2468 372.75H82.2651C82.329 372.769 82.3929 372.778 82.4569 372.796C85.525 373.407 85.4428 374.383 83.2056 374.347H70.3303C69.6089 374.347 68.988 373.416 69.0063 372.769C69.0063 372.75 69.0063 372.741 69.0063 372.723V372.668V372.632V372.595V372.541V372.513V372.486V372.431V372.413V372.376V372.349V372.322V372.285V372.258V372.23V372.203V372.139V372.121V372.103V372.066V372.03V372.002V371.966V371.929V371.893V371.866V371.829V371.793V371.774V371.756V371.72V371.683V371.656V371.61V371.574V371.565V371.492V371.455V371.419V371.4V371.373V371.327V371.282V371.255V371.236V371.191V371.145V371.109V371.063V371.017V370.972V370.926V370.881V370.835V370.808V370.789V370.744V370.698V370.662V370.616C68.9971 370.351 68.9789 370.087 68.9697 369.804H75.8457L75.8092 369.841Z" fill="#1F1F1F"/>
<path fill-rule="evenodd" clip-rule="evenodd" d="M98.2086 369.841C98.5373 370.133 98.8934 370.397 99.2769 370.652C99.7153 370.935 100.19 371.2 100.692 371.428C100.72 371.446 100.747 371.455 100.784 371.464C100.838 371.492 100.902 371.519 100.957 371.546C101.012 371.574 101.067 371.592 101.112 371.619H101.14C101.185 371.656 101.24 371.674 101.286 371.692L101.332 371.711C101.377 371.729 101.423 371.747 101.478 371.765L101.532 371.784C101.532 371.784 101.624 371.82 101.669 371.838L101.752 371.866C101.752 371.866 101.825 371.893 101.852 371.902C101.889 371.911 101.925 371.93 101.962 371.939L102.044 371.966C102.044 371.966 102.117 371.993 102.153 372.002C102.19 372.012 102.226 372.03 102.263 372.039L102.363 372.075C102.363 372.075 102.427 372.094 102.464 372.112L102.573 372.148L102.665 372.176C102.71 372.194 102.756 372.203 102.811 372.221L102.856 372.24C102.902 372.258 102.957 372.267 103.003 372.285L103.057 372.303C103.112 372.322 103.158 372.331 103.213 372.349H103.258C103.313 372.376 103.359 372.395 103.413 372.404H103.459C103.514 372.431 103.569 372.449 103.624 372.459H103.651C103.715 372.486 103.779 372.495 103.834 372.513H103.843C103.907 372.532 103.961 372.55 104.025 372.559H104.053C104.117 372.577 104.171 372.595 104.235 372.604H104.254C104.317 372.623 104.372 372.641 104.436 372.65H104.464C104.528 372.668 104.582 372.687 104.646 372.696H104.664C104.728 372.714 104.792 372.723 104.847 372.741H104.865C104.929 372.76 105.002 372.769 105.066 372.787C108.226 373.398 108.144 374.374 105.833 374.338H92.5471C91.7983 374.338 91.1591 373.407 91.1865 372.76C91.1865 372.723 91.1865 372.687 91.1865 372.641V372.568C91.1865 372.495 91.1865 372.413 91.1865 372.322V372.23C91.1865 372.066 91.1865 371.884 91.1682 371.683V371.656V371.647C91.1682 371.528 91.1682 371.391 91.1591 371.264V371.245V371.163V371.127V371.045V370.999V370.953V370.908V370.862V370.835V370.817V370.771V370.725V370.689V370.643C91.15 370.379 91.1317 370.114 91.1226 369.832H98.2177L98.2086 369.841ZM75.8092 369.841C76.1288 370.133 76.4758 370.406 76.8502 370.652C77.0237 370.771 77.2063 370.881 77.3889 370.99C77.4437 371.017 77.4894 371.054 77.5441 371.081H77.5533C77.5989 371.118 77.6537 371.145 77.6994 371.172L77.7268 371.191C77.7724 371.218 77.8272 371.245 77.8729 371.264H77.8911C78.0007 371.327 78.1103 371.382 78.2199 371.437C78.2473 371.455 78.2747 371.464 78.302 371.473C78.3477 371.492 78.3934 371.519 78.439 371.537L78.4755 371.556C78.4755 371.556 78.5577 371.592 78.6034 371.61L78.6582 371.638C78.6582 371.638 78.7404 371.674 78.7769 371.692L78.8499 371.72C78.8499 371.72 78.923 371.756 78.9686 371.765L79.0417 371.793C79.0417 371.793 79.1147 371.82 79.1604 371.838L79.2426 371.875C79.2426 371.875 79.3156 371.902 79.343 371.911C79.3796 371.93 79.4161 371.939 79.4526 371.948L79.5257 371.975C79.5257 371.975 79.5987 372.002 79.6352 372.021L79.7174 372.048C79.7174 372.048 79.7996 372.075 79.8361 372.094L79.9092 372.121C79.9092 372.121 80.0005 372.148 80.037 372.167L80.1009 372.185C80.1466 372.203 80.2014 372.221 80.247 372.23L80.3018 372.249C80.3475 372.267 80.3931 372.276 80.4479 372.294L80.5027 372.313C80.5484 372.331 80.6032 372.34 80.6488 372.358H80.6945C80.7401 372.386 80.7949 372.404 80.8406 372.413H80.8862C80.941 372.44 80.9867 372.459 81.0415 372.468H81.078C81.1419 372.495 81.1967 372.513 81.2606 372.522H81.2698C81.3246 372.541 81.3885 372.559 81.4433 372.568H81.4707C81.5254 372.586 81.5802 372.604 81.6442 372.614H81.6715C81.7263 372.632 81.7811 372.65 81.8359 372.659H81.8724C81.9272 372.677 81.9911 372.696 82.0459 372.705H82.0642C82.1281 372.723 82.1829 372.732 82.2468 372.75H82.2651C82.329 372.769 82.3929 372.778 82.4569 372.796C85.525 373.407 85.4428 374.383 83.2056 374.347H70.3303C69.6089 374.347 68.988 373.416 69.0063 372.769C69.0063 372.75 69.0063 372.741 69.0063 372.723V372.668V372.632V372.595V372.541V372.513V372.486V372.431V372.413V372.376V372.349V372.322V372.285V372.258V372.23V372.203V372.139V372.121V372.103V372.066V372.03V372.002V371.966V371.929V371.893V371.866V371.829V371.793V371.774V371.756V371.72V371.683V371.656V371.61V371.574V371.565V371.492V371.455V371.419V371.4V371.373V371.327V371.282V371.255V371.236V371.191V371.145V371.109V371.063V371.017V370.972V370.926V370.881V370.835V370.808V370.789V370.744V370.698V370.662V370.616C68.9971 370.351 68.9789 370.087 68.9697 369.804H75.8457L75.8092 369.841Z" fill="#1F1F1F"/>
<path fill-rule="evenodd" clip-rule="evenodd" d="M79.27 139.413H79.2426V141.311C79.0143 143.044 78.0464 144.622 76.1288 144.859V139.413H76.1196C76.1196 135.965 78.4938 133.165 81.425 133.165C82.3564 133.165 83.2695 133.484 84.0822 134.032C83.7626 135.181 82.9956 137.306 81.3793 137.306C80.2105 137.306 79.3887 138.209 79.2791 139.404L79.27 139.413Z" fill="#001E60"/>
<path fill-rule="evenodd" clip-rule="evenodd" d="M79.27 139.413H79.2426V141.311C79.0143 143.044 78.0464 144.622 76.1288 144.859V139.413H76.1196C76.1196 135.965 78.4938 133.165 81.425 133.165C82.3564 133.165 83.2695 133.484 84.0822 134.032C83.7626 135.181 82.9956 137.306 81.3793 137.306C80.2105 137.306 79.3887 138.209 79.2791 139.404L79.27 139.413Z" fill="#001E60"/>
<path fill-rule="evenodd" clip-rule="evenodd" d="M71.919 160.311H90.9033C88.7757 163.649 85.3149 165.82 81.4066 165.82C77.4983 165.82 74.0375 163.649 71.9099 160.311H71.919Z" fill="#FFFFCC"/>
<path fill-rule="evenodd" clip-rule="evenodd" d="M71.919 160.311H90.9033C88.7757 163.649 85.3149 165.82 81.4066 165.82C77.4983 165.82 74.0375 163.649 71.9099 160.311H71.919Z" fill="#F7F7EF"/>
<path fill-rule="evenodd" clip-rule="evenodd" d="M83.5251 144.494L85.3058 136.321L88.4926 144.302L83.5251 144.494Z" fill="#E75E30"/>
<path fill-rule="evenodd" clip-rule="evenodd" d="M83.5251 144.494L85.3058 136.321L88.4926 144.302L83.5251 144.494Z" fill="#F9C9B3"/>
<path fill-rule="evenodd" clip-rule="evenodd" d="M53.2271 224.079L75.3526 251.808C75.4439 251.918 75.5261 252.036 75.6082 252.146L70.3759 256.387L45.9676 233.812C41.9133 230.063 41.6119 226.031 43.5934 223.577C45.648 221.023 50.1315 220.193 53.2271 224.079Z" fill="#FFFFCC"/>
<path fill-rule="evenodd" clip-rule="evenodd" d="M53.2271 224.079L75.3526 251.808C75.4439 251.918 75.5261 252.036 75.6082 252.146L70.3759 256.387L45.9676 233.812C41.9133 230.063 41.6119 226.031 43.5934 223.577C45.648 221.023 50.1315 220.193 53.2271 224.079Z" fill="#F7F7EF"/>
<path fill-rule="evenodd" clip-rule="evenodd" d="M75.3526 251.818C75.4439 251.927 75.5261 252.046 75.6083 252.155L88.4014 260.693L87.1413 262.882L73.0058 258.595C72.2936 258.248 71.2983 257.245 70.376 256.388L75.3526 251.809V251.818Z" fill="#E75E30"/>
<path fill-rule="evenodd" clip-rule="evenodd" d="M75.3526 251.818C75.4439 251.927 75.5261 252.046 75.6083 252.155L88.4014 260.693L87.1413 262.882L73.0058 258.595C72.2936 258.248 71.2983 257.245 70.376 256.388L75.3526 251.809V251.818Z" fill="#F9C9B3"/>
<path fill-rule="evenodd" clip-rule="evenodd" d="M121.22 183.616V232.708H151.783L153.445 231.75L165.955 224.535L167.617 223.577V174.485L165.955 175.443L153.445 182.658L151.783 183.616H121.22Z" fill="#001E60"/>
<path fill-rule="evenodd" clip-rule="evenodd" d="M165.562 177.45V220.987L154.723 227.244V183.707L165.562 177.45Z" fill="#FFFFCC"/>
<path d="M140.989 186.526H138.359V189.208H140.989V186.526Z" fill="#4F9475"/>
<path d="M140.989 189.874H138.359V192.555H140.989V189.874Z" fill="#4F9475"/>
<path d="M140.989 193.212H138.359V195.894H140.989V193.212Z" fill="#4F9475"/>
<path d="M140.989 196.56H138.359V199.241H140.989V196.56Z" fill="#4F9475"/>
<path d="M140.989 199.898H138.359V202.58H140.989V199.898Z" fill="#4F9475"/>
<path d="M140.989 203.246H138.359V205.927H140.989V203.246Z" fill="#4F9475"/>
<path d="M140.989 206.584H138.359V209.266H140.989V206.584Z" fill="#4F9475"/>
<path d="M140.989 209.932H138.359V212.613H140.989V209.932Z" fill="#4F9475"/>
<path d="M140.989 213.279H138.359V215.961H140.989V213.279Z" fill="#4F9475"/>
<path d="M140.989 216.618H138.359V219.299H140.989V216.618Z" fill="#4F9475"/>
<path d="M140.989 219.965H138.359V222.647H140.989V219.965Z" fill="#4F9475"/>
<path d="M140.989 223.304H138.359V225.985H140.989V223.304Z" fill="#4F9475"/>
<path d="M140.989 226.651H138.359V229.333H140.989V226.651Z" fill="#4F9475"/>
<path d="M137.684 186.526H135.054V189.208H137.684V186.526Z" fill="#4F9475"/>
<path d="M137.684 189.874H135.054V192.555H137.684V189.874Z" fill="#4F9475"/>
<path d="M137.684 193.212H135.054V195.894H137.684V193.212Z" fill="#4F9475"/>
<path d="M137.684 196.56H135.054V199.241H137.684V196.56Z" fill="#4F9475"/>
<path d="M137.684 199.898H135.054V202.58H137.684V199.898Z" fill="#4F9475"/>
<path d="M137.684 203.246H135.054V205.927H137.684V203.246Z" fill="#4F9475"/>
<path d="M137.684 206.584H135.054V209.266H137.684V206.584Z" fill="#4F9475"/>
<path d="M137.684 209.932H135.054V212.613H137.684V209.932Z" fill="#4F9475"/>
<path d="M137.684 213.279H135.054V215.961H137.684V213.279Z" fill="#4F9475"/>
<path d="M137.684 216.618H135.054V219.299H137.684V216.618Z" fill="#4F9475"/>
<path d="M137.684 219.965H135.054V222.647H137.684V219.965Z" fill="#4F9475"/>
<path d="M137.684 223.304H135.054V225.985H137.684V223.304Z" fill="#4F9475"/>
<path d="M137.684 226.651H135.054V229.333H137.684V226.651Z" fill="#4F9475"/>
<path d="M134.497 186.526H131.867V189.208H134.497V186.526Z" fill="#4F9475"/>
<path d="M134.497 189.874H131.867V192.555H134.497V189.874Z" fill="#4F9475"/>
<path d="M134.497 193.212H131.867V195.894H134.497V193.212Z" fill="#4F9475"/>
<path d="M134.497 196.56H131.867V199.241H134.497V196.56Z" fill="#4F9475"/>
<path d="M134.497 199.898H131.867V202.58H134.497V199.898Z" fill="#4F9475"/>
<path d="M134.497 203.246H131.867V205.927H134.497V203.246Z" fill="#4F9475"/>
<path d="M134.497 206.584H131.867V209.266H134.497V206.584Z" fill="#4F9475"/>
<path d="M134.497 209.932H131.867V212.613H134.497V209.932Z" fill="#4F9475"/>
<path d="M134.497 213.279H131.867V215.961H134.497V213.279Z" fill="#4F9475"/>
<path d="M134.497 216.618H131.867V219.299H134.497V216.618Z" fill="#4F9475"/>
<path d="M134.497 219.965H131.867V222.647H134.497V219.965Z" fill="#4F9475"/>
<path d="M134.497 223.304H131.867V225.985H134.497V223.304Z" fill="#4F9475"/>
<path d="M134.497 226.651H131.867V229.333H134.497V226.651Z" fill="#4F9475"/>
<path fill-rule="evenodd" clip-rule="evenodd" d="M121.22 183.616V232.708H151.783L153.445 231.75L165.955 224.535L167.617 223.577V174.485L165.955 175.443L153.445 182.658L151.783 183.616H121.22Z" fill="#001E60"/>
<path fill-rule="evenodd" clip-rule="evenodd" d="M165.562 177.45V220.987L154.723 227.244V183.707L165.562 177.45Z" fill="#F7F7EF"/>
<path d="M140.989 186.526H138.359V189.208H140.989V186.526Z" fill="#F7F7EF"/>
<path d="M140.989 189.874H138.359V192.555H140.989V189.874Z" fill="#F7F7EF"/>
<path d="M140.989 193.212H138.359V195.894H140.989V193.212Z" fill="#F7F7EF"/>
<path d="M140.989 196.56H138.359V199.241H140.989V196.56Z" fill="#F7F7EF"/>
<path d="M140.989 199.898H138.359V202.58H140.989V199.898Z" fill="#F7F7EF"/>
<path d="M140.989 203.246H138.359V205.927H140.989V203.246Z" fill="#F7F7EF"/>
<path d="M140.989 206.584H138.359V209.266H140.989V206.584Z" fill="#F7F7EF"/>
<path d="M140.989 209.932H138.359V212.613H140.989V209.932Z" fill="#F7F7EF"/>
<path d="M140.989 213.279H138.359V215.961H140.989V213.279Z" fill="#F7F7EF"/>
<path d="M140.989 216.618H138.359V219.299H140.989V216.618Z" fill="#F7F7EF"/>
<path d="M140.989 219.965H138.359V222.647H140.989V219.965Z" fill="#F7F7EF"/>
<path d="M140.989 223.304H138.359V225.985H140.989V223.304Z" fill="#F7F7EF"/>
<path d="M140.989 226.651H138.359V229.333H140.989V226.651Z" fill="#F7F7EF"/>
<path d="M137.684 186.526H135.054V189.208H137.684V186.526Z" fill="#F7F7EF"/>
<path d="M137.684 189.874H135.054V192.555H137.684V189.874Z" fill="#F7F7EF"/>
<path d="M137.684 193.212H135.054V195.894H137.684V193.212Z" fill="#F7F7EF"/>
<path d="M137.684 196.56H135.054V199.241H137.684V196.56Z" fill="#F7F7EF"/>
<path d="M137.684 199.898H135.054V202.58H137.684V199.898Z" fill="#F7F7EF"/>
<path d="M137.684 203.246H135.054V205.927H137.684V203.246Z" fill="#F7F7EF"/>
<path d="M137.684 206.584H135.054V209.266H137.684V206.584Z" fill="#F7F7EF"/>
<path d="M137.684 209.932H135.054V212.613H137.684V209.932Z" fill="#F7F7EF"/>
<path d="M137.684 213.279H135.054V215.961H137.684V213.279Z" fill="#F7F7EF"/>
<path d="M137.684 216.618H135.054V219.299H137.684V216.618Z" fill="#F7F7EF"/>
<path d="M137.684 219.965H135.054V222.647H137.684V219.965Z" fill="#F7F7EF"/>
<path d="M137.684 223.304H135.054V225.985H137.684V223.304Z" fill="#F7F7EF"/>
<path d="M137.684 226.651H135.054V229.333H137.684V226.651Z" fill="#F7F7EF"/>
<path d="M134.497 186.526H131.867V189.208H134.497V186.526Z" fill="#F7F7EF"/>
<path d="M134.497 189.874H131.867V192.555H134.497V189.874Z" fill="#F7F7EF"/>
<path d="M134.497 193.212H131.867V195.894H134.497V193.212Z" fill="#F7F7EF"/>
<path d="M134.497 196.56H131.867V199.241H134.497V196.56Z" fill="#F7F7EF"/>
<path d="M134.497 199.898H131.867V202.58H134.497V199.898Z" fill="#F7F7EF"/>
<path d="M134.497 203.246H131.867V205.927H134.497V203.246Z" fill="#F7F7EF"/>
<path d="M134.497 206.584H131.867V209.266H134.497V206.584Z" fill="#F7F7EF"/>
<path d="M134.497 209.932H131.867V212.613H134.497V209.932Z" fill="#F7F7EF"/>
<path d="M134.497 213.279H131.867V215.961H134.497V213.279Z" fill="#F7F7EF"/>
<path d="M134.497 216.618H131.867V219.299H134.497V216.618Z" fill="#F7F7EF"/>
<path d="M134.497 219.965H131.867V222.647H134.497V219.965Z" fill="#F7F7EF"/>
<path d="M134.497 223.304H131.867V225.985H134.497V223.304Z" fill="#F7F7EF"/>
<path d="M134.497 226.651H131.867V229.333H134.497V226.651Z" fill="#F7F7EF"/>
<path fill-rule="evenodd" clip-rule="evenodd" d="M236.897 236.94L234.559 300.681C234.404 304.932 231.71 307.13 229.117 307.149C226.332 307.176 223.665 304.731 223.391 300.371L219.438 236.931C218.972 229.397 223.62 225.447 228.268 225.785C232.322 226.077 237.171 229.643 236.897 236.931V236.94Z" fill="#E75E30"/>
<path fill-rule="evenodd" clip-rule="evenodd" d="M236.897 236.94L234.559 300.681C234.404 304.932 231.71 307.13 229.117 307.149C226.332 307.176 223.665 304.731 223.391 300.371L219.438 236.931C218.972 229.397 223.62 225.447 228.268 225.785C232.322 226.077 237.171 229.643 236.897 236.931V236.94Z" fill="#F9C9B3"/>
<path fill-rule="evenodd" clip-rule="evenodd" d="M234.659 302.406L231.326 370.005C231.226 372.039 230.605 373.079 229.902 373.207C228.98 373.38 227.92 371.966 227.747 369.166L223.501 302.415C223.108 296.23 226.039 292.965 229.29 293.239C232.13 293.476 234.952 296.422 234.659 302.415V302.406Z" fill="#E75E30"/>
<path fill-rule="evenodd" clip-rule="evenodd" d="M227.482 365.308C227.838 369.814 224.067 372.012 220.67 372.842C218.214 373.444 218.287 374.402 220.086 374.365H230.441C231.025 374.365 231.509 373.453 231.482 372.815C231.436 371.757 231.673 365.381 231.555 365.381L227.473 365.317L227.482 365.308Z" fill="#001E60"/>
<path fill-rule="evenodd" clip-rule="evenodd" d="M234.659 302.406L231.326 370.005C231.226 372.039 230.605 373.079 229.902 373.207C228.98 373.38 227.92 371.966 227.747 369.166L223.501 302.415C223.108 296.23 226.039 292.965 229.29 293.239C232.13 293.476 234.952 296.422 234.659 302.415V302.406Z" fill="#F9C9B3"/>
<path fill-rule="evenodd" clip-rule="evenodd" d="M227.482 365.308C227.838 369.814 224.067 372.012 220.67 372.842C218.214 373.444 218.287 374.402 220.086 374.365H230.441C231.025 374.365 231.509 373.453 231.482 372.815C231.436 371.757 231.673 365.381 231.555 365.381L227.473 365.317L227.482 365.308Z" fill="#001E60"/>
<path fill-rule="evenodd" clip-rule="evenodd" d="M226.944 211.765C226.834 212.194 226.697 212.613 226.551 213.033C224.478 218.816 218.095 218.615 219.547 234.149C219.876 237.652 221.346 238.883 224.798 238.883H251.096C254.557 238.883 256.694 237.652 257.023 234.149C258.474 218.615 252.092 218.816 250.019 213.033C249.873 212.613 249.736 212.194 249.626 211.765H226.934H226.944Z" fill="#FE6A6A"/>
<path fill-rule="evenodd" clip-rule="evenodd" d="M226.944 211.765C226.834 212.194 226.697 212.613 226.551 213.033C224.478 218.816 218.095 218.615 219.547 234.149C219.876 237.652 221.346 238.883 224.798 238.883H251.096C254.557 238.883 256.694 237.652 257.023 234.149C258.474 218.615 252.092 218.816 250.019 213.033C249.873 212.613 249.736 212.194 249.626 211.765H226.934H226.944Z" fill="#FE6A6A"/>
<path fill-rule="evenodd" clip-rule="evenodd" d="M245.544 166.148L238.33 166.066C236.221 166.321 235.043 164.105 235.025 160.712L234.961 149.282C234.924 141.42 237.609 140.07 239.764 140.827C241.709 141.511 243.152 143.682 243.161 148.288L243.188 159.69C243.188 162.983 244.375 165.911 245.535 166.148H245.544Z" fill="#001E60"/>
<path fill-rule="evenodd" clip-rule="evenodd" d="M245.544 166.148L238.33 166.066C236.221 166.321 235.043 164.105 235.025 160.712L234.961 149.282C234.924 141.42 237.609 140.07 239.764 140.827C241.709 141.511 243.152 143.682 243.161 148.288L243.188 159.69C243.188 162.983 244.375 165.911 245.535 166.148H245.544Z" fill="#001E60"/>
<path fill-rule="evenodd" clip-rule="evenodd" d="M237.225 142.542C235.911 142.542 234.833 143.618 234.833 144.932V167.371H239.627V144.932C239.627 143.618 238.549 142.542 237.235 142.542H237.225Z" fill="#E75E30"/>
<path fill-rule="evenodd" clip-rule="evenodd" d="M237.225 142.542C235.911 142.542 234.833 143.618 234.833 144.932V167.371H239.627V144.932C239.627 143.618 238.549 142.542 237.235 142.542H237.225Z" fill="#F9C9B3"/>
<path d="M263.14 167.927H263.049C261.002 167.927 259.342 169.585 259.342 171.631V220.358C259.342 222.403 261.002 224.061 263.049 224.061H263.14C265.188 224.061 266.848 222.403 266.848 220.358V171.631C266.848 169.585 265.188 167.927 263.14 167.927Z" fill="#E75E30"/>
<path d="M263.14 167.927H263.049C261.002 167.927 259.342 169.585 259.342 171.631V220.358C259.342 222.403 261.002 224.061 263.049 224.061H263.14C265.188 224.061 266.848 222.403 266.848 220.358V171.631C266.848 169.585 265.188 167.927 263.14 167.927Z" fill="#F9C9B3"/>
<path d="M261.698 165.902H215.703C212.889 165.902 210.607 168.181 210.607 170.992V173.792C210.607 176.603 212.889 178.882 215.703 178.882H261.698C264.512 178.882 266.793 176.603 266.793 173.792V170.992C266.793 168.181 264.512 165.902 261.698 165.902Z" fill="#E75E30"/>
<path d="M261.698 165.902H215.703C212.889 165.902 210.607 168.181 210.607 170.992V173.792C210.607 176.603 212.889 178.882 215.703 178.882H261.698C264.512 178.882 266.793 176.603 266.793 173.792V170.992C266.793 168.181 264.512 165.902 261.698 165.902Z" fill="#F9C9B3"/>
<path fill-rule="evenodd" clip-rule="evenodd" d="M239.49 236.94L241.828 300.681C241.983 304.932 244.677 307.13 247.27 307.149C250.055 307.176 252.722 304.731 252.996 300.371L256.949 236.931C257.415 229.397 252.767 225.447 248.119 225.785C244.065 226.077 239.216 229.643 239.49 236.931V236.94Z" fill="#E75E30"/>
<path fill-rule="evenodd" clip-rule="evenodd" d="M239.49 236.94L241.828 300.681C241.983 304.932 244.677 307.13 247.27 307.149C250.055 307.176 252.722 304.731 252.996 300.371L256.949 236.931C257.415 229.397 252.767 225.447 248.119 225.785C244.065 226.077 239.216 229.643 239.49 236.931V236.94Z" fill="#F9C9B3"/>
<path fill-rule="evenodd" clip-rule="evenodd" d="M241.727 302.406L245.06 370.005C245.161 372.039 245.782 373.079 246.485 373.207C247.407 373.38 248.466 371.966 248.64 369.166L252.886 302.415C253.279 296.23 250.348 292.965 247.097 293.239C244.257 293.476 241.435 296.422 241.727 302.415V302.406Z" fill="#E75E30"/>
<path fill-rule="evenodd" clip-rule="evenodd" d="M248.895 365.308C248.539 369.814 252.31 372.012 255.707 372.842C258.164 373.444 258.091 374.402 256.292 374.365H245.937C245.352 374.365 244.868 373.453 244.896 372.815C244.941 371.757 244.704 365.381 244.823 365.381L248.904 365.317L248.895 365.308Z" fill="#001E60" stroke="#A1CAB7" stroke-width="0.05" stroke-miterlimit="22.93"/>
<path fill-rule="evenodd" clip-rule="evenodd" d="M241.727 302.406L245.06 370.005C245.161 372.039 245.782 373.079 246.485 373.207C247.407 373.38 248.466 371.966 248.64 369.166L252.886 302.415C253.279 296.23 250.348 292.965 247.097 293.239C244.257 293.476 241.435 296.422 241.727 302.415V302.406Z" fill="#F9C9B3"/>
<path fill-rule="evenodd" clip-rule="evenodd" d="M248.895 365.308C248.539 369.814 252.31 372.012 255.707 372.842C258.164 373.444 258.091 374.402 256.292 374.365H245.937C245.352 374.365 244.868 373.453 244.896 372.815C244.941 371.757 244.704 365.381 244.823 365.381L248.904 365.317L248.895 365.308Z" fill="#001E60" stroke="#A1CAB7" stroke-width="0.05" stroke-miterlimit="22.93"/>
<path fill-rule="evenodd" clip-rule="evenodd" d="M227.555 202.598C227.437 203.054 227.309 203.51 227.154 203.957C225.053 210.159 217.529 212.312 218.643 229.023L223.081 295.482H253.306L257.032 234.067C257.132 232.936 257.196 231.887 257.223 230.92L257.324 229.278C258.337 212.604 251.352 210.159 249.252 203.957C249.124 203.592 249.014 203.218 248.914 202.844V192.646C250.767 192.646 252.603 192.427 254.064 191.123C256.329 189.116 257.488 185.121 257.278 179.466V165.847H252.256C252.256 171.302 251.9 174.905 248.905 176.036C248.841 173.327 246.713 171.129 244.12 171.129H232.432C229.875 171.129 227.775 173.272 227.656 175.936C225.044 174.613 225.062 170.581 224.843 165.947L219.903 165.856V179.338C219.912 183.443 220.606 186.927 222.414 189.408C224.131 191.752 225.738 192.409 227.647 192.573V202.616H227.546L227.555 202.598Z" fill="#0A5244"/>
<path fill-rule="evenodd" clip-rule="evenodd" d="M227.555 202.598C227.437 203.054 227.309 203.51 227.154 203.957C225.053 210.159 217.529 212.312 218.643 229.023L223.081 295.482H253.306L257.032 234.067C257.132 232.936 257.196 231.887 257.223 230.92L257.324 229.278C258.337 212.604 251.352 210.159 249.252 203.957C249.124 203.592 249.014 203.218 248.914 202.844V192.646C250.767 192.646 252.603 192.427 254.064 191.123C256.329 189.116 257.488 185.121 257.278 179.466V165.847H252.256C252.256 171.302 251.9 174.905 248.905 176.036C248.841 173.327 246.713 171.129 244.12 171.129H232.432C229.875 171.129 227.775 173.272 227.656 175.936C225.044 174.613 225.062 170.581 224.843 165.947L219.903 165.856V179.338C219.912 183.443 220.606 186.927 222.414 189.408C224.131 191.752 225.738 192.409 227.647 192.573V202.616H227.546L227.555 202.598Z" fill="#001E60"/>
<path fill-rule="evenodd" clip-rule="evenodd" d="M223.154 165.902V190.293C222.917 190.028 222.67 189.727 222.433 189.39C222.351 189.28 222.277 189.171 222.204 189.062V165.884L223.154 165.902ZM223.154 210.342V295.491H223.081L222.195 282.265V211.738C222.506 211.245 222.825 210.789 223.145 210.342H223.154Z" fill="#3A6C56"/>
<path fill-rule="evenodd" clip-rule="evenodd" d="M229.829 171.94V295.482H228.879V172.807C229.162 172.479 229.482 172.187 229.829 171.94Z" fill="#3A6C56"/>
<path d="M236.504 171.12H235.554V295.482H236.504V171.12Z" fill="#3A6C56"/>
<path d="M243.179 171.12H242.229V295.482H243.179V171.12Z" fill="#3A6C56"/>
<path fill-rule="evenodd" clip-rule="evenodd" d="M249.854 175.534V192.628C249.544 192.646 249.224 192.655 248.914 192.655V202.853C249.014 203.227 249.124 203.601 249.251 203.966C249.425 204.477 249.626 204.96 249.863 205.425V295.482H248.914V175.844C248.914 175.908 248.914 175.972 248.914 176.036C249.261 175.899 249.58 175.735 249.863 175.534H249.854Z" fill="#3A6C56"/>
<path fill-rule="evenodd" clip-rule="evenodd" d="M256.529 165.838V186.9C256.274 187.757 255.954 188.533 255.58 189.208V165.848H256.529V165.838ZM256.529 218.059V242.304L255.58 258.002V215.085C255.936 215.979 256.264 216.964 256.529 218.05V218.059Z" fill="#3A6C56"/>
<path fill-rule="evenodd" clip-rule="evenodd" d="M223.154 165.902V190.293C222.917 190.028 222.67 189.727 222.433 189.39C222.351 189.28 222.277 189.171 222.204 189.062V165.884L223.154 165.902ZM223.154 210.342V295.491H223.081L222.195 282.265V211.738C222.506 211.245 222.825 210.789 223.145 210.342H223.154Z" fill="#758AAF"/>
<path fill-rule="evenodd" clip-rule="evenodd" d="M229.829 171.94V295.482H228.879V172.807C229.162 172.479 229.482 172.187 229.829 171.94Z" fill="#758AAF"/>
<path d="M236.504 171.12H235.554V295.482H236.504V171.12Z" fill="#758AAF"/>
<path d="M243.179 171.12H242.229V295.482H243.179V171.12Z" fill="#758AAF"/>
<path fill-rule="evenodd" clip-rule="evenodd" d="M249.854 175.534V192.628C249.544 192.646 249.224 192.655 248.914 192.655V202.853C249.014 203.227 249.124 203.601 249.251 203.966C249.425 204.477 249.626 204.96 249.863 205.425V295.482H248.914V175.844C248.914 175.908 248.914 175.972 248.914 176.036C249.261 175.899 249.58 175.735 249.863 175.534H249.854Z" fill="#758AAF"/>
<path fill-rule="evenodd" clip-rule="evenodd" d="M256.529 165.838V186.9C256.274 187.757 255.954 188.533 255.58 189.208V165.848H256.529V165.838ZM256.529 218.059V242.304L255.58 258.002V215.085C255.936 215.979 256.264 216.964 256.529 218.05V218.059Z" fill="#758AAF"/>
<path d="M243.791 187.365H224.305V213.242H243.791V187.365Z" fill="#FFFFCC"/>
<path d="M243.791 187.365H224.305V213.242H243.791V187.365Z" fill="#F7F7EF"/>
<path fill-rule="evenodd" clip-rule="evenodd" d="M224.852 165.938C225.062 170.572 225.053 174.613 227.665 175.926C228.441 176.319 229.446 176.474 230.76 176.328H245.033C246.667 176.51 247.937 176.41 248.914 176.036C251.891 174.905 252.247 171.329 252.256 165.902H223.227L224.852 165.929V165.938Z" fill="#E75E30"/>
<path fill-rule="evenodd" clip-rule="evenodd" d="M224.852 165.938C225.062 170.572 225.053 174.613 227.665 175.926C228.441 176.319 229.446 176.474 230.76 176.328H245.033C246.667 176.51 247.937 176.41 248.914 176.036C251.891 174.905 252.247 171.329 252.256 165.902H223.227L224.852 165.929V165.938Z" fill="#F9C9B3"/>
<path fill-rule="evenodd" clip-rule="evenodd" d="M262.602 216.171L235.92 200.992C233.062 199.369 232.212 199.524 231.829 200.317C231.418 201.166 231.865 202.069 234.121 203.802L258.456 222.209C266.063 227.965 270.583 220.896 262.602 216.171Z" fill="#E75E30"/>
<path fill-rule="evenodd" clip-rule="evenodd" d="M234.541 204.012L233.308 199.515C229.235 197.736 225.409 197.891 220.917 198.794L221.044 200.126C225.5 200.062 230.167 201.896 234.541 204.012Z" fill="#E75E30"/>
<path fill-rule="evenodd" clip-rule="evenodd" d="M262.602 216.171L235.92 200.992C233.062 199.369 232.212 199.524 231.829 200.317C231.418 201.166 231.865 202.069 234.121 203.802L258.456 222.209C266.063 227.965 270.583 220.896 262.602 216.171Z" fill="#F9C9B3"/>
<path fill-rule="evenodd" clip-rule="evenodd" d="M234.541 204.012L233.308 199.515C229.235 197.736 225.409 197.891 220.917 198.794L221.044 200.126C225.5 200.062 230.167 201.896 234.541 204.012Z" fill="#F9C9B3"/>
<path fill-rule="evenodd" clip-rule="evenodd" d="M237.006 149.976L234.961 144.047L233.034 149.976H237.006Z" fill="#E75E30"/>
<path fill-rule="evenodd" clip-rule="evenodd" d="M237.006 149.976L234.961 144.047L233.034 149.976H237.006Z" fill="#F9C9B3"/>
<path d="M214.68 167.927H214.598C212.55 167.927 210.891 169.585 210.891 171.631V220.358C210.891 222.403 212.55 224.061 214.598 224.061H214.68C216.728 224.061 218.388 222.403 218.388 220.358V171.631C218.388 169.585 216.728 167.927 214.68 167.927Z" fill="#E75E30"/>
<path d="M214.68 167.927H214.598C212.55 167.927 210.891 169.585 210.891 171.631V220.358C210.891 222.403 212.55 224.061 214.598 224.061H214.68C216.728 224.061 218.388 222.403 218.388 220.358V171.631C218.388 169.585 216.728 167.927 214.68 167.927Z" fill="#F9C9B3"/>
<path fill-rule="evenodd" clip-rule="evenodd" d="M210.58 221.835L191.486 203.191C189.44 201.193 189.386 200.336 189.979 199.642C190.609 198.903 191.486 198.94 193.486 200.326L214.798 215.422C221.464 220.138 216.451 227.326 210.58 221.835Z" fill="#E75E30"/>
<path fill-rule="evenodd" clip-rule="evenodd" d="M210.58 221.835L191.486 203.191C189.44 201.193 189.386 200.336 189.979 199.642C190.609 198.903 191.486 198.94 193.486 200.326L214.798 215.422C221.464 220.138 216.451 227.326 210.58 221.835Z" fill="#F9C9B3"/>
<path fill-rule="evenodd" clip-rule="evenodd" d="M193.75 200.637L189.623 201.366C187.167 198.302 186.427 194.644 186.171 190.065L187.34 189.627C188.299 193.823 190.938 197.435 193.75 200.646V200.637Z" fill="#E75E30"/>
<path fill-rule="evenodd" clip-rule="evenodd" d="M193.75 200.637L189.623 201.366C187.167 198.302 186.427 194.644 186.171 190.065L187.34 189.627C188.299 193.823 190.938 197.435 193.75 200.646V200.637Z" fill="#F9C9B3"/>
<path fill-rule="evenodd" clip-rule="evenodd" d="M191.084 198.885L188.875 200.226C187.149 199.387 186.163 197.189 185.797 195.474L186.208 195.054C187.322 196.614 189.368 198.11 191.084 198.885Z" fill="#E75E30"/>
<path fill-rule="evenodd" clip-rule="evenodd" d="M191.084 198.885L188.875 200.226C187.149 199.387 186.163 197.189 185.797 195.474L186.208 195.054C187.322 196.614 189.368 198.11 191.084 198.885Z" fill="#F9C9B3"/>
<path d="M235.262 143.755C235.755 143.755 236.212 143.965 236.531 144.293C236.614 144.375 236.696 144.475 236.76 144.576H240.038V144.886H236.915C237.006 145.105 237.052 145.342 237.052 145.588C237.052 146.099 236.851 146.555 236.522 146.884C236.194 147.212 235.746 147.422 235.253 147.422C234.76 147.422 234.303 147.221 233.984 146.884C233.655 146.555 233.454 146.09 233.454 145.588C233.454 145.087 233.655 144.621 233.984 144.293C234.312 143.965 234.76 143.755 235.253 143.755H235.262ZM236.257 144.576C236.002 144.32 235.655 144.156 235.262 144.156C234.869 144.156 234.522 144.32 234.267 144.576C234.011 144.831 233.856 145.196 233.856 145.588C233.856 145.981 234.011 146.345 234.267 146.601C234.522 146.856 234.869 147.02 235.262 147.02C235.655 147.02 236.002 146.856 236.257 146.601C236.513 146.345 236.668 145.981 236.668 145.588C236.668 145.196 236.513 144.831 236.257 144.576Z" fill="#1F1F1F"/>
<path d="M235.262 143.755C235.755 143.755 236.212 143.965 236.531 144.293C236.614 144.375 236.696 144.475 236.76 144.576H240.038V144.886H236.915C237.006 145.105 237.052 145.342 237.052 145.588C237.052 146.099 236.851 146.555 236.522 146.884C236.194 147.212 235.746 147.422 235.253 147.422C234.76 147.422 234.303 147.221 233.984 146.884C233.655 146.555 233.454 146.09 233.454 145.588C233.454 145.087 233.655 144.621 233.984 144.293C234.312 143.965 234.76 143.755 235.253 143.755H235.262ZM236.257 144.576C236.002 144.32 235.655 144.156 235.262 144.156C234.869 144.156 234.522 144.32 234.267 144.576C234.011 144.831 233.856 145.196 233.856 145.588C233.856 145.981 234.011 146.345 234.267 146.601C234.522 146.856 234.869 147.02 235.262 147.02C235.655 147.02 236.002 146.856 236.257 146.601C236.513 146.345 236.668 145.981 236.668 145.588C236.668 145.196 236.513 144.831 236.257 144.576Z" fill="#1F1F1F"/>
<path d="M233.646 166.477C234.231 166.477 234.705 165.995 234.705 165.401C234.705 164.806 234.231 164.324 233.646 164.324C233.061 164.324 232.587 164.806 232.587 165.401C232.587 165.995 233.061 166.477 233.646 166.477Z" fill="#FFFFCC"/>
<path fill-rule="evenodd" clip-rule="evenodd" d="M234.915 166.039C235.5 166.039 235.974 166.523 235.974 167.115C235.974 167.708 235.5 168.192 234.915 168.192C234.331 168.192 233.856 167.708 233.856 167.115C233.856 166.523 234.331 166.039 234.915 166.039Z" fill="#FFFFCC"/>
<path fill-rule="evenodd" clip-rule="evenodd" d="M236.641 167.298C237.225 167.298 237.7 167.781 237.7 168.374C237.7 168.967 237.225 169.451 236.641 169.451C236.056 169.451 235.582 168.967 235.582 168.374C235.582 167.781 236.056 167.298 236.641 167.298Z" fill="#FFFFCC"/>
<path fill-rule="evenodd" clip-rule="evenodd" d="M238.631 168.037C239.216 168.037 239.691 168.52 239.691 169.113C239.691 169.706 239.216 170.189 238.631 170.189C238.047 170.189 237.572 169.706 237.572 169.113C237.572 168.52 238.047 168.037 238.631 168.037Z" fill="#FFFFCC"/>
<path d="M245.727 166.477C246.312 166.477 246.786 165.995 246.786 165.401C246.786 164.806 246.312 164.324 245.727 164.324C245.142 164.324 244.667 164.806 244.667 165.401C244.667 165.995 245.142 166.477 245.727 166.477Z" fill="#FFFFCC"/>
<path d="M244.448 168.192C245.033 168.192 245.508 167.71 245.508 167.115C245.508 166.521 245.033 166.039 244.448 166.039C243.863 166.039 243.389 166.521 243.389 167.115C243.389 167.71 243.863 168.192 244.448 168.192Z" fill="#FFFFCC"/>
<path fill-rule="evenodd" clip-rule="evenodd" d="M242.732 167.298C242.147 167.298 241.672 167.781 241.672 168.374C241.672 168.967 242.147 169.451 242.732 169.451C243.316 169.451 243.791 168.967 243.791 168.374C243.791 167.781 243.316 167.298 242.732 167.298Z" fill="#FFFFCC"/>
<path fill-rule="evenodd" clip-rule="evenodd" d="M240.741 168.037C240.156 168.037 239.682 168.52 239.682 169.113C239.682 169.706 240.156 170.189 240.741 170.189C241.325 170.189 241.8 169.706 241.8 169.113C241.8 168.52 241.325 168.037 240.741 168.037Z" fill="#FFFFCC"/>
<path d="M233.646 166.477C234.231 166.477 234.705 165.995 234.705 165.401C234.705 164.806 234.231 164.324 233.646 164.324C233.061 164.324 232.587 164.806 232.587 165.401C232.587 165.995 233.061 166.477 233.646 166.477Z" fill="#E9B317"/>
<path fill-rule="evenodd" clip-rule="evenodd" d="M234.915 166.039C235.5 166.039 235.974 166.523 235.974 167.115C235.974 167.708 235.5 168.192 234.915 168.192C234.331 168.192 233.856 167.708 233.856 167.115C233.856 166.523 234.331 166.039 234.915 166.039Z" fill="#E9B317"/>
<path fill-rule="evenodd" clip-rule="evenodd" d="M236.641 167.298C237.225 167.298 237.7 167.781 237.7 168.374C237.7 168.967 237.225 169.451 236.641 169.451C236.056 169.451 235.582 168.967 235.582 168.374C235.582 167.781 236.056 167.298 236.641 167.298Z" fill="#E9B317"/>
<path fill-rule="evenodd" clip-rule="evenodd" d="M238.631 168.037C239.216 168.037 239.691 168.52 239.691 169.113C239.691 169.706 239.216 170.189 238.631 170.189C238.047 170.189 237.572 169.706 237.572 169.113C237.572 168.52 238.047 168.037 238.631 168.037Z" fill="#E9B317"/>
<path d="M245.727 166.477C246.312 166.477 246.786 165.995 246.786 165.401C246.786 164.806 246.312 164.324 245.727 164.324C245.142 164.324 244.667 164.806 244.667 165.401C244.667 165.995 245.142 166.477 245.727 166.477Z" fill="#E9B317"/>
<path d="M244.448 168.192C245.033 168.192 245.508 167.71 245.508 167.115C245.508 166.521 245.033 166.039 244.448 166.039C243.863 166.039 243.389 166.521 243.389 167.115C243.389 167.71 243.863 168.192 244.448 168.192Z" fill="#E9B317"/>
<path fill-rule="evenodd" clip-rule="evenodd" d="M242.732 167.298C242.147 167.298 241.672 167.781 241.672 168.374C241.672 168.967 242.147 169.451 242.732 169.451C243.316 169.451 243.791 168.967 243.791 168.374C243.791 167.781 243.316 167.298 242.732 167.298Z" fill="#E9B317"/>
<path fill-rule="evenodd" clip-rule="evenodd" d="M240.741 168.037C240.156 168.037 239.682 168.52 239.682 169.113C239.682 169.706 240.156 170.189 240.741 170.189C241.325 170.189 241.8 169.706 241.8 169.113C241.8 168.52 241.325 168.037 240.741 168.037Z" fill="#E9B317"/>
<path fill-rule="evenodd" clip-rule="evenodd" d="M210.637 51.1401C231.983 51.1401 249.281 68.6049 249.281 90.1451V139.275L232.485 122.323C226.268 126.63 218.745 129.156 210.637 129.156C189.29 129.156 171.993 111.691 171.993 90.1506C171.993 68.6105 189.29 51.1401 210.637 51.1401Z" fill="#8299C2"/>
<path fill-rule="evenodd" clip-rule="evenodd" d="M246.012 128.394L233.971 116.625L230.866 118.708C225.051 122.613 218.229 124.668 211.179 124.668C191.943 124.668 176.347 109.43 176.347 90.6242C176.347 71.8183 191.938 56.5801 211.179 56.5801C230.421 56.5801 246.257 71.7259 246.012 90.5644V90.597V128.388V128.394Z" fill="#F7F7EF"/>
<path fill-rule="evenodd" clip-rule="evenodd" d="M139.108 354.635C141.948 354.635 144.258 356.934 144.258 359.78C144.258 362.626 141.957 364.924 139.108 364.924C136.259 364.924 133.958 362.626 133.958 359.78C133.958 356.934 136.259 354.635 139.108 354.635Z" fill="#001E60"/>
<path fill-rule="evenodd" clip-rule="evenodd" d="M163.48 354.635C166.32 354.635 168.63 356.934 168.63 359.78C168.63 362.626 166.329 364.924 163.48 364.924C160.631 364.924 158.33 362.626 158.33 359.78C158.33 356.934 160.631 354.635 163.48 354.635Z" fill="#001E60"/>
<path fill-rule="evenodd" clip-rule="evenodd" d="M187.852 354.635C190.692 354.635 193.002 356.934 193.002 359.78C193.002 362.626 190.701 364.924 187.852 364.924C185.003 364.924 182.702 362.626 182.702 359.78C182.702 356.934 185.003 354.635 187.852 354.635Z" fill="#001E60"/>
<path fill-rule="evenodd" clip-rule="evenodd" d="M139.108 354.635C141.948 354.635 144.258 356.934 144.258 359.78C144.258 362.626 141.957 364.924 139.108 364.924C136.259 364.924 133.958 362.626 133.958 359.78C133.958 356.934 136.259 354.635 139.108 354.635Z" fill="#001E60"/>
<path fill-rule="evenodd" clip-rule="evenodd" d="M163.48 354.635C166.32 354.635 168.63 356.934 168.63 359.78C168.63 362.626 166.329 364.924 163.48 364.924C160.631 364.924 158.33 362.626 158.33 359.78C158.33 356.934 160.631 354.635 163.48 354.635Z" fill="#001E60"/>
<path fill-rule="evenodd" clip-rule="evenodd" d="M187.852 354.635C190.692 354.635 193.002 356.934 193.002 359.78C193.002 362.626 190.701 364.924 187.852 364.924C185.003 364.924 182.702 362.626 182.702 359.78C182.702 356.934 185.003 354.635 187.852 354.635Z" fill="#001E60"/>
<path fill-rule="evenodd" clip-rule="evenodd" d="M77.9643 40.9189C58.0395 40.9189 41.886 57.0549 41.886 76.958V122.347L57.5647 106.685C63.3631 110.662 70.3943 112.997 77.9643 112.997C97.889 112.997 114.043 96.8612 114.043 76.958C114.043 57.0549 97.889 40.9189 77.9643 40.9189Z" fill="#8299C2"/>
<path fill-rule="evenodd" clip-rule="evenodd" d="M77.9643 40.9189C58.0395 40.9189 41.886 57.0549 41.886 76.958V122.347L57.5647 106.685C63.3631 110.662 70.3943 112.997 77.9643 112.997C97.889 112.997 114.043 96.8612 114.043 76.958C114.043 57.0549 97.889 40.9189 77.9643 40.9189Z" fill="#8299C2"/>
<path fill-rule="evenodd" clip-rule="evenodd" d="M196.295 83.2663L190.498 89.3311L207.773 106.632L235.129 79.2435L228.794 72.9014L207.452 94.2639L196.295 83.2663Z" fill="#E9B317"/>
</g>
<defs>
<clipPath id="clip0_797_654">
<rect width="295" height="420" fill="white"/>
</clipPath>
</defs>
</svg>
