<svg width="460" height="279" viewBox="0 0 460 279" fill="none" xmlns="http://www.w3.org/2000/svg">
<g clip-path="url(#clip0_797_569)">
<path fill-rule="evenodd" clip-rule="evenodd" d="M261.22 244.59C260.07 244.59 259.13 245.53 259.13 246.68V253.66C259.13 254.81 260.07 255.75 261.22 255.75C262.37 255.75 263.31 254.81 263.31 253.66V246.68C263.31 245.53 262.37 244.59 261.22 244.59Z" fill="#C2CDE1"/>
<path fill-rule="evenodd" clip-rule="evenodd" d="M242.94 244.59C241.79 244.59 240.85 245.53 240.85 246.68V253.66C240.85 254.81 241.79 255.75 242.94 255.75C244.09 255.75 245.03 254.81 245.03 253.66V246.68C245.03 245.53 244.09 244.59 242.94 244.59Z" fill="#C2CDE1"/>
<path fill-rule="evenodd" clip-rule="evenodd" d="M251.22 264.68C250.07 264.68 249.13 265.62 249.13 266.77V273.75C249.13 274.9 250.07 275.84 251.22 275.84C252.37 275.84 253.31 274.9 253.31 273.75V266.77C253.31 265.62 252.37 264.68 251.22 264.68Z" fill="#C2CDE1"/>
<path fill-rule="evenodd" clip-rule="evenodd" d="M268.98 264.68C267.83 264.68 266.89 265.62 266.89 266.77V273.75C266.89 274.9 267.83 275.84 268.98 275.84C270.13 275.84 271.07 274.9 271.07 273.75V266.77C271.07 265.62 270.13 264.68 268.98 264.68Z" fill="#C2CDE1"/>
<path fill-rule="evenodd" clip-rule="evenodd" d="M235.34 264.68C234.19 264.68 233.25 265.62 233.25 266.77V273.75C233.25 274.9 234.19 275.84 235.34 275.84C236.49 275.84 237.43 274.9 237.43 273.75V266.77C237.43 265.62 236.49 264.68 235.34 264.68Z" fill="#C2CDE1"/>
<path fill-rule="evenodd" clip-rule="evenodd" d="M377.46 145.09C376.31 145.09 375.37 146.03 375.37 147.18V154.16C375.37 155.31 376.31 156.25 377.46 156.25C378.61 156.25 379.55 155.31 379.55 154.16V147.18C379.55 146.03 378.61 145.09 377.46 145.09Z" fill="#C2CDE1"/>
<path fill-rule="evenodd" clip-rule="evenodd" d="M359.18 145.09C358.03 145.09 357.09 146.03 357.09 147.18V154.16C357.09 155.31 358.03 156.25 359.18 156.25C360.33 156.25 361.27 155.31 361.27 154.16V147.18C361.27 146.03 360.33 145.09 359.18 145.09Z" fill="#C2CDE1"/>
<path fill-rule="evenodd" clip-rule="evenodd" d="M367.46 165.18C366.31 165.18 365.37 166.12 365.37 167.27V174.25C365.37 175.4 366.31 176.34 367.46 176.34C368.61 176.34 369.55 175.4 369.55 174.25V167.27C369.55 166.12 368.61 165.18 367.46 165.18Z" fill="#C2CDE1"/>
<path fill-rule="evenodd" clip-rule="evenodd" d="M351.57 165.18C350.42 165.18 349.48 166.12 349.48 167.27V174.25C349.48 175.4 350.42 176.34 351.57 176.34C352.72 176.34 353.66 175.4 353.66 174.25V167.27C353.66 166.12 352.72 165.18 351.57 165.18Z" fill="#C2CDE1"/>
<path fill-rule="evenodd" clip-rule="evenodd" d="M14.2804 245.05C13.1304 245.05 12.1904 245.99 12.1904 247.14V254.12C12.1904 255.27 13.1304 256.21 14.2804 256.21C15.4304 256.21 16.3704 255.27 16.3704 254.12V247.14C16.3704 245.99 15.4304 245.05 14.2804 245.05Z" fill="#C2CDE1"/>
<path fill-rule="evenodd" clip-rule="evenodd" d="M30.4601 244.6C29.3101 244.6 28.3701 245.54 28.3701 246.69V253.67C28.3701 254.82 29.3101 255.76 30.4601 255.76C31.6101 255.76 32.5501 254.82 32.5501 253.67V246.69C32.5501 245.54 31.6101 244.6 30.4601 244.6Z" fill="#C2CDE1"/>
<path fill-rule="evenodd" clip-rule="evenodd" d="M20.3703 266.37C19.2203 266.37 18.2803 267.31 18.2803 268.46V275.44C18.2803 276.59 19.2203 277.53 20.3703 277.53C21.5203 277.53 22.4603 276.59 22.4603 275.44V268.46C22.4603 267.31 21.5203 266.37 20.3703 266.37Z" fill="#C2CDE1"/>
<path fill-rule="evenodd" clip-rule="evenodd" d="M35.4396 266.91C34.2896 266.91 33.3496 267.85 33.3496 269V275.98C33.3496 277.13 34.2896 278.07 35.4396 278.07C36.5896 278.07 37.5296 277.13 37.5296 275.98V269C37.5296 267.85 36.5896 266.91 35.4396 266.91Z" fill="#C2CDE1"/>
<path fill-rule="evenodd" clip-rule="evenodd" d="M2.09 266.91C0.94 266.91 0 267.85 0 269V275.98C0 277.13 0.94 278.07 2.09 278.07C3.24 278.07 4.18 277.13 4.18 275.98V269C4.18 267.85 3.24 266.91 2.09 266.91Z" fill="#C2CDE1"/>
<path fill-rule="evenodd" clip-rule="evenodd" d="M29.34 224.26C28.19 224.26 27.25 225.2 27.25 226.35V233.33C27.25 234.48 28.19 235.42 29.34 235.42C30.49 235.42 31.43 234.48 31.43 233.33V226.35C31.43 225.2 30.49 224.26 29.34 224.26Z" fill="#C2CDE1"/>
<path fill-rule="evenodd" clip-rule="evenodd" d="M209.46 242.15C209.46 242.15 209.46 242.23 209.46 242.28C209.46 242.28 209.46 242.37 209.46 242.41C209.46 242.41 209.46 242.5 209.46 242.54C209.46 242.54 209.46 242.63 209.46 242.67C209.46 242.71 209.46 242.76 209.46 242.8C209.46 242.8 209.46 242.89 209.46 242.93C209.46 242.93 209.46 243.02 209.46 243.06C209.46 243.06 209.46 243.15 209.46 243.19C209.46 243.19 209.46 243.28 209.46 243.33C209.46 243.38 209.46 243.42 209.46 243.47C209.46 243.47 209.46 243.56 209.47 243.61C209.47 243.61 209.47 243.7 209.48 243.75C209.48 243.8 209.49 243.84 209.5 243.89C209.5 243.89 209.51 243.98 209.52 244.03C209.52 244.08 209.53 244.12 209.54 244.17C209.54 244.17 209.55 244.26 209.56 244.31C209.56 244.36 209.58 244.4 209.58 244.45C209.58 244.5 209.6 244.54 209.61 244.59C209.61 244.64 209.63 244.68 209.64 244.73C209.64 244.78 209.66 244.82 209.67 244.87C209.68 244.92 209.69 244.97 209.7 245.01C209.71 245.06 209.72 245.11 209.73 245.15C209.74 245.2 209.75 245.25 209.77 245.29C209.78 245.34 209.79 245.39 209.81 245.43C209.82 245.48 209.84 245.53 209.85 245.57C209.86 245.62 209.88 245.67 209.89 245.71C209.9 245.76 209.92 245.81 209.93 245.85C209.95 245.9 209.96 245.95 209.98 245.99C209.98 245.99 210.01 246.09 210.03 246.13C210.03 246.13 210.06 246.23 210.08 246.27C210.08 246.27 210.11 246.37 210.13 246.41C210.13 246.41 210.16 246.51 210.18 246.55C210.18 246.55 210.22 246.65 210.23 246.69C210.23 246.69 210.27 246.79 210.29 246.83C210.29 246.83 210.33 246.93 210.35 246.97C210.35 246.97 210.39 247.07 210.41 247.11C210.41 247.11 210.45 247.21 210.47 247.25C210.47 247.25 210.51 247.35 210.53 247.39C210.53 247.39 210.57 247.49 210.6 247.53C210.64 247.63 210.69 247.72 210.74 247.81C210.74 247.81 210.79 247.9 210.81 247.95C210.81 247.95 210.86 248.04 210.88 248.09C210.88 248.09 210.93 248.18 210.96 248.23C210.96 248.23 211.01 248.32 211.04 248.37C211.04 248.37 211.09 248.46 211.12 248.51C211.12 248.51 211.17 248.6 211.2 248.65C211.2 248.65 211.25 248.74 211.28 248.79C211.34 248.88 211.39 248.97 211.45 249.06C211.45 249.06 211.51 249.15 211.54 249.19C211.6 249.28 211.66 249.37 211.72 249.46C211.72 249.46 211.78 249.55 211.81 249.59C211.81 249.59 211.87 249.68 211.91 249.72C211.91 249.72 211.93 249.74 211.93 249.75L211.95 249.77L211.97 249.8L211.98 249.83L211.99 249.86L212 249.89H212.01L212.02 249.92V249.94L212.04 249.95V249.97L212.06 249.98V250L212.08 250.01V250.03H212.1C212.1 250.03 212.11 250.05 212.12 250.06C212.13 250.07 212.14 250.09 212.16 250.1L212.17 250.12H212.18V250.14H212.19L212.2 250.17L212.21 250.19L212.22 250.21L212.23 250.23L212.24 250.25L212.25 250.27C212.25 250.27 212.28 250.31 212.3 250.32C212.3 250.32 212.3 250.33 212.31 250.33L212.32 250.35L212.33 250.37L212.34 250.39C212.34 250.39 212.34 250.4 212.35 250.41C212.35 250.41 212.35 250.42 212.36 250.43C212.36 250.43 212.36 250.44 212.37 250.44C212.37 250.44 212.43 250.49 212.46 250.51C212.46 250.51 212.46 250.51 212.47 250.52C212.47 250.52 212.47 250.52 212.48 250.53C212.48 250.53 212.48 250.53 212.49 250.54C212.49 250.54 212.49 250.54 212.5 250.54L212.52 253.85L211.35 252.92C211.35 252.92 211.35 252.9 211.36 252.89C211.36 252.89 211.36 252.89 211.36 252.88C211.36 252.88 211.36 252.88 211.36 252.87C211.36 252.87 211.38 252.79 211.39 252.75C211.39 252.75 211.39 252.74 211.39 252.73C211.39 252.73 211.39 252.72 211.39 252.71C211.39 252.71 211.39 252.7 211.39 252.69C211.39 252.69 211.39 252.68 211.39 252.67C211.39 252.67 211.39 252.66 211.39 252.65C211.39 252.65 211.39 252.64 211.39 252.63C211.39 252.63 211.39 252.58 211.39 252.55V252.53V252.51V252.49V252.47V252.45V252.43V252.41V252.39C211.39 252.39 211.39 252.37 211.39 252.36V252.34V252.32C211.39 252.32 211.39 252.31 211.39 252.3V252.27V252.24V252.21V252.18V252.15V252.12V252.09V252.06C211.39 252.06 211.39 252.04 211.39 252.03C211.39 252.03 211.39 252.01 211.39 252C211.39 252 211.39 251.98 211.39 251.97V251.95V251.92V251.89V251.86V251.84V251.82V251.79V251.75V251.71V251.67V251.63C211.34 251.43 211.28 251.24 211.21 251.05C211.16 250.91 211.11 250.77 211.06 250.63C210.92 250.26 210.76 249.89 210.59 249.54C210.57 249.5 210.55 249.45 210.52 249.41C210.45 249.28 210.39 249.15 210.31 249.02C210.26 248.94 210.21 248.85 210.17 248.77C210.17 248.77 210.12 248.69 210.1 248.65C210.1 248.65 210.05 248.57 210.03 248.53C210 248.49 209.98 248.45 209.95 248.41C209.87 248.29 209.8 248.17 209.72 248.05C209.72 248.05 209.67 247.97 209.64 247.93C209.64 247.93 209.59 247.85 209.56 247.82C209.53 247.78 209.51 247.74 209.48 247.71C209.48 247.71 209.42 247.64 209.4 247.6C209.4 247.6 209.34 247.53 209.32 247.49C209.32 247.49 209.26 247.42 209.23 247.38C209.2 247.34 209.17 247.31 209.14 247.27C209.14 247.27 209.08 247.2 209.05 247.17C209.05 247.17 208.99 247.1 208.96 247.07C208.96 247.07 208.9 247 208.87 246.97C208.87 246.97 208.81 246.9 208.78 246.87C208.75 246.84 208.72 246.8 208.69 246.77C208.66 246.74 208.63 246.71 208.6 246.67C208.6 246.67 208.54 246.61 208.51 246.58C208.48 246.55 208.45 246.52 208.42 246.49C208.39 246.46 208.36 246.43 208.33 246.4C208.3 246.37 208.27 246.34 208.24 246.31C208.24 246.31 208.18 246.25 208.15 246.22C208.12 246.19 208.09 246.16 208.06 246.13C208.03 246.1 208 246.07 207.97 246.05C207.94 246.02 207.91 246 207.87 245.97C207.84 245.94 207.81 245.92 207.77 245.89C207.73 245.86 207.71 245.84 207.67 245.81C207.63 245.78 207.61 245.76 207.57 245.73C207.57 245.73 207.51 245.68 207.47 245.66C207.44 245.64 207.41 245.61 207.37 245.59C207.37 245.59 207.31 245.54 207.27 245.52C207.27 245.52 207.2 245.47 207.17 245.45C207.17 245.45 207.11 245.41 207.07 245.39C207.07 245.39 207 245.35 206.97 245.33C206.97 245.33 206.9 245.29 206.87 245.27C206.87 245.27 206.8 245.23 206.77 245.21C206.67 245.15 206.57 245.1 206.48 245.05C206.41 245.02 206.35 244.98 206.28 244.95C206.11 244.87 205.95 244.81 205.78 244.76C205.76 244.76 205.73 244.75 205.71 244.74C205.59 244.71 205.48 244.68 205.36 244.67C205.36 244.67 205.27 244.66 205.22 244.65C205.15 244.65 205.08 244.64 205.01 244.63C205.01 244.63 204.96 244.63 204.94 244.63C204.92 244.63 204.89 244.63 204.87 244.63C204.85 244.63 204.82 244.63 204.8 244.63C204.8 244.63 204.75 244.63 204.73 244.63C204.73 244.63 204.68 244.63 204.66 244.63C204.66 244.63 204.62 244.63 204.59 244.63C204.59 244.63 204.55 244.63 204.52 244.63C204.5 244.63 204.48 244.63 204.45 244.63C204.43 244.63 204.41 244.63 204.38 244.63C204.36 244.63 204.34 244.63 204.31 244.64C204.31 244.64 204.27 244.64 204.24 244.65C204.22 244.65 204.2 244.65 204.18 244.66C204.16 244.66 204.14 244.66 204.12 244.67C204.12 244.67 204.03 244.69 203.99 244.7C203.99 244.7 203.95 244.71 203.93 244.72C203.91 244.72 203.89 244.73 203.87 244.74C203.87 244.74 203.83 244.75 203.81 244.76C203.81 244.76 203.73 244.79 203.69 244.81C203.67 244.81 203.65 244.83 203.63 244.83C203.61 244.83 203.59 244.85 203.57 244.86C203.55 244.86 203.53 244.88 203.51 244.89C203.51 244.89 203.47 244.91 203.45 244.92C203.45 244.92 203.41 244.94 203.39 244.95C203.37 244.95 203.35 244.97 203.33 244.98C203.31 244.99 203.29 245 203.27 245.01C203.25 245.02 203.23 245.03 203.21 245.04C203.19 245.05 203.17 245.06 203.15 245.07C203.13 245.08 203.11 245.09 203.09 245.11C203.09 245.11 203.05 245.13 203.04 245.15C203.02 245.16 203 245.17 202.99 245.19C202.99 245.19 202.95 245.22 202.94 245.23C202.92 245.24 202.9 245.26 202.89 245.27C202.89 245.27 202.85 245.3 202.84 245.31C202.82 245.32 202.81 245.34 202.79 245.35C202.79 245.35 202.76 245.38 202.74 245.39C202.72 245.4 202.71 245.42 202.69 245.43C202.67 245.44 202.66 245.46 202.64 245.47C202.64 245.47 202.61 245.5 202.59 245.52C202.57 245.54 202.56 245.55 202.54 245.57C202.54 245.57 202.51 245.6 202.49 245.62C202.49 245.62 202.46 245.65 202.44 245.67C202.43 245.68 202.42 245.69 202.41 245.71L202.35 245.66C202.29 245.62 202.17 245.61 202.17 245.68C202.17 245.75 202.14 245.82 202.19 245.86L202.24 245.9C201.46 246.87 201.14 248.27 201.99 249.57C203.28 251.54 206.54 253.21 209.95 253.37C210.73 253.41 211.09 253.31 211.3 253.09L212.61 254.13L212.66 262.44L211.44 261.47C211.44 261.47 211.44 261.45 211.45 261.44C211.45 261.44 211.45 261.44 211.45 261.43C211.45 261.43 211.45 261.43 211.45 261.42C211.45 261.42 211.47 261.34 211.48 261.3C211.48 261.3 211.48 261.29 211.48 261.28C211.48 261.28 211.48 261.27 211.48 261.26C211.48 261.26 211.48 261.25 211.48 261.24C211.48 261.24 211.48 261.23 211.48 261.22C211.48 261.22 211.48 261.21 211.48 261.2C211.48 261.2 211.48 261.19 211.48 261.18C211.48 261.18 211.48 261.13 211.48 261.1V261.08V261.06V261.04V261.02V261V260.98V260.96V260.94C211.48 260.94 211.48 260.92 211.48 260.91V260.89V260.87C211.48 260.87 211.48 260.86 211.48 260.85V260.82V260.79V260.76V260.73V260.7V260.68V260.67V260.64V260.61C211.48 260.61 211.48 260.59 211.48 260.58C211.48 260.58 211.48 260.56 211.48 260.55C211.48 260.55 211.48 260.53 211.48 260.52V260.5V260.47V260.44V260.41V260.39V260.37V260.34V260.3V260.26V260.22V260.18C211.43 259.98 211.37 259.79 211.3 259.6C211.25 259.46 211.2 259.32 211.15 259.18C211.01 258.81 210.85 258.44 210.68 258.09C210.66 258.05 210.64 258 210.61 257.96C210.54 257.83 210.48 257.7 210.4 257.57C210.35 257.49 210.3 257.4 210.26 257.32C210.26 257.32 210.21 257.24 210.19 257.2C210.19 257.2 210.14 257.12 210.12 257.08C210.09 257.04 210.07 257 210.04 256.96C209.96 256.84 209.89 256.72 209.81 256.6C209.81 256.6 209.76 256.52 209.73 256.48C209.73 256.48 209.68 256.4 209.65 256.37C209.62 256.33 209.6 256.29 209.57 256.26C209.57 256.26 209.51 256.19 209.49 256.15C209.49 256.15 209.43 256.08 209.41 256.04C209.41 256.04 209.35 255.97 209.32 255.93C209.29 255.89 209.26 255.86 209.23 255.82C209.23 255.82 209.17 255.75 209.14 255.72C209.14 255.72 209.08 255.65 209.05 255.62C209.05 255.62 208.99 255.55 208.96 255.52C208.96 255.52 208.9 255.45 208.87 255.42C208.84 255.39 208.81 255.35 208.78 255.32C208.75 255.29 208.72 255.26 208.69 255.22C208.69 255.22 208.63 255.16 208.6 255.13C208.57 255.1 208.54 255.07 208.51 255.04C208.48 255.01 208.45 254.98 208.42 254.95C208.39 254.92 208.36 254.89 208.33 254.86C208.33 254.86 208.27 254.8 208.24 254.77C208.21 254.74 208.18 254.71 208.15 254.68C208.12 254.65 208.09 254.62 208.06 254.6C208.03 254.57 208 254.55 207.96 254.52C207.92 254.49 207.9 254.47 207.86 254.44C207.83 254.41 207.8 254.39 207.76 254.36C207.72 254.33 207.7 254.31 207.66 254.28C207.66 254.28 207.6 254.23 207.56 254.21C207.53 254.19 207.5 254.16 207.46 254.14C207.46 254.14 207.4 254.09 207.36 254.07C207.36 254.07 207.29 254.02 207.26 254C207.26 254 207.2 253.96 207.16 253.94C207.16 253.94 207.09 253.9 207.06 253.88C207.06 253.88 206.99 253.84 206.96 253.82C206.96 253.82 206.89 253.78 206.86 253.76C206.76 253.7 206.66 253.65 206.57 253.6C206.5 253.57 206.44 253.53 206.37 253.5C206.2 253.42 206.04 253.36 205.87 253.31C205.85 253.31 205.82 253.3 205.8 253.29C205.68 253.26 205.57 253.23 205.45 253.22C205.45 253.22 205.36 253.21 205.31 253.2C205.22 253.19 205.13 253.18 205.03 253.18C205.01 253.18 204.98 253.18 204.96 253.18C204.94 253.18 204.91 253.18 204.89 253.18C204.89 253.18 204.84 253.18 204.82 253.18C204.82 253.18 204.77 253.18 204.75 253.18C204.75 253.18 204.71 253.18 204.68 253.18C204.68 253.18 204.64 253.18 204.61 253.18C204.59 253.18 204.57 253.18 204.54 253.18C204.52 253.18 204.5 253.18 204.47 253.18C204.47 253.18 204.43 253.18 204.4 253.19C204.4 253.19 204.36 253.19 204.33 253.2C204.31 253.2 204.29 253.2 204.27 253.21C204.25 253.21 204.23 253.21 204.21 253.22C204.21 253.22 204.17 253.23 204.15 253.24C204.15 253.24 204.11 253.25 204.09 253.26C204.09 253.26 204.05 253.27 204.03 253.28C204.01 253.28 203.99 253.29 203.97 253.3C203.97 253.3 203.93 253.31 203.91 253.32C203.91 253.32 203.87 253.33 203.85 253.34C203.85 253.34 203.81 253.36 203.79 253.36C203.77 253.36 203.75 253.38 203.73 253.39C203.71 253.39 203.69 253.41 203.67 253.42C203.65 253.42 203.63 253.44 203.61 253.45C203.61 253.45 203.57 253.47 203.55 253.48C203.53 253.48 203.51 253.5 203.49 253.51C203.47 253.51 203.45 253.53 203.43 253.54C203.41 253.55 203.39 253.56 203.37 253.57C203.35 253.58 203.33 253.59 203.31 253.6C203.29 253.61 203.27 253.62 203.25 253.63C203.23 253.64 203.21 253.65 203.19 253.67C203.19 253.67 203.15 253.69 203.14 253.71C203.12 253.72 203.1 253.73 203.09 253.75C203.09 253.75 203.05 253.78 203.04 253.79C203.02 253.8 203 253.82 202.99 253.83C202.99 253.83 202.95 253.86 202.94 253.87C202.92 253.88 202.91 253.9 202.89 253.91C202.87 253.92 202.86 253.94 202.84 253.95C202.82 253.96 202.81 253.98 202.79 253.99C202.77 254 202.76 254.02 202.74 254.03C202.72 254.04 202.71 254.06 202.69 254.08C202.67 254.1 202.66 254.11 202.64 254.13C202.62 254.15 202.61 254.16 202.59 254.18C202.57 254.2 202.56 254.21 202.54 254.23C202.53 254.24 202.52 254.25 202.51 254.27L202.45 254.22C202.39 254.18 202.27 254.17 202.27 254.24C202.27 254.31 202.24 254.38 202.29 254.42L202.34 254.46C201.56 255.43 201.24 256.83 202.09 258.13C203.38 260.1 206.64 261.77 210.05 261.93C210.83 261.97 211.19 261.87 211.4 261.65L212.76 262.73L212.81 270.98L211.54 269.97C211.54 269.97 211.54 269.95 211.55 269.94C211.55 269.94 211.55 269.94 211.55 269.93C211.55 269.93 211.55 269.93 211.55 269.92C211.55 269.92 211.57 269.84 211.58 269.79C211.58 269.79 211.58 269.78 211.58 269.77C211.58 269.77 211.58 269.76 211.58 269.75C211.58 269.75 211.58 269.74 211.58 269.73C211.58 269.73 211.58 269.72 211.58 269.71C211.58 269.71 211.58 269.7 211.58 269.69C211.58 269.69 211.58 269.68 211.58 269.67C211.58 269.67 211.58 269.62 211.58 269.59V269.57V269.55V269.53V269.51V269.49V269.47V269.45V269.43C211.58 269.43 211.58 269.41 211.58 269.4V269.38V269.36C211.58 269.36 211.58 269.35 211.58 269.34V269.31V269.28V269.25V269.22V269.19V269.17V269.16V269.13V269.1C211.58 269.1 211.58 269.08 211.58 269.07C211.58 269.07 211.58 269.05 211.58 269.04C211.58 269.04 211.58 269.02 211.58 269.01V268.99V268.96V268.93V268.9V268.88V268.86V268.83V268.8V268.76V268.72V268.68C211.53 268.49 211.47 268.29 211.4 268.1C211.35 267.96 211.3 267.82 211.25 267.68C211.11 267.31 210.95 266.94 210.78 266.59C210.76 266.55 210.74 266.5 210.71 266.46C210.64 266.33 210.58 266.2 210.5 266.07C210.45 265.99 210.4 265.9 210.36 265.82C210.36 265.82 210.31 265.74 210.29 265.7C210.29 265.7 210.24 265.62 210.22 265.58C210.19 265.54 210.17 265.5 210.14 265.46C210.06 265.34 209.99 265.22 209.91 265.1C209.91 265.1 209.86 265.02 209.83 264.98C209.83 264.98 209.78 264.9 209.75 264.87C209.72 264.83 209.7 264.79 209.67 264.76C209.67 264.76 209.61 264.69 209.59 264.65C209.59 264.65 209.53 264.58 209.51 264.54C209.51 264.54 209.45 264.47 209.42 264.43C209.39 264.39 209.36 264.36 209.33 264.32C209.33 264.32 209.27 264.25 209.24 264.22C209.24 264.22 209.18 264.15 209.15 264.12C209.15 264.12 209.09 264.05 209.06 264.02C209.06 264.02 209 263.95 208.97 263.92C208.94 263.89 208.91 263.85 208.88 263.82C208.85 263.79 208.82 263.76 208.79 263.72C208.79 263.72 208.73 263.66 208.7 263.63C208.67 263.6 208.64 263.57 208.61 263.54C208.58 263.51 208.55 263.48 208.52 263.45C208.49 263.42 208.46 263.39 208.43 263.36C208.43 263.36 208.37 263.3 208.34 263.27C208.31 263.24 208.28 263.21 208.25 263.18C208.22 263.15 208.19 263.12 208.16 263.1C208.13 263.07 208.1 263.05 208.06 263.02C208.02 262.99 208 262.97 207.96 262.94C207.93 262.91 207.9 262.89 207.86 262.86C207.82 262.83 207.8 262.81 207.76 262.78C207.76 262.78 207.7 262.73 207.66 262.71C207.63 262.69 207.6 262.66 207.56 262.64C207.56 262.64 207.5 262.59 207.46 262.57L207.36 262.5C207.36 262.5 207.3 262.46 207.26 262.44C207.26 262.44 207.19 262.4 207.16 262.38C207.16 262.38 207.09 262.34 207.06 262.32C207.06 262.32 206.99 262.28 206.96 262.26C206.86 262.2 206.76 262.15 206.67 262.1C206.6 262.07 206.54 262.03 206.47 262C206.3 261.92 206.14 261.86 205.97 261.81C205.95 261.81 205.92 261.8 205.9 261.79C205.78 261.76 205.67 261.73 205.55 261.72C205.55 261.72 205.46 261.71 205.41 261.7C205.34 261.7 205.27 261.69 205.2 261.68C205.2 261.68 205.15 261.68 205.13 261.68C205.11 261.68 205.08 261.68 205.06 261.68C205.04 261.68 205.01 261.68 204.99 261.68C204.99 261.68 204.94 261.68 204.92 261.68C204.92 261.68 204.87 261.68 204.85 261.68C204.85 261.68 204.81 261.68 204.78 261.68C204.78 261.68 204.74 261.68 204.71 261.68C204.69 261.68 204.67 261.68 204.64 261.68C204.62 261.68 204.6 261.68 204.57 261.68C204.55 261.68 204.53 261.68 204.5 261.69C204.5 261.69 204.46 261.69 204.43 261.7C204.41 261.7 204.39 261.7 204.37 261.71C204.35 261.71 204.33 261.71 204.31 261.72C204.31 261.72 204.22 261.74 204.18 261.75C204.18 261.75 204.14 261.76 204.12 261.77C204.1 261.77 204.08 261.78 204.06 261.79C204.06 261.79 204.02 261.8 204 261.81C204 261.81 203.92 261.84 203.88 261.86C203.86 261.86 203.84 261.88 203.82 261.88C203.8 261.88 203.78 261.9 203.76 261.91C203.74 261.91 203.72 261.93 203.7 261.94C203.7 261.94 203.66 261.96 203.64 261.97C203.64 261.97 203.6 261.99 203.58 262C203.56 262 203.54 262.02 203.52 262.03C203.5 262.04 203.48 262.05 203.46 262.06C203.44 262.07 203.42 262.08 203.4 262.09C203.38 262.1 203.36 262.11 203.34 262.12C203.32 262.13 203.3 262.14 203.28 262.16C203.28 262.16 203.24 262.18 203.23 262.2C203.21 262.21 203.19 262.22 203.18 262.24C203.18 262.24 203.14 262.27 203.13 262.28C203.11 262.29 203.09 262.31 203.08 262.32C203.08 262.32 203.04 262.35 203.03 262.36C203.01 262.37 203 262.39 202.98 262.4C202.98 262.4 202.95 262.43 202.93 262.44C202.91 262.45 202.9 262.47 202.88 262.48C202.86 262.49 202.85 262.51 202.83 262.52C202.83 262.52 202.8 262.55 202.78 262.57C202.76 262.59 202.75 262.6 202.73 262.62C202.73 262.62 202.7 262.65 202.68 262.67C202.68 262.67 202.65 262.7 202.63 262.72C202.62 262.73 202.61 262.74 202.6 262.76L202.54 262.71C202.48 262.67 202.36 262.66 202.36 262.73C202.36 262.8 202.33 262.87 202.38 262.91L202.43 262.95C201.65 263.92 201.33 265.32 202.18 266.62C203.47 268.59 206.73 270.26 210.14 270.42C210.92 270.46 211.28 270.36 211.49 270.14L212.9 271.26L212.92 275.34C212.92 275.48 213.04 275.6 213.18 275.6C213.18 275.6 213.2 275.6 213.21 275.6C213.22 275.6 213.23 275.6 213.24 275.6C213.38 275.6 213.5 275.48 213.5 275.34L213.52 271.26L214.93 270.14C215.13 270.35 215.5 270.45 216.28 270.42C219.69 270.26 222.95 268.59 224.24 266.62C225.09 265.32 224.77 263.92 223.99 262.95L224.04 262.91C224.1 262.87 224.06 262.8 224.06 262.73C224.06 262.66 223.93 262.66 223.88 262.71L223.82 262.76C223.82 262.76 223.8 262.74 223.79 262.72C223.77 262.7 223.76 262.69 223.74 262.67C223.74 262.67 223.71 262.64 223.69 262.62C223.69 262.62 223.66 262.59 223.64 262.57C223.62 262.55 223.61 262.54 223.59 262.52C223.59 262.52 223.56 262.49 223.54 262.48C223.52 262.47 223.51 262.45 223.49 262.44C223.47 262.43 223.46 262.41 223.44 262.4C223.44 262.4 223.41 262.37 223.39 262.36C223.37 262.35 223.36 262.33 223.34 262.32C223.34 262.32 223.3 262.29 223.29 262.28C223.27 262.27 223.25 262.25 223.24 262.24C223.24 262.24 223.2 262.21 223.19 262.2C223.17 262.19 223.15 262.18 223.14 262.16C223.14 262.16 223.1 262.14 223.08 262.12C223.06 262.11 223.04 262.1 223.02 262.09C223 262.08 222.98 262.07 222.96 262.06C222.94 262.05 222.92 262.04 222.9 262.03C222.88 262.02 222.86 262.01 222.84 262C222.82 262 222.8 261.98 222.78 261.97C222.78 261.97 222.74 261.95 222.72 261.94C222.72 261.94 222.68 261.92 222.66 261.91C222.64 261.91 222.62 261.89 222.6 261.88C222.58 261.88 222.56 261.86 222.54 261.86C222.5 261.84 222.46 261.83 222.42 261.81C222.42 261.81 222.38 261.8 222.36 261.79C222.36 261.79 222.32 261.78 222.3 261.77C222.28 261.77 222.26 261.76 222.24 261.75C222.24 261.75 222.16 261.73 222.11 261.72C222.11 261.72 222.07 261.72 222.05 261.71C222.03 261.71 222.01 261.71 221.99 261.7C221.97 261.7 221.95 261.7 221.92 261.69C221.92 261.69 221.88 261.69 221.85 261.68C221.83 261.68 221.81 261.68 221.78 261.68C221.76 261.68 221.74 261.68 221.71 261.68C221.69 261.68 221.67 261.68 221.64 261.68C221.64 261.68 221.59 261.68 221.57 261.68C221.57 261.68 221.53 261.68 221.5 261.68C221.5 261.68 221.46 261.68 221.43 261.68C221.43 261.68 221.38 261.68 221.36 261.68C221.34 261.68 221.31 261.68 221.29 261.68C221.27 261.68 221.24 261.68 221.22 261.68C221.15 261.68 221.08 261.68 221.01 261.7C221.01 261.7 220.92 261.71 220.87 261.72C220.75 261.74 220.64 261.76 220.52 261.79C220.52 261.79 220.47 261.8 220.45 261.81C220.29 261.86 220.12 261.92 219.95 262C219.88 262.03 219.82 262.06 219.75 262.1C219.65 262.15 219.55 262.2 219.46 262.26C219.46 262.26 219.39 262.3 219.36 262.32C219.36 262.32 219.29 262.36 219.26 262.38C219.26 262.38 219.19 262.42 219.16 262.44C219.16 262.44 219.09 262.48 219.06 262.5C219.06 262.5 219 262.54 218.96 262.57C218.96 262.57 218.89 262.62 218.86 262.64C218.86 262.64 218.8 262.69 218.76 262.71C218.73 262.73 218.7 262.76 218.66 262.78C218.66 262.78 218.6 262.83 218.56 262.86C218.52 262.89 218.5 262.91 218.46 262.94C218.43 262.97 218.4 262.99 218.36 263.02C218.33 263.05 218.3 263.07 218.27 263.1C218.24 263.13 218.21 263.16 218.17 263.18C218.14 263.21 218.11 263.24 218.08 263.27C218.05 263.3 218.02 263.33 217.99 263.36C217.99 263.36 217.93 263.42 217.9 263.45C217.87 263.48 217.84 263.51 217.81 263.54C217.78 263.57 217.75 263.6 217.72 263.63C217.69 263.66 217.66 263.69 217.63 263.72C217.63 263.72 217.57 263.78 217.54 263.82C217.51 263.85 217.48 263.88 217.45 263.92C217.42 263.95 217.39 263.99 217.36 264.02C217.36 264.02 217.3 264.09 217.27 264.12C217.27 264.12 217.21 264.19 217.18 264.22C217.18 264.22 217.12 264.29 217.09 264.32C217.09 264.32 217.03 264.39 217 264.43C216.97 264.47 216.94 264.5 216.91 264.54C216.91 264.54 216.85 264.61 216.83 264.65C216.83 264.65 216.77 264.72 216.75 264.76C216.75 264.76 216.69 264.83 216.67 264.87C216.64 264.91 216.62 264.95 216.59 264.98C216.59 264.98 216.54 265.06 216.51 265.1C216.43 265.22 216.35 265.34 216.27 265.46C216.27 265.46 216.22 265.54 216.19 265.58C216.16 265.62 216.14 265.66 216.12 265.7C216.12 265.7 216.07 265.78 216.05 265.82C216 265.9 215.95 265.99 215.91 266.07C215.84 266.2 215.77 266.33 215.7 266.46C215.7 266.46 215.66 266.55 215.63 266.59C215.46 266.94 215.3 267.31 215.16 267.68C215.11 267.82 215.06 267.96 215.01 268.1C214.95 268.29 214.89 268.48 214.83 268.68V268.71V268.73V268.74V268.76V268.77V268.79V268.8V268.82V268.83V268.85V268.87V268.89V268.9V268.92V268.93V268.95V268.96V268.98C214.83 268.98 214.83 269 214.83 269.01C214.83 269.01 214.83 269.03 214.83 269.04C214.83 269.04 214.83 269.06 214.83 269.07V269.09V269.12V269.15V269.17V269.18V269.21V269.24V269.27V269.3C214.83 269.3 214.83 269.32 214.83 269.33V269.35V269.37C214.83 269.37 214.83 269.38 214.83 269.39V269.41V269.44V269.46V269.48V269.5V269.52V269.54V269.56C214.83 269.56 214.83 269.61 214.83 269.64C214.83 269.64 214.83 269.65 214.83 269.66C214.83 269.66 214.83 269.67 214.83 269.68C214.83 269.68 214.83 269.69 214.83 269.7C214.83 269.7 214.83 269.71 214.83 269.72C214.83 269.72 214.83 269.73 214.83 269.74C214.83 269.74 214.83 269.75 214.83 269.76C214.83 269.76 214.85 269.85 214.86 269.88V269.89C214.86 269.89 214.86 269.89 214.86 269.9C214.86 269.9 214.86 269.92 214.87 269.93L213.6 270.94L213.65 262.69L215.01 261.61C215.21 261.82 215.58 261.92 216.36 261.89C219.77 261.73 223.03 260.06 224.32 258.09C225.17 256.79 224.85 255.39 224.07 254.42L224.12 254.38C224.18 254.34 224.14 254.27 224.14 254.2C224.14 254.13 224.01 254.13 223.96 254.18L223.9 254.23C223.9 254.23 223.88 254.21 223.87 254.19C223.85 254.17 223.84 254.16 223.82 254.14C223.8 254.12 223.79 254.11 223.77 254.09C223.75 254.07 223.74 254.06 223.72 254.04C223.7 254.02 223.69 254.01 223.67 253.99C223.65 253.97 223.64 253.96 223.62 253.95C223.6 253.94 223.59 253.92 223.57 253.91C223.55 253.9 223.54 253.88 223.52 253.87C223.5 253.86 223.49 253.84 223.47 253.83C223.45 253.82 223.44 253.8 223.42 253.79C223.42 253.79 223.38 253.76 223.37 253.75C223.35 253.74 223.33 253.72 223.32 253.71C223.32 253.71 223.28 253.68 223.27 253.67C223.25 253.66 223.23 253.65 223.22 253.63C223.22 253.63 223.18 253.61 223.16 253.59C223.14 253.58 223.12 253.57 223.1 253.56C223.08 253.55 223.06 253.54 223.04 253.53C223.02 253.52 223 253.51 222.98 253.5C222.96 253.49 222.94 253.48 222.92 253.47C222.9 253.47 222.88 253.45 222.86 253.44C222.84 253.44 222.82 253.42 222.8 253.41C222.8 253.41 222.76 253.39 222.74 253.38C222.72 253.38 222.7 253.36 222.68 253.35C222.66 253.35 222.64 253.33 222.62 253.32C222.6 253.32 222.58 253.3 222.56 253.3C222.56 253.3 222.52 253.28 222.5 253.28C222.5 253.28 222.46 253.27 222.44 253.26C222.44 253.26 222.4 253.25 222.38 253.24C222.36 253.24 222.34 253.23 222.32 253.22C222.32 253.22 222.28 253.21 222.26 253.2C222.26 253.2 222.22 253.19 222.2 253.18C222.2 253.18 222.16 253.18 222.14 253.17C222.12 253.17 222.1 253.17 222.08 253.16C222.06 253.16 222.04 253.16 222.01 253.15C222.01 253.15 221.97 253.15 221.94 253.14C221.94 253.14 221.9 253.14 221.87 253.14C221.85 253.14 221.83 253.14 221.8 253.14C221.78 253.14 221.76 253.14 221.73 253.14C221.73 253.14 221.68 253.14 221.66 253.14C221.66 253.14 221.62 253.14 221.59 253.14C221.59 253.14 221.55 253.14 221.52 253.14C221.52 253.14 221.47 253.14 221.45 253.14C221.43 253.14 221.4 253.14 221.38 253.14C221.29 253.14 221.2 253.14 221.1 253.16C221.1 253.16 221.01 253.17 220.96 253.18C220.84 253.2 220.73 253.22 220.61 253.25C220.61 253.25 220.56 253.26 220.54 253.27C220.38 253.32 220.21 253.38 220.04 253.46C219.97 253.49 219.91 253.52 219.84 253.56C219.74 253.61 219.64 253.66 219.55 253.72C219.55 253.72 219.48 253.76 219.45 253.78C219.45 253.78 219.38 253.82 219.35 253.84C219.35 253.84 219.28 253.88 219.25 253.9C219.25 253.9 219.18 253.94 219.15 253.96C219.15 253.96 219.09 254 219.05 254.03C219.05 254.03 218.98 254.08 218.95 254.1C218.95 254.1 218.89 254.15 218.85 254.17C218.82 254.19 218.79 254.22 218.75 254.24C218.75 254.24 218.69 254.29 218.65 254.32C218.61 254.35 218.59 254.37 218.55 254.4C218.52 254.43 218.49 254.45 218.45 254.48C218.42 254.51 218.39 254.53 218.36 254.56C218.33 254.59 218.3 254.62 218.26 254.64C218.23 254.67 218.2 254.7 218.17 254.73C218.14 254.76 218.11 254.79 218.08 254.82C218.08 254.82 218.02 254.88 217.99 254.91C217.96 254.94 217.93 254.97 217.9 255C217.87 255.03 217.84 255.06 217.81 255.09C217.78 255.12 217.75 255.15 217.72 255.18C217.72 255.18 217.66 255.24 217.63 255.28C217.6 255.31 217.57 255.35 217.54 255.38C217.51 255.41 217.48 255.45 217.45 255.48C217.45 255.48 217.39 255.55 217.36 255.58C217.36 255.58 217.3 255.65 217.27 255.68C217.27 255.68 217.21 255.75 217.18 255.78C217.18 255.78 217.12 255.85 217.09 255.89C217.06 255.93 217.03 255.96 217 256C217 256 216.94 256.07 216.92 256.11C216.92 256.11 216.86 256.18 216.84 256.22C216.84 256.22 216.78 256.29 216.76 256.33C216.73 256.37 216.71 256.41 216.68 256.44C216.68 256.44 216.63 256.52 216.6 256.56C216.52 256.68 216.44 256.8 216.36 256.92C216.36 256.92 216.31 257 216.28 257.04C216.25 257.08 216.23 257.12 216.21 257.16C216.21 257.16 216.16 257.24 216.14 257.28C216.09 257.36 216.04 257.45 216 257.53C215.93 257.66 215.86 257.79 215.79 257.92C215.79 257.92 215.75 258.01 215.72 258.05C215.55 258.4 215.39 258.77 215.25 259.14C215.2 259.28 215.15 259.42 215.1 259.56C215.04 259.75 214.98 259.94 214.92 260.14V260.17V260.19V260.2V260.22V260.23V260.25V260.26V260.28V260.29V260.31V260.33V260.35V260.36V260.38V260.39V260.41V260.42V260.44C214.92 260.44 214.92 260.46 214.92 260.47C214.92 260.47 214.92 260.49 214.92 260.5C214.92 260.5 214.92 260.52 214.92 260.53V260.55V260.58V260.61V260.63V260.64V260.67V260.7V260.73V260.76C214.92 260.76 214.92 260.78 214.92 260.79V260.81V260.83C214.92 260.83 214.92 260.84 214.92 260.85V260.87V260.9V260.92V260.94V260.96V260.98V261V261.02C214.92 261.02 214.92 261.07 214.92 261.1C214.92 261.1 214.92 261.11 214.92 261.12C214.92 261.12 214.92 261.13 214.92 261.14C214.92 261.14 214.92 261.15 214.92 261.16C214.92 261.16 214.92 261.17 214.92 261.18C214.92 261.18 214.92 261.19 214.92 261.2C214.92 261.2 214.92 261.21 214.92 261.22C214.92 261.22 214.94 261.31 214.95 261.34C214.95 261.34 214.95 261.35 214.95 261.36C214.95 261.36 214.95 261.36 214.95 261.37C214.95 261.37 214.95 261.39 214.96 261.4L213.74 262.37L213.79 254.06L215.1 253.02C215.3 253.23 215.67 253.33 216.45 253.3C219.86 253.14 223.12 251.47 224.41 249.5C225.26 248.2 224.94 246.8 224.16 245.83L224.21 245.79C224.27 245.75 224.23 245.68 224.23 245.61C224.23 245.54 224.1 245.54 224.05 245.59L223.99 245.64C223.99 245.64 223.97 245.62 223.96 245.6C223.94 245.58 223.93 245.57 223.91 245.55C223.91 245.55 223.88 245.52 223.86 245.5C223.86 245.5 223.83 245.47 223.81 245.45C223.79 245.43 223.78 245.42 223.76 245.4C223.76 245.4 223.73 245.37 223.71 245.36C223.69 245.35 223.68 245.33 223.66 245.32C223.64 245.31 223.63 245.29 223.61 245.28C223.61 245.28 223.58 245.25 223.56 245.24C223.54 245.23 223.53 245.21 223.51 245.2C223.51 245.2 223.47 245.17 223.46 245.16C223.44 245.15 223.42 245.13 223.41 245.12C223.41 245.12 223.37 245.1 223.36 245.08C223.34 245.07 223.32 245.06 223.31 245.04C223.31 245.04 223.27 245.02 223.25 245C223.23 244.99 223.21 244.98 223.19 244.97C223.17 244.96 223.15 244.95 223.13 244.94C223.11 244.93 223.09 244.92 223.07 244.91C223.05 244.9 223.03 244.89 223.01 244.88C222.99 244.87 222.97 244.86 222.95 244.85C222.95 244.85 222.91 244.83 222.89 244.82C222.89 244.82 222.85 244.8 222.83 244.79C222.81 244.79 222.79 244.77 222.77 244.76C222.75 244.76 222.73 244.74 222.71 244.74C222.67 244.72 222.63 244.71 222.59 244.69C222.59 244.69 222.55 244.68 222.53 244.67C222.53 244.67 222.49 244.66 222.47 244.65C222.45 244.65 222.43 244.64 222.41 244.63C222.41 244.63 222.33 244.61 222.28 244.6C222.28 244.6 222.24 244.6 222.22 244.59C222.2 244.59 222.18 244.59 222.16 244.58C222.14 244.58 222.12 244.58 222.09 244.57C222.09 244.57 222.05 244.57 222.02 244.56C222 244.56 221.98 244.56 221.95 244.56C221.93 244.56 221.91 244.56 221.88 244.56C221.86 244.56 221.84 244.56 221.81 244.56C221.81 244.56 221.76 244.56 221.74 244.56C221.74 244.56 221.7 244.56 221.67 244.56C221.67 244.56 221.63 244.56 221.6 244.56C221.6 244.56 221.55 244.56 221.53 244.56C221.51 244.56 221.48 244.56 221.46 244.56C221.44 244.56 221.41 244.56 221.39 244.56C221.32 244.56 221.25 244.56 221.18 244.58C221.18 244.58 221.09 244.59 221.04 244.6C220.92 244.62 220.81 244.64 220.69 244.67C220.69 244.67 220.64 244.68 220.62 244.69C220.46 244.74 220.29 244.8 220.12 244.88C220.05 244.91 219.99 244.94 219.92 244.98C219.82 245.03 219.72 245.08 219.63 245.14C219.63 245.14 219.56 245.18 219.53 245.2C219.53 245.2 219.46 245.24 219.43 245.26C219.43 245.26 219.36 245.3 219.33 245.32C219.33 245.32 219.26 245.36 219.23 245.38C219.23 245.38 219.17 245.42 219.13 245.45C219.13 245.45 219.06 245.5 219.03 245.52C219.03 245.52 218.97 245.57 218.93 245.59C218.9 245.61 218.87 245.64 218.83 245.66C218.83 245.66 218.77 245.71 218.73 245.74C218.69 245.77 218.67 245.79 218.63 245.82C218.6 245.85 218.57 245.87 218.53 245.9C218.5 245.93 218.47 245.95 218.44 245.98C218.41 246.01 218.38 246.04 218.34 246.06C218.31 246.09 218.28 246.12 218.25 246.15C218.22 246.18 218.19 246.21 218.16 246.24C218.16 246.24 218.1 246.3 218.07 246.33C218.04 246.36 218.01 246.39 217.98 246.42C217.95 246.45 217.92 246.48 217.89 246.51C217.86 246.54 217.83 246.57 217.8 246.6C217.8 246.6 217.74 246.66 217.71 246.7C217.68 246.73 217.65 246.77 217.62 246.8C217.59 246.83 217.56 246.87 217.53 246.9C217.53 246.9 217.47 246.97 217.44 247C217.44 247 217.38 247.07 217.35 247.1C217.35 247.1 217.29 247.17 217.26 247.2C217.26 247.2 217.2 247.27 217.17 247.31C217.14 247.35 217.11 247.38 217.08 247.42C217.08 247.42 217.02 247.49 217 247.53C217 247.53 216.94 247.6 216.92 247.64C216.92 247.64 216.86 247.72 216.84 247.75C216.81 247.79 216.79 247.83 216.76 247.86C216.76 247.86 216.71 247.94 216.68 247.98C216.6 248.1 216.52 248.21 216.44 248.34C216.44 248.34 216.39 248.42 216.36 248.46C216.33 248.5 216.31 248.54 216.29 248.58C216.29 248.58 216.24 248.66 216.22 248.7C216.17 248.78 216.12 248.87 216.08 248.95C216.01 249.08 215.94 249.21 215.87 249.34C215.87 249.34 215.83 249.43 215.8 249.47C215.63 249.82 215.47 250.19 215.33 250.56C215.28 250.7 215.23 250.84 215.18 250.98C215.12 251.17 215.06 251.36 215 251.56V251.59V251.61V251.62V251.64V251.65V251.67V251.68V251.7V251.71V251.73V251.75V251.77V251.78V251.8V251.81V251.83V251.84V251.86C215 251.86 215 251.88 215 251.89C215 251.89 215 251.91 215 251.92C215 251.92 215 251.94 215 251.95V251.97V252V252.03V252.06V252.09V252.12V252.15V252.18C215 252.18 215 252.2 215 252.21V252.23V252.25C215 252.25 215 252.26 215 252.27V252.29V252.32V252.34V252.36V252.38V252.4V252.42V252.44C215 252.44 215 252.49 215 252.52C215 252.52 215 252.53 215 252.54C215 252.54 215 252.55 215 252.56C215 252.56 215 252.57 215 252.58C215 252.58 215 252.59 215 252.6C215 252.6 215 252.61 215 252.62C215 252.62 215 252.63 215 252.64C215 252.64 215.02 252.73 215.03 252.76C215.03 252.76 215.03 252.77 215.03 252.78C215.03 252.78 215.03 252.78 215.03 252.79C215.03 252.79 215.03 252.81 215.04 252.82L213.87 253.75L213.89 250.44C213.89 250.44 213.89 250.44 213.9 250.44C213.9 250.44 213.9 250.44 213.91 250.43C213.91 250.43 213.91 250.43 213.92 250.42C213.92 250.42 213.92 250.42 213.93 250.41C213.93 250.41 213.99 250.36 214.03 250.34C214.03 250.34 214.03 250.33 214.04 250.33C214.04 250.33 214.04 250.32 214.05 250.31C214.05 250.31 214.05 250.3 214.06 250.29L214.07 250.27L214.08 250.25L214.09 250.23C214.09 250.23 214.09 250.22 214.1 250.21C214.1 250.21 214.13 250.18 214.15 250.16L214.16 250.15L214.17 250.13L214.18 250.11L214.19 250.09L214.2 250.07L214.21 250.05H214.22V250.03H214.23L214.24 250.01C214.24 250.01 214.26 249.97 214.28 249.96C214.28 249.96 214.29 249.94 214.3 249.94V249.93V249.91L214.32 249.9V249.88L214.34 249.87V249.85L214.36 249.84V249.82L214.38 249.81H214.39L214.4 249.78H214.41L214.42 249.75L214.44 249.72L214.46 249.69L214.48 249.66C214.48 249.65 214.5 249.64 214.5 249.63C214.5 249.63 214.56 249.54 214.6 249.5C214.6 249.5 214.66 249.41 214.69 249.37C214.75 249.28 214.81 249.19 214.87 249.1C214.87 249.1 214.93 249.01 214.96 248.97C215.02 248.88 215.08 248.79 215.13 248.7C215.13 248.7 215.19 248.61 215.21 248.56C215.21 248.56 215.26 248.47 215.29 248.42C215.29 248.42 215.34 248.33 215.37 248.28C215.37 248.28 215.42 248.19 215.45 248.14C215.45 248.14 215.5 248.05 215.53 248C215.53 248 215.58 247.91 215.6 247.86C215.6 247.86 215.65 247.77 215.67 247.72C215.72 247.63 215.76 247.53 215.81 247.44C215.81 247.44 215.85 247.34 215.88 247.3C215.88 247.3 215.92 247.2 215.94 247.16C215.94 247.16 215.98 247.06 216 247.02C216 247.02 216.04 246.92 216.06 246.88C216.06 246.88 216.1 246.78 216.12 246.74C216.12 246.74 216.16 246.64 216.18 246.6C216.18 246.6 216.22 246.5 216.23 246.46C216.23 246.46 216.27 246.36 216.28 246.32C216.28 246.32 216.31 246.22 216.33 246.18C216.33 246.18 216.36 246.08 216.38 246.04C216.38 246.04 216.41 245.94 216.43 245.9C216.43 245.9 216.46 245.8 216.47 245.76C216.48 245.71 216.5 245.66 216.51 245.62C216.52 245.57 216.54 245.52 216.55 245.48C216.56 245.43 216.58 245.38 216.59 245.34C216.6 245.29 216.62 245.24 216.63 245.2C216.64 245.15 216.65 245.1 216.67 245.06C216.68 245.01 216.69 244.96 216.7 244.92C216.71 244.87 216.72 244.82 216.73 244.78C216.74 244.73 216.75 244.69 216.76 244.64C216.76 244.59 216.78 244.55 216.79 244.5C216.79 244.45 216.81 244.41 216.82 244.36C216.82 244.31 216.84 244.27 216.84 244.22C216.84 244.17 216.85 244.13 216.86 244.08C216.86 244.08 216.87 243.99 216.88 243.94C216.88 243.89 216.89 243.85 216.9 243.8C216.9 243.8 216.91 243.71 216.92 243.66C216.92 243.61 216.92 243.57 216.93 243.52C216.93 243.52 216.93 243.43 216.94 243.38C216.94 243.38 216.94 243.29 216.95 243.24C216.95 243.19 216.95 243.15 216.95 243.1C216.95 243.1 216.95 243.01 216.95 242.97C216.95 242.97 216.95 242.88 216.95 242.84C216.95 242.84 216.95 242.75 216.95 242.71V242.58C216.95 242.58 216.95 242.49 216.95 242.45C216.95 242.45 216.95 242.36 216.95 242.32C216.95 242.32 216.95 242.23 216.95 242.19C216.95 242.19 216.95 242.11 216.95 242.06C216.92 241.68 216.87 241.32 216.79 240.98C216.76 240.87 216.73 240.77 216.7 240.66C216.7 240.66 216.68 240.61 216.67 240.58C216.67 240.58 216.65 240.53 216.64 240.5C216.6 240.4 216.56 240.3 216.52 240.21C216.52 240.21 216.47 240.12 216.45 240.07C216.45 240.07 216.4 239.98 216.38 239.94C216.38 239.94 216.35 239.9 216.34 239.88C216.34 239.88 216.31 239.84 216.3 239.82C216.3 239.82 216.27 239.78 216.26 239.76C216.26 239.76 216.23 239.72 216.22 239.7C216.22 239.7 216.19 239.66 216.18 239.64C216.18 239.64 216.15 239.6 216.14 239.58C216.14 239.58 216.11 239.54 216.09 239.52C216.09 239.52 216.06 239.48 216.04 239.46C216.02 239.44 216.01 239.42 215.99 239.41C215.99 239.41 215.96 239.37 215.94 239.36C215.92 239.34 215.91 239.33 215.89 239.31C215.89 239.31 215.86 239.28 215.84 239.26C215.84 239.26 215.81 239.23 215.79 239.21C215.77 239.19 215.76 239.18 215.74 239.16C215.74 239.16 215.7 239.13 215.69 239.11C215.67 239.09 215.65 239.08 215.64 239.06C215.62 239.04 215.6 239.03 215.59 239.02C215.57 239.01 215.55 238.99 215.53 238.98C215.51 238.97 215.49 238.95 215.47 238.94L215.41 238.9C215.41 238.9 215.37 238.87 215.35 238.86C215.33 238.85 215.31 238.83 215.29 238.82C215.27 238.81 215.25 238.79 215.23 238.78C215.23 238.78 215.19 238.76 215.17 238.74C215.15 238.72 215.13 238.72 215.11 238.7C215.09 238.69 215.07 238.68 215.05 238.67C215.03 238.66 215.01 238.65 214.99 238.64C214.97 238.63 214.95 238.62 214.93 238.61C214.91 238.6 214.89 238.59 214.87 238.58C214.85 238.58 214.83 238.56 214.81 238.55C214.79 238.55 214.77 238.53 214.75 238.52C214.73 238.52 214.71 238.5 214.68 238.49C214.66 238.49 214.64 238.47 214.61 238.46C214.61 238.46 214.57 238.44 214.54 238.44C214.52 238.44 214.5 238.42 214.47 238.42C214.45 238.42 214.43 238.41 214.4 238.4C214.38 238.4 214.35 238.39 214.33 238.38C214.31 238.38 214.28 238.37 214.26 238.36C214.24 238.36 214.21 238.35 214.19 238.34C214.17 238.34 214.14 238.33 214.12 238.32C214.1 238.31 214.07 238.31 214.05 238.3C214.03 238.3 214 238.3 213.98 238.29C213.96 238.29 213.93 238.29 213.91 238.28C213.91 238.28 213.86 238.28 213.84 238.27C213.82 238.27 213.79 238.27 213.77 238.27C213.75 238.27 213.72 238.27 213.7 238.27C213.68 238.27 213.65 238.27 213.63 238.27C213.61 238.27 213.58 238.27 213.56 238.27C213.54 238.27 213.51 238.27 213.49 238.27C213.47 238.27 213.44 238.27 213.42 238.27C213.4 238.27 213.38 238.27 213.36 238.27C213.33 238.27 213.29 238.27 213.26 238.27C213.26 238.27 213.19 238.27 213.16 238.27C213.14 238.27 213.12 238.27 213.1 238.27C213.08 238.27 213.05 238.27 213.03 238.27C213.01 238.27 212.98 238.27 212.96 238.27C212.94 238.27 212.91 238.27 212.89 238.27C212.87 238.27 212.84 238.27 212.82 238.27C212.8 238.27 212.77 238.27 212.75 238.27C212.73 238.27 212.7 238.27 212.68 238.27C212.66 238.27 212.63 238.27 212.61 238.28C212.61 238.28 212.56 238.28 212.54 238.29C212.52 238.29 212.49 238.29 212.47 238.3C212.45 238.3 212.42 238.3 212.4 238.32C212.38 238.32 212.35 238.33 212.33 238.34C212.31 238.34 212.28 238.35 212.26 238.36C212.24 238.36 212.21 238.37 212.19 238.38C212.17 238.38 212.14 238.39 212.12 238.4C212.1 238.4 212.07 238.41 212.05 238.42C212.03 238.42 212.01 238.43 211.98 238.44C211.96 238.44 211.94 238.46 211.91 238.46C211.91 238.46 211.87 238.48 211.84 238.49C211.82 238.49 211.8 238.51 211.77 238.52C211.75 238.52 211.73 238.54 211.71 238.55C211.69 238.55 211.67 238.57 211.65 238.58C211.63 238.58 211.61 238.6 211.59 238.61C211.57 238.62 211.55 238.63 211.53 238.64C211.51 238.65 211.49 238.66 211.47 238.67C211.45 238.68 211.43 238.69 211.41 238.7C211.39 238.71 211.37 238.72 211.35 238.74C211.33 238.75 211.31 238.76 211.29 238.78C211.29 238.78 211.25 238.8 211.23 238.82C211.21 238.83 211.19 238.85 211.17 238.86C211.15 238.87 211.13 238.89 211.11 238.9L211.05 238.94C211.05 238.94 211.01 238.97 210.99 238.98C210.97 238.99 210.95 239.01 210.93 239.02C210.91 239.03 210.89 239.05 210.88 239.06C210.86 239.08 210.84 239.09 210.83 239.11C210.81 239.13 210.79 239.14 210.78 239.16C210.78 239.16 210.74 239.19 210.73 239.21C210.71 239.23 210.7 239.24 210.68 239.26C210.68 239.26 210.65 239.29 210.63 239.31C210.63 239.31 210.6 239.34 210.58 239.36C210.56 239.38 210.55 239.4 210.53 239.41C210.53 239.41 210.5 239.45 210.48 239.46C210.46 239.48 210.45 239.5 210.43 239.52C210.43 239.52 210.4 239.56 210.38 239.58C210.38 239.58 210.35 239.62 210.34 239.64C210.34 239.64 210.31 239.68 210.3 239.7C210.3 239.7 210.27 239.74 210.26 239.76C210.26 239.76 210.23 239.8 210.22 239.82C210.22 239.82 210.19 239.86 210.18 239.88C210.18 239.88 210.15 239.92 210.14 239.94C210.14 239.94 210.09 240.03 210.07 240.07C210.07 240.07 210.02 240.16 210 240.21C209.96 240.3 209.91 240.4 209.88 240.5C209.88 240.5 209.86 240.55 209.85 240.58C209.85 240.58 209.83 240.63 209.82 240.66C209.79 240.76 209.76 240.87 209.73 240.98C209.65 241.32 209.6 241.68 209.57 242.06L209.46 242.15Z" fill="#4EA185"/>
<path fill-rule="evenodd" clip-rule="evenodd" d="M421.73 211.22C422.26 211.23 422.79 211.24 423.32 211.24L421.73 211.22ZM425.06 211.24C425.65 211.24 426.23 211.22 426.81 211.2L425.06 211.24ZM430.04 129C429.47 133.77 427.3 140.86 424.67 142.02L424.72 150.02C425.45 150.02 426.18 150 426.91 149.98C427.57 147.71 431.25 144.74 434.4 143.08C440.13 140.06 446.81 139.79 456.32 141.27C458.65 141.63 459.49 142.04 459.76 142.6C460.02 143.16 459.72 143.88 458.16 145.32C452.33 150.71 447.67 153.32 440.85 154.04C435.94 154.56 428.28 153.95 426.97 151.43C426.89 151.28 426.84 151.13 426.81 150.97C426.11 150.99 425.41 151.01 424.7 151.01L424.78 165.2C425.49 165.2 426.19 165.18 426.88 165.16C427.54 162.89 431.22 159.92 434.37 158.26C440.1 155.24 446.78 154.97 456.29 156.45C458.62 156.81 459.46 157.22 459.73 157.78C459.99 158.34 459.69 159.06 458.13 160.5C452.3 165.89 447.64 168.5 440.82 169.22C435.91 169.74 428.25 169.13 426.94 166.61C426.86 166.46 426.81 166.31 426.78 166.15C426.11 166.17 425.44 166.18 424.76 166.19L424.84 180.38C425.52 180.38 426.19 180.36 426.86 180.34C427.52 178.07 431.2 175.1 434.35 173.44C440.08 170.42 446.76 170.15 456.27 171.63C458.6 171.99 459.44 172.4 459.71 172.96C459.97 173.52 459.67 174.24 458.11 175.68C452.28 181.07 447.62 183.68 440.8 184.4C435.89 184.92 428.23 184.31 426.92 181.79C426.84 181.64 426.79 181.49 426.76 181.33C426.12 181.35 425.47 181.36 424.82 181.37L424.9 195.56C425.55 195.56 426.19 195.54 426.83 195.52C427.49 193.25 431.17 190.28 434.32 188.62C440.05 185.6 446.73 185.33 456.24 186.81C458.57 187.17 459.41 187.58 459.68 188.14C459.94 188.7 459.64 189.42 458.08 190.86C452.25 196.25 447.59 198.86 440.77 199.58C435.86 200.1 428.2 199.49 426.89 196.97C426.81 196.82 426.76 196.67 426.73 196.51C426.12 196.53 425.5 196.54 424.88 196.55L424.94 206.7L424.97 211.23L425.13 240.2C425.13 240.68 424.74 241.07 424.26 241.07C423.78 241.07 423.39 240.68 423.39 240.2L423.23 211.24L423.2 206.7L423.14 196.55C422.63 196.55 422.12 196.54 421.61 196.53C421.58 196.68 421.53 196.83 421.46 196.97C420.16 199.49 412.5 200.09 407.58 199.58C400.77 198.86 396.1 196.25 390.27 190.86C388.72 189.42 388.41 188.7 388.67 188.14C388.93 187.58 389.78 187.17 392.11 186.81C401.63 185.33 408.31 185.6 414.03 188.62C417.19 190.28 420.88 193.27 421.53 195.54C422.06 195.55 422.59 195.56 423.12 195.57L423.04 181.38C422.56 181.38 422.08 181.37 421.6 181.36C421.57 181.51 421.52 181.66 421.45 181.8C420.15 184.32 412.49 184.92 407.57 184.41C400.76 183.69 396.09 181.08 390.26 175.69C388.71 174.25 388.4 173.53 388.66 172.97C388.92 172.41 389.77 172 392.1 171.64C401.62 170.16 408.3 170.43 414.02 173.45C417.18 175.11 420.87 178.1 421.52 180.37C422.02 180.38 422.52 180.39 423.03 180.4L422.95 166.21C422.5 166.21 422.04 166.2 421.59 166.19C421.56 166.34 421.51 166.49 421.44 166.63C420.14 169.15 412.48 169.75 407.56 169.24C400.75 168.52 396.08 165.91 390.25 160.52C388.7 159.08 388.39 158.36 388.65 157.8C388.91 157.24 389.76 156.83 392.09 156.47C401.61 154.99 408.29 155.26 414.01 158.28C417.17 159.94 420.86 162.93 421.51 165.2C421.98 165.21 422.46 165.22 422.93 165.22L422.85 151.03C422.42 151.03 422 151.02 421.58 151.01C421.55 151.16 421.5 151.31 421.43 151.45C420.13 153.97 412.47 154.57 407.55 154.06C400.74 153.34 396.07 150.73 390.24 145.34C388.69 143.9 388.38 143.18 388.64 142.62C388.9 142.06 389.75 141.65 392.08 141.29C401.6 139.81 408.28 140.08 414 143.1C417.16 144.76 420.85 147.75 421.5 150.02C421.94 150.03 422.39 150.04 422.84 150.04L422.79 141.91C420.74 140.79 418.69 136.65 417.77 133.26C416.1 127.06 417.32 120.45 420.89 111.39C421.76 109.17 422.35 108.42 422.96 108.27C423.57 108.12 424.2 108.56 425.26 110.36C429.22 117.12 430.73 122.19 429.91 129.02L430.04 129ZM407.68 214.77C400.87 214.05 396.2 211.44 390.37 206.05C388.82 204.61 388.51 203.89 388.77 203.33C389.03 202.77 389.88 202.36 392.21 202C401.73 200.52 408.41 200.79 414.13 203.81C415.57 204.57 417.12 205.6 418.44 206.71C420.24 208.22 421.62 209.89 421.72 211.23C421.75 211.57 421.69 211.88 421.54 212.17C420.24 214.69 412.58 215.29 407.66 214.78L407.68 214.77ZM440.86 214.77C435.95 215.29 428.29 214.68 426.98 212.16C426.83 211.87 426.78 211.55 426.81 211.2C426.93 209.87 428.29 208.22 430.08 206.71C431.4 205.59 432.96 204.56 434.4 203.8C440.13 200.78 446.81 200.51 456.32 201.99C458.65 202.35 459.49 202.76 459.76 203.32C460.02 203.88 459.72 204.6 458.16 206.04C452.33 211.43 447.67 214.04 440.85 214.76L440.86 214.77Z" fill="#4EA185"/>
<path d="M335.47 61.7402H213.15V204.44H335.47V61.7402Z" fill="#F7F7EF"/>
<path fill-rule="evenodd" clip-rule="evenodd" d="M213.15 61.7401H254.87H335.48L275.17 8.06006L213.15 61.7401Z" fill="#04315B"/>
<path fill-rule="evenodd" clip-rule="evenodd" d="M274.31 42.5098C287.15 42.5098 297.55 52.9198 297.55 65.7498C297.55 78.5798 287.14 88.9898 274.31 88.9898C261.48 88.9898 251.07 78.5798 251.07 65.7498C251.07 52.9198 261.48 42.5098 274.31 42.5098Z" fill="#F7F7EF"/>
<path fill-rule="evenodd" clip-rule="evenodd" d="M274.31 54.3198C280.63 54.3198 285.75 59.4398 285.75 65.7598C285.75 72.0798 280.63 77.1998 274.31 77.1998C267.99 77.1998 262.87 72.0798 262.87 65.7598C262.87 59.4398 267.99 54.3198 274.31 54.3198Z" fill="#C2CDE1"/>
<path d="M275.16 54.3198H273.46V77.1998H275.16V54.3198Z" fill="#04315B"/>
<path d="M285.76 64.9102H262.88V66.6102H285.76V64.9102Z" fill="#04315B"/>
<path d="M251.48 0H243.09V38.29H251.48V0Z" fill="#04315B"/>
<path d="M335.47 128.98H213.15V204.43H335.47V128.98Z" fill="#034585"/>
<path d="M252.08 83.2798H231.71V128.99H252.08V83.2798Z" fill="#C2CDE1"/>
<path d="M252.08 97.27H231.71V98.57H252.08V97.27Z" fill="#04315B"/>
<path d="M242.54 83.2798H241.24V128.99H242.54V83.2798Z" fill="#04315B"/>
<path d="M252.08 113.44H231.71V114.74H252.08V113.44Z" fill="#04315B"/>
<path d="M315.82 83.2798H295.45V128.99H315.82V83.2798Z" fill="#C2CDE1"/>
<path d="M315.81 83.2798H306.28V128.99H315.81V83.2798Z" fill="#C2CDE1"/>
<path d="M315.82 97.27H295.45V98.57H315.82V97.27Z" fill="#04315B"/>
<path d="M306.28 83.2798H304.98V128.99H306.28V83.2798Z" fill="#04315B"/>
<path d="M315.82 113.44H295.45V114.74H315.82V113.44Z" fill="#04315B"/>
<path d="M252.08 140.2H231.71V185.91H252.08V140.2Z" fill="#C2CDE1"/>
<path d="M241.89 140.2H231.71V185.91H241.89V140.2Z" fill="#C2CDE1"/>
<path d="M252.08 154.18H231.71V155.48H252.08V154.18Z" fill="#04315B"/>
<path d="M242.54 140.2H241.24V185.91H242.54V140.2Z" fill="#04315B"/>
<path d="M252.08 170.36H231.71V171.66H252.08V170.36Z" fill="#04315B"/>
<path d="M315.82 140.2H295.45V185.91H315.82V140.2Z" fill="#C2CDE1"/>
<path d="M315.82 154.18H295.45V155.48H315.82V154.18Z" fill="#04315B"/>
<path d="M306.28 140.2H304.98V185.91H306.28V140.2Z" fill="#04315B"/>
<path d="M315.82 170.36H295.45V171.66H315.82V170.36Z" fill="#04315B"/>
<path d="M286.23 128.98H262.4V204.43H286.23V128.98Z" fill="#034585"/>
<path d="M286.23 153.98H262.4V204.44H286.23V153.98Z" fill="#C2CDE1"/>
<path d="M335.47 204.43H213.15V214.08H335.47V204.43Z" fill="#04315B"/>
<path fill-rule="evenodd" clip-rule="evenodd" d="M449.74 240.2H276.67V253.89L286.09 264.68H441.6L449.74 255.23V240.2Z" fill="#034585"/>
<path fill-rule="evenodd" clip-rule="evenodd" d="M352.69 240.2H276.67V253.89L286.09 264.68H352.69V240.2Z" fill="#04315B"/>
<path fill-rule="evenodd" clip-rule="evenodd" d="M434.56 260.51C430.58 260.51 427.35 263.74 427.35 267.72C427.35 271.7 430.58 274.93 434.56 274.93C438.54 274.93 441.77 271.7 441.77 267.72C441.77 263.74 438.54 260.51 434.56 260.51Z" fill="#C2CDE1"/>
<path fill-rule="evenodd" clip-rule="evenodd" d="M318.7 260.51C314.72 260.51 311.49 263.74 311.49 267.72C311.49 271.7 314.72 274.93 318.7 274.93C322.68 274.93 325.91 271.7 325.91 267.72C325.91 263.74 322.68 260.51 318.7 260.51Z" fill="#C2CDE1"/>
<path fill-rule="evenodd" clip-rule="evenodd" d="M411.28 240.2H303.77V182.47H388.47L411.28 240.2Z" fill="#034585"/>
<path fill-rule="evenodd" clip-rule="evenodd" d="M408.76 240.19H353.75V184.15H386.61L408.76 240.19ZM351.96 240.19H310.88V184.15H351.96V240.19Z" fill="#C2CDE1"/>
<path d="M364.52 245.59H357.4V248H364.52V245.59Z" fill="#F2EAFF"/>
<path fill-rule="evenodd" clip-rule="evenodd" d="M448.68 247.67V252.15C446.21 252.15 444.2 250.14 444.2 247.67C444.2 245.2 446.21 243.19 448.68 243.19V247.67Z" fill="#F2EAFF"/>
<path fill-rule="evenodd" clip-rule="evenodd" d="M278.05 247.67V252.15C280.52 252.15 282.53 250.14 282.53 247.67C282.53 245.2 280.52 243.19 278.05 243.19V247.67Z" fill="#C2CDE1"/>
<path d="M189.6 100.35H46.7695V266.97H189.6V100.35Z" fill="#F7F7EF"/>
<path fill-rule="evenodd" clip-rule="evenodd" d="M189.6 100.35H140.89H46.7695L64.7495 50.04H140.89H171.63L189.6 100.35Z" fill="#04315B"/>
<path d="M118.19 132.18C133.179 132.18 145.33 120.029 145.33 105.04C145.33 90.0509 133.179 77.8999 118.19 77.8999C103.201 77.8999 91.0498 90.0509 91.0498 105.04C91.0498 120.029 103.201 132.18 118.19 132.18Z" fill="#F7F7EF"/>
<path fill-rule="evenodd" clip-rule="evenodd" d="M118.19 91.6802C110.81 91.6802 104.83 97.6602 104.83 105.04C104.83 112.42 110.81 118.4 118.19 118.4C125.57 118.4 131.55 112.42 131.55 105.04C131.55 97.6602 125.57 91.6802 118.19 91.6802Z" fill="#C2CDE1"/>
<path d="M119.18 91.6802H117.2V118.39H119.18V91.6802Z" fill="#034585"/>
<path d="M131.54 104.05H104.83V106.03H131.54V104.05Z" fill="#034585"/>
<path d="M154.64 28.2598H144.85V50.0398H154.64V28.2598Z" fill="#04315B"/>
<path d="M189.6 178.87H46.7695V266.97H189.6V178.87Z" fill="#034585"/>
<path d="M167.94 125.5H144.15V178.87H167.94V125.5Z" fill="#C2CDE1"/>
<path d="M167.94 141.83H144.15V143.35H167.94V141.83Z" fill="#034585"/>
<path d="M156.8 125.5H155.28V178.87H156.8V125.5Z" fill="#034585"/>
<path d="M167.94 160.72H144.15V162.24H167.94V160.72Z" fill="#034585"/>
<path d="M93.5097 125.5H69.7197V178.87H93.5097V125.5Z" fill="#C2CDE1"/>
<path d="M80.8497 125.5H69.7197V178.87H80.8497V125.5Z" fill="#C2CDE1"/>
<path d="M93.5097 141.83H69.7197V143.35H93.5097V141.83Z" fill="#034585"/>
<path d="M82.3803 125.5H80.8604V178.87H82.3803V125.5Z" fill="#034585"/>
<path d="M93.5097 160.72H69.7197V162.24H93.5097V160.72Z" fill="#034585"/>
<path d="M167.94 191.96H144.15V245.33H167.94V191.96Z" fill="#C2CDE1"/>
<path d="M167.93 191.96H156.04V245.33H167.93V191.96Z" fill="#C2CDE1"/>
<path d="M167.94 208.29H144.15V209.81H167.94V208.29Z" fill="#034585"/>
<path d="M156.8 191.96H155.28V245.33H156.8V191.96Z" fill="#034585"/>
<path d="M167.94 227.18H144.15V228.7H167.94V227.18Z" fill="#034585"/>
<path d="M93.5097 191.96H69.7197V245.33H93.5097V191.96Z" fill="#C2CDE1"/>
<path d="M93.5097 208.29H69.7197V209.81H93.5097V208.29Z" fill="#034585"/>
<path d="M82.3803 191.96H80.8604V245.33H82.3803V191.96Z" fill="#034585"/>
<path d="M93.5097 227.18H69.7197V228.7H93.5097V227.18Z" fill="#034585"/>
<path d="M132.1 178.87H104.27V266.97H132.1V178.87Z" fill="#034585"/>
<path d="M132.1 208.05H104.27V266.97H132.1V208.05Z" fill="#C2CDE1"/>
<path d="M189.6 266.97H46.7695V278.24H189.6V266.97Z" fill="#04315B"/>
</g>
<defs>
<clipPath id="clip0_797_569">
<rect width="459.84" height="278.24" fill="white"/>
</clipPath>
</defs>
</svg>
