<svg width="24" height="24" viewBox="0 0 24 24" fill="none" xmlns="http://www.w3.org/2000/svg">
<path fill-rule="evenodd" clip-rule="evenodd" d="M12 22C17.5228 22 22 17.5228 22 12C22 6.47715 17.5228 2 12 2C6.47715 2 2 6.47715 2 12C2 17.5228 6.47715 22 12 22ZM17.1758 10.2372C17.5829 9.86397 17.6104 9.2314 17.2372 8.82428C16.864 8.41716 16.2314 8.38966 15.8243 8.76285L10.4558 13.684L8.62473 12.2191C8.19347 11.8741 7.56418 11.944 7.21917 12.3753C6.87416 12.8066 6.94408 13.4359 7.37534 13.7809L9.87534 15.7809C10.2603 16.0889 10.8123 16.0703 11.1758 15.7372L17.1758 10.2372Z" fill="#12D8E4"/>
</svg>
