<svg width="434" height="282" viewBox="0 0 434 282" fill="none" xmlns="http://www.w3.org/2000/svg">
<g clip-path="url(#clip0_797_174)">
<path fill-rule="evenodd" clip-rule="evenodd" d="M288.8 113.41C281.54 113.41 275.6 119.35 275.6 126.61V152.43C275.6 159.69 281.54 165.63 288.8 165.63C296.06 165.63 302 159.69 302 152.43V126.61C302 119.35 296.06 113.41 288.8 113.41Z" fill="#232017"/>
<path fill-rule="evenodd" clip-rule="evenodd" d="M250.01 122.2C247.64 120.98 244.69 121.92 243.47 124.29L224.85 160.42C223.63 162.79 224.57 165.74 226.94 166.96C229.31 168.18 232.26 167.24 233.48 164.87L252.1 128.74C253.32 126.37 252.38 123.42 250.01 122.2Z" fill="#FC5E48"/>
<path fill-rule="evenodd" clip-rule="evenodd" d="M165.4 128.16L129.02 199.3C126.59 204.04 121.65 204.95 117.96 203.45C114 201.84 111.5 197.49 113.38 192.37L140.71 117.87C143.95 109.03 152.59 107.27 158.98 110.39C164.56 113.11 169.57 120.02 165.41 128.16H165.4Z" fill="#FC5E48"/>
<path fill-rule="evenodd" clip-rule="evenodd" d="M129.73 194.94L159.84 260.61C160.75 262.58 160.46 264.04 159.6 264.7C158.47 265.58 156.36 265.08 154.69 262.61L115.01 203.63C111.33 198.16 113.53 192.84 117.96 190.56C121.82 188.57 127.06 189.11 129.73 194.93V194.94Z" fill="#FC5E48"/>
<path fill-rule="evenodd" clip-rule="evenodd" d="M154.88 263.81L147.97 274.4C146.25 277.04 147.18 277.65 149.31 275.89L161.44 265.82C162.12 265.25 162.6 264.11 162.15 263.6L160.02 261.11C159.46 260.46 158.85 260.69 158.71 260.8L154.87 263.82L154.88 263.81Z" fill="#3A1E33"/>
<path fill-rule="evenodd" clip-rule="evenodd" d="M186.88 122.93L180.65 202.59C180.23 207.9 176.02 210.64 172.04 210.68C167.77 210.71 163.79 207.66 163.55 202.21L160.13 122.93C159.72 113.52 167.02 108.58 174.12 109C180.32 109.36 187.6 113.82 186.89 122.93H186.88Z" fill="#FC5E48"/>
<path fill-rule="evenodd" clip-rule="evenodd" d="M180.52 204.09L176.25 276.21C176.12 278.38 175.18 279.53 174.11 279.71C172.7 279.95 171.07 278.53 170.76 275.56L163.44 204.86C162.76 198.31 167.21 194.64 172.19 194.71C176.54 194.77 180.9 197.71 180.52 204.1V204.09Z" fill="#FC5E48"/>
<path fill-rule="evenodd" clip-rule="evenodd" d="M171.18 275.08L159.12 278.91C156.11 279.86 156.45 280.93 159.21 280.91L174.98 280.79C175.87 280.79 176.96 280.2 176.94 279.52L176.87 276.25C176.85 275.39 176.23 275.18 176.06 275.18L171.18 275.09V275.08Z" fill="#3A1E33"/>
<path fill-rule="evenodd" clip-rule="evenodd" d="M161.29 49.6H168.94C172.38 49.6 175.2 52.32 175.2 55.65V89.2C175.2 94.61 175.71 97.17 179.39 101.49C182.62 105.27 187.31 109.01 186.51 122.82L135.89 123.11C135.73 109.94 139.68 105.67 142.9 101.88C146.98 97.07 147.38 95.16 147.38 89.21V55.66C147.38 52.33 150.2 49.61 153.64 49.61H161.29V49.6Z" fill="#A3A4A5"/>
<path fill-rule="evenodd" clip-rule="evenodd" d="M175.96 95.9C176.56 97.7 177.6 99.39 179.39 101.5C182.62 105.28 187.31 109.02 186.51 122.83L185.89 133.55H136.01L135.88 123.13C135.72 109.96 139.67 105.69 142.89 101.9C144.96 99.46 146.08 97.77 146.68 95.92H175.95L175.96 95.9Z" fill="#FC5E48"/>
<path fill-rule="evenodd" clip-rule="evenodd" d="M190.72 45.26C193.85 44.21 197.15 45.96 198.33 49.04L214.16 90.18C215.35 93.27 213.51 96.74 210.38 97.79C207.25 98.84 203.95 97.09 202.77 94.01L186.94 52.87C185.75 49.78 187.59 46.31 190.72 45.26Z" fill="#A3A4A5"/>
<path d="M165.09 19.97H156.29V43.87H165.09V19.97Z" fill="#F9C9B3"/>
<path fill-rule="evenodd" clip-rule="evenodd" d="M129.36 44.83C132.48 44.83 135.03 47.38 135.03 50.5V102.59C135.03 105.71 132.48 108.26 129.36 108.26C126.24 108.26 123.69 105.71 123.69 102.59V50.5C123.69 47.38 126.24 44.83 129.36 44.83Z" fill="#A3A4A5"/>
<path fill-rule="evenodd" clip-rule="evenodd" d="M159.18 11.26C154.24 11.26 150.23 15.27 150.23 20.21C150.23 25.15 154.24 29.16 159.18 29.16C164.12 29.16 168.13 25.15 168.13 20.21C168.13 15.27 164.12 11.26 159.18 11.26Z" fill="#F9C9B3"/>
<path fill-rule="evenodd" clip-rule="evenodd" d="M159.81 20.14L164.71 28.93C167.74 27.12 169.61 23.76 169.61 20.14C169.61 14.53 165.23 9.99001 159.82 9.99001C158.1 9.99001 156.41 10.46 154.92 11.35L159.82 20.14H159.81Z" fill="#20212F"/>
<path fill-rule="evenodd" clip-rule="evenodd" d="M160.02 17.28C158.49 17.28 157.26 18.52 157.26 20.04C157.26 21.56 158.5 22.8 160.02 22.8C161.54 22.8 162.78 21.56 162.78 20.04C162.78 18.52 161.54 17.28 160.02 17.28Z" fill="#E36563"/>
<path fill-rule="evenodd" clip-rule="evenodd" d="M151 22.14L150.88 16.91C150.45 18.25 149.99 19.55 148.45 20.01C147.4 20.69 150.68 22.13 151.01 22.13L151 22.14Z" fill="#F9C9B3"/>
<path fill-rule="evenodd" clip-rule="evenodd" d="M123.98 51.13C123.98 46.85 127.49 43.34 131.77 43.34H189.74C194.02 43.34 197.53 46.84 197.53 51.13C197.53 55.41 194.02 58.92 189.74 58.92H131.77C127.49 58.92 123.98 55.42 123.98 51.13Z" fill="#A3A4A5"/>
<path fill-rule="evenodd" clip-rule="evenodd" d="M178.87 43.38L185.34 43.27V59.46C185.32 64.38 184.42 68.57 182.05 71.55C178.52 75.98 175.35 75.38 170.45 75.38H151.1C147.56 75.38 143.55 76 140.64 73.62C137.68 71.21 136.15 66.41 136.43 59.62V43.26H143C143.02 51.96 143.81 56.74 152.46 55.85H171.14C178.64 56.6 178.51 50.59 178.87 43.37V43.38Z" fill="#A3A4A5"/>
<path fill-rule="evenodd" clip-rule="evenodd" d="M203 92.57L212.64 127.51C213.4 130.25 215.43 132.11 217.15 131.63C218.88 131.15 219.27 128.56 218.92 125.78L214.55 91.77C213.82 86.13 210.84 83.58 207.85 83.9C204.74 84.24 201.66 87.67 203.01 92.56L203 92.57Z" fill="#A3A4A5"/>
<path fill-rule="evenodd" clip-rule="evenodd" d="M213.34 127.41L211.64 129.36C211.23 129.83 211.28 130.55 211.75 130.96C212.22 131.37 212.94 131.32 213.35 130.85L215.05 128.9C215.46 128.43 215.41 127.71 214.94 127.3C214.47 126.89 213.75 126.94 213.34 127.41Z" fill="#F9C9B3"/>
<path d="M214.947 132.09L214.55 132.226C214.357 132.292 214.254 132.503 214.32 132.696L217.53 142.051C217.597 142.244 217.807 142.347 218 142.281L218.398 142.144C218.591 142.078 218.694 141.868 218.628 141.674L215.417 132.32C215.351 132.126 215.141 132.023 214.947 132.09Z" fill="#F9C9B3"/>
<path d="M216.552 133.27L216.94 133.137C217.139 133.069 217.345 133.178 217.41 133.367L220.62 142.721C220.688 142.92 220.579 143.127 220.39 143.192L220.002 143.325C219.804 143.393 219.597 143.284 219.532 143.095L216.322 133.74C216.254 133.542 216.363 133.335 216.552 133.27Z" fill="#E36563"/>
<path d="M218.006 132.784L218.394 132.651C218.592 132.583 218.799 132.692 218.864 132.881L221.759 141.318C221.827 141.517 221.718 141.723 221.529 141.788L221.132 141.924C220.933 141.993 220.727 141.884 220.662 141.695L217.767 133.257C217.698 133.059 217.807 132.852 217.996 132.787L218.006 132.784Z" fill="#E36563"/>
<path d="M218.873 130.557L219.261 130.424C219.46 130.356 219.666 130.465 219.731 130.654L222.625 139.091C222.693 139.29 222.584 139.496 222.395 139.561L221.997 139.698C221.799 139.766 221.592 139.657 221.527 139.468L218.634 131.03C218.566 130.831 218.674 130.625 218.864 130.56L218.873 130.557Z" fill="#E36563"/>
<path d="M214.392 126.048L215.934 125.519C217.145 125.103 218.475 125.746 218.894 126.966L220.618 131.989C221.033 133.2 220.39 134.53 219.17 134.949L217.628 135.478C216.408 135.897 215.087 135.251 214.668 134.03L212.945 129.008C212.529 127.797 213.172 126.467 214.392 126.048Z" fill="#F9C9B3"/>
<path d="M211.691 129.785L212.145 129.629C212.372 129.551 212.613 129.669 212.691 129.896L214.683 135.704C214.761 135.931 214.643 136.172 214.416 136.25L213.962 136.406C213.735 136.484 213.493 136.366 213.416 136.139L211.424 130.331C211.346 130.104 211.464 129.862 211.691 129.785Z" fill="#F9C9B3"/>
<path fill-rule="evenodd" clip-rule="evenodd" d="M133.31 107.93L121.88 139.57C120.97 142.1 118.94 143.71 117.35 143.14C115.76 142.57 115.55 140.1 116.09 137.51L122.9 104.54C124.18 98.36 127.37 98.37 130.27 99.1C133.02 99.8 135.18 102.78 133.32 107.93H133.31Z" fill="#A3A4A5"/>
<path fill-rule="evenodd" clip-rule="evenodd" d="M120.57 139.08L122.22 140.88C122.62 141.31 122.59 141.99 122.15 142.39C121.72 142.79 121.04 142.76 120.64 142.32L118.99 140.52C118.59 140.09 118.62 139.41 119.06 139.01C119.49 138.61 120.17 138.64 120.57 139.08Z" fill="#F9C9B3"/>
<path d="M115.906 152.641L118.716 143.787C118.78 143.586 118.99 143.485 119.181 143.546L119.515 143.652C119.715 143.715 119.816 143.926 119.755 144.116L116.945 152.971C116.881 153.171 116.671 153.272 116.48 153.212L116.147 153.106C115.946 153.042 115.845 152.832 115.906 152.641Z" fill="#F9C9B3"/>
<path d="M114.045 153.679L116.855 144.824C116.919 144.624 117.129 144.523 117.32 144.583L117.653 144.689C117.853 144.753 117.955 144.963 117.894 145.154L115.083 154.009C115.02 154.209 114.81 154.31 114.619 154.249L114.285 154.143C114.085 154.08 113.984 153.869 114.045 153.679Z" fill="#F9C9B3"/>
<path d="M112.923 152.365L115.459 144.378C115.522 144.178 115.733 144.077 115.923 144.137L116.257 144.243C116.457 144.306 116.558 144.517 116.498 144.708L113.962 152.695C113.899 152.895 113.688 152.996 113.498 152.936L113.164 152.83C112.964 152.766 112.863 152.556 112.923 152.365Z" fill="#F9C9B3"/>
<path d="M112.058 150.272L114.593 142.285C114.657 142.085 114.867 141.983 115.058 142.044L115.392 142.15C115.592 142.213 115.693 142.424 115.632 142.614L113.097 150.602C113.034 150.802 112.823 150.903 112.633 150.842L112.299 150.737C112.099 150.673 111.998 150.463 112.058 150.272Z" fill="#F9C9B3"/>
<path d="M113.848 143.439L115.286 138.912C115.673 137.692 116.982 137.005 118.211 137.396L119.422 137.78C120.642 138.167 121.328 139.476 120.938 140.706L119.501 145.233C119.113 146.453 117.804 147.139 116.575 146.749L115.364 146.365C114.144 145.977 113.458 144.668 113.848 143.439Z" fill="#F9C9B3"/>
<path d="M119.479 146.891L121.218 141.41C121.291 141.182 121.529 141.058 121.758 141.131L122.149 141.255C122.378 141.327 122.501 141.566 122.429 141.795L120.689 147.275C120.617 147.504 120.378 147.628 120.149 147.555L119.758 147.431C119.53 147.358 119.406 147.12 119.479 146.891Z" fill="#F9C9B3"/>
<path d="M175.72 19.44C181.088 19.44 185.44 15.0882 185.44 9.72C185.44 4.35179 181.088 0 175.72 0C170.352 0 166 4.35179 166 9.72C166 15.0882 170.352 19.44 175.72 19.44Z" fill="#232017"/>
<path d="M267.24 105.47H258.69V122.79H267.24V105.47Z" fill="#F9C9B3"/>
<path fill-rule="evenodd" clip-rule="evenodd" d="M247.95 127.86C245.39 128.62 243.92 131.34 244.68 133.9L256.25 172.87C257.01 175.43 259.73 176.9 262.29 176.14C264.85 175.38 266.32 172.66 265.56 170.1L253.99 131.13C253.23 128.57 250.51 127.1 247.95 127.86Z" fill="#E36563"/>
<path fill-rule="evenodd" clip-rule="evenodd" d="M232.09 160.54L222.13 134.22C221.35 132.15 219.61 130.79 218.27 131.18C216.93 131.58 216.78 133.55 217.25 135.66L222.96 161.38C223.91 165.65 226.45 167.52 228.81 167.21C231.26 166.89 233.49 164.23 232.1 160.54H232.09Z" fill="#F9C9B3"/>
<path fill-rule="evenodd" clip-rule="evenodd" d="M221.17 132.55L222.32 130.98C222.6 130.6 222.48 130.06 222.07 129.78C221.66 129.5 221.09 129.58 220.81 129.96L219.66 131.53C219.38 131.91 219.5 132.45 219.91 132.73C220.32 133.01 220.89 132.93 221.17 132.55Z" fill="#F9C9B3"/>
<path fill-rule="evenodd" clip-rule="evenodd" d="M219.81 128.51L216.4 121.82C216.3 121.63 216.06 121.54 215.86 121.62L215.75 121.67C215.55 121.75 215.47 121.98 215.57 122.17L218.98 128.86C219.08 129.05 219.32 129.14 219.52 129.06L219.63 129.01C219.83 128.93 219.91 128.7 219.81 128.51Z" fill="#F9C9B3"/>
<path fill-rule="evenodd" clip-rule="evenodd" d="M218.12 127.84L214.71 121.15C214.61 120.96 214.37 120.87 214.17 120.95L214.06 121C213.86 121.08 213.78 121.31 213.88 121.5L217.29 128.19C217.39 128.38 217.63 128.47 217.83 128.39L217.94 128.34C218.14 128.26 218.22 128.03 218.12 127.84Z" fill="#F9C9B3"/>
<path fill-rule="evenodd" clip-rule="evenodd" d="M217.01 128.3L213.94 122.28C213.84 122.09 213.6 122 213.4 122.08L213.29 122.13C213.09 122.21 213.01 122.44 213.11 122.63L216.18 128.65C216.28 128.84 216.52 128.93 216.72 128.85L216.83 128.8C217.03 128.72 217.11 128.49 217.01 128.3Z" fill="#F9C9B3"/>
<path fill-rule="evenodd" clip-rule="evenodd" d="M216.55 130.04L213.48 124.02C213.38 123.83 213.14 123.74 212.94 123.82L212.83 123.87C212.63 123.95 212.55 124.18 212.65 124.37L215.72 130.39C215.82 130.58 216.06 130.67 216.26 130.59L216.37 130.54C216.57 130.46 216.65 130.23 216.55 130.04Z" fill="#F9C9B3"/>
<path fill-rule="evenodd" clip-rule="evenodd" d="M221.04 130.76L219.72 128.17C219.11 126.98 217.6 126.42 216.36 126.94C215.12 127.46 214.61 128.86 215.21 130.05L216.53 132.64C217.14 133.83 218.65 134.39 219.89 133.87C221.13 133.35 221.65 131.95 221.04 130.76Z" fill="#F9C9B3"/>
<path fill-rule="evenodd" clip-rule="evenodd" d="M222.34 130.14L220.27 126.08C220.16 125.86 219.88 125.75 219.64 125.85L219.51 125.9C219.28 126 219.18 126.26 219.3 126.48L221.37 130.54C221.48 130.76 221.76 130.87 222 130.77L222.13 130.72C222.36 130.62 222.46 130.36 222.34 130.14Z" fill="#F9C9B3"/>
<path fill-rule="evenodd" clip-rule="evenodd" d="M243.52 161.56L243.42 134.11C242.01 123.06 245.34 120 254.77 120.32H272.89C276.72 120.32 280.33 124.37 279.05 130.89L278.66 161.57H243.52V161.56Z" fill="#FC5E48"/>
<path fill-rule="evenodd" clip-rule="evenodd" d="M278.78 120.93C271.48 120.93 265.56 126.85 265.56 134.15C265.56 141.45 271.48 147.37 278.78 147.37C286.08 147.37 292 141.45 292 134.15C292 126.85 286.08 120.93 278.78 120.93ZM278.78 125.02C283.83 125.02 287.92 129.11 287.92 134.16C287.92 139.21 283.83 143.3 278.78 143.3C273.73 143.3 269.64 139.21 269.64 134.16C269.64 129.11 273.73 125.02 278.78 125.02Z" fill="#232017"/>
<path fill-rule="evenodd" clip-rule="evenodd" d="M243.2 166.78L278.89 166.81L277.93 181.66L243.21 181.91L243.2 166.78Z" fill="#A3A4A5"/>
<path fill-rule="evenodd" clip-rule="evenodd" d="M256.53 181.97L219.35 215.94C216.87 218.21 213.75 217.65 211.9 215.95C209.92 214.13 209.4 211.01 211.64 208.4L244.21 170.44C248.08 165.93 253.56 166.8 256.65 170.05C259.35 172.89 260.78 178.07 256.52 181.96L256.53 181.97Z" fill="#A3A4A5"/>
<path fill-rule="evenodd" clip-rule="evenodd" d="M218.73 210.33L255.09 237.74C256.18 238.56 256.46 239.46 256.18 240.08C255.82 240.9 254.5 241.26 252.83 240.39L213.16 219.56C209.48 217.63 209.11 214.02 210.88 211.43C212.43 209.17 215.49 207.9 218.72 210.33H218.73Z" fill="#A3A4A5"/>
<path fill-rule="evenodd" clip-rule="evenodd" d="M253 240.27L248.05 246.52C246.82 248.08 247.37 248.51 248.8 247.53L257 241.91C257.46 241.59 257.82 240.91 257.58 240.56L256.39 238.87C256.08 238.43 255.68 238.54 255.59 238.6L253 240.27Z" fill="#3A1E33"/>
<path fill-rule="evenodd" clip-rule="evenodd" d="M278.19 176.27L274.26 226.48C274 229.83 271.34 231.56 268.83 231.58C266.14 231.6 263.63 229.68 263.48 226.24L261.32 176.27C261.06 170.34 265.66 167.23 270.14 167.49C274.05 167.72 278.64 170.53 278.19 176.27Z" fill="#A3A4A5"/>
<path fill-rule="evenodd" clip-rule="evenodd" d="M274.17 226.16L282.09 271C282.33 272.35 281.92 273.19 281.29 273.46C280.46 273.82 279.25 273.18 278.63 271.4L263.81 229.12C262.44 225.2 264.63 222.3 267.69 221.62C270.36 221.02 273.47 222.18 274.17 226.16Z" fill="#A3A4A5"/>
<path fill-rule="evenodd" clip-rule="evenodd" d="M279.1 271.64L274.56 278.19C273.43 279.82 274.01 280.22 275.38 279.15L283.2 273.02C283.64 272.67 283.96 271.96 283.69 271.63L282.39 270.02C282.05 269.6 281.66 269.73 281.57 269.8L279.1 271.64Z" fill="#3A1E33"/>
<path d="M278.89 161.1H243.21V166.81H278.89V161.1Z" fill="#FC5E48"/>
<path fill-rule="evenodd" clip-rule="evenodd" d="M269.74 148.44C262.87 148.44 257.29 154.01 257.29 160.89C257.29 167.77 262.86 173.34 269.74 173.34C276.62 173.34 282.19 167.77 282.19 160.89C282.19 154.01 276.62 148.44 269.74 148.44Z" fill="#EAC93D"/>
<path fill-rule="evenodd" clip-rule="evenodd" d="M290.72 163.55L263.03 158.54C260.86 158.15 258.79 158.93 258.44 160.29C258.09 161.65 259.71 162.79 261.75 163.47L286.74 171.81C290.89 173.19 293.8 171.98 294.75 169.8C295.74 167.53 294.6 164.25 290.72 163.55Z" fill="#F9C9B3"/>
<path fill-rule="evenodd" clip-rule="evenodd" d="M262.82 159.07L262.15 157.24C261.99 156.8 261.48 156.59 261.01 156.78C260.55 156.97 260.3 157.48 260.46 157.92L261.13 159.75C261.29 160.19 261.8 160.4 262.27 160.21C262.73 160.02 262.98 159.51 262.82 159.07Z" fill="#F9C9B3"/>
<path fill-rule="evenodd" clip-rule="evenodd" d="M258.71 157.96L251.25 157.08C251.04 157.05 250.83 157.21 250.79 157.42L250.77 157.54C250.73 157.75 250.87 157.94 251.08 157.97L258.541 158.85C258.751 158.88 258.96 158.72 259 158.51L259.02 158.39C259.06 158.18 258.92 157.99 258.71 157.96Z" fill="#F9C9B3"/>
<path fill-rule="evenodd" clip-rule="evenodd" d="M257.21 158.99L249.75 158.11C249.54 158.08 249.33 158.24 249.29 158.45L249.27 158.57C249.23 158.78 249.37 158.97 249.58 159L257.041 159.88C257.251 159.91 257.46 159.75 257.5 159.54L257.52 159.42C257.56 159.21 257.42 159.02 257.21 158.99Z" fill="#F9C9B3"/>
<path fill-rule="evenodd" clip-rule="evenodd" d="M256.98 160.17L250.27 159.38C250.06 159.35 249.85 159.51 249.81 159.72L249.79 159.84C249.75 160.05 249.89 160.24 250.1 160.27L256.81 161.06C257.02 161.09 257.23 160.93 257.27 160.72L257.29 160.6C257.33 160.39 257.19 160.2 256.98 160.17Z" fill="#F9C9B3"/>
<path fill-rule="evenodd" clip-rule="evenodd" d="M258.17 161.52L251.46 160.73C251.25 160.7 251.04 160.86 251 161.07L250.98 161.19C250.94 161.4 251.08 161.59 251.29 161.62L258 162.41C258.21 162.44 258.42 162.28 258.46 162.07L258.48 161.95C258.52 161.74 258.38 161.55 258.17 161.52Z" fill="#F9C9B3"/>
<path fill-rule="evenodd" clip-rule="evenodd" d="M261.26 158.18L258.37 157.84C257.04 157.68 255.74 158.63 255.49 159.95C255.23 161.27 256.11 162.48 257.44 162.64L260.33 162.98C261.66 163.14 262.96 162.19 263.21 160.87C263.47 159.55 262.59 158.34 261.26 158.18Z" fill="#F9C9B3"/>
<path fill-rule="evenodd" clip-rule="evenodd" d="M261.47 156.76L256.94 156.23C256.69 156.2 256.45 156.38 256.4 156.62L256.37 156.76C256.32 157.01 256.49 157.23 256.73 157.26L261.26 157.79C261.51 157.82 261.75 157.64 261.8 157.4L261.83 157.26C261.88 157.01 261.71 156.79 261.47 156.76Z" fill="#F9C9B3"/>
<path fill-rule="evenodd" clip-rule="evenodd" d="M260.75 99.35C257.17 99.35 254.26 102.25 254.26 105.84C254.26 106.76 254.45 107.63 254.8 108.43C255.14 108.71 255.53 108.9 256.06 108.82C256.48 108.88 256.09 109.51 255.73 109.95C256.92 111.4 258.73 112.33 260.75 112.33C264.33 112.33 267.24 109.43 267.24 105.84C267.24 102.25 264.34 99.35 260.75 99.35Z" fill="#F9C9B3"/>
<path fill-rule="evenodd" clip-rule="evenodd" d="M260.88 105.65L267.2 107.41C267.35 106.84 267.42 106.25 267.42 105.65C267.42 101.9 264.49 98.86 260.87 98.86C258.53 98.86 256.37 100.15 255.2 102.25L260.87 105.64L260.88 105.65Z" fill="#20212F" stroke="#4E2944" stroke-width="0.24" stroke-miterlimit="22.93"/>
<path fill-rule="evenodd" clip-rule="evenodd" d="M261.36 103.71C260.25 103.71 259.36 104.61 259.36 105.71C259.36 106.81 260.26 107.71 261.36 107.71C262.46 107.71 263.36 106.81 263.36 105.71C263.36 104.61 262.46 103.71 261.36 103.71Z" fill="#E36563"/>
<path fill-rule="evenodd" clip-rule="evenodd" d="M254.83 107.24L254.74 103.45C254.43 104.42 254.1 105.36 252.98 105.7C252.22 106.19 254.6 107.24 254.83 107.24Z" fill="#F9C9B3"/>
<path fill-rule="evenodd" clip-rule="evenodd" d="M273.79 125.62C271.31 126.62 270.11 129.47 271.11 131.94L286.34 169.62C287.34 172.1 290.19 173.3 292.66 172.3C295.14 171.3 296.34 168.45 295.34 165.98L280.11 128.3C279.11 125.82 276.26 124.62 273.79 125.62Z" fill="#CC4D3B"/>
<path d="M410.52 2.00999C422.99 2.00999 433.11 12.13 433.11 24.6V87.15C433.11 99.62 422.99 109.74 410.52 109.74C398.05 109.74 387.93 99.62 387.93 87.15V24.6C387.93 12.13 398.05 2.00999 410.52 2.00999Z" fill="#232017"/>
<path fill-rule="evenodd" clip-rule="evenodd" d="M382.26 37.16H366.07C367.88 39.67 370.83 41.3 374.17 41.3C377.51 41.3 380.45 39.67 382.27 37.16H382.26Z" fill="#20212F"/>
<path d="M381.45 14.47H367.89V41.96H381.45V14.47Z" fill="#F9C9B3"/>
<path fill-rule="evenodd" clip-rule="evenodd" d="M358.63 48.36L353.48 49.89C350.84 50.67 349.32 53.48 350.1 56.12L369.99 123.09C370.77 125.73 373.58 127.26 376.22 126.47L381.37 124.94C384.01 124.16 385.54 121.35 384.75 118.7L364.87 51.73C364.09 49.09 361.28 47.56 358.64 48.35L358.63 48.36Z" fill="#E36563"/>
<path fill-rule="evenodd" clip-rule="evenodd" d="M381.68 96.21L406.49 133.33C408.44 136.24 411.61 137.73 413.55 136.64C415.48 135.55 415 132.44 413.53 129.36L395.5 91.65C392.51 85.39 387.91 83.41 384.37 84.73C380.69 86.1 378.2 91.02 381.68 96.22V96.21Z" fill="#F9C9B3"/>
<path fill-rule="evenodd" clip-rule="evenodd" d="M408.57 135.56L407.35 138.4C407.06 139.08 407.42 139.88 408.16 140.16C408.9 140.45 409.75 140.12 410.04 139.44L411.26 136.6C411.55 135.92 411.19 135.12 410.45 134.84C409.71 134.55 408.86 134.88 408.57 135.56Z" fill="#F9C9B3"/>
<path fill-rule="evenodd" clip-rule="evenodd" d="M411.97 141.14L419.93 150.62C420.07 150.78 420.32 150.82 420.5 150.69L421.03 150.31C421.2 150.18 421.23 149.95 421.1 149.78L413.14 140.3C413 140.14 412.75 140.1 412.57 140.23L412.04 140.61C411.87 140.74 411.84 140.97 411.97 141.14Z" fill="#F9C9B3"/>
<path fill-rule="evenodd" clip-rule="evenodd" d="M414.83 141.58L422.79 151.06C422.93 151.22 423.18 151.26 423.36 151.13L423.89 150.75C424.06 150.62 424.09 150.39 423.96 150.22L416 140.74C415.86 140.58 415.61 140.54 415.43 140.67L414.9 141.05C414.73 141.18 414.7 141.41 414.83 141.58Z" fill="#F9C9B3"/>
<path fill-rule="evenodd" clip-rule="evenodd" d="M416.38 140.46L423.57 149.02C423.71 149.18 423.96 149.22 424.14 149.09L424.67 148.71C424.84 148.58 424.87 148.35 424.74 148.18L417.55 139.62C417.41 139.46 417.16 139.42 416.98 139.55L416.45 139.93C416.28 140.06 416.25 140.29 416.38 140.46Z" fill="#F9C9B3"/>
<path fill-rule="evenodd" clip-rule="evenodd" d="M416.47 137.61L423.66 146.17C423.8 146.33 424.05 146.37 424.23 146.24L424.76 145.86C424.93 145.73 424.96 145.5 424.83 145.33L417.64 136.77C417.5 136.61 417.25 136.57 417.07 136.7L416.54 137.08C416.37 137.21 416.34 137.44 416.47 137.61Z" fill="#F9C9B3"/>
<path fill-rule="evenodd" clip-rule="evenodd" d="M408.5 137.19L413.3 142.91C414.16 143.94 415.76 144.13 416.85 143.35L419.18 141.67C420.27 140.89 420.46 139.41 419.6 138.38L414.8 132.66C413.94 131.63 412.34 131.44 411.25 132.22L408.92 133.9C407.83 134.68 407.64 136.16 408.5 137.19Z" fill="#F9C9B3"/>
<path fill-rule="evenodd" clip-rule="evenodd" d="M407.46 139.5L412.45 145.45C412.61 145.64 412.91 145.68 413.11 145.53L413.73 145.09C413.93 144.94 413.97 144.67 413.81 144.48L408.82 138.54C408.66 138.35 408.36 138.31 408.16 138.46L407.55 138.9C407.35 139.05 407.31 139.32 407.47 139.51L407.46 139.5Z" fill="#F9C9B3"/>
<path fill-rule="evenodd" clip-rule="evenodd" d="M343.28 38.51C338.56 40.37 336.22 45.75 338.09 50.47L347.83 75.17L364.98 68.4L355.24 43.7C353.38 38.98 348 36.65 343.28 38.51Z" fill="#2D8125"/>
<path d="M363.123 63.9568L345.802 70.7901L347.82 75.9063L365.141 69.073L363.123 63.9568Z" fill="#43B046"/>
<path fill-rule="evenodd" clip-rule="evenodd" d="M349.03 102.59L339.36 58.7C334.79 41.95 337.36 37.15 353.86 37.15H411.01C419.15 37.15 425.42 44.33 420.78 53.92L404.78 102.59H349.03Z" fill="#FC5E48"/>
<path fill-rule="evenodd" clip-rule="evenodd" d="M348.52 110.87L405.14 110.92L403.62 134.48L348.53 134.87L348.52 110.87Z" fill="#232017"/>
<path fill-rule="evenodd" clip-rule="evenodd" d="M373.06 131.16L336.68 202.3C334.25 207.04 329.31 207.95 325.62 206.45C321.66 204.84 319.16 200.49 321.04 195.37L348.37 120.87C351.61 112.03 360.25 110.27 366.64 113.39C372.22 116.11 377.23 123.02 373.07 131.16H373.06Z" fill="#232017"/>
<path fill-rule="evenodd" clip-rule="evenodd" d="M337.22 201.59L302.98 265.21C301.95 267.12 300.62 267.77 299.57 267.49C298.19 267.12 297.31 265.14 298.28 262.31L321.41 195.1C323.55 188.87 329.13 187.42 333.62 189.57C337.54 191.45 340.26 195.95 337.23 201.59H337.22Z" fill="#232017"/>
<path fill-rule="evenodd" clip-rule="evenodd" d="M298.51 262.54L287.52 256.27C284.78 254.71 284.23 255.68 286.11 257.69L296.89 269.2C297.5 269.85 298.66 270.25 299.15 269.78L301.51 267.51C302.13 266.92 301.86 266.32 301.75 266.19L298.51 262.54Z" fill="#3A1E33"/>
<path fill-rule="evenodd" clip-rule="evenodd" d="M404.03 125.93L397.8 205.59C397.38 210.9 393.17 213.64 389.19 213.68C384.92 213.71 380.94 210.66 380.7 205.21L377.28 125.93C376.87 116.52 384.17 111.58 391.27 112C397.47 112.36 404.75 116.82 404.04 125.93H404.03Z" fill="#232017"/>
<path fill-rule="evenodd" clip-rule="evenodd" d="M397.66 205.07L410.23 276.21C410.61 278.35 409.96 279.68 408.97 280.11C407.66 280.67 405.74 279.66 404.75 276.85L381.23 209.77C379.05 203.55 382.52 198.95 387.38 197.87C391.62 196.92 396.55 198.76 397.66 205.07Z" fill="#232017"/>
<path fill-rule="evenodd" clip-rule="evenodd" d="M404.99 275.73L392.94 279.58C389.94 280.54 390.28 281.6 393.04 281.58L408.81 281.43C409.7 281.43 410.78 280.84 410.77 280.16L410.69 276.89C410.67 276.03 410.05 275.82 409.88 275.82L405 275.74L404.99 275.73Z" fill="#3A1E33"/>
<path d="M405.14 101.86H348.53V110.92H405.14V101.86Z" fill="#CC4D3B"/>
<path fill-rule="evenodd" clip-rule="evenodd" d="M383.6 105.79L353.91 139.13C351.58 141.75 350.94 145.19 352.48 146.79C354.02 148.39 356.91 147.14 359.52 144.94L391.49 118.02C396.79 113.55 397.56 108.6 395.39 105.51C393.14 102.29 387.76 101.12 383.59 105.79H383.6Z" fill="#F9C9B3"/>
<path fill-rule="evenodd" clip-rule="evenodd" d="M354.45 139.84L351.42 139.23C350.69 139.08 349.99 139.6 349.86 140.39C349.73 141.17 350.22 141.94 350.95 142.08L353.98 142.69C354.71 142.84 355.41 142.32 355.54 141.53C355.67 140.75 355.18 139.99 354.45 139.84Z" fill="#F9C9B3"/>
<path fill-rule="evenodd" clip-rule="evenodd" d="M349.69 144.31L342.04 154.04C341.91 154.21 341.93 154.46 342.09 154.61L342.57 155.05C342.73 155.2 342.97 155.18 343.1 155.01L350.75 145.28C350.88 145.11 350.86 144.86 350.7 144.71L350.22 144.27C350.06 144.12 349.82 144.14 349.69 144.31Z" fill="#F9C9B3"/>
<path fill-rule="evenodd" clip-rule="evenodd" d="M349.84 147.2L342.19 156.93C342.06 157.1 342.08 157.35 342.24 157.5L342.72 157.94C342.88 158.09 343.12 158.07 343.25 157.9L350.9 148.17C351.03 148 351.01 147.75 350.85 147.6L350.37 147.16C350.21 147.02 349.97 147.03 349.84 147.2Z" fill="#F9C9B3"/>
<path fill-rule="evenodd" clip-rule="evenodd" d="M351.25 148.48L344.34 157.27C344.21 157.44 344.23 157.69 344.39 157.84L344.87 158.28C345.03 158.43 345.27 158.41 345.4 158.24L352.31 149.45C352.44 149.28 352.42 149.03 352.26 148.88L351.78 148.44C351.62 148.29 351.38 148.31 351.25 148.48Z" fill="#F9C9B3"/>
<path fill-rule="evenodd" clip-rule="evenodd" d="M354.06 147.99L347.15 156.78C347.02 156.95 347.04 157.2 347.2 157.35L347.68 157.79C347.84 157.94 348.08 157.92 348.21 157.75L355.12 148.96C355.25 148.79 355.23 148.54 355.07 148.39L354.59 147.95C354.43 147.8 354.19 147.82 354.06 147.99Z" fill="#F9C9B3"/>
<path fill-rule="evenodd" clip-rule="evenodd" d="M352.84 140.1L348.23 145.97C347.4 147.02 347.54 148.63 348.53 149.53L350.65 151.47C351.64 152.38 353.13 152.26 353.95 151.2L358.56 145.33C359.39 144.28 359.25 142.68 358.26 141.77L356.14 139.83C355.15 138.92 353.66 139.04 352.84 140.1Z" fill="#F9C9B3"/>
<path fill-rule="evenodd" clip-rule="evenodd" d="M350.37 139.55L345.57 145.65C345.42 145.85 345.44 146.14 345.63 146.31L346.19 146.82C346.37 146.99 346.65 146.97 346.81 146.77L351.61 140.67C351.76 140.47 351.74 140.18 351.55 140.01L350.99 139.5C350.81 139.33 350.53 139.35 350.37 139.55Z" fill="#F9C9B3"/>
<path fill-rule="evenodd" clip-rule="evenodd" d="M371.16 4.76C365.48 4.76 360.87 9.37 360.87 15.05C360.87 16.51 361.17 17.9 361.72 19.15C362.26 19.6 362.89 19.89 363.73 19.77C364.4 19.87 363.77 20.87 363.2 21.56C365.09 23.86 367.95 25.33 371.16 25.33C376.84 25.33 381.45 20.72 381.45 15.04C381.45 9.36 376.84 4.75 371.16 4.75V4.76Z" fill="#F9C9B3"/>
<path fill-rule="evenodd" clip-rule="evenodd" d="M371.35 14.76L380.34 20.15C381.25 18.51 381.73 16.66 381.73 14.76C381.73 8.81001 377.08 3.99001 371.34 3.99001C367.63 3.99001 364.2 6.04001 362.34 9.38001L371.34 14.77L371.35 14.76Z" fill="#20212F" stroke="#4E2944" stroke-width="0.24" stroke-miterlimit="22.93"/>
<path fill-rule="evenodd" clip-rule="evenodd" d="M372.12 11.68C370.36 11.68 368.94 13.1 368.94 14.86C368.94 16.62 370.36 18.04 372.12 18.04C373.88 18.04 375.3 16.62 375.3 14.86C375.3 13.1 373.88 11.68 372.12 11.68Z" fill="#E36563"/>
<path fill-rule="evenodd" clip-rule="evenodd" d="M361.75 17.27L361.61 11.26C361.11 12.8 360.59 14.29 358.81 14.83C357.6 15.61 361.37 17.27 361.75 17.27Z" fill="#F9C9B3"/>
<path fill-rule="evenodd" clip-rule="evenodd" d="M410.06 31.49C398.64 31.49 389.38 40.75 389.38 52.17C389.38 63.59 398.64 72.85 410.06 72.85C421.48 72.85 430.74 63.59 430.74 52.17C430.74 40.75 421.48 31.49 410.06 31.49ZM410.06 37.88C417.95 37.88 424.35 44.28 424.35 52.17C424.35 60.06 417.95 66.46 410.06 66.46C402.17 66.46 395.77 60.06 395.77 52.17C395.77 44.28 402.17 37.88 410.06 37.88Z" fill="#232017"/>
<path fill-rule="evenodd" clip-rule="evenodd" d="M414.35 40.12C410.36 38.7 405.93 40.8 404.51 44.79L382.85 105.53C381.43 109.52 383.53 113.95 387.52 115.37C391.51 116.79 395.94 114.69 397.36 110.7L419.02 49.96C420.44 45.97 418.34 41.54 414.35 40.12Z" fill="#CC4D3B"/>
<path d="M385.61 28.22H366.07V37.16H385.61V28.22Z" fill="#CC4D3B"/>
<path d="M112.674 160.71L36.5713 238.045L36.9776 238.445L113.08 161.11L112.674 160.71Z" fill="#20212F"/>
<path fill-rule="evenodd" clip-rule="evenodd" d="M67.2402 249.87L77.5302 249.81C82.6202 249.91 84.6602 246.58 84.3802 244.69H49.5002C39.7102 244.69 36.5802 242.18 33.7102 237.8L22.3302 220.42L21.9102 226.07L7.64023 225.87L10.5702 230.67L16.5602 232.81H12.4702L18.5702 235.97V251.72C18.2602 254.45 16.8002 256.02 13.8002 256.07L0.0502344 258.02L-0.00976562 258.64L20.2102 259.5C23.3502 259.54 25.0902 261.19 25.1502 264.76L25.3202 281.2L26.3002 281.3L31.1902 265.17C32.1802 262.19 34.1702 260.73 36.9202 260.4H50.5802L47.8002 281.53L48.5002 281.38L58.4202 262.59L71.7002 281.32L72.2402 281.09L65.3602 254.5C64.1002 250.45 65.2602 249.62 67.2202 249.88L67.2402 249.87Z" fill="#CC4D3B"/>
<path d="M37.2 237.74H18V240.73H37.2V237.74Z" fill="#A3A4A5"/>
<path fill-rule="evenodd" clip-rule="evenodd" d="M114.75 147.93C112.72 147.93 111.05 149.59 111.05 151.63V158.84C111.05 160.87 112.71 162.54 114.75 162.54C116.78 162.54 118.45 160.88 118.45 158.84V151.63C118.45 149.6 116.79 147.93 114.75 147.93ZM114.75 149.45C116.11 149.45 117.22 150.55 117.22 151.92C117.22 153.29 116.12 154.39 114.75 154.39C113.38 154.39 112.28 153.29 112.28 151.92C112.28 150.55 113.38 149.45 114.75 149.45Z" fill="#CC4D3B"/>
<path d="M170.67 37.17H149.07V43.34H170.67V37.17Z" fill="#A3A4A5"/>
<path fill-rule="evenodd" clip-rule="evenodd" d="M160.02 17.28L169.37 21.05C169.58 20.25 169.68 19.42 169.68 18.59C169.68 13.34 165.57 9.08 160.51 9.08C157.23 9.08 154.2 10.89 152.56 13.84L160.02 17.29V17.28Z" fill="#232017"/>
<path d="M169.05 21.1C169.35 21.23 169.7 21.1 169.83 20.79C169.96 20.49 169.83 20.14 169.52 20.01L144.17 9.7C143.87 9.57 143.52 9.7 143.39 10.01C143.26 10.31 143.39 10.66 143.7 10.79L168.11 20.7L169.05 21.1Z" fill="#232017"/>
<path fill-rule="evenodd" clip-rule="evenodd" d="M372.06 11.9L382.19 15.64C382.42 14.74 382.54 13.82 382.54 12.89C382.54 7.01 377.95 2.25 372.28 2.25C368.61 2.25 365.23 4.28 363.4 7.57L372.07 11.91L372.06 11.9Z" fill="#CC4D3B"/>
<path d="M381.16 15.2C381.47 15.34 381.83 15.2 381.96 14.88C382.1 14.57 381.96 14.21 381.64 14.07L355.41 3.4C355.1 3.27 354.74 3.4 354.61 3.72C354.47 4.03 354.61 4.39 354.93 4.53L380.19 14.78L381.16 15.2Z" fill="#CC4D3B"/>
<path fill-rule="evenodd" clip-rule="evenodd" d="M267.29 105.96C267.43 105.42 267.5 104.86 267.5 104.3C267.5 100.76 264.73 97.88 261.31 97.88C259.1 97.88 257.06 99.1 255.95 101.09L267.29 105.96Z" fill="#CC4D3B"/>
<path d="M266.21 105.62C266.4 105.7 266.63 105.62 266.71 105.42C266.79 105.23 266.71 105 266.51 104.92L250.25 98.31C250.06 98.23 249.83 98.31 249.75 98.51C249.67 98.7 249.75 98.93 249.95 99.01L265.61 105.36L266.21 105.62Z" fill="#CC4D3B"/>
</g>
<defs>
<clipPath id="clip0_797_174">
<rect width="433.11" height="281.58" fill="white"/>
</clipPath>
</defs>
</svg>
