<svg width="294" height="342" viewBox="0 0 294 342" fill="none" xmlns="http://www.w3.org/2000/svg">
<g clip-path="url(#clip0_797_425)">
<path d="M205.443 321.864C254.036 321.864 293.428 282.44 293.428 233.809C293.428 185.178 254.036 145.754 205.443 145.754C156.85 145.754 117.458 185.178 117.458 233.809C117.458 282.44 156.85 321.864 205.443 321.864Z" fill="#FC5E48"/>
<path d="M280.569 249.959C286.094 249.959 290.573 245.477 290.573 239.948C290.573 234.419 286.094 229.936 280.569 229.936C275.044 229.936 270.565 234.419 270.565 239.948C270.565 245.477 275.044 249.959 280.569 249.959Z" fill="#CC4D3B"/>
<path d="M260.553 249.959C266.078 249.959 270.557 245.477 270.557 239.948C270.557 234.419 266.078 229.936 260.553 229.936C255.029 229.936 250.55 234.419 250.55 239.948C250.55 245.477 255.029 249.959 260.553 249.959Z" fill="#CC4D3B"/>
<path d="M244.974 196.227C272.555 195.716 294.5 172.925 293.99 145.322C293.479 117.719 270.707 95.7561 243.126 96.2668C215.544 96.7776 193.599 119.568 194.11 147.171C194.62 174.775 217.393 196.737 244.974 196.227Z" fill="#FC5E48"/>
<path fill-rule="evenodd" clip-rule="evenodd" d="M219.16 115.433L157.742 172.689C154.774 175.45 150.089 175.285 147.321 172.315C144.554 169.346 144.727 164.657 147.695 161.887L209.113 104.631C212.08 101.87 216.765 102.035 219.533 105.004C222.301 107.974 222.127 112.663 219.16 115.433Z" fill="#F9C9B3"/>
<path fill-rule="evenodd" clip-rule="evenodd" d="M219.159 115.433L185.435 146.865L175.883 135.612L209.112 104.64C212.08 101.878 216.765 102.043 219.533 105.013C222.3 107.983 222.127 112.671 219.159 115.441V115.433Z" fill="#CC4D3B"/>
<path fill-rule="evenodd" clip-rule="evenodd" d="M50.5474 298.064C53.4886 298.098 52.9247 301.719 52.4215 303.404C51.9182 305.088 52.3347 303.673 52.2913 303.812C51.7621 305.496 49.9661 311.14 49.7232 311.939C49.0551 313.823 48.014 314.588 46.7126 314.605L21.6992 314.327L22.0636 313.111C27.92 312.512 36.9866 313.346 43.9535 304.298C45.3157 302.527 44.9079 298.003 50.5561 298.072L50.5474 298.064Z" fill="#F78010"/>
<path fill-rule="evenodd" clip-rule="evenodd" d="M88.2106 189.959L51.3543 306.729L42.0361 306.478C42.6955 305.722 43.9102 304.42 44.5869 301.328L69.3053 185.036C70.3985 180.078 73.5045 177.239 76.9316 176.275C83.6469 174.382 91.603 179.601 88.2106 189.968V189.959Z" fill="#A3A4A5"/>
<path fill-rule="evenodd" clip-rule="evenodd" d="M276.24 144.695L250.463 224.64C249.214 228.504 245.041 230.64 241.189 229.398C237.328 228.156 235.193 223.971 236.434 220.116L262.211 140.171C263.46 136.307 267.634 134.171 271.486 135.412C275.347 136.663 277.481 140.839 276.24 144.695Z" fill="#F9C9B3"/>
<path fill-rule="evenodd" clip-rule="evenodd" d="M276.24 144.695L262.089 188.588L248.268 183.412L262.21 140.162C263.46 136.298 267.633 134.162 271.485 135.404C275.346 136.654 277.48 140.831 276.24 144.686V144.695Z" fill="#CC4D3B"/>
<path fill-rule="evenodd" clip-rule="evenodd" d="M212.479 221.731L97.025 221.436C88.5831 220.046 84.3058 214.237 85.3729 209.192C86.4141 204.243 90.4832 199.685 100.938 200.544L217.762 189.829C227.723 190.654 231.158 198.842 230.698 206.839C230.204 215.384 225.059 223.676 212.479 221.722V221.731Z" fill="#A3A4A5"/>
<path fill-rule="evenodd" clip-rule="evenodd" d="M190.989 201.265L83.4997 195.386C74.9016 194.865 69.8868 189.716 70.2946 184.776C70.6937 179.931 74.1555 175.172 84.6883 174.99L192.116 170.188C202.155 170.014 209.408 176.857 209.981 184.559C210.597 192.799 203.777 201.925 190.997 201.265H190.989Z" fill="#A3A4A5"/>
<path fill-rule="evenodd" clip-rule="evenodd" d="M232.443 156.182C240.573 163.146 243.158 175.085 240.581 188.023C237.961 201.204 234.525 209.792 225.337 218.926L172.456 178.836C177.202 171.456 182.659 166.619 189.878 162.061L210.44 151.111L210.475 150.842C218.813 149.54 226.604 151.19 232.443 156.191V156.182Z" fill="#A3A4A5"/>
<path fill-rule="evenodd" clip-rule="evenodd" d="M140.424 116.206C141.968 115.32 141.829 112.576 141.352 111.004C139.912 106.203 137.96 101.288 131.375 94.1158L129.613 95.8003C132.268 99.1085 134.68 107.279 135.886 112.663C136.355 116.232 138.541 117.274 140.415 116.197L140.424 116.206Z" fill="#F9C9B3"/>
<path fill-rule="evenodd" clip-rule="evenodd" d="M146.254 168.99C149.36 168.408 151.373 165.013 150.713 161.453L141.759 113.01C141.655 112.515 141.551 112.046 141.438 111.621L135.886 112.663C135.886 112.836 135.903 113.019 135.92 113.201L139.426 163.572C139.677 167.175 143.148 169.572 146.245 168.981L146.254 168.99Z" fill="#F9C9B3"/>
<path fill-rule="evenodd" clip-rule="evenodd" d="M63.2148 321.395C66.0866 320.918 67.2579 324.486 67.5702 326.188C67.8826 327.89 67.6136 326.466 67.631 326.605C67.9086 328.307 68.8543 334.038 68.9931 334.845C69.2447 336.773 68.594 337.685 67.336 337.919L42.8779 342L42.6523 340.776C48.0663 339.187 57.2717 338.405 59.7444 328.524C60.2302 326.596 57.6794 322.324 63.2061 321.404L63.2148 321.395Z" fill="#F78010"/>
<path fill-rule="evenodd" clip-rule="evenodd" d="M103.515 216.252L67.9258 331.094L59.0762 328.298C59.7009 327.664 60.8461 326.596 61.4621 323.479L83.942 210.946C86.9006 196.133 108.287 200.874 103.515 216.243V216.252Z" fill="#A3A4A5"/>
<path d="M192.776 145.276H144.024V223.737H192.776V145.276Z" fill="#24231F"/>
<path fill-rule="evenodd" clip-rule="evenodd" d="M121.405 132.208V210.669L144.024 223.737V145.276L121.405 132.208Z" fill="#3A3935"/>
<path fill-rule="evenodd" clip-rule="evenodd" d="M128.468 187.78L144.024 204V181.728L139.582 177.1L123.583 160.42L121.414 158.153V180.425L128.468 187.78ZM121.414 147.795L131.93 158.753L142.627 169.902L144.033 171.369V177.907L140.892 174.634L121.414 154.333V147.795Z" fill="white"/>
<path d="M160.89 155.149H157.342V158.9H160.89V155.149Z" fill="#EDEDE8"/>
<path d="M160.89 159.829H157.342V163.58H160.89V159.829Z" fill="#EDEDE8"/>
<path d="M160.89 164.509H157.342V168.26H160.89V164.509Z" fill="#EDEDE8"/>
<path d="M160.89 169.19H157.342V172.941H160.89V169.19Z" fill="#EDEDE8"/>
<path d="M160.89 173.861H157.342V177.612H160.89V173.861Z" fill="#EDEDE8"/>
<path d="M160.89 178.541H157.342V182.292H160.89V178.541Z" fill="#EDEDE8"/>
<path d="M160.89 183.221H157.342V186.972H160.89V183.221Z" fill="#EDEDE8"/>
<path d="M160.89 187.902H157.342V191.653H160.89V187.902Z" fill="#EDEDE8"/>
<path d="M160.89 192.582H157.342V196.333H160.89V192.582Z" fill="#EDEDE8"/>
<path d="M160.89 197.262H157.342V201.013H160.89V197.262Z" fill="#EDEDE8"/>
<path d="M160.89 201.942H157.342V205.693H160.89V201.942Z" fill="#EDEDE8"/>
<path d="M160.89 206.614H157.342V210.365H160.89V206.614Z" fill="#EDEDE8"/>
<path d="M160.89 211.294H157.342V215.045H160.89V211.294Z" fill="#EDEDE8"/>
<path d="M165.176 155.149H161.628V158.9H165.176V155.149Z" fill="#EDEDE8"/>
<path d="M165.176 159.829H161.628V163.58H165.176V159.829Z" fill="#EDEDE8"/>
<path d="M165.176 164.509H161.628V168.26H165.176V164.509Z" fill="#EDEDE8"/>
<path d="M165.176 169.19H161.628V172.941H165.176V169.19Z" fill="#EDEDE8"/>
<path d="M165.176 173.861H161.628V177.612H165.176V173.861Z" fill="#EDEDE8"/>
<path d="M165.176 178.541H161.628V182.292H165.176V178.541Z" fill="#EDEDE8"/>
<path d="M165.176 183.221H161.628V186.972H165.176V183.221Z" fill="#EDEDE8"/>
<path d="M165.176 187.902H161.628V191.653H165.176V187.902Z" fill="#EDEDE8"/>
<path d="M165.176 192.582H161.628V196.333H165.176V192.582Z" fill="#EDEDE8"/>
<path d="M165.176 197.262H161.628V201.013H165.176V197.262Z" fill="#EDEDE8"/>
<path d="M165.176 201.942H161.628V205.693H165.176V201.942Z" fill="#EDEDE8"/>
<path d="M165.176 206.614H161.628V210.365H165.176V206.614Z" fill="#EDEDE8"/>
<path d="M165.176 211.294H161.628V215.045H165.176V211.294Z" fill="#EDEDE8"/>
<path d="M169.454 155.149H165.905V158.9H169.454V155.149Z" fill="#EDEDE8"/>
<path d="M169.454 159.829H165.905V163.58H169.454V159.829Z" fill="#EDEDE8"/>
<path d="M169.454 164.509H165.905V168.26H169.454V164.509Z" fill="#EDEDE8"/>
<path d="M169.454 169.19H165.905V172.941H169.454V169.19Z" fill="#EDEDE8"/>
<path d="M169.454 173.861H165.905V177.612H169.454V173.861Z" fill="#EDEDE8"/>
<path d="M169.454 178.541H165.905V182.292H169.454V178.541Z" fill="#EDEDE8"/>
<path d="M169.454 183.221H165.905V186.972H169.454V183.221Z" fill="#EDEDE8"/>
<path d="M169.454 187.902H165.905V191.653H169.454V187.902Z" fill="#EDEDE8"/>
<path d="M169.454 192.582H165.905V196.333H169.454V192.582Z" fill="#EDEDE8"/>
<path d="M169.454 197.262H165.905V201.013H169.454V197.262Z" fill="#EDEDE8"/>
<path d="M169.454 201.942H165.905V205.693H169.454V201.942Z" fill="#EDEDE8"/>
<path d="M169.454 206.614H165.905V210.365H169.454V206.614Z" fill="#EDEDE8"/>
<path d="M169.454 211.294H165.905V215.045H169.454V211.294Z" fill="#EDEDE8"/>
<path d="M173.731 155.149H170.183V158.9H173.731V155.149Z" fill="#EDEDE8"/>
<path d="M173.731 159.829H170.183V163.58H173.731V159.829Z" fill="#EDEDE8"/>
<path d="M173.731 164.509H170.183V168.26H173.731V164.509Z" fill="#EDEDE8"/>
<path d="M173.731 169.19H170.183V172.941H173.731V169.19Z" fill="#EDEDE8"/>
<path d="M173.731 173.861H170.183V177.612H173.731V173.861Z" fill="#EDEDE8"/>
<path d="M173.731 178.541H170.183V182.292H173.731V178.541Z" fill="#EDEDE8"/>
<path d="M173.731 183.221H170.183V186.972H173.731V183.221Z" fill="#EDEDE8"/>
<path d="M173.731 187.902H170.183V191.653H173.731V187.902Z" fill="#EDEDE8"/>
<path d="M173.731 192.582H170.183V196.333H173.731V192.582Z" fill="#EDEDE8"/>
<path d="M173.731 197.262H170.183V201.013H173.731V197.262Z" fill="#EDEDE8"/>
<path d="M173.731 201.942H170.183V205.693H173.731V201.942Z" fill="#EDEDE8"/>
<path d="M173.731 206.614H170.183V210.365H173.731V206.614Z" fill="#EDEDE8"/>
<path d="M173.731 211.294H170.183V215.045H173.731V211.294Z" fill="#EDEDE8"/>
<path d="M186.364 176.7H176.568V192.46H186.364V176.7Z" fill="#EDEDE8"/>
<path fill-rule="evenodd" clip-rule="evenodd" d="M214.865 220.55C211.508 220.55 208.315 223.276 207.742 226.637C207.17 229.997 209.425 232.724 212.783 232.724C216.141 232.724 219.333 229.997 219.906 226.637C220.479 223.276 218.223 220.55 214.865 220.55Z" fill="#DBD4CA"/>
<path fill-rule="evenodd" clip-rule="evenodd" d="M214.37 220.897L219.897 224.588L217.936 216.356L214.37 220.897Z" fill="#DBD4CA"/>
<path fill-rule="evenodd" clip-rule="evenodd" d="M211.898 221.453L207.742 226.637L205.547 216.287L211.898 221.453Z" fill="#DBD4CA"/>
<path fill-rule="evenodd" clip-rule="evenodd" d="M214.934 231.1L208.418 222.677C209.312 225.065 204.045 226.593 202.041 226.055C198.727 225.881 187.483 215.878 181.826 212.588C167.345 204.156 139.512 229.172 152.162 239.948H213.658C212.305 239.349 208.323 233.705 214.934 231.1Z" fill="#DBD4CA"/>
<path d="M166.244 230.466C168.075 230.292 169.671 228.695 169.81 226.889C169.949 225.082 168.578 223.754 166.739 223.928C161.472 224.423 156.501 226.836 152.622 230.431C148.736 234.035 145.942 238.81 145.048 244.003C144.146 249.3 145.369 254.145 148.12 257.766C150.879 261.386 155.165 263.766 160.396 264.13C162.184 264.252 163.988 262.88 164.413 261.065C164.847 259.25 163.745 257.687 161.949 257.566C158.435 257.323 155.546 255.716 153.69 253.285C151.833 250.854 151.009 247.58 151.625 244.003C152.223 240.495 154.106 237.274 156.718 234.851C159.338 232.42 162.695 230.787 166.235 230.457L166.244 230.466Z" fill="#DBD4CA"/>
<path fill-rule="evenodd" clip-rule="evenodd" d="M136.076 53.123H172.238C172.238 33.1346 156.049 16.932 136.076 16.932C116.104 16.932 99.9141 33.1346 99.9141 53.123H136.076Z" fill="#FC5E48"/>
<path d="M136.363 0H135.79V32.0405H136.363V0Z" fill="#FC5E48"/>
<path fill-rule="evenodd" clip-rule="evenodd" d="M10.8107 230.57C6.53336 234.434 3.84375 240.026 3.84375 246.243C3.84375 257.896 13.2834 267.343 24.9268 267.343C36.5702 267.343 46.0098 257.896 46.0098 246.243C46.0098 240.017 43.3202 234.425 39.0429 230.57C43.3202 226.706 46.0098 221.114 46.0098 214.897C46.0098 208.68 43.3202 203.08 39.0429 199.224C43.3202 195.36 46.0098 189.768 46.0098 183.551C46.0098 177.334 43.3202 171.734 39.0429 167.878C43.3202 164.014 46.0098 158.423 46.0098 152.205C46.0098 140.553 36.5702 131.106 24.9268 131.106C13.2834 131.106 3.84375 140.553 3.84375 152.205C3.84375 158.431 6.53336 164.023 10.8107 167.878C6.53336 171.742 3.84375 177.334 3.84375 183.551C3.84375 189.768 6.53336 195.369 10.8107 199.224C6.53336 203.088 3.84375 208.68 3.84375 214.897C3.84375 221.114 6.53336 226.715 10.8107 230.57Z" fill="#F7F7EF"/>
<path fill-rule="evenodd" clip-rule="evenodd" d="M249.891 68.0492C253.491 67.7714 256.641 70.4718 256.918 74.0753C257.196 77.6787 254.498 80.8307 250.897 81.1085C247.296 81.3864 244.147 78.686 243.869 75.0825C243.592 71.479 246.29 68.3271 249.891 68.0492Z" fill="#184133"/>
<path fill-rule="evenodd" clip-rule="evenodd" d="M258.237 59.0101C261.838 58.7323 264.987 61.4327 265.265 65.0362C265.542 68.6397 262.844 71.7916 259.244 72.0695C255.643 72.3473 252.494 69.6469 252.216 66.0434C251.938 62.4399 254.637 59.288 258.237 59.0101Z" fill="#184133"/>
<path fill-rule="evenodd" clip-rule="evenodd" d="M241.162 77.6093C243.8 77.4096 246.125 79.398 246.325 82.0376L249.196 119.401C249.396 122.041 247.409 124.368 244.772 124.567C242.134 124.767 239.809 122.779 239.609 120.139L236.737 82.7757C236.538 80.136 238.525 77.809 241.162 77.6093Z" fill="#F9C9B3"/>
<path fill-rule="evenodd" clip-rule="evenodd" d="M242.168 83.1404L237.318 78.9812C239.609 76.2981 243.643 75.9942 246.316 78.2865C248.996 80.5789 249.3 84.6165 247.01 87.2909L242.16 83.1317L242.168 83.1404Z" fill="#184133"/>
<path fill-rule="evenodd" clip-rule="evenodd" d="M238.438 91.2504L237.006 80.796L233.414 91.6411L238.438 91.2504Z" fill="#F9C9B3"/>
<path fill-rule="evenodd" clip-rule="evenodd" d="M221.025 104.614L271.416 133.068C275.962 135.63 277.576 141.447 275.016 145.997C272.457 150.547 266.644 152.162 262.098 149.601L259.46 148.107L249.205 154.619C243.062 158.527 240.251 161.757 240.98 168.703L241.362 172.359C241.327 172.863 241.292 173.349 241.275 173.826L205.607 153.69L204.774 137.384C203.204 130.923 207.134 125.288 212.409 121.537L211.706 121.137C207.16 118.576 205.546 112.758 208.106 108.208C210.665 103.658 216.478 102.043 221.025 104.605V104.614Z" fill="#CC4D3B"/>
<path fill-rule="evenodd" clip-rule="evenodd" d="M221.137 104.492L265.178 129.36C260.336 134.188 253.664 137.175 246.29 137.175C231.514 137.175 219.541 125.192 219.541 110.405C219.541 108.226 219.801 106.098 220.296 104.075C220.582 104.197 220.86 104.336 221.137 104.492Z" fill="#F9C9B3"/>
<path fill-rule="evenodd" clip-rule="evenodd" d="M198.831 184.359C199.456 182.301 197.053 180 195.335 179.001C190.077 175.971 184.273 173.262 172.517 172.428L172.369 175.381C177.462 176.084 186.364 181.276 191.899 185.01C195.274 187.771 198.068 186.86 198.831 184.359Z" fill="#F9C9B3"/>
<path fill-rule="evenodd" clip-rule="evenodd" d="M247.826 226.012C250.073 222.92 249.032 218.249 245.492 215.661L197.357 180.434C196.854 180.078 196.376 179.766 195.925 179.47L191.899 185.01C192.056 185.158 192.212 185.305 192.377 185.453L237.319 226.915C240.538 229.884 245.579 229.103 247.826 226.012Z" fill="#F9C9B3"/>
<path fill-rule="evenodd" clip-rule="evenodd" d="M202.111 188.058C200.679 189.942 197.998 190.307 196.116 188.874C194.233 187.441 193.868 184.758 195.3 182.874C196.732 180.99 199.413 180.625 201.295 182.058C203.178 183.491 203.542 186.174 202.111 188.058Z" fill="#E5E5E5"/>
<path fill-rule="evenodd" clip-rule="evenodd" d="M270.566 239.948H293.332C293.332 252.53 283.138 262.732 270.566 262.732C257.994 262.732 247.8 252.53 247.8 239.948H270.566Z" fill="#CCA0A0"/>
<path fill-rule="evenodd" clip-rule="evenodd" d="M136.077 53.123H145.49C145.49 58.3242 141.274 62.5441 136.077 62.5441C130.88 62.5441 126.663 58.3242 126.663 53.123H136.077Z" fill="#E9B317"/>
<path fill-rule="evenodd" clip-rule="evenodd" d="M140.033 86.657C135.4 86.657 131.652 90.4168 131.652 95.0449C131.652 99.6729 135.409 103.433 140.033 103.433C143.573 103.433 146.601 101.236 147.833 98.1273C146.384 97.8495 145.283 96.5731 145.283 95.0449C145.283 93.5166 146.384 92.2315 147.833 91.9624C146.601 88.8538 143.573 86.657 140.033 86.657Z" fill="#CC4D3B"/>
<path d="M33.2884 102.855C50.2677 102.357 63.6284 88.1771 63.1304 71.1843C62.6324 54.1915 48.4642 40.8201 31.4849 41.3185C14.5056 41.8169 1.14492 55.9963 1.64292 72.9892C2.14092 89.982 16.3091 103.353 33.2884 102.855Z" stroke="#617084" stroke-width="3.76" stroke-miterlimit="22.93"/>
<path d="M32.3877 72.0868L38.2875 50.0579" stroke="#617084" stroke-width="3.76" stroke-miterlimit="22.93"/>
<path d="M32.3877 72.0868L48.4993 88.2113" stroke="#617084" stroke-width="3.76" stroke-miterlimit="22.93"/>
<path d="M32.3877 46.0203V49.754" stroke="#617084" stroke-width="3.76" stroke-miterlimit="22.93"/>
<path d="M32.3877 94.4197V98.1534" stroke="#617084" stroke-width="3.76" stroke-miterlimit="22.93"/>
<path d="M58.4339 72.0868H54.7031" stroke="#617084" stroke-width="3.76" stroke-miterlimit="22.93"/>
<path d="M10.0725 72.0868H6.3418" stroke="#617084" stroke-width="3.76" stroke-miterlimit="22.93"/>
</g>
<defs>
<clipPath id="clip0_797_425">
<rect width="294" height="342" fill="white"/>
</clipPath>
</defs>
</svg>
