<svg width="453" height="314" viewBox="0 0 453 314" fill="none" xmlns="http://www.w3.org/2000/svg">
<g clip-path="url(#clip0_797_112)">
<path d="M438.886 37.1683H426.643V247.747H438.886V37.1683Z" fill="#F7F7EF"/>
<path fill-rule="evenodd" clip-rule="evenodd" d="M453 30.2848L310.408 4.82294V37.1683H453V30.2848Z" fill="#F7F7EF"/>
<path d="M413.809 37.1683H401.566V247.747H413.809V37.1683Z" fill="#F7F7EF"/>
<path d="M388.733 37.1683H376.489V247.747H388.733V37.1683Z" fill="#F7F7EF"/>
<path d="M363.656 37.1683H351.413V247.747H363.656V37.1683Z" fill="#F7F7EF"/>
<path d="M338.58 37.1683H326.336V247.747H338.58V37.1683Z" fill="#F7F7EF"/>
<path fill-rule="evenodd" clip-rule="evenodd" d="M0.668945 237.626H418.401V270.628L395.659 296.633H20.304L0.668945 273.854V237.626Z" fill="#FC5E48"/>
<path fill-rule="evenodd" clip-rule="evenodd" d="M234.906 237.626H418.401V273.854L395.66 296.633H234.906V237.626Z" fill="#FC5E48"/>
<path d="M37.2977 314.011C46.9084 314.011 54.6994 306.231 54.6994 296.633C54.6994 287.035 46.9084 279.255 37.2977 279.255C27.687 279.255 19.896 287.035 19.896 296.633C19.896 306.231 27.687 314.011 37.2977 314.011Z" fill="#0C160F"/>
<path d="M334.029 299.919C335.856 290.496 329.688 281.378 320.253 279.553C310.818 277.728 301.687 283.888 299.86 293.311C298.033 302.733 304.201 311.851 313.636 313.676C323.071 315.501 332.202 309.341 334.029 299.919Z" fill="#0C160F"/>
<path fill-rule="evenodd" clip-rule="evenodd" d="M93.4932 237.626H352.977V98.4852H148.555L93.4932 237.626Z" fill="#FC5E48"/>
<path fill-rule="evenodd" clip-rule="evenodd" d="M99.5693 237.614H232.344V102.516H153.021L99.5693 237.614Z" fill="#A3A4A5"/>
<path d="M219.205 250.634H206.36V252.083H219.205V250.634Z" fill="#8C4A2E"/>
<path fill-rule="evenodd" clip-rule="evenodd" d="M415.056 255.627V266.427C409.082 266.427 404.241 261.593 404.241 255.627C404.241 249.66 409.082 244.826 415.056 244.826V255.627Z" fill="#CC4D3B"/>
<path d="M337.469 237.626H336.641V296.622H337.469V237.626Z" fill="#8C4A2E"/>
<path d="M235.314 237.626H234.487V296.622H235.314V237.626Z" fill="#8C4A2E"/>
<path d="M99.9775 237.626H99.1499V296.622H99.9775V237.626Z" fill="#8C4A2E"/>
<path d="M322.345 250.634H309.501V252.083H322.345V250.634Z" fill="#8C4A2E"/>
<path fill-rule="evenodd" clip-rule="evenodd" d="M182.191 102.516H208.968L155.096 237.614H128.331L182.191 102.516Z" fill="#F7F7EF"/>
<path fill-rule="evenodd" clip-rule="evenodd" d="M219.897 102.516H227.696L173.836 237.614H166.025L219.897 102.516Z" fill="#F7F7EF"/>
<path fill-rule="evenodd" clip-rule="evenodd" d="M232.344 102.516H153.022L117.64 191.932H232.344V102.516Z" fill="white"/>
<path fill-rule="evenodd" clip-rule="evenodd" d="M157.5 175.55C157.738 173.863 155.584 172.369 154.122 171.803C149.655 170.071 144.792 168.667 135.507 169.425L135.745 171.735C139.803 171.667 147.388 174.644 152.16 176.886C155.131 178.63 157.205 177.588 157.5 175.539V175.55Z" fill="#F9C9B3"/>
<path fill-rule="evenodd" clip-rule="evenodd" d="M193.097 191.932L155.878 172.663C155.436 172.448 155.028 172.256 154.643 172.086L152.171 176.886C152.307 176.988 152.455 177.079 152.602 177.169L174.595 191.921H193.108L193.097 191.932Z" fill="#F9C9B3"/>
<path fill-rule="evenodd" clip-rule="evenodd" d="M219.896 114.505C222.742 115.252 224.454 118.184 223.705 121.026L213.185 161.036C212.437 163.878 209.501 165.587 206.655 164.84C203.81 164.093 202.098 161.161 202.846 158.319L213.366 118.309C214.115 115.467 217.051 113.758 219.896 114.505Z" fill="#F9C9B3"/>
<path fill-rule="evenodd" clip-rule="evenodd" d="M219.296 117.313L215.351 114.539C218.74 112.569 223.082 113.701 225.055 117.086C227.027 120.471 225.894 124.807 222.504 126.777C218.99 124.128 217.584 120.132 219.284 117.313H219.296Z" fill="#0C160F"/>
<path fill-rule="evenodd" clip-rule="evenodd" d="M212.074 127.808L214.376 116.328L206.655 126.392L212.074 127.808Z" fill="#F9C9B3"/>
<path fill-rule="evenodd" clip-rule="evenodd" d="M37.2973 290.18C40.8684 290.18 43.7592 293.067 43.7592 296.633C43.7592 300.199 40.8684 303.086 37.2973 303.086C33.7263 303.086 30.8354 300.199 30.8354 296.633C30.8354 293.067 33.7263 290.18 37.2973 290.18Z" fill="#C9C9C9"/>
<path fill-rule="evenodd" clip-rule="evenodd" d="M316.949 290.18C320.52 290.18 323.411 293.067 323.411 296.633C323.411 300.199 320.52 303.086 316.949 303.086C313.378 303.086 310.487 300.199 310.487 296.633C310.487 293.067 313.378 290.18 316.949 290.18Z" fill="#C9C9C9"/>
<path fill-rule="evenodd" clip-rule="evenodd" d="M93.4931 228.58V237.637C88.4823 237.637 84.4238 233.584 84.4238 228.58C84.4238 223.576 88.4823 219.523 93.4931 219.523V228.58Z" fill="#283825"/>
<path d="M418.401 273.526H0.668945V274.194H418.401V273.526Z" fill="#8C4A2E"/>
<path d="M335.813 102.516H236.663V237.603H335.813V102.516Z" fill="#A3A4A5"/>
<path fill-rule="evenodd" clip-rule="evenodd" d="M290.319 102.516H317.085L263.213 237.614H236.448L290.319 102.516Z" fill="#F7F7EF"/>
<path fill-rule="evenodd" clip-rule="evenodd" d="M328.014 102.516H335.825L281.953 237.614H274.142L328.014 102.516Z" fill="#F7F7EF"/>
<path fill-rule="evenodd" clip-rule="evenodd" d="M0 255.627V266.427C5.9744 266.427 10.8151 261.593 10.8151 255.627C10.8151 249.66 5.9744 244.826 0 244.826V255.627Z" fill="#E9B317"/>
<path fill-rule="evenodd" clip-rule="evenodd" d="M179.629 191.932C178.677 186.464 177.305 181.664 177.146 174.939C177.055 171.384 180.037 166.074 183.937 162.768C187.587 159.666 192.348 158.376 195.84 158.364L232.344 158.217V191.944H179.629V191.932Z" fill="#CC4D3B"/>
<path fill-rule="evenodd" clip-rule="evenodd" d="M229.861 170.739L189.446 222.579C187.496 225.081 183.846 225.534 181.341 223.587C178.835 221.64 178.382 217.994 180.332 215.492L220.747 163.651C222.697 161.149 226.347 160.696 228.852 162.644C231.358 164.591 231.811 168.237 229.861 170.739Z" fill="#F9C9B3"/>
<path fill-rule="evenodd" clip-rule="evenodd" d="M229.861 170.739L207.676 199.201L198.878 191.695L220.747 163.651C222.697 161.149 226.347 160.696 228.852 162.644C231.358 164.591 231.811 168.237 229.861 170.739Z" fill="#F9C9B3"/>
<path fill-rule="evenodd" clip-rule="evenodd" d="M137.706 170.161C138.987 169.255 140.778 169.572 141.685 170.852L156.525 191.932H149.553L137.015 174.124C136.108 172.844 136.425 171.056 137.706 170.15V170.161Z" fill="#283825"/>
<path d="M335.813 102.516H236.663V180.95H335.813V102.516Z" fill="white"/>
<path fill-rule="evenodd" clip-rule="evenodd" d="M313.378 115.014C316.541 115.581 318.65 118.592 318.083 121.751C317.516 124.909 314.501 127.015 311.338 126.449C308.175 125.883 306.066 122.872 306.633 119.713C307.2 116.554 310.215 114.448 313.378 115.014Z" fill="#0C160F"/>
<path fill-rule="evenodd" clip-rule="evenodd" d="M322.572 109.116C325.735 109.682 327.844 112.694 327.277 115.852C326.71 119.011 323.695 121.117 320.532 120.551C317.369 119.985 315.26 116.973 315.827 113.814C316.394 110.656 319.409 108.55 322.572 109.116Z" fill="#0C160F"/>
<path fill-rule="evenodd" clip-rule="evenodd" d="M303.742 121.287C306.055 121.694 307.608 123.924 307.2 126.234L301.361 158.942C300.953 161.251 298.72 162.802 296.407 162.395C294.094 161.987 292.541 159.757 292.949 157.447L298.788 124.74C299.196 122.43 301.429 120.879 303.742 121.287Z" fill="#F9C9B3"/>
<path fill-rule="evenodd" clip-rule="evenodd" d="M303.379 126.257L300.137 121.615C302.711 119.826 306.248 120.46 308.039 123.019C309.83 125.589 309.195 129.121 306.633 130.91L303.391 126.268L303.379 126.257Z" fill="#0C160F"/>
<path fill-rule="evenodd" clip-rule="evenodd" d="M298.368 132.382L299.468 123.098L293.958 131.6L298.368 132.382Z" fill="#F9C9B3"/>
<path fill-rule="evenodd" clip-rule="evenodd" d="M272.521 167.07L264.676 180.962H252.308L263.145 161.783C264.597 159.202 267.907 158.285 270.48 159.745C273.065 161.195 273.983 164.5 272.521 167.07Z" fill="#BD7757"/>
<path fill-rule="evenodd" clip-rule="evenodd" d="M272.521 167.07L264.676 180.962H252.308L263.145 161.783C264.597 159.202 267.907 158.285 270.48 159.745C273.065 161.195 273.983 164.5 272.521 167.07Z" fill="#F9C9B3"/>
<path fill-rule="evenodd" clip-rule="evenodd" d="M270.888 156.711H320.985C325.497 156.711 329.193 160.402 329.193 164.908C329.193 169.414 325.497 173.105 320.985 173.105H318.366L314.16 180.951H269.709C269.675 178.335 270.412 175.618 271.591 173.105H270.888C266.376 173.105 262.681 169.414 262.681 164.908C262.681 160.402 266.376 156.711 270.888 156.711Z" fill="#F9C9B3"/>
<path fill-rule="evenodd" clip-rule="evenodd" d="M269.71 180.962C269.676 178.347 270.412 175.629 271.592 173.116L277.759 156.711H314.217L318.162 173.116L314.138 180.962H269.721H269.71Z" fill="#CC4D3B"/>
<path fill-rule="evenodd" clip-rule="evenodd" d="M320.271 162.768L346.946 114.482C348.238 112.15 351.197 111.29 353.532 112.58C355.868 113.871 356.729 116.826 355.437 119.158L328.762 167.444C327.47 169.776 324.511 170.637 322.175 169.346C319.84 168.055 318.978 165.1 320.271 162.768Z" fill="#F9C9B3"/>
<path fill-rule="evenodd" clip-rule="evenodd" d="M320.271 162.768L332.991 139.74L341.164 144.994L328.751 167.455C327.458 169.788 324.499 170.648 322.164 169.357C319.829 168.067 318.967 165.112 320.26 162.78L320.271 162.768Z" fill="#F9C9B3"/>
<path fill-rule="evenodd" clip-rule="evenodd" d="M371.116 81.4804C370.231 80.2803 371.308 78.1405 372.215 77.0424C375.004 73.6799 378.224 70.3967 385.797 66.8191L386.556 68.7324C383.348 70.5099 378.643 76.2385 375.832 80.1331C374.222 82.8276 372.17 82.9522 371.104 81.4804H371.116Z" fill="#F9C9B3"/>
<path fill-rule="evenodd" clip-rule="evenodd" d="M348.159 121.649C345.971 120.177 345.608 116.826 347.365 114.199L371.206 78.5028C371.456 78.1405 371.705 77.8009 371.932 77.4952L375.843 80.1218C375.775 80.2576 375.707 80.4048 375.627 80.5407L355.312 119.532C353.861 122.328 350.347 123.109 348.17 121.637L348.159 121.649Z" fill="#F9C9B3"/>
<path d="M298.935 153.473C300.375 150.903 303.833 149.092 307.891 147.915C312.755 146.499 318.672 145.933 322.583 146.024L323.706 146.047C328.626 146.171 332.809 147.235 336.879 148.277C342.831 149.794 348.499 151.254 355.516 148.277L357.262 147.541C361.241 145.854 366.331 145.503 371.365 146.013C376.999 146.579 382.702 148.232 386.601 150.247C391.589 152.828 396.43 150.971 401.271 149.126C405.42 147.541 409.569 145.945 414.501 146.069V151.175C411.417 151.096 408.096 152.364 404.785 153.643C398.017 156.236 391.249 158.828 382.565 154.345C379.573 152.794 375.117 151.515 370.639 151.073C367.046 150.711 363.543 150.915 361.015 151.979L359.269 152.715C349.474 156.858 342.264 155.013 334.702 153.077C331.177 152.171 327.572 151.254 323.694 151.152L322.572 151.13C319.432 151.051 314.67 151.515 310.748 152.647C308.243 153.371 306.202 154.334 305.544 155.489L298.913 153.473H298.935Z" fill="#E9B317"/>
<path fill-rule="evenodd" clip-rule="evenodd" d="M291.34 150.971H307.347L305.522 156.847H289.515L291.34 150.971Z" fill="#E9B317"/>
<path fill-rule="evenodd" clip-rule="evenodd" d="M164.063 7.8684C178.733 7.8684 187.984 4.34744 196.679 2.03786C201.236 0.826471 210.385 -1.36989 214.772 1.2114C216.031 1.95861 216.586 2.94358 217.04 3.96251C218.853 8.10615 221.098 7.31365 222.923 7.6533C224.465 7.94765 224.862 10.3252 221.812 10.3252H164.052C162.828 10.3252 161.819 9.7704 161.819 9.09112C161.819 8.41183 162.828 7.85708 164.052 7.85708L164.063 7.8684Z" fill="#F7F7EF"/>
<path fill-rule="evenodd" clip-rule="evenodd" d="M227.514 13.1895C235.167 13.1895 240.007 11.3554 244.542 10.144C246.923 9.51 251.695 8.36653 253.985 9.71378C254.643 10.0987 254.938 10.6195 255.164 11.1516C256.105 13.314 257.284 12.8951 258.237 13.0763C259.042 13.2348 259.246 14.4688 257.659 14.4688H227.503C226.868 14.4688 226.335 14.1744 226.335 13.8235C226.335 13.4725 226.857 13.1781 227.503 13.1781L227.514 13.1895Z" fill="#F7F7EF"/>
<path d="M127.038 52.1805C128.977 50.2445 131.607 49.1577 134.362 49.1577C140.075 49.1577 144.712 53.7881 144.712 59.4941" stroke="#FC5E48" stroke-width="2" stroke-miterlimit="10"/>
<path d="M162.374 52.1805C160.436 50.2445 157.806 49.1577 155.051 49.1577C149.337 49.1577 144.701 53.7881 144.701 59.4941" stroke="#FC5E48" stroke-width="2" stroke-miterlimit="10"/>
<path fill-rule="evenodd" clip-rule="evenodd" d="M155.425 184.268C156.173 182.728 154.598 180.656 153.385 179.694C149.677 176.739 145.494 173.965 136.436 171.984L135.938 174.271C139.815 175.392 146.095 180.452 149.927 183.996C152.206 186.532 154.496 186.136 155.414 184.268H155.425Z" fill="#F9C9B3"/>
<path fill-rule="evenodd" clip-rule="evenodd" d="M188.278 222.319C190.432 220.157 190.217 216.398 187.791 213.975L154.79 181.03C154.439 180.701 154.11 180.396 153.792 180.113L149.938 183.973C150.04 184.109 150.142 184.245 150.255 184.37L179.957 221.81C182.089 224.493 186.113 224.459 188.267 222.296L188.278 222.319Z" fill="#F9C9B3"/>
<path fill-rule="evenodd" clip-rule="evenodd" d="M157.511 187.528C156.151 188.83 154.019 188.819 152.727 187.494C151.446 186.17 151.503 184.03 152.863 182.717C154.223 181.415 156.355 181.426 157.647 182.751C158.928 184.075 158.872 186.215 157.511 187.528Z" fill="#E3E3E3"/>
</g>
<defs>
<clipPath id="clip0_797_112">
<rect width="453" height="314" fill="white"/>
</clipPath>
</defs>
</svg>
