<svg width="1440" height="467" viewBox="0 0 1440 467" fill="none" xmlns="http://www.w3.org/2000/svg">
<g clip-path="url(#clip0_1159_1357)">
<rect x="-4" width="1444" height="467" fill="#EEEEE9"/>
<path d="M1149.83 235.962C1015.27 254.616 629.484 465.439 626 467H1440V315.29C1357.4 275.899 1316.67 212.832 1149.83 235.962Z" fill="#EDE7E4"/>
<path d="M290.087 435.291C207.533 391.915 210.68 305.477 66.6487 380.598C34.5499 397.339 12.4482 401.61 -4 399.033V466.908H458.627C390.143 446.865 338.99 460.972 290.087 435.291Z" fill="#EDE7E4"/>
<path d="M1361.22 89.3754C1360.56 89.3754 1360.18 89.3342 1360.16 89.3342L1360.21 88.9221C1360.29 88.9221 1368.36 89.6776 1374.67 84.0049L1374.94 84.3208C1369.86 88.8809 1363.65 89.3754 1361.22 89.3754Z" fill="#8299C2"/>
<path d="M1370.56 94.114C1367.71 93.7019 1365.91 92.3971 1364.9 91.3669C1363.8 90.2544 1363.39 89.2517 1363.38 89.2105L1363.76 89.0594C1363.76 89.0594 1365.4 92.9465 1370.63 93.7157L1370.58 94.1277L1370.56 94.114Z" fill="#8299C2"/>
<path d="M1235.7 150.086H1220.62L1219.04 89.9249C1219.04 89.9249 1221.35 88.8123 1224.94 88.4689C1229.8 88.0019 1234.21 88.1942 1234.21 88.1942L1235.7 150.086Z" fill="#C2CDE1"/>
<path d="M1274.36 150.086H1235.71L1234.21 88.1942L1274.36 89.9249V150.086Z" fill="#8299C2"/>
<path d="M1260.34 150.086H1249.07V75.4342C1249.07 75.4342 1251.41 74.7749 1254.47 74.5277C1257.85 74.253 1262.22 74.5277 1262.22 74.5277L1260.32 150.086H1260.34Z" fill="#C2CDE1"/>
<path d="M1289.21 150.086H1260.34L1262.23 74.5276L1289.21 75.4342V150.086Z" fill="#8299C2"/>
<path d="M1287.34 150.086H1278.86L1267.09 93.8944C1267.09 93.8944 1268.52 93.5235 1270.69 93.4136C1273.2 93.29 1275.56 93.8944 1275.56 93.8944L1287.34 150.086Z" fill="#C2CDE1"/>
<path d="M1309.07 150.085H1287.34L1275.57 93.8943L1297.12 96.9984L1309.07 150.085Z" fill="#8299C2"/>
<path d="M1219.31 97.8365L1219.2 97.4382C1219.2 97.4382 1222.45 96.5866 1225.97 96.8064C1229.42 97.0124 1234.12 95.8724 1234.17 95.8586L1234.27 96.257C1234.27 96.257 1229.46 97.4245 1225.96 97.2184C1222.51 97.0124 1219.35 97.8365 1219.32 97.8365H1219.31Z" fill="#8299C2"/>
<path d="M1249.11 81.3541L1249.06 80.9557C1249.14 80.9557 1256.97 79.802 1262.12 80.9557L1262.02 81.3541C1256.94 80.214 1249.2 81.3541 1249.11 81.3541Z" fill="#8299C2"/>
<path d="M1261.89 85.3512C1257.66 83.4557 1249.18 84.1562 1249.1 84.1562L1249.06 83.7441C1249.42 83.7167 1257.71 83.0299 1262.04 84.9666L1261.87 85.3374L1261.89 85.3512Z" fill="#8299C2"/>
<path d="M1249.11 140.732L1249.04 140.334C1249.36 140.279 1256.82 139.111 1260.64 140.334L1260.51 140.718C1256.78 139.523 1249.18 140.718 1249.11 140.718V140.732Z" fill="#8299C2"/>
<path d="M1249.11 142.792L1249.06 142.394C1249.13 142.394 1256.31 141.446 1260.58 142.394L1260.5 142.792C1256.31 141.858 1249.2 142.792 1249.13 142.792H1249.11Z" fill="#8299C2"/>
<path d="M1268.44 100.35L1268.36 99.9517C1268.58 99.9105 1273.84 98.7979 1276.94 99.9517L1276.8 100.336C1273.81 99.21 1268.49 100.336 1268.44 100.336V100.35Z" fill="#8299C2"/>
<path d="M1268.8 102.067L1268.73 101.669C1268.93 101.627 1273.77 100.79 1277.27 101.669L1277.17 102.067C1273.77 101.202 1268.85 102.067 1268.81 102.067H1268.8Z" fill="#8299C2"/>
<path d="M1276.78 140.196L1276.71 139.798C1276.91 139.757 1281.9 138.946 1285.26 139.798L1285.17 140.196C1281.89 139.358 1276.83 140.196 1276.78 140.196Z" fill="#8299C2"/>
<path d="M1285.63 142.353C1281.39 141.433 1277.3 142.353 1277.25 142.353L1277.17 141.954C1277.17 141.954 1281.39 141.02 1285.72 141.954L1285.63 142.353Z" fill="#8299C2"/>
<path d="M1365.33 136.447C1365.33 136.447 1365.06 137.161 1364.45 138.356C1364.44 138.383 1364.42 138.424 1364.4 138.452C1363.34 140.512 1361.35 143.919 1358.13 147.407C1357.04 148.602 1355.55 149.536 1353.82 150.223H1353.78C1353.41 150.388 1353.02 150.525 1352.63 150.649C1347.02 152.435 1339.32 152.05 1333.27 150.113L1332.23 149.756C1331.71 149.564 1331.21 149.372 1330.72 149.152C1329.15 148.465 1327.88 147.613 1326.85 146.652C1326.71 146.528 1326.58 146.405 1326.46 146.281C1322.27 142.092 1322.34 136.433 1322.34 136.433H1365.32L1365.33 136.447Z" fill="#C2CDE1"/>
<path d="M1366.7 127.889V134.084C1366.7 137.916 1356.33 141.02 1343.54 141.02C1330.76 141.02 1320.39 137.916 1320.39 134.084V127.889C1320.39 125.939 1326.36 124.277 1334.82 123.59C1337.51 123.37 1340.45 123.247 1343.54 123.247C1356.33 123.247 1366.7 125.321 1366.7 127.889Z" fill="#8299C2"/>
<path d="M1366.7 127.889C1366.7 128.26 1366.48 128.631 1366.07 128.974C1363.64 131.007 1354.48 132.532 1343.54 132.532C1340.48 132.532 1337.56 132.408 1334.88 132.188C1326.38 131.502 1320.39 129.84 1320.39 127.876C1320.39 125.911 1326.36 124.263 1334.82 123.576C1337.51 123.357 1340.45 123.233 1343.54 123.233C1356.33 123.233 1366.7 125.307 1366.7 127.876V127.889Z" fill="#8299C2"/>
<path d="M1344.95 63.7316C1342.72 65.2013 1341.65 64.8441 1341.14 63.8552C1340.63 62.88 1340.88 61.6575 1343.09 60.1879C1347.14 57.5232 1350.01 58.004 1350.01 58.004C1350.01 58.004 1349.04 61.0257 1344.93 63.7316H1344.95Z" fill="#8299C2"/>
<path d="M1344.83 82.4667C1343.16 84.6643 1342.03 84.7055 1341.26 83.9776C1340.49 83.2358 1340.37 81.9859 1342.06 79.802C1345.12 75.805 1347.98 75.2144 1347.98 75.2144C1347.98 75.2144 1347.92 78.4285 1344.82 82.4667H1344.83Z" fill="#8299C2"/>
<path d="M1343.8 131.213L1343.32 131.172C1343.32 131.09 1343.94 122.629 1341.41 110.226C1339.08 98.7841 1333.5 81.56 1320.23 64.4733L1320.61 64.1162C1333.94 81.2991 1339.55 98.6193 1341.89 110.13C1344.44 122.601 1343.82 131.131 1343.82 131.213H1343.8Z" fill="#8299C2"/>
<path d="M1333.67 85.6944L1333.26 85.4059C1342.8 68.6763 1337.05 48.3618 1336.99 48.1557L1337.46 47.9909C1337.52 48.1969 1343.35 68.745 1333.67 85.7081V85.6944Z" fill="#8299C2"/>
<path d="M1326.32 76.8215C1321.36 76.8215 1317.63 74.0332 1317.59 74.0058L1317.86 73.5525C1317.86 73.5525 1322.71 77.1511 1328.56 76.0661L1328.64 76.6017C1327.85 76.7528 1327.08 76.8078 1326.34 76.8078L1326.32 76.8215Z" fill="#8299C2"/>
<path d="M1342.99 118.893C1332.98 117.615 1324.86 112.135 1318.87 102.603C1318.67 102.273 1318.47 101.957 1318.41 101.902C1318.41 101.902 1318.42 101.916 1318.46 101.93L1318.61 101.408C1318.75 101.463 1318.83 101.586 1319.27 102.287C1325.18 111.682 1333.17 117.08 1343.05 118.343L1342.99 118.893Z" fill="#8299C2"/>
<path d="M1328.83 113L1328.37 112.863C1330.1 105.693 1325.84 95.1581 1325.8 95.0483L1326.24 94.8148C1326.24 94.8148 1327.35 97.5344 1328.21 101.106C1329.01 104.402 1329.77 109.154 1328.85 113H1328.83Z" fill="#8299C2"/>
<path d="M1319.9 61.4241C1322.49 64.0338 1322.71 65.4897 1322.02 66.3413C1321.35 67.1792 1320.03 67.083 1317.44 64.4733C1312.75 59.7209 1311.7 55.8887 1311.7 55.8887C1311.7 55.8887 1315.12 56.5892 1319.9 61.4241Z" fill="#8299C2"/>
<path d="M1318.89 72.2336C1322.05 73.8544 1322.65 75.173 1322.22 76.2031C1321.81 77.2333 1320.52 77.5904 1317.36 75.9696C1311.61 73.0303 1309.57 69.7338 1309.57 69.7338C1309.57 69.7338 1313.04 69.2531 1318.87 72.2336H1318.89Z" fill="#8299C2"/>
<path d="M1327.24 93.2627C1328.42 95.8312 1328.04 97.0124 1327.14 97.5343C1326.25 98.0563 1325.17 97.7129 1323.98 95.1444C1321.84 90.4606 1322.42 87.2603 1322.42 87.2603C1322.42 87.2603 1325.06 88.5102 1327.23 93.2627H1327.24Z" fill="#8299C2"/>
<path d="M1331.3 68.0993C1331.9 70.9151 1331.26 71.959 1330.29 72.2199C1329.3 72.4809 1328.34 71.8491 1327.75 69.0333C1326.68 63.9101 1327.94 60.957 1327.94 60.957C1327.94 60.957 1330.22 62.8937 1331.3 68.0993Z" fill="#8299C2"/>
<path d="M1335.27 110.102C1335.14 112.986 1334.27 113.797 1333.27 113.728C1332.27 113.659 1331.48 112.753 1331.62 109.868C1331.88 104.608 1333.83 102.177 1333.83 102.177C1333.83 102.177 1335.54 104.759 1335.27 110.088V110.102Z" fill="#8299C2"/>
<path d="M1321.07 102.122C1322.72 104.347 1322.57 105.597 1321.8 106.325C1321.03 107.053 1319.91 106.97 1318.26 104.745C1315.26 100.693 1315.22 97.4243 1315.22 97.4243C1315.22 97.4243 1318.04 98.015 1321.07 102.136V102.122Z" fill="#8299C2"/>
<path d="M1338.47 45.7658C1339.28 49.5568 1338.74 50.9028 1337.75 51.1638C1336.76 51.4248 1335.73 50.5182 1334.92 46.7273C1333.45 39.8184 1334.5 36 1334.5 36C1334.5 36 1336.98 38.7608 1338.47 45.7658Z" fill="#8299C2"/>
<path d="M1344.16 131.941C1344.16 131.941 1331.47 78.758 1318.74 83.1671C1306.01 87.5761 1334.29 116.695 1337.54 132.312L1344.16 131.955V131.941Z" fill="#8299C2"/>
<path d="M1342.29 129.551C1342.29 129.551 1322.86 86.8755 1310.74 93.2487C1298.61 99.6219 1330.51 118.604 1335.74 131.227L1342.29 129.551Z" fill="#8299C2"/>
<path d="M1338.54 130.568C1331.89 113.756 1314.38 99.1001 1314.2 98.949L1314.52 98.4682C1314.7 98.6193 1332.33 113.371 1339.04 130.32L1338.54 130.568Z" fill="#8299C2"/>
<path d="M1379.12 99.3748C1374.57 105.94 1382.52 114.511 1374.9 118.7C1367.26 122.89 1367.5 121.516 1366.75 127.464C1366.75 127.464 1366.88 128.37 1366.07 128.974C1363.64 131.021 1354.47 132.532 1343.54 132.532C1340.48 132.532 1337.55 132.408 1334.87 132.188C1334.21 130.266 1333.58 127.106 1334.82 123.576C1335.27 122.285 1335.97 120.939 1337.03 119.593C1342.72 112.3 1347.26 113.756 1345.97 100.268C1344.67 86.7658 1360.92 92.6033 1364.98 88.0431C1369.05 83.483 1371.81 78.3735 1379.12 80.3788C1386.42 82.3842 1383.66 92.7818 1379.12 99.3473V99.3748Z" fill="#C2CDE1"/>
<path d="M1346.95 133.012L1346.48 132.861C1346.54 132.628 1352.77 109.36 1381.02 81.5462L1381.34 81.9583C1353.21 109.662 1347 132.779 1346.95 133.012Z" fill="#8299C2"/>
<path d="M1355.56 103.701C1348.9 103.427 1345.96 101.009 1345.84 100.913L1346.13 100.474C1346.13 100.474 1349.08 102.891 1355.58 103.152V103.701H1355.56Z" fill="#8299C2"/>
<path d="M1359.58 107.602C1356.95 106.49 1354.78 103.358 1353.32 98.5231C1352.22 94.9107 1351.91 91.573 1351.91 91.5318L1352.39 91.4768C1352.39 91.6005 1353.69 104.525 1359.76 107.08L1359.6 107.588L1359.58 107.602Z" fill="#8299C2"/>
<path d="M1366.63 99.7594C1365.86 99.7594 1365.41 99.7182 1365.39 99.7045L1365.45 99.1551C1365.55 99.1551 1375.02 100.13 1382.44 92.727L1382.77 93.139C1376.79 99.1001 1369.52 99.7457 1366.64 99.7457L1366.63 99.7594Z" fill="#8299C2"/>
<path d="M1377.59 105.954C1374.24 105.405 1372.13 103.702 1370.94 102.369C1369.65 100.913 1369.17 99.5947 1369.14 99.5398L1369.6 99.3337C1369.6 99.3337 1371.52 104.416 1377.66 105.405L1377.59 105.94V105.954Z" fill="#8299C2"/>
<path d="M1364.37 125.637C1357.1 125.637 1351.84 120.637 1351.79 120.568L1352.1 120.156C1352.1 120.156 1358.68 126.406 1367.15 124.826L1367.24 125.362C1366.25 125.541 1365.3 125.623 1364.37 125.623V125.637Z" fill="#8299C2"/>
<path d="M1357.15 123.796L1356.74 123.508C1358.18 120.912 1361.56 117.409 1369.43 115.528C1374.1 114.415 1378.22 114.401 1378.27 114.401V114.951C1378.1 114.951 1362.02 115.061 1357.15 123.796Z" fill="#8299C2"/>
<path d="M1383.58 157.338L1217 159V149.138H1382.1L1383.58 157.338Z" fill="#8299C2"/>
<path fill-rule="evenodd" clip-rule="evenodd" d="M1136.73 161.89L1136.69 272.79C1136.69 278.15 1132.3 282.53 1126.95 282.53C1121.59 282.53 1117.21 278.14 1117.21 272.79L1117.25 161.89C1117.25 156.53 1121.64 152.15 1126.99 152.16C1132.35 152.16 1136.73 156.55 1136.72 161.9L1136.73 161.89Z" fill="#F9C9B3"/>
<path fill-rule="evenodd" clip-rule="evenodd" d="M1138.16 161.61L1138.13 222.78L1115.8 221.88L1115.83 161.6C1115.83 156.22 1120.86 151.82 1127 151.82C1133.14 151.82 1138.17 156.23 1138.16 161.61Z" fill="#001E60"/>
<path d="M1215.85 473.63C1259.32 473.63 1294.57 438.386 1294.57 394.91C1294.57 351.434 1259.32 316.19 1215.85 316.19C1172.37 316.19 1137.13 351.434 1137.13 394.91C1137.13 438.386 1172.37 473.63 1215.85 473.63Z" fill="#C2CDE1"/>
<path fill-rule="evenodd" clip-rule="evenodd" d="M1185.96 291.49L1177.41 471.4C1176.83 483.65 1169.85 490.86 1163.09 490.36C1156.46 489.87 1149.9 485.01 1149.5 470.02L1143.45 290.36C1143.07 276.08 1153.29 269.57 1163.82 268.64C1175.07 267.64 1186.68 273.28 1185.97 291.49H1185.96Z" fill="#A3A4A5"/>
<path fill-rule="evenodd" clip-rule="evenodd" d="M1242.3 292.08L1238.05 480.64C1237.76 493.47 1231.04 501.21 1224.34 500.87C1217.78 500.53 1211.18 495.63 1210.44 479.95L1200.26 292.04C1199.55 277.1 1209.5 270.02 1219.88 268.75C1230.98 267.4 1242.58 273 1242.3 292.08Z" fill="#A3A4A5"/>
<path fill-rule="evenodd" clip-rule="evenodd" d="M1143.95 240.65L1243.21 243.01L1242.31 285.45C1241.81 308.79 1222.31 327.44 1198.97 326.88L1184.59 326.54C1161.25 325.98 1142.56 306.43 1143.05 283.09L1143.95 240.65Z" fill="#A3A4A5"/>
<path fill-rule="evenodd" clip-rule="evenodd" d="M1086.26 391.28H1153.21V416C1153.21 434.07 1136.34 444.33 1119.54 444.26C1102.87 444.19 1086.26 433.93 1086.26 416V391.28Z" fill="#001E60"/>
<path fill-rule="evenodd" clip-rule="evenodd" d="M1126.63 443.29L1002.71 413.32C994.281 411.28 990.221 405.28 991.501 400.46C992.751 395.73 997.031 391.63 1007.51 393.32L1133.27 412.69C1143.25 414.3 1146.37 422.55 1145.57 430.29C1144.72 438.56 1139.2 446.21 1126.64 443.28L1126.63 443.29Z" fill="#001E60"/>
<path d="M1338.92 387.19H828V477.97H1338.92V387.19Z" fill="#535353"/>
<path d="M941.319 369.82L932.339 401.01V401.05C931.759 402.71 931.469 404.18 931.459 405.43C931.459 406.36 931.599 407.17 931.899 407.83C932.199 408.49 932.659 409.01 933.279 409.39C934.019 409.84 934.979 410.09 936.149 410.11H950.109V411.5H936.139C934.809 411.47 933.709 411.18 932.839 410.65C932.029 410.15 931.409 409.45 930.999 408.56C930.589 407.68 930.389 406.62 930.399 405.41C930.409 403.97 930.729 402.32 931.359 400.48L940.329 369.32L941.299 369.82H941.319Z" fill="#C2CDE1"/>
<path fill-rule="evenodd" clip-rule="evenodd" d="M871.199 290.67H980.219L999.099 370.34H890.069L871.199 290.67Z" fill="#C2CDE1"/>
<path fill-rule="evenodd" clip-rule="evenodd" d="M943.678 290.67H964.228L936.388 356.96H915.828L943.678 290.67Z" fill="white"/>
<path fill-rule="evenodd" clip-rule="evenodd" d="M934.112 290.67H940.152L912.302 356.96H906.262L934.112 290.67Z" fill="white"/>
<path fill-rule="evenodd" clip-rule="evenodd" d="M1286.84 401.29C1283.74 404.08 1281.8 408.12 1281.8 412.62C1281.8 421.05 1288.63 427.88 1297.06 427.88C1305.49 427.88 1312.32 421.05 1312.32 412.62C1312.32 408.12 1310.37 404.08 1307.28 401.29C1310.38 398.5 1312.32 394.46 1312.32 389.96C1312.32 385.46 1310.37 381.42 1307.28 378.63C1310.38 375.84 1312.32 371.8 1312.32 367.3C1312.32 362.8 1310.37 358.76 1307.28 355.97C1310.38 353.18 1312.32 349.14 1312.32 344.64C1312.32 336.21 1305.49 329.38 1297.06 329.38C1288.63 329.38 1281.8 336.21 1281.8 344.64C1281.8 349.14 1283.75 353.18 1286.84 355.97C1283.74 358.76 1281.8 362.8 1281.8 367.3C1281.8 371.8 1283.75 375.84 1286.84 378.63C1283.74 381.42 1281.8 385.46 1281.8 389.96C1281.8 394.46 1283.75 398.5 1286.84 401.29Z" fill="#08173E"/>
<path fill-rule="evenodd" clip-rule="evenodd" d="M1138.43 104.85C1142.03 101.52 1147.71 101.74 1151.04 105.34L1198.01 156.1C1201.34 159.7 1201.12 165.38 1197.52 168.71C1193.92 172.04 1188.24 171.82 1184.91 168.22L1137.94 117.46C1134.61 113.86 1134.83 108.18 1138.43 104.85Z" fill="#F9C9B3"/>
<path fill-rule="evenodd" clip-rule="evenodd" d="M1141.86 108.22L1134.42 111.28C1134.67 104.74 1140.18 99.6399 1146.72 99.8999C1153.26 100.15 1158.36 105.66 1158.1 112.2C1151.2 114.77 1144.31 113.15 1141.86 108.22Z" fill="#1A1A1A"/>
<path fill-rule="evenodd" clip-rule="evenodd" d="M1150.17 127.82L1136.05 114.27L1143.31 134.17L1150.17 127.82Z" fill="#F9C9B3"/>
<path fill-rule="evenodd" clip-rule="evenodd" d="M1144.06 252.94L1118.28 177.9C1116.24 171.96 1116.5 161.4 1120.97 155.86C1125.16 150.68 1133.77 150.2 1139.35 150.18L1246.83 149.71C1258.97 149.66 1264.95 154.89 1266.73 162.38C1268.52 169.91 1266.05 179.78 1261.31 189.09L1244.72 252.94H1144.06Z" fill="#001E60"/>
<path fill-rule="evenodd" clip-rule="evenodd" d="M1267.95 162.78L1269.27 273.67C1269.33 279.03 1265 283.46 1259.65 283.52C1254.29 283.58 1249.86 279.25 1249.8 273.9L1248.48 163.01C1248.42 157.65 1252.75 153.22 1258.1 153.16C1263.46 153.1 1267.89 157.43 1267.95 162.78Z" fill="#F9C9B3"/>
<path fill-rule="evenodd" clip-rule="evenodd" d="M1269.09 162.48L1269.91 223.66L1248.04 223L1247.24 162.71C1247.17 157.33 1252.03 152.87 1258.04 152.81C1264.05 152.75 1269.03 157.1 1269.1 162.48H1269.09Z" fill="#001E60"/>
<path fill-rule="evenodd" clip-rule="evenodd" d="M1256.75 343.99C1254.37 345.34 1254.2 349.27 1254.68 351.49C1256.15 358.3 1258.36 365.25 1267.07 375.19L1269.88 372.68C1266.42 368.07 1263.98 356.48 1262.93 348.82C1262.72 343.72 1259.65 342.34 1256.75 343.98V343.99Z" fill="#F9C9B3"/>
<path fill-rule="evenodd" clip-rule="evenodd" d="M1260.46 262.9C1265.8 263.27 1269.89 268.09 1269.53 273.61L1264.54 348.81C1264.47 349.59 1264.39 350.31 1264.29 350.98L1254.74 350.32C1254.72 350.05 1254.7 349.77 1254.69 349.5L1250.11 272.28C1249.78 266.75 1255.12 262.53 1260.46 262.9Z" fill="#F9C9B3"/>
<path fill-rule="evenodd" clip-rule="evenodd" d="M1035.85 162.61C1045.62 157.61 1057.6 161.48 1062.6 171.25C1067.6 181.02 1063.73 193 1053.96 198C1044.19 203 1032.21 199.13 1027.21 189.36C1022.21 179.59 1026.08 167.61 1035.85 162.61Z" fill="#E9B317"/>
<path d="M1048.51 178.6C1048.96 178.85 1049.38 179.17 1049.77 179.56C1050.16 179.95 1050.5 180.44 1050.78 181.03C1051.06 181.62 1051.2 182.24 1051.19 182.88C1051.19 183.65 1050.98 184.39 1050.56 185.11C1050.14 185.83 1049.57 186.4 1048.87 186.82C1048.86 186.82 1048.83 186.84 1048.8 186.86L1049.31 187.91L1048.46 188.32L1047.93 187.24C1047.59 187.35 1047.22 187.44 1046.82 187.49C1045.02 187.72 1043.21 187.34 1041.38 186.36L1042.34 184.56C1043.79 185.34 1045.2 185.64 1046.56 185.47C1046.73 185.44 1046.89 185.42 1047.04 185.38L1044.42 180.09C1043.75 180.14 1043.15 180.12 1042.62 180.02C1042.08 179.92 1041.57 179.65 1041.06 179.23C1040.18 178.48 1039.72 177.59 1039.69 176.56C1039.67 175.97 1039.8 175.4 1040.08 174.87C1040.36 174.34 1040.74 173.91 1041.23 173.6L1040.72 172.55L1041.56 172.12L1042.09 173.2C1042.55 173.07 1043.03 173.04 1043.52 173.1C1044.01 173.16 1044.49 173.32 1044.94 173.58C1045.4 173.84 1045.79 174.17 1046.12 174.59L1044.53 175.86C1044.12 175.35 1043.62 175.09 1043.03 175.09L1044.47 178.04C1044.47 178.04 1044.54 178.03 1044.64 178.02C1045.01 177.98 1045.31 177.96 1045.53 177.95C1045.75 177.95 1046.04 177.95 1046.41 177.96C1046.77 177.98 1047.13 178.04 1047.47 178.14C1047.82 178.24 1048.16 178.39 1048.5 178.58L1048.51 178.6ZM1043.44 178.1L1042.15 175.48C1041.86 175.76 1041.72 176.11 1041.73 176.51C1041.74 176.94 1041.96 177.34 1042.39 177.71C1042.67 177.94 1043.03 178.07 1043.45 178.1H1043.44ZM1049.18 182.87C1049.13 182.31 1048.96 181.81 1048.65 181.39C1048.34 180.97 1047.97 180.63 1047.52 180.37C1046.97 180.06 1046.28 179.94 1045.44 180.01L1047.92 185.03C1048.27 184.79 1048.56 184.48 1048.81 184.1C1049.06 183.72 1049.18 183.31 1049.19 182.87H1049.18Z" fill="white"/>
<path fill-rule="evenodd" clip-rule="evenodd" d="M1043.92 196.3C1044.5 196.3 1044.97 196.77 1044.97 197.35V392.66C1044.97 393.24 1044.5 393.71 1043.92 393.71C1043.34 393.71 1042.87 393.24 1042.87 392.66V197.35C1042.87 196.77 1043.34 196.3 1043.92 196.3Z" fill="#C2CDE1"/>
<path fill-rule="evenodd" clip-rule="evenodd" d="M1043.95 402.36C1056.03 402.36 1065.89 399.94 1065.89 396.97C1065.89 394 1056.04 391.58 1043.95 391.58C1031.86 391.58 1022.01 394 1022.01 396.97C1022.01 399.94 1031.86 402.36 1043.95 402.36Z" fill="#C2CDE1"/>
<path fill-rule="evenodd" clip-rule="evenodd" d="M1071.31 211.79C1071.62 208.94 1068.24 206.16 1065.96 205.05C1058.99 201.66 1051.43 198.77 1037.12 199.14L1037.57 203.11C1043.84 203.4 1055.66 209.23 1063.11 213.54C1067.76 216.81 1070.93 215.24 1071.31 211.78V211.79Z" fill="#F9C9B3"/>
<path fill-rule="evenodd" clip-rule="evenodd" d="M1131.43 279.61C1127.21 283.16 1120.45 282.26 1116.43 277.58L1061.75 213.98C1061.2 213.31 1060.7 212.68 1060.25 212.07L1067.8 205.72C1068.03 205.92 1068.25 206.13 1068.48 206.34L1131.78 264.67C1136.31 268.85 1135.65 276.05 1131.43 279.6V279.61Z" fill="#F9C9B3"/>
<path fill-rule="evenodd" clip-rule="evenodd" d="M1118.75 409.29H1139.08V444.4H1118.75C1117.86 444.4 1117.14 443.26 1117.14 442.38V410.91C1117.14 410.02 1117.87 409.3 1118.75 409.3V409.29Z" fill="#04315B"/>
<path fill-rule="evenodd" clip-rule="evenodd" d="M1119.16 440.52H1139.08V444.39H1119.16C1116.46 444.39 1116.46 440.52 1119.16 440.52Z" fill="#C2CDE1"/>
<path fill-rule="evenodd" clip-rule="evenodd" d="M1191.7 406.39L1197.45 409.18L1191.7 411.98H1158.88V409.18V406.39H1191.7Z" fill="#04315B"/>
<path fill-rule="evenodd" clip-rule="evenodd" d="M1161.68 409.18C1161.68 410.72 1160.43 411.97 1158.89 411.97C1157.35 411.97 1156.1 410.72 1156.1 409.18C1156.1 407.64 1157.35 406.38 1158.89 406.38C1160.43 406.38 1161.68 407.63 1161.68 409.18Z" fill="#C2CDE1"/>
<path fill-rule="evenodd" clip-rule="evenodd" d="M1191.7 411.88L1197.45 409.18L1191.7 406.48C1192.92 406.81 1193.77 407.91 1193.77 409.18C1193.77 410.45 1192.92 411.55 1191.7 411.88Z" fill="#C2CDE1"/>
<path d="M1244.53 442.293C1254.76 438.721 1260.16 427.532 1256.58 417.302C1253.01 407.072 1241.82 401.675 1231.59 405.247C1221.36 408.82 1215.97 420.009 1219.54 430.239C1223.11 440.469 1234.3 445.866 1244.53 442.293Z" fill="#FFF0EB"/>
<path fill-rule="evenodd" clip-rule="evenodd" d="M1238.05 397.12C1232.08 397.12 1227.19 402.01 1227.19 407.98V423.45C1227.19 429.42 1232.08 434.31 1238.05 434.31C1244.02 434.31 1248.91 429.42 1248.91 423.45V407.98C1248.91 402.01 1244.02 397.12 1238.05 397.12Z" fill="#04315B"/>
<path fill-rule="evenodd" clip-rule="evenodd" d="M1238.12 397.17C1232.16 397.17 1227.32 402 1227.32 407.97C1227.32 413.94 1232.15 418.77 1238.12 418.77C1244.09 418.77 1248.92 413.94 1248.92 407.97C1248.92 402 1244.09 397.17 1238.12 397.17Z" fill="#FFF0EB"/>
<path fill-rule="evenodd" clip-rule="evenodd" d="M1227.75 410.96C1229.05 415.47 1233.2 418.76 1238.13 418.76C1243.06 418.76 1247.21 415.46 1248.51 410.96C1247.21 406.45 1243.06 403.16 1238.13 403.16C1233.2 403.16 1229.05 406.46 1227.75 410.96Z" fill="#A3A4A5"/>
<path d="M1240.03 371.3C1241.01 372.43 1241.67 373.49 1242.09 374.5C1242.52 375.53 1242.7 376.52 1242.7 377.46C1242.7 378.56 1242.46 379.59 1242.09 380.58C1241.73 381.54 1241.26 382.45 1240.78 383.36C1239.87 385.09 1239.06 386.98 1238.92 388.77C1238.79 390.48 1239.29 392.14 1240.94 393.5L1240.52 394.31C1238.57 392.71 1237.99 390.73 1238.15 388.67C1238.3 386.68 1239.16 384.65 1240.13 382.81C1240.59 381.94 1241.05 381.06 1241.39 380.16C1241.72 379.29 1241.93 378.39 1241.93 377.45C1241.93 376.66 1241.78 375.83 1241.4 374.95C1241.02 374.04 1240.41 373.06 1239.5 372.01L1240.02 371.3H1240.03Z" fill="white"/>
<path d="M1235.26 371.3C1236.24 372.43 1236.9 373.49 1237.32 374.5C1237.75 375.53 1237.93 376.52 1237.93 377.46C1237.93 378.56 1237.69 379.59 1237.32 380.58C1236.96 381.54 1236.49 382.45 1236.01 383.36C1235.1 385.09 1234.29 386.98 1234.15 388.77C1234.02 390.48 1234.52 392.14 1236.17 393.5L1235.75 394.31C1233.8 392.71 1233.22 390.73 1233.38 388.67C1233.53 386.68 1234.39 384.65 1235.36 382.81C1235.82 381.94 1236.28 381.06 1236.62 380.16C1236.95 379.29 1237.16 378.39 1237.16 377.45C1237.16 376.66 1237.01 375.83 1236.63 374.95C1236.25 374.03 1235.64 373.06 1234.73 372.01L1235.25 371.3H1235.26Z" fill="white"/>
</g>
<defs>
<clipPath id="clip0_1159_1357">
<rect width="1444" height="467" fill="white" transform="translate(-4)"/>
</clipPath>
</defs>
</svg>
