<svg width="11" height="12" viewBox="0 0 11 12" fill="none" xmlns="http://www.w3.org/2000/svg">
<path d="M7.47225 11.91C6.69358 11.91 5.97358 11.7713 5.31225 11.494C4.66158 11.206 4.09625 10.8113 3.61625 10.31C3.14692 9.798 2.77892 9.19533 2.51225 8.502C2.24558 7.798 2.11225 7.02467 2.11225 6.182C2.11225 5.35 2.24558 4.58733 2.51225 3.894C2.77892 3.20067 3.15225 2.598 3.63225 2.086C4.12292 1.574 4.69892 1.17933 5.36025 0.901999C6.02158 0.613999 6.74158 0.469999 7.52025 0.469999C7.84025 0.469999 8.14425 0.496666 8.43225 0.549999C8.73092 0.603333 9.01892 0.683332 9.29625 0.789999C9.57358 0.896666 9.84025 1.03533 10.0963 1.206L9.50425 2.214C9.20558 2.03267 8.88558 1.88867 8.54425 1.782C8.21358 1.67533 7.87225 1.622 7.52025 1.622C6.91225 1.622 6.34692 1.734 5.82425 1.958C5.31225 2.182 4.86425 2.49667 4.48025 2.902C4.10692 3.30733 3.81892 3.78733 3.61625 4.342C3.41358 4.89667 3.31225 5.51 3.31225 6.182C3.31225 6.854 3.41358 7.47267 3.61625 8.038C3.81892 8.59267 4.10692 9.078 4.48025 9.494C4.85358 9.89933 5.29625 10.214 5.80825 10.438C6.32025 10.6513 6.88558 10.758 7.50425 10.758C7.76025 10.758 8.00558 10.7313 8.24025 10.678C8.47492 10.6247 8.69892 10.5553 8.91225 10.47C9.13625 10.374 9.34425 10.262 9.53625 10.134L10.1443 11.126C9.87758 11.2967 9.59492 11.4407 9.29625 11.558C9.00825 11.6753 8.70425 11.7607 8.38425 11.814C8.07492 11.878 7.77092 11.91 7.47225 11.91ZM0.89625 8.022V6.886L7.32825 6.902V8.022H0.89625ZM0.89625 5.686V4.566L7.32825 4.582V5.702L0.89625 5.686Z" fill="#939096"/>
</svg>
