<svg width="20" height="18" viewBox="0 0 20 18" fill="none" xmlns="http://www.w3.org/2000/svg">
<path fill-rule="evenodd" clip-rule="evenodd" d="M19.5564 17.7786H15.2344V11.529C15.2344 9.89313 14.5583 8.7764 13.0716 8.7764C11.9345 8.7764 11.3021 9.52999 11.0077 10.2563C10.8974 10.5169 10.9146 10.8801 10.9146 11.2432V17.7786H6.63281C6.63281 17.7786 6.688 6.70799 6.63281 5.70168H10.9146V7.59705C11.1676 6.76833 12.5358 5.58557 14.7193 5.58557C17.4282 5.58557 19.5564 7.32271 19.5564 11.0634V17.7786ZM2.30187 4.19031H2.27428C0.894533 4.19031 0 3.2671 0 2.09686C0 0.903858 0.920978 0 2.32832 0C3.7345 0 4.59914 0.901582 4.62674 2.09345C4.62674 3.26368 3.7345 4.19031 2.30187 4.19031ZM0.494141 5.69861H4.30568V17.7755H0.494141V5.69861Z" fill="white"/>
</svg>
