<svg width="90" height="46" viewBox="0 0 90 46" fill="none" xmlns="http://www.w3.org/2000/svg">
<g clip-path="url(#clip0_134_587)">
<path d="M11.9791 2.0202C12.4138 2.0202 13.0304 2.72727 13.0304 3.84848V32.9697H46.3799C46.9662 32.9798 47.4312 33.4545 47.4312 34.0404V42.9394C47.4312 43.5151 46.9561 43.9899 46.3799 43.9899H3.07312C2.4868 43.9798 2.02179 43.5051 2.02179 42.9192V3.84848C2.02179 2.73737 2.64855 2.0202 3.07312 2.0202H11.9791ZM11.9791 0H3.07312C1.37482 0 0 1.72727 0 3.84848V42.9192C0 44.6162 1.37482 45.9899 3.07312 45.9899H46.3799C48.0782 46 49.453 44.6263 49.453 42.9293V34.0303C49.453 32.3333 48.0782 30.9596 46.3799 30.9596H15.3151L15.0623 30.9495V3.84848C15.0623 1.72727 13.6875 0 11.9892 0H11.9791Z" fill="white"/>
<path d="M65.9508 2.03021C66.3855 2.03021 67.0021 2.73728 67.0021 3.85849V32.9797H86.9269C87.5031 32.9797 87.9782 33.4545 87.9782 34.0302V42.9292C87.9782 43.505 87.5031 43.9797 86.9269 43.9797H57.0448C56.4585 43.9797 55.9935 43.505 55.9935 42.9292V3.85849C55.9935 2.74738 56.6202 2.03021 57.0448 2.03021H65.9508ZM65.9508 0.0100098H57.0448C55.3465 0.0100098 53.9717 1.73728 53.9717 3.85849V42.9292C53.9717 44.6262 55.3465 45.9999 57.0448 45.9999H86.9269C88.6252 45.9999 90 44.6262 90 42.9292V34.0302C90 32.3332 88.6252 30.9595 86.9269 30.9595H69.0239V3.85849C69.0239 1.73728 67.6491 0.0100098 65.9508 0.0100098Z" fill="white"/>
<path d="M46.6427 2.03021H46.7944H66.335C66.709 2.03021 67.0325 2.39385 67.0325 2.82819V12.5151C67.0325 12.9494 66.7191 13.313 66.335 13.313H47.4818V42.4039C47.4818 43.3635 46.9561 43.9696 46.6832 43.9696H37.7772C37.5042 43.9696 36.9786 43.3534 36.9786 42.4039V13.3231H22.3004C21.9263 13.3231 21.6028 12.9595 21.6028 12.5252V2.82819C21.6028 2.39385 21.9162 2.03021 22.3004 2.03021H46.6427ZM46.7944 0.0100098H22.3004C20.8042 0.0100098 19.5811 1.27264 19.5811 2.82819V12.5151C19.5811 14.0706 20.7941 15.3332 22.3004 15.3332H34.9568V42.4039C34.9568 44.3837 36.2204 45.9898 37.7772 45.9898H46.6832C48.2399 45.9898 49.5036 44.3837 49.5036 42.4039V15.3433H66.335C67.8311 15.3433 69.0543 14.0807 69.0543 12.5252V2.82819C69.0543 1.27264 67.8412 0.0100098 66.335 0.0100098H46.7944Z" fill="white"/>
</g>
<defs>
<clipPath id="clip0_134_587">
<rect width="90" height="46" fill="white"/>
</clipPath>
</defs>
</svg>
