<svg width="36" height="13" viewBox="0 0 36 13" fill="none" xmlns="http://www.w3.org/2000/svg">
<path d="M0.980125 12.75V4.398H2.18012L2.21213 6.302L1.97213 6.382C2.05746 6.062 2.19613 5.774 2.38813 5.518C2.59079 5.25133 2.83079 5.022 3.10813 4.83C3.38546 4.638 3.68946 4.494 4.02013 4.398C4.35079 4.29133 4.69746 4.238 5.06013 4.238C5.49746 4.238 5.88679 4.31267 6.22813 4.462C6.58013 4.60067 6.87346 4.846 7.10813 5.198C7.35346 5.53933 7.54013 5.99267 7.66813 6.558L7.38013 6.414L7.49213 6.142C7.59879 5.89667 7.75346 5.662 7.95613 5.438C8.16946 5.20333 8.40946 4.99533 8.67613 4.814C8.95346 4.63267 9.25213 4.494 9.57213 4.398C9.90279 4.29133 10.2388 4.238 10.5801 4.238C11.1668 4.238 11.6628 4.366 12.0681 4.622C12.4735 4.86733 12.7775 5.246 12.9801 5.758C13.1935 6.27 13.3001 6.92067 13.3001 7.71V12.75H12.0681V7.774C12.0681 7.21933 11.9988 6.766 11.8601 6.414C11.7215 6.062 11.5135 5.80067 11.2361 5.63C10.9695 5.44867 10.6281 5.358 10.2121 5.358C9.84946 5.358 9.51346 5.422 9.20413 5.55C8.90546 5.66733 8.64413 5.838 8.42013 6.062C8.20679 6.27533 8.03613 6.52067 7.90812 6.798C7.79079 7.07533 7.73213 7.374 7.73213 7.694V12.75H6.51613V7.758C6.51613 7.22467 6.44146 6.782 6.29213 6.43C6.15346 6.078 5.94546 5.81133 5.66813 5.63C5.39079 5.44867 5.04946 5.358 4.64413 5.358C4.29213 5.358 3.96679 5.422 3.66813 5.55C3.36946 5.66733 3.10813 5.83267 2.88413 6.046C2.67079 6.25933 2.50013 6.50467 2.37213 6.782C2.25479 7.05933 2.19613 7.358 2.19613 7.678V12.75H0.980125ZM19.2543 12.91C18.4223 12.91 17.6809 12.7287 17.0303 12.366C16.3903 12.0033 15.8889 11.4967 15.5263 10.846C15.1636 10.1953 14.9823 9.44867 14.9823 8.606C14.9823 7.95533 15.0836 7.36867 15.2863 6.846C15.4889 6.31267 15.7716 5.84867 16.1343 5.454C16.5076 5.05933 16.9503 4.75533 17.4623 4.542C17.9743 4.318 18.5289 4.206 19.1263 4.206C19.6916 4.206 20.2036 4.30733 20.6623 4.51C21.1316 4.71267 21.5316 4.99533 21.8623 5.358C22.2036 5.71 22.4596 6.13133 22.6302 6.622C22.8009 7.11267 22.8756 7.65133 22.8542 8.238L22.8383 8.798H15.8783L15.7023 7.79H21.9263L21.6383 8.062V7.678C21.6169 7.294 21.5049 6.926 21.3023 6.574C21.0996 6.21133 20.8116 5.918 20.4383 5.694C20.0756 5.47 19.6383 5.358 19.1263 5.358C18.5289 5.358 18.0116 5.48067 17.5743 5.726C17.1369 5.96067 16.8009 6.31267 16.5663 6.782C16.3316 7.25133 16.2143 7.83267 16.2143 8.526C16.2143 9.18733 16.3423 9.76333 16.5983 10.254C16.8543 10.734 17.2169 11.1073 17.6863 11.374C18.1663 11.6407 18.7423 11.774 19.4143 11.774C19.8089 11.774 20.1983 11.71 20.5823 11.582C20.9769 11.4433 21.4089 11.1767 21.8783 10.782L22.5023 11.646C22.2569 11.8913 21.9636 12.11 21.6223 12.302C21.2809 12.4833 20.9076 12.6327 20.5023 12.75C20.0969 12.8567 19.6809 12.91 19.2543 12.91ZM19.1263 2.606C18.8383 2.606 18.6143 2.53133 18.4543 2.382C18.2943 2.222 18.2143 2.00333 18.2143 1.726C18.2143 1.47 18.2943 1.262 18.4543 1.102C18.6143 0.931333 18.8383 0.846 19.1263 0.846C19.4143 0.846 19.6383 0.926 19.7983 1.086C19.9583 1.23533 20.0383 1.44867 20.0383 1.726C20.0383 1.982 19.9583 2.19533 19.7983 2.366C19.6383 2.526 19.4143 2.606 19.1263 2.606ZM24.5586 12.75V4.398H25.7426L25.7906 6.142L25.5986 6.222C25.7053 5.85933 25.9133 5.52867 26.2226 5.23C26.532 4.93133 26.9 4.69133 27.3266 4.51C27.764 4.318 28.212 4.222 28.6706 4.222C29.2893 4.222 29.8066 4.34467 30.2226 4.59C30.6386 4.83533 30.9533 5.214 31.1666 5.726C31.38 6.238 31.4866 6.88867 31.4866 7.678V12.75H30.2706V7.742C30.2706 7.18733 30.196 6.734 30.0466 6.382C29.908 6.01933 29.6893 5.75267 29.3906 5.582C29.092 5.41133 28.724 5.33133 28.2866 5.342C27.924 5.342 27.588 5.406 27.2786 5.534C26.9693 5.65133 26.7026 5.81667 26.4786 6.03C26.2546 6.24333 26.0786 6.48867 25.9506 6.766C25.8226 7.04333 25.7586 7.342 25.7586 7.662V12.75H25.1666C25.092 12.75 25.0066 12.75 24.9106 12.75C24.8146 12.75 24.6973 12.75 24.5586 12.75ZM34.4334 12.91C34.1454 12.91 33.9214 12.8247 33.7614 12.654C33.612 12.4833 33.5374 12.238 33.5374 11.918C33.5374 11.63 33.6174 11.3953 33.7774 11.214C33.948 11.022 34.1667 10.926 34.4334 10.926C34.7214 10.926 34.94 11.0167 35.0894 11.198C35.2494 11.3687 35.3294 11.6087 35.3294 11.918C35.3294 12.2167 35.244 12.4567 35.0734 12.638C34.9134 12.8193 34.7 12.91 34.4334 12.91Z" fill="#939096"/>
</svg>
