<svg width="462" height="251" viewBox="0 0 462 251" fill="none" xmlns="http://www.w3.org/2000/svg">
<g clip-path="url(#clip0_797_368)">
<path fill-rule="evenodd" clip-rule="evenodd" d="M184.268 139.987C181.862 143.189 180.432 147.172 180.432 151.492C180.432 162.066 188.986 170.625 199.528 170.625C210.069 170.625 218.623 162.054 218.623 151.492C218.623 147.172 217.193 143.189 214.787 139.987C215.729 137.879 216.263 135.55 216.263 133.093C216.263 128.784 214.648 124.86 211.975 121.89C213.195 119.771 213.892 117.313 213.892 114.693C213.892 110.338 211.963 106.437 208.918 103.793C210.557 101.732 211.533 99.1354 211.533 96.2939C211.533 91.7174 208.976 87.7347 205.222 85.6968C207.616 83.9384 209.174 81.097 209.174 77.8946C209.174 72.5611 204.85 68.2291 199.528 68.2291C194.205 68.2291 189.881 72.5611 189.881 77.8946C189.881 81.097 191.439 83.9384 193.833 85.6968C190.079 87.7347 187.522 91.7174 187.522 96.2939C187.522 99.1237 188.498 101.732 190.137 103.793C187.092 106.437 185.163 110.338 185.163 114.693C185.163 117.313 185.86 119.771 187.08 121.89C184.419 124.86 182.792 128.784 182.792 133.093C182.792 135.55 183.315 137.879 184.268 139.987Z" fill="#408973"/>
<path fill-rule="evenodd" clip-rule="evenodd" d="M199.528 170.625C210.08 170.625 218.623 162.054 218.623 151.492C218.623 147.172 217.193 143.189 214.787 139.987C215.729 137.879 216.263 135.55 216.263 133.093C216.263 128.784 214.648 124.86 211.975 121.89C213.195 119.771 213.892 117.313 213.892 114.693C213.892 110.338 211.963 106.437 208.918 103.793C210.557 101.732 211.533 99.1354 211.533 96.2939C211.533 91.7174 208.976 87.7347 205.222 85.6968C207.616 83.9384 209.174 81.097 209.174 77.8946C209.174 72.5611 204.85 68.2291 199.528 68.2291V170.625Z" fill="#4EA185"/>
<path fill-rule="evenodd" clip-rule="evenodd" d="M423.601 215.016C422.985 215.028 422.369 215.04 421.753 215.04L423.601 215.016ZM419.731 215.04C419.045 215.04 418.371 215.016 417.697 214.993L419.731 215.04ZM413.943 119.27C414.605 124.825 417.127 133.081 420.184 134.432L420.126 143.748C419.277 143.748 418.429 143.725 417.581 143.701C416.814 141.058 412.537 137.599 408.876 135.666C402.216 132.149 394.453 131.835 383.4 133.558C380.692 133.978 379.716 134.455 379.402 135.107C379.1 135.759 379.449 136.598 381.262 138.275C388.037 144.552 393.453 147.591 401.379 148.429C407.086 149.035 415.988 148.325 417.511 145.39C417.604 145.215 417.662 145.041 417.697 144.854C418.51 144.878 419.324 144.901 420.149 144.901L420.056 161.425C419.231 161.425 418.417 161.402 417.615 161.379C416.848 158.735 412.571 155.277 408.911 153.344C402.251 149.827 394.488 149.512 383.435 151.236C380.727 151.655 379.751 152.133 379.437 152.785C379.135 153.437 379.483 154.275 381.297 155.952C388.072 162.229 393.488 165.268 401.414 166.107C407.121 166.712 416.023 166.002 417.546 163.067C417.639 162.893 417.697 162.718 417.732 162.532C418.51 162.555 419.289 162.567 420.079 162.578L419.986 179.103C419.196 179.103 418.417 179.079 417.639 179.056C416.872 176.413 412.595 172.954 408.934 171.021C402.274 167.504 394.511 167.19 383.458 168.913C380.75 169.332 379.774 169.81 379.46 170.462C379.158 171.114 379.507 171.953 381.32 173.63C388.095 179.906 393.511 182.946 401.438 183.784C407.144 184.39 416.046 183.679 417.569 180.745C417.662 180.57 417.72 180.395 417.755 180.209C418.499 180.232 419.254 180.244 420.01 180.256L419.917 196.78C419.161 196.78 418.417 196.757 417.674 196.734C416.907 194.09 412.63 190.631 408.969 188.698C402.309 185.181 394.546 184.867 383.493 186.591C380.785 187.01 379.809 187.487 379.495 188.139C379.193 188.792 379.542 189.63 381.355 191.307C388.13 197.584 393.546 200.623 401.472 201.461C407.179 202.067 416.081 201.357 417.604 198.422C417.697 198.247 417.755 198.073 417.79 197.886C418.499 197.91 419.219 197.921 419.94 197.933L419.87 209.753L419.835 215.028L419.649 248.764C419.649 249.323 420.103 249.777 420.66 249.777C421.218 249.777 421.672 249.323 421.672 248.764L421.858 215.04L421.892 209.753L421.962 197.933C422.555 197.933 423.148 197.921 423.74 197.91C423.775 198.084 423.833 198.259 423.915 198.422C425.425 201.357 434.328 202.055 440.046 201.461C447.961 200.623 453.388 197.584 460.164 191.307C461.965 189.63 462.326 188.792 462.023 188.139C461.721 187.487 460.733 187.01 458.025 186.591C446.961 184.867 439.198 185.181 432.55 188.698C428.877 190.631 424.589 194.113 423.833 196.757C423.217 196.768 422.601 196.78 421.985 196.792L422.078 180.267C422.636 180.267 423.194 180.256 423.752 180.244C423.787 180.419 423.845 180.593 423.926 180.756C425.437 183.691 434.34 184.39 440.058 183.796C447.972 182.957 453.4 179.918 460.175 173.641C461.977 171.964 462.337 171.126 462.035 170.474C461.733 169.822 460.745 169.344 458.037 168.925C446.973 167.201 439.209 167.516 432.561 171.033C428.889 172.966 424.6 176.448 423.845 179.091C423.264 179.103 422.683 179.114 422.09 179.126L422.183 162.602C422.706 162.602 423.241 162.59 423.764 162.578C423.798 162.753 423.856 162.928 423.938 163.091C425.449 166.025 434.351 166.724 440.069 166.13C447.984 165.292 453.411 162.252 460.187 155.975C461.988 154.299 462.349 153.46 462.047 152.808C461.744 152.156 460.757 151.678 458.049 151.259C446.984 149.536 439.221 149.85 432.573 153.367C428.9 155.3 424.612 158.782 423.856 161.425C423.31 161.437 422.752 161.449 422.206 161.449L422.299 144.924C422.799 144.924 423.287 144.913 423.775 144.901C423.81 145.076 423.868 145.25 423.949 145.413C425.46 148.348 434.363 149.047 440.081 148.453C447.996 147.614 453.423 144.575 460.199 138.298C462 136.621 462.36 135.783 462.058 135.131C461.756 134.478 460.768 134.001 458.06 133.582C446.996 131.858 439.232 132.173 432.585 135.69C428.912 137.623 424.624 141.105 423.868 143.748C423.357 143.76 422.834 143.771 422.311 143.771L422.369 134.304C424.751 132.999 427.134 128.178 428.203 124.231C430.144 117.011 428.726 109.313 424.577 98.7627C423.566 96.1775 422.88 95.3041 422.171 95.1294C421.462 94.9547 420.73 95.4671 419.498 97.5632C414.896 105.435 413.141 111.339 414.094 119.293L413.943 119.27ZM439.93 219.15C447.844 218.312 453.272 215.273 460.048 208.996C461.849 207.319 462.209 206.481 461.907 205.828C461.605 205.176 460.617 204.699 457.909 204.28C446.845 202.556 439.081 202.871 432.434 206.387C430.76 207.272 428.959 208.472 427.424 209.764C425.332 211.523 423.729 213.468 423.612 215.028C423.578 215.424 423.647 215.785 423.822 216.123C425.332 219.057 434.235 219.756 439.953 219.162L439.93 219.15ZM401.368 219.15C407.074 219.756 415.977 219.046 417.499 216.111C417.674 215.773 417.732 215.401 417.697 214.993C417.557 213.444 415.977 211.523 413.896 209.764C412.362 208.46 410.549 207.261 408.876 206.376C402.216 202.859 394.453 202.544 383.4 204.268C380.692 204.687 379.716 205.165 379.402 205.817C379.1 206.469 379.449 207.307 381.262 208.984C388.037 215.261 393.453 218.3 401.379 219.139L401.368 219.15Z" fill="#4EA185"/>
<path fill-rule="evenodd" clip-rule="evenodd" d="M383.249 11.6685C381.599 10.0148 378.937 10.0148 377.299 11.6685C375.648 13.3104 375.648 15.9888 377.299 17.6308C378.949 19.2844 381.61 19.2844 383.249 17.6308C384.899 15.9888 384.899 13.3104 383.249 11.6685Z" fill="#3E2C47"/>
<path fill-rule="evenodd" clip-rule="evenodd" d="M375.148 14.7661H368.989C366.955 14.7661 365.304 16.4313 365.304 18.4576C365.304 20.4955 366.966 22.1491 368.989 22.1491H375.148C377.182 22.1491 378.833 20.4839 378.833 18.4576C378.833 16.4313 377.171 14.7661 375.148 14.7661Z" fill="#3E2C47" stroke="#3E2C47" stroke-width="0.23" stroke-miterlimit="22.93"/>
<path fill-rule="evenodd" clip-rule="evenodd" d="M361.958 14.8243L357.285 14.7661C357.297 16.0121 357.808 17.1999 358.692 18.0966C360.54 19.9482 363.503 19.9831 365.305 18.1781C366.165 17.3164 366.653 16.1286 366.63 14.8825L361.958 14.8243Z" fill="#20212F"/>
<path fill-rule="evenodd" clip-rule="evenodd" d="M383.842 14.6962L383.912 12.798H389.943L383.842 14.6962Z" fill="#9E5976"/>
<path fill-rule="evenodd" clip-rule="evenodd" d="M383.842 14.6962L383.912 16.5827H389.943L383.842 14.6962Z" fill="#9E5976"/>
<path fill-rule="evenodd" clip-rule="evenodd" d="M374.044 7.38304L374.137 0C372.185 0.0232903 370.302 0.826807 368.896 2.22423C365.979 5.14717 365.92 9.81688 368.768 12.6699C370.128 14.0324 371.999 14.7894 373.951 14.7661L374.044 7.38304Z" fill="#3E2C47"/>
<path fill-rule="evenodd" clip-rule="evenodd" d="M368.814 9.47917L363.666 4.19226C362.306 5.58968 361.539 7.49949 361.539 9.47917C361.539 13.6132 364.793 16.9554 368.814 16.9554C370.744 16.9554 372.591 16.1635 373.963 14.7661L368.814 9.47917Z" fill="#ECBBD2"/>
<path d="M235.904 73.5858H378.065V239.762H235.904V73.5858Z" fill="#CC4D3B"/>
<path fill-rule="evenodd" clip-rule="evenodd" d="M378.065 73.5858H329.578H235.893L305.974 11.0746L378.065 73.5858Z" fill="#CC4D3B"/>
<path fill-rule="evenodd" clip-rule="evenodd" d="M306.973 51.2038C292.051 51.2038 279.964 63.3264 279.964 78.2672C279.964 93.2079 292.062 105.331 306.973 105.331C321.884 105.331 333.983 93.2079 333.983 78.2672C333.983 63.3264 321.884 51.2038 306.973 51.2038Z" fill="#A3A4A5"/>
<path fill-rule="evenodd" clip-rule="evenodd" d="M306.973 64.9568C299.628 64.9568 293.678 70.9191 293.678 78.2788C293.678 85.6386 299.628 91.6009 306.973 91.6009C314.319 91.6009 320.269 85.6386 320.269 78.2788C320.269 70.9191 314.319 64.9568 306.973 64.9568Z" fill="#F7F7EF"/>
<path d="M305.986 64.9568H307.961V91.6009H305.986V64.9568Z" fill="#CC4D3B"/>
<path d="M293.678 77.289H320.269V79.2687H293.678V77.289Z" fill="#CC4D3B"/>
<path d="M333.506 1.7002H343.257V46.2896H333.506V1.7002Z" fill="#CC4D3B"/>
<path d="M235.904 151.9H378.065V239.762H235.904V151.9Z" fill="#FC5E48"/>
<path d="M332.821 98.6812H356.495V151.911H332.821V98.6812Z" fill="#F7F7EF"/>
<path d="M332.821 114.961H356.495V116.475H332.821V114.961Z" fill="#CC4D3B"/>
<path d="M343.897 98.6812H345.408V151.911H343.897V98.6812Z" fill="#CC4D3B"/>
<path d="M332.821 133.803H356.495V135.317H332.821V133.803Z" fill="#CC4D3B"/>
<path d="M258.742 98.6812H282.416V151.911H258.742V98.6812Z" fill="#F7F7EF"/>
<path d="M258.742 98.6812H269.818V151.911H258.742V98.6812Z" fill="#F7F7EF"/>
<path d="M258.742 114.961H282.416V116.475H258.742V114.961Z" fill="#CC4D3B"/>
<path d="M269.829 98.6812H271.34V151.911H269.829V98.6812Z" fill="#CC4D3B"/>
<path d="M258.742 133.803H282.416V135.317H258.742V133.803Z" fill="#CC4D3B"/>
<path d="M332.821 164.954H356.495V218.184H332.821V164.954Z" fill="#F7F7EF"/>
<path d="M344.664 164.954H356.495V218.184H344.664V164.954Z" fill="#F7F7EF"/>
<path d="M332.821 181.245H356.495V182.759H332.821V181.245Z" fill="#CC4D3B"/>
<path d="M343.897 164.954H345.408V218.184H343.897V164.954Z" fill="#CC4D3B"/>
<path d="M332.821 200.076H356.495V201.59H332.821V200.076Z" fill="#CC4D3B"/>
<path d="M258.742 164.954H282.416V218.184H258.742V164.954Z" fill="#F7F7EF"/>
<path d="M258.742 181.245H282.416V182.759H258.742V181.245Z" fill="#CC4D3B"/>
<path d="M269.829 164.954H271.34V218.184H269.829V164.954Z" fill="#CC4D3B"/>
<path d="M258.742 200.076H282.416V201.59H258.742V200.076Z" fill="#CC4D3B"/>
<path d="M293.131 151.9H320.827V239.762H293.131V151.9Z" fill="#FC5E48"/>
<path d="M293.131 181.001H320.827V239.762H293.131V181.001Z" fill="#CC4D3B"/>
<path d="M235.904 239.762H378.065V251H235.904V239.762Z" fill="#CC4D3B"/>
<path fill-rule="evenodd" clip-rule="evenodd" d="M0.000135803 205.071H201.143V221.014L190.183 233.579H9.44884L0.000135803 222.574V205.071Z" fill="#FC5E48"/>
<path fill-rule="evenodd" clip-rule="evenodd" d="M112.781 205.071H201.143V221.014L190.183 233.579H112.781V205.071Z" fill="#CC4D3B"/>
<path fill-rule="evenodd" clip-rule="evenodd" d="M17.6308 228.723C22.2563 228.723 26.0103 232.484 26.0103 237.119C26.0103 241.754 22.2563 245.515 17.6308 245.515C13.0052 245.515 9.25127 241.754 9.25127 237.119C9.25127 232.484 13.0052 228.723 17.6308 228.723Z" fill="#412D46"/>
<path fill-rule="evenodd" clip-rule="evenodd" d="M152.295 228.723C156.921 228.723 160.675 232.484 160.675 237.119C160.675 241.754 156.921 245.515 152.295 245.515C147.67 245.515 143.916 241.754 143.916 237.119C143.916 232.484 147.67 228.723 152.295 228.723Z" fill="#412D46"/>
<path fill-rule="evenodd" clip-rule="evenodd" d="M44.6986 205.071H169.636V137.844H71.2085L44.6986 205.071Z" fill="#FC5E48"/>
<path fill-rule="evenodd" clip-rule="evenodd" d="M47.6154 205.06H111.548V139.8H73.3583L47.6154 205.06ZM113.629 205.06H161.372V139.8H113.629V205.06Z" fill="#F7F7EF"/>
<path d="M99.0315 211.348H107.306V214.155H99.0315V211.348Z" fill="#F2EAFF"/>
<path fill-rule="evenodd" clip-rule="evenodd" d="M1.22031 213.77V218.987C4.09096 218.987 6.427 216.647 6.427 213.77C6.427 210.894 4.09096 208.553 1.22031 208.553V213.77Z" fill="#F2EAFF"/>
<path fill-rule="evenodd" clip-rule="evenodd" d="M199.527 213.77V218.987C196.657 218.987 194.321 216.647 194.321 213.77C194.321 210.894 196.657 208.553 199.527 208.553V213.77Z" fill="#E9B317"/>
<path fill-rule="evenodd" clip-rule="evenodd" d="M84.7247 122.414L85.5382 121.657V136.528L87.8162 137.844H84.7247V122.414Z" fill="#3E2C47"/>
<path fill-rule="evenodd" clip-rule="evenodd" d="M88.653 122.414L89.4666 121.657V136.528L91.7561 137.844H88.653V122.414Z" fill="#3E2C47"/>
<path d="M94.9872 110C92.1116 110 89.7805 107.665 89.7805 104.783C89.7805 101.902 92.1116 99.5662 94.9872 99.5662C97.8627 99.5662 100.194 101.902 100.194 104.783C100.194 107.665 97.8627 110 94.9872 110Z" fill="#3E2C47"/>
<path fill-rule="evenodd" clip-rule="evenodd" d="M90.6171 109.36L81.7146 118.28C79.9481 120.05 79.9481 122.961 81.7146 124.731C83.4812 126.501 86.3866 126.501 88.1532 124.731L97.0557 115.811C98.8223 114.041 98.8223 111.13 97.0557 109.36C95.2891 107.59 92.3837 107.59 90.6171 109.36Z" fill="#3E2C47" stroke="#3E2C47" stroke-width="0.23" stroke-miterlimit="22.93"/>
<path fill-rule="evenodd" clip-rule="evenodd" d="M79.1346 120.947L74.9971 124.988C76.0896 126.059 77.5772 126.665 79.1346 126.665C82.3655 126.665 84.9805 124.103 84.9805 120.958C84.9805 119.445 84.3645 117.989 83.272 116.918L79.1346 120.958V120.947Z" fill="#20212F"/>
<path fill-rule="evenodd" clip-rule="evenodd" d="M99.4036 104.83L99.4849 102.489H106.946L99.4036 104.83Z" fill="#9E5976"/>
<path fill-rule="evenodd" clip-rule="evenodd" d="M99.4036 104.83L99.4849 107.159H106.946L99.4036 104.83Z" fill="#9E5976"/>
<path fill-rule="evenodd" clip-rule="evenodd" d="M85.7708 117.348L79.2508 123.718C80.9825 125.407 83.3185 126.35 85.7708 126.35C90.8612 126.35 94.9871 122.321 94.9871 117.348C94.9871 114.961 94.0108 112.667 92.2908 110.978L85.7708 117.348Z" fill="#ECBBD2"/>
</g>
<defs>
<clipPath id="clip0_797_368">
<rect width="462" height="251" fill="white" transform="matrix(-1 0 0 1 462 0)"/>
</clipPath>
</defs>
</svg>
