<svg width="1440" height="334" viewBox="0 0 1440 334" fill="none" xmlns="http://www.w3.org/2000/svg">
<g clip-path="url(#clip0_1160_1701)">
<rect width="1440" height="334" fill="#EEEEE9"/>
<path d="M673.5 334H1385.13C1390.75 320.335 1402.25 293.108 1407.88 279.467C1435.13 213.5 1347.5 113.436 1212 80.5C1120 58.1374 1104.6 108.957 1029.77 143.564C1016.77 146.564 993.881 143.437 985 141C907.86 117.743 867.094 204.5 778.5 249C728.897 273.915 690.5 305.5 673.5 334Z" fill="#EDE7E4"/>
<path d="M1224.96 150.85C1246.64 149.55 1263.16 130.925 1261.86 109.249C1260.56 87.5722 1241.93 71.0532 1220.26 72.3524C1198.58 73.6516 1182.06 92.277 1183.36 113.953C1184.66 135.63 1203.28 152.149 1224.96 150.85Z" fill="#FFB45A"/>
<path d="M1195.9 135.087C1190.72 129.213 1187.64 121.836 1187.13 113.889C1186.52 104.409 1189.63 95.2624 1195.9 88.1312C1208.85 73.4065 1231.36 71.9614 1246.08 84.9088C1260.8 97.8635 1262.25 120.362 1249.3 135.087C1243.03 142.218 1234.36 146.481 1224.88 147.088C1215.4 147.695 1206.26 144.581 1199.13 138.31C1197.97 137.298 1196.89 136.214 1195.9 135.087ZM1248.37 88.9043C1247.41 87.8278 1246.39 86.7946 1245.28 85.8264C1231.06 73.327 1209.32 74.7214 1196.82 88.9404C1190.77 95.826 1187.75 104.662 1188.34 113.817C1188.92 122.971 1193.04 131.345 1199.93 137.399C1206.81 143.454 1215.65 146.467 1224.8 145.882C1233.96 145.296 1242.33 141.178 1248.39 134.292C1259.92 121.186 1259.63 101.678 1248.37 88.9188V88.9043Z" fill="#FFDFC2"/>
<path d="M1219.25 121.013C1220.22 119.915 1220.75 118.852 1220.86 117.826C1220.97 116.801 1220.75 115.558 1220.21 114.091C1218.98 111.418 1218.24 109.243 1218 107.567C1217.75 105.891 1217.86 104.308 1218.32 102.827C1218.79 101.346 1219.65 99.8721 1220.95 98.4054C1222.87 96.2162 1225.07 94.9373 1227.55 94.5688C1230.02 94.2076 1232.38 94.7639 1234.6 96.2523L1238.33 92.0184L1241.32 94.6483L1237.53 98.9617C1239.17 101.086 1239.83 103.441 1239.51 106.035C1239.18 108.629 1237.92 111.172 1235.73 113.665L1230.12 108.737C1231.52 107.155 1232.33 105.775 1232.56 104.59C1232.79 103.412 1232.53 102.502 1231.81 101.866C1231.11 101.252 1230.29 101.071 1229.37 101.332C1228.44 101.592 1227.5 102.264 1226.55 103.34C1225.72 104.279 1225.24 105.233 1225.11 106.216C1224.97 107.198 1225.18 108.528 1225.74 110.211C1226.96 113.072 1227.69 115.327 1227.89 116.967C1228.09 118.607 1227.96 120.153 1227.49 121.591C1227.02 123.029 1226.16 124.459 1224.91 125.882C1222.95 128.115 1220.76 129.408 1218.35 129.77C1215.94 130.131 1213.57 129.531 1211.24 127.978L1207.77 131.915L1204.8 129.307L1208.27 125.369C1206.27 123.029 1205.37 120.507 1205.55 117.798C1205.73 115.088 1207 112.386 1209.37 109.698L1214.98 114.626C1213.6 116.186 1212.8 117.602 1212.57 118.881C1212.33 120.16 1212.72 121.244 1213.72 122.125C1214.52 122.833 1215.42 123.086 1216.4 122.884C1217.38 122.682 1218.34 122.053 1219.27 120.998L1219.25 121.013Z" fill="#FFDFC2"/>
<path d="M998.308 284.033C1005.66 263.601 995.064 241.075 974.632 233.719C954.201 226.364 931.675 236.964 924.319 257.395C916.963 277.827 927.563 300.353 947.995 307.708C968.426 315.064 990.952 304.464 998.308 284.033Z" fill="#FFB45A"/>
<path d="M973.156 304.249C965.779 306.871 957.781 306.98 950.216 304.502C941.192 301.539 933.866 295.239 929.581 286.764C920.738 269.272 927.775 247.835 945.274 238.992C962.781 230.155 984.203 237.185 993.047 254.684C997.331 263.16 998.061 272.798 995.099 281.822C992.136 290.846 985.836 298.172 977.361 302.457C975.988 303.151 974.587 303.75 973.163 304.256L973.156 304.249ZM949.833 238.356C948.475 238.84 947.138 239.411 945.823 240.075C928.924 248.615 922.132 269.315 930.672 286.208C934.812 294.394 941.886 300.477 950.599 303.338C959.313 306.2 968.619 305.499 976.805 301.359C984.991 297.219 991.074 290.145 993.936 281.432C996.797 272.718 996.096 263.412 991.956 255.226C984.08 239.649 965.873 232.655 949.833 238.356Z" fill="#FFDFC2"/>
<path d="M968.792 277.335C968.135 276.035 967.347 275.139 966.437 274.655C965.519 274.171 964.291 273.911 962.731 273.867C959.79 274.012 957.5 273.889 955.852 273.492C954.205 273.094 952.774 272.408 951.575 271.432C950.368 270.457 949.328 269.099 948.454 267.357C947.139 264.756 946.77 262.235 947.355 259.807C947.941 257.372 949.335 255.407 951.546 253.89L949.003 248.854L952.558 247.055L955.151 252.185C957.731 251.448 960.166 251.715 962.456 252.987C964.739 254.251 966.632 256.368 968.135 259.337L961.473 262.704C960.52 260.819 959.544 259.554 958.533 258.904C957.521 258.254 956.589 258.145 955.722 258.579C954.891 258.998 954.422 259.692 954.313 260.645C954.205 261.606 954.479 262.726 955.13 264.012C955.693 265.125 956.401 265.927 957.261 266.418C958.121 266.909 959.436 267.213 961.206 267.321C964.32 267.242 966.675 267.415 968.279 267.841C969.883 268.261 971.263 268.961 972.419 269.93C973.583 270.898 974.587 272.234 975.447 273.925C976.783 276.577 977.174 279.091 976.61 281.461C976.046 283.831 974.609 285.81 972.297 287.393L974.666 292.074L971.141 293.859L968.771 289.177C965.859 290.16 963.178 290.059 960.736 288.881C958.287 287.703 956.257 285.514 954.638 282.313L961.3 278.946C962.239 280.796 963.251 282.068 964.356 282.769C965.454 283.462 966.603 283.513 967.795 282.906C968.749 282.422 969.32 281.685 969.5 280.702C969.681 279.712 969.457 278.592 968.821 277.342L968.792 277.335Z" fill="#FFDFC2"/>
<path d="M1253.11 150.925H1192.11C1187.2 150.925 1183.22 154.907 1183.22 159.819V159.826C1183.22 164.738 1187.2 168.72 1192.11 168.72H1253.11C1258.02 168.72 1262 164.738 1262 159.826V159.819C1262 154.907 1258.02 150.925 1253.11 150.925Z" fill="#FFB45A"/>
<path d="M1254.33 150.925H1222.4V168.72H1254.33V150.925Z" fill="#FFCC99"/>
<path d="M1220.8 150.925H1218.28V168.72H1220.8V150.925Z" fill="#FFCC99"/>
<path d="M1216.65 150.925H1215.29V168.72H1216.65V150.925Z" fill="#FFCC99"/>
<g style="mix-blend-mode:multiply" opacity="0.46">
<path d="M1190.1 168.72H1255.12C1258.9 168.72 1262 164.717 1262 159.826H1183.22C1183.22 164.717 1186.32 168.72 1190.1 168.72Z" fill="#FFB45A"/>
</g>
<path d="M1255.12 186.436H1190.1C1186.32 186.436 1183.22 182.433 1183.22 177.542C1183.22 172.651 1186.32 168.648 1190.1 168.648H1255.12C1258.9 168.648 1262 172.651 1262 177.542C1262 182.433 1258.9 186.436 1255.12 186.436Z" fill="#FFB45A"/>
<path d="M1254.33 168.641H1222.4V186.436H1254.33V168.641Z" fill="#FFCC99"/>
<path d="M1220.8 168.641H1218.28V186.436H1220.8V168.641Z" fill="#FFCC99"/>
<path d="M1216.65 168.641H1215.29V186.436H1216.65V168.641Z" fill="#FFCC99"/>
<g style="mix-blend-mode:multiply" opacity="0.46">
<path d="M1190.1 186.436H1255.12C1258.9 186.436 1262 182.433 1262 177.542H1183.22C1183.22 182.433 1186.32 186.436 1190.1 186.436Z" fill="#FFB45A"/>
</g>
<path d="M1154.58 257.452H1089.57C1085.79 257.452 1082.69 253.449 1082.69 248.558C1082.69 243.666 1085.79 239.664 1089.57 239.664H1154.58C1158.37 239.664 1161.47 243.666 1161.47 248.558C1161.47 253.449 1158.37 257.452 1154.58 257.452Z" fill="#FFB45A"/>
<path d="M1153.8 239.656H1121.88V257.452H1153.8V239.656Z" fill="#FFCC99"/>
<path d="M1120.28 239.656H1117.75V257.452H1120.28V239.656Z" fill="#FFCC99"/>
<path d="M1116.12 239.656H1114.77V257.452H1116.12V239.656Z" fill="#FFCC99"/>
<g style="mix-blend-mode:multiply" opacity="0.46">
<path d="M1089.58 257.452H1154.59C1158.37 257.452 1161.47 253.449 1161.47 248.558H1082.69C1082.69 253.449 1085.79 257.452 1089.58 257.452Z" fill="#FFB45A"/>
</g>
<path d="M1152.58 257.372H1091.58C1086.67 257.372 1082.69 261.354 1082.69 266.266V266.274C1082.69 271.186 1086.67 275.168 1091.58 275.168H1152.58C1157.49 275.168 1161.47 271.186 1161.47 266.274V266.266C1161.47 261.354 1157.49 257.372 1152.58 257.372Z" fill="#FFB45A"/>
<path d="M1153.8 257.372H1121.88V275.168H1153.8V257.372Z" fill="#FFCC99"/>
<path d="M1120.28 257.372H1117.75V275.168H1120.28V257.372Z" fill="#FFCC99"/>
<path d="M1116.12 257.372H1114.77V275.168H1116.12V257.372Z" fill="#FFCC99"/>
<g style="mix-blend-mode:multiply" opacity="0.46">
<path d="M1089.58 275.168H1154.59C1158.37 275.168 1161.47 271.165 1161.47 266.274H1082.69C1082.69 271.165 1085.79 275.168 1089.58 275.168Z" fill="#FFB45A"/>
</g>
<path d="M1152.58 275.088H1091.58C1086.67 275.088 1082.69 279.07 1082.69 283.982V283.99C1082.69 288.902 1086.67 292.884 1091.58 292.884H1152.58C1157.49 292.884 1161.47 288.902 1161.47 283.99V283.982C1161.47 279.07 1157.49 275.088 1152.58 275.088Z" fill="#FFB45A"/>
<path d="M1153.8 275.088H1121.88V292.884H1153.8V275.088Z" fill="#FFCC99"/>
<path d="M1120.28 275.088H1117.75V292.884H1120.28V275.088Z" fill="#FFCC99"/>
<path d="M1116.12 275.088H1114.77V292.884H1116.12V275.088Z" fill="#FFCC99"/>
<g style="mix-blend-mode:multiply" opacity="0.46">
<path d="M1089.58 292.884H1154.59C1158.37 292.884 1161.47 288.881 1161.47 283.99H1082.69C1082.69 288.881 1085.79 292.884 1089.58 292.884Z" fill="#FFB45A"/>
</g>
<path d="M1154.58 310.592H1089.57C1085.79 310.592 1082.69 306.59 1082.69 301.698C1082.69 296.807 1085.79 292.804 1089.57 292.804H1154.58C1158.37 292.804 1161.47 296.807 1161.47 301.698C1161.47 306.59 1158.37 310.592 1154.58 310.592Z" fill="#FFB45A"/>
<path d="M1153.8 292.804H1121.88V310.6H1153.8V292.804Z" fill="#FFCC99"/>
<path d="M1120.28 292.804H1117.75V310.6H1120.28V292.804Z" fill="#FFCC99"/>
<path d="M1116.12 292.804H1114.77V310.6H1116.12V292.804Z" fill="#FFCC99"/>
<g style="mix-blend-mode:multiply" opacity="0.46">
<path d="M1089.58 310.592H1154.59C1158.37 310.592 1161.47 306.59 1161.47 301.698H1082.69C1082.69 306.59 1085.79 310.592 1089.58 310.592Z" fill="#FFB45A"/>
</g>
<path d="M1152.58 186.436H1091.58C1086.67 186.436 1082.69 190.418 1082.69 195.33V195.337C1082.69 200.25 1086.67 204.232 1091.58 204.232H1152.58C1157.49 204.232 1161.47 200.25 1161.47 195.337V195.33C1161.47 190.418 1157.49 186.436 1152.58 186.436Z" fill="#FFB45A"/>
<path d="M1153.8 186.436H1121.88V204.232H1153.8V186.436Z" fill="#FFCC99"/>
<path d="M1120.28 186.436H1117.75V204.232H1120.28V186.436Z" fill="#FFCC99"/>
<path d="M1116.12 186.436H1114.77V204.232H1116.12V186.436Z" fill="#FFCC99"/>
<g style="mix-blend-mode:multiply" opacity="0.46">
<path d="M1089.58 204.232H1154.59C1158.37 204.232 1161.47 200.229 1161.47 195.337H1082.69C1082.69 200.229 1085.79 204.232 1089.58 204.232Z" fill="#FFB45A"/>
</g>
<path d="M1152.58 204.152H1091.58C1086.67 204.152 1082.69 208.134 1082.69 213.046V213.053C1082.69 217.966 1086.67 221.948 1091.58 221.948H1152.58C1157.49 221.948 1161.47 217.966 1161.47 213.053V213.046C1161.47 208.134 1157.49 204.152 1152.58 204.152Z" fill="#FFB45A"/>
<path d="M1153.8 204.152H1121.88V221.948H1153.8V204.152Z" fill="#FFCC99"/>
<path d="M1120.28 204.152H1117.75V221.948H1120.28V204.152Z" fill="#FFCC99"/>
<path d="M1116.12 204.152H1114.77V221.948H1116.12V204.152Z" fill="#FFCC99"/>
<g style="mix-blend-mode:multiply" opacity="0.46">
<path d="M1089.58 221.94H1154.59C1158.37 221.94 1161.47 217.938 1161.47 213.046H1082.69C1082.69 217.938 1085.79 221.94 1089.58 221.94Z" fill="#FFB45A"/>
</g>
<path d="M1154.58 239.656H1089.57C1085.79 239.656 1082.69 235.654 1082.69 230.762C1082.69 225.871 1085.79 221.868 1089.57 221.868H1154.58C1158.37 221.868 1161.47 225.871 1161.47 230.762C1161.47 235.654 1158.37 239.656 1154.58 239.656Z" fill="#FFB45A"/>
<path d="M1153.8 221.861H1121.88V239.656H1153.8V221.861Z" fill="#FFCC99"/>
<path d="M1120.28 221.861H1117.75V239.656H1120.28V221.861Z" fill="#FFCC99"/>
<path d="M1116.12 221.861H1114.77V239.656H1116.12V221.861Z" fill="#FFCC99"/>
<g style="mix-blend-mode:multiply" opacity="0.46">
<path d="M1089.58 239.656H1154.59C1158.37 239.656 1161.47 235.654 1161.47 230.762H1082.69C1082.69 235.654 1085.79 239.656 1089.58 239.656Z" fill="#FFB45A"/>
</g>
<path d="M1255.12 257.452H1190.1C1186.32 257.452 1183.22 253.449 1183.22 248.558C1183.22 243.666 1186.32 239.664 1190.1 239.664H1255.12C1258.9 239.664 1262 243.666 1262 248.558C1262 253.449 1258.9 257.452 1255.12 257.452Z" fill="#FFB45A"/>
<path d="M1254.33 239.656H1222.4V257.452H1254.33V239.656Z" fill="#FFCC99"/>
<path d="M1220.8 239.656H1218.28V257.452H1220.8V239.656Z" fill="#FFCC99"/>
<path d="M1216.65 239.656H1215.29V257.452H1216.65V239.656Z" fill="#FFCC99"/>
<g style="mix-blend-mode:multiply" opacity="0.46">
<path d="M1190.1 257.452H1255.12C1258.9 257.452 1262 253.449 1262 248.558H1183.22C1183.22 253.449 1186.32 257.452 1190.1 257.452Z" fill="#FFB45A"/>
</g>
<path d="M1253.11 257.372H1192.11C1187.2 257.372 1183.22 261.354 1183.22 266.266V266.274C1183.22 271.186 1187.2 275.168 1192.11 275.168H1253.11C1258.02 275.168 1262 271.186 1262 266.274V266.266C1262 261.354 1258.02 257.372 1253.11 257.372Z" fill="#FFB45A"/>
<path d="M1254.33 257.372H1222.4V275.168H1254.33V257.372Z" fill="#FFCC99"/>
<path d="M1220.8 257.372H1218.28V275.168H1220.8V257.372Z" fill="#FFCC99"/>
<path d="M1216.65 257.372H1215.29V275.168H1216.65V257.372Z" fill="#FFCC99"/>
<g style="mix-blend-mode:multiply" opacity="0.46">
<path d="M1190.1 275.168H1255.12C1258.9 275.168 1262 271.165 1262 266.274H1183.22C1183.22 271.165 1186.32 275.168 1190.1 275.168Z" fill="#FFB45A"/>
</g>
<path d="M1253.11 275.088H1192.11C1187.2 275.088 1183.22 279.07 1183.22 283.982V283.99C1183.22 288.902 1187.2 292.884 1192.11 292.884H1253.11C1258.02 292.884 1262 288.902 1262 283.99V283.982C1262 279.07 1258.02 275.088 1253.11 275.088Z" fill="#FFB45A"/>
<path d="M1254.33 275.088H1222.4V292.884H1254.33V275.088Z" fill="#FFCC99"/>
<path d="M1220.8 275.088H1218.28V292.884H1220.8V275.088Z" fill="#FFCC99"/>
<path d="M1216.65 275.088H1215.29V292.884H1216.65V275.088Z" fill="#FFCC99"/>
<g style="mix-blend-mode:multiply" opacity="0.46">
<path d="M1190.1 292.884H1255.12C1258.9 292.884 1262 288.881 1262 283.99H1183.22C1183.22 288.881 1186.32 292.884 1190.1 292.884Z" fill="#FFB45A"/>
</g>
<path d="M1255.12 310.592H1190.1C1186.32 310.592 1183.22 306.59 1183.22 301.698C1183.22 296.807 1186.32 292.804 1190.1 292.804H1255.12C1258.9 292.804 1262 296.807 1262 301.698C1262 306.59 1258.9 310.592 1255.12 310.592Z" fill="#FFB45A"/>
<path d="M1254.33 292.804H1222.4V310.6H1254.33V292.804Z" fill="#FFCC99"/>
<path d="M1220.8 292.804H1218.28V310.6H1220.8V292.804Z" fill="#FFCC99"/>
<path d="M1216.65 292.804H1215.29V310.6H1216.65V292.804Z" fill="#FFCC99"/>
<g style="mix-blend-mode:multiply" opacity="0.46">
<path d="M1190.1 310.592H1255.12C1258.9 310.592 1262 306.59 1262 301.698H1183.22C1183.22 306.59 1186.32 310.592 1190.1 310.592Z" fill="#FFB45A"/>
</g>
<path d="M1253.11 186.436H1192.11C1187.2 186.436 1183.22 190.418 1183.22 195.33V195.337C1183.22 200.25 1187.2 204.232 1192.11 204.232H1253.11C1258.02 204.232 1262 200.25 1262 195.337V195.33C1262 190.418 1258.02 186.436 1253.11 186.436Z" fill="#FFB45A"/>
<path d="M1254.33 186.436H1222.4V204.232H1254.33V186.436Z" fill="#FFCC99"/>
<path d="M1220.8 186.436H1218.28V204.232H1220.8V186.436Z" fill="#FFCC99"/>
<path d="M1216.65 186.436H1215.29V204.232H1216.65V186.436Z" fill="#FFCC99"/>
<g style="mix-blend-mode:multiply" opacity="0.46">
<path d="M1190.1 204.232H1255.12C1258.9 204.232 1262 200.229 1262 195.337H1183.22C1183.22 200.229 1186.32 204.232 1190.1 204.232Z" fill="#FFB45A"/>
</g>
<path d="M1253.11 204.152H1192.11C1187.2 204.152 1183.22 208.134 1183.22 213.046V213.053C1183.22 217.966 1187.2 221.948 1192.11 221.948H1253.11C1258.02 221.948 1262 217.966 1262 213.053V213.046C1262 208.134 1258.02 204.152 1253.11 204.152Z" fill="#FFB45A"/>
<path d="M1254.33 204.152H1222.4V221.948H1254.33V204.152Z" fill="#FFCC99"/>
<path d="M1220.8 204.152H1218.28V221.948H1220.8V204.152Z" fill="#FFCC99"/>
<path d="M1216.65 204.152H1215.29V221.948H1216.65V204.152Z" fill="#FFCC99"/>
<g style="mix-blend-mode:multiply" opacity="0.46">
<path d="M1190.1 221.94H1255.12C1258.9 221.94 1262 217.938 1262 213.046H1183.22C1183.22 217.938 1186.32 221.94 1190.1 221.94Z" fill="#FFB45A"/>
</g>
<path d="M1255.12 239.656H1190.1C1186.32 239.656 1183.22 235.654 1183.22 230.762C1183.22 225.871 1186.32 221.868 1190.1 221.868H1255.12C1258.9 221.868 1262 225.871 1262 230.762C1262 235.654 1258.9 239.656 1255.12 239.656Z" fill="#FFB45A"/>
<path d="M1254.33 221.861H1222.4V239.656H1254.33V221.861Z" fill="#FFCC99"/>
<path d="M1220.8 221.861H1218.28V239.656H1220.8V221.861Z" fill="#FFCC99"/>
<path d="M1216.65 221.861H1215.29V239.656H1216.65V221.861Z" fill="#FFCC99"/>
<g style="mix-blend-mode:multiply" opacity="0.46">
<path d="M1190.1 239.656H1255.12C1258.9 239.656 1262 235.654 1262 230.762H1183.22C1183.22 235.654 1186.32 239.656 1190.1 239.656Z" fill="#FFB45A"/>
</g>
<path d="M1054.07 257.452H989.053C985.268 257.452 982.168 253.449 982.168 248.558C982.168 243.666 985.268 239.664 989.053 239.664H1054.07C1057.85 239.664 1060.95 243.666 1060.95 248.558C1060.95 253.449 1057.85 257.452 1054.07 257.452Z" fill="#FFB45A"/>
<path d="M1053.28 239.656H1021.35V257.452H1053.28V239.656Z" fill="#FFCC99"/>
<path d="M1019.74 239.656H1017.22V257.452H1019.74V239.656Z" fill="#FFCC99"/>
<path d="M1015.6 239.656H1014.24V257.452H1015.6V239.656Z" fill="#FFCC99"/>
<g style="mix-blend-mode:multiply" opacity="0.46">
<path d="M989.046 257.452H1054.06C1057.84 257.452 1060.94 253.449 1060.94 248.558H982.16C982.16 253.449 985.26 257.452 989.046 257.452Z" fill="#FFB45A"/>
</g>
<path d="M1052.04 257.372H991.05C986.138 257.372 982.156 261.354 982.156 266.266V266.274C982.156 271.186 986.138 275.168 991.05 275.168H1052.04C1056.96 275.168 1060.94 271.186 1060.94 266.274V266.266C1060.94 261.354 1056.96 257.372 1052.04 257.372Z" fill="#FFB45A"/>
<path d="M1053.28 257.372H1021.35V275.168H1053.28V257.372Z" fill="#FFCC99"/>
<path d="M1019.74 257.372H1017.22V275.168H1019.74V257.372Z" fill="#FFCC99"/>
<path d="M1015.6 257.372H1014.24V275.168H1015.6V257.372Z" fill="#FFCC99"/>
<g style="mix-blend-mode:multiply" opacity="0.46">
<path d="M989.046 275.168H1054.06C1057.84 275.168 1060.94 271.165 1060.94 266.274H982.16C982.16 271.165 985.26 275.168 989.046 275.168Z" fill="#FFB45A"/>
</g>
<path d="M1052.04 275.088H991.05C986.138 275.088 982.156 279.07 982.156 283.982V283.99C982.156 288.902 986.138 292.884 991.05 292.884H1052.04C1056.96 292.884 1060.94 288.902 1060.94 283.99V283.982C1060.94 279.07 1056.96 275.088 1052.04 275.088Z" fill="#FFB45A"/>
<path d="M1053.28 275.088H1021.35V292.884H1053.28V275.088Z" fill="#FFCC99"/>
<path d="M1019.74 275.088H1017.22V292.884H1019.74V275.088Z" fill="#FFCC99"/>
<path d="M1015.6 275.088H1014.24V292.884H1015.6V275.088Z" fill="#FFCC99"/>
<g style="mix-blend-mode:multiply" opacity="0.46">
<path d="M989.046 292.884H1054.06C1057.84 292.884 1060.94 288.881 1060.94 283.99H982.16C982.16 288.881 985.26 292.884 989.046 292.884Z" fill="#FFB45A"/>
</g>
<path d="M1054.07 310.592H989.053C985.268 310.592 982.168 306.59 982.168 301.698C982.168 296.807 985.268 292.804 989.053 292.804H1054.07C1057.85 292.804 1060.95 296.807 1060.95 301.698C1060.95 306.59 1057.85 310.592 1054.07 310.592Z" fill="#FFB45A"/>
<path d="M1053.28 292.804H1021.35V310.6H1053.28V292.804Z" fill="#FFCC99"/>
<path d="M1019.74 292.804H1017.22V310.6H1019.74V292.804Z" fill="#FFCC99"/>
<path d="M1015.6 292.804H1014.24V310.6H1015.6V292.804Z" fill="#FFCC99"/>
<g style="mix-blend-mode:multiply" opacity="0.46">
<path d="M989.046 310.592H1054.06C1057.84 310.592 1060.94 306.59 1060.94 301.698H982.16C982.16 306.59 985.26 310.592 989.046 310.592Z" fill="#FFB45A"/>
</g>
<path d="M1054.07 239.656H989.053C985.268 239.656 982.168 235.654 982.168 230.762C982.168 225.871 985.268 221.868 989.053 221.868H1054.07C1057.85 221.868 1060.95 225.871 1060.95 230.762C1060.95 235.654 1057.85 239.656 1054.07 239.656Z" fill="#FFB45A"/>
<path d="M1053.28 221.861H1021.35V239.656H1053.28V221.861Z" fill="#FFCC99"/>
<path d="M1019.74 221.861H1017.22V239.656H1019.74V221.861Z" fill="#FFCC99"/>
<path d="M1015.6 221.861H1014.24V239.656H1015.6V221.861Z" fill="#FFCC99"/>
<g style="mix-blend-mode:multiply" opacity="0.46">
<path d="M989.046 239.656H1054.06C1057.84 239.656 1060.94 235.654 1060.94 230.762H982.16C982.16 235.654 985.26 239.656 989.046 239.656Z" fill="#FFB45A"/>
</g>
<path fill-rule="evenodd" clip-rule="evenodd" d="M1142.38 78.3773C1145.92 78.4207 1148.79 81.3541 1148.75 84.9016L1148.16 134.863C1148.11 138.411 1145.18 141.279 1141.63 141.236C1138.08 141.192 1135.21 138.259 1135.26 134.712L1135.85 84.7499C1135.89 81.2024 1138.83 78.334 1142.38 78.3773Z" fill="#EDAC80"/>
<path fill-rule="evenodd" clip-rule="evenodd" d="M1142.5 81.8454L1137.08 79.7501C1140.46 76.4482 1145.88 76.5132 1149.19 79.8946C1152.49 83.2759 1152.42 88.6948 1149.04 92.0039C1144.14 89.923 1141.34 85.6458 1142.5 81.8454Z" fill="#1A1A1A"/>
<path fill-rule="evenodd" clip-rule="evenodd" d="M1137.11 96.2595L1136.44 82.1344L1130.36 96.18L1137.11 96.2595Z" fill="#EDAC80"/>
<path d="M1130.28 194.449C1130.28 194.449 1133.05 262.936 1138.59 325.007H1147.58C1147.58 325.007 1150.32 307.659 1147.58 273.687L1130.27 194.449H1130.28Z" fill="#011721"/>
<path d="M1147.58 325.007L1149.83 328.157C1150.77 329.602 1149.67 331.509 1147.94 331.415H1130.73C1129.5 331.35 1129.19 329.667 1130.32 329.168L1138.55 324.573L1147.57 324.999L1147.58 325.007Z" fill="#36332E"/>
<path d="M1136.61 115.854C1136.61 115.854 1115.99 149.79 1079.19 165.722L1081.95 171.148C1081.95 171.148 1110.22 166.582 1142.6 138.028L1136.61 115.861V115.854Z" fill="#22201E"/>
<path d="M1079.19 165.715L1071.61 167.911C1071.61 167.911 1072.16 174.76 1081.95 171.148L1079.19 165.722V165.715Z" fill="#EDAC80"/>
<path fill-rule="evenodd" clip-rule="evenodd" d="M1023.41 80.3137C1019.92 79.714 1016.57 82.0911 1015.97 85.5808L1007.55 134.834C1006.95 138.331 1009.33 141.677 1012.82 142.276C1016.32 142.876 1019.66 140.499 1020.26 137.009L1028.68 87.7555C1029.28 84.2586 1026.9 80.9134 1023.41 80.3137Z" fill="#EDAC80"/>
<path fill-rule="evenodd" clip-rule="evenodd" d="M1022.66 83.7023L1028.37 82.6185C1025.64 78.7603 1020.29 77.8499 1016.44 80.581C1012.58 83.3121 1011.67 88.6587 1014.4 92.5169C1019.59 91.3536 1023.12 87.6544 1022.66 83.7023Z" fill="#1A1A1A"/>
<path fill-rule="evenodd" clip-rule="evenodd" d="M1025.36 98.8533L1028.56 85.075L1032.02 99.9877L1025.36 98.8533Z" fill="#EDAC80"/>
<path d="M1021.95 196.168C1021.95 196.168 1034.72 219.491 1047.24 249.013C1047.24 249.013 1045.29 268.947 1032.36 307.739L1024.21 304.827C1024.21 304.827 1025.68 272.444 1028.51 252.026L1013.65 235.162L1015.03 204.889L1021.95 196.168Z" fill="#011721"/>
<path d="M1016.25 112.848C1016.25 112.848 1040.18 123.137 1052.55 128.007L1078.22 99.0484L1082.48 103.109C1082.48 103.109 1074.35 120.608 1054.88 140.383C1054.88 140.383 1044.6 138.461 1032.47 133.895C1032.47 133.895 1020.1 121.229 1016.25 112.856V112.848Z" fill="#22201E"/>
<path d="M1018.18 114.698C1016.71 112.617 1014.48 111.714 1012.28 111.808C1009.33 111.938 1002.25 128.303 999.811 136.93C996.235 149.631 992.073 167.029 989.559 190.28C1001.86 195.157 1021.88 196.168 1021.95 196.168C1026.58 160.303 1027.37 127.718 1018.18 114.705V114.698Z" fill="#36332E"/>
<path d="M989.554 190.28C987.654 206.283 986.953 223.241 986.426 327.412H995.146C995.146 327.412 1014.08 257.069 1021.94 196.168C1021.88 196.168 1001.85 195.157 989.554 190.28Z" fill="#05293C"/>
<path d="M986.42 327.412L984.136 330.548C983.118 331.943 984.115 333.908 985.842 333.908H1003.07C1004.31 333.908 1004.71 332.239 1003.6 331.683L995.14 327.412H986.42Z" fill="#36332E"/>
<path d="M1024.21 304.82L1021.74 306.163C1019.75 307.24 1019.58 310.022 1021.4 311.344L1034.39 320.708C1035.66 321.625 1037.35 320.317 1036.77 318.851L1032.36 307.724L1024.21 304.812L1024.21 304.82Z" fill="#36332E"/>
<path d="M1078.21 99.0484L1084.18 91.0863C1084.18 91.0863 1087.63 98.3114 1082.47 103.109L1078.21 99.0484H1078.21Z" fill="#EDAC80"/>
<path d="M1025.25 147.023L1016.25 139.206C1016.25 139.206 1020.39 165.122 989.559 190.28C1001.86 195.157 1021.88 196.168 1021.95 196.168C1024.25 178.301 1025.6 161.249 1025.25 147.023Z" fill="#22201E"/>
<path d="M1018.18 114.698C1018.18 114.698 1038.75 149.068 1074.65 166.921L1071.61 172.195C1071.61 172.195 1043.63 166.141 1012.8 135.911L1018.19 114.698H1018.18Z" fill="#36332E"/>
<path d="M1074.65 166.921L1082.11 169.515C1082.11 169.515 1081.2 176.321 1071.61 172.195L1074.65 166.921Z" fill="#EDAC80"/>
<path d="M986.422 327.412H989.55L987.47 225.972C986.993 245.241 986.689 275.493 986.422 327.412Z" fill="#011721"/>
<path d="M1021.95 196.168L1043.72 249.714L1040.33 281.475C1046.16 259.981 1047.23 248.998 1047.23 248.998C1034.71 219.484 1021.95 196.154 1021.95 196.154V196.168Z" fill="#05293C"/>
<path d="M1138.34 113.296C1139.91 111.295 1142.2 110.507 1144.39 110.724C1147.32 111.013 1153.54 127.725 1155.51 136.467C1158.42 149.342 1161.66 166.928 1162.93 190.28C1150.4 194.499 1130.35 194.449 1130.28 194.449C1127.55 158.388 1128.48 125.803 1138.34 113.296Z" fill="#36332E"/>
<path d="M1162.94 190.28C1163.99 206.363 1163.79 223.335 1158.82 327.384L1150.11 326.921C1150.11 326.921 1134.91 255.674 1130.28 194.442C1130.35 194.442 1150.4 194.492 1162.94 190.273V190.28Z" fill="#05293C"/>
<path d="M1158.82 327.384L1160.94 330.635C1161.88 332.08 1160.78 333.987 1159.05 333.893H1141.84C1140.61 333.828 1140.3 332.145 1141.43 331.646L1150.11 326.921L1158.82 327.384Z" fill="#36332E"/>
<path d="M1158.82 327.384L1155.69 327.217L1163.13 226.03C1162.59 245.299 1161.29 275.522 1158.82 327.384Z" fill="#011721"/>
<path d="M1139.54 194.116L1132.4 126.721L1146.87 120.326C1146.87 120.326 1156.92 166.986 1153.67 192.541C1153.67 192.541 1146.51 194.478 1139.54 194.116Z" fill="#22201E"/>
<path d="M1146.87 120.326C1146.87 120.326 1153.52 150.144 1151.69 201.674H1145.91C1145.91 201.674 1133.25 135.759 1132.4 126.728L1146.87 120.334V120.326Z" fill="#36332E"/>
<path d="M1156.23 211.789L1154.79 205.872H1142.86L1141.65 211.789H1126.79V240.003H1170.81V211.789H1156.23ZM1143.86 207.093H1153.84L1154.98 211.789H1142.9L1143.87 207.093H1143.86Z" fill="#011721"/>
<path d="M1145.91 201.667L1145.06 206.89C1145.06 206.89 1144.44 208.718 1147.19 209.022L1152.51 208.372C1152.51 208.372 1153.24 205.749 1151.69 201.674H1145.9L1145.91 201.667Z" fill="#EDAC80"/>
</g>
<defs>
<clipPath id="clip0_1160_1701">
<rect width="1440" height="334" fill="white"/>
</clipPath>
</defs>
</svg>
