<svg width="25" height="32" viewBox="0 0 25 32" fill="none" xmlns="http://www.w3.org/2000/svg">
<path d="M24.0308 10.446L15.6371 2.05693C15.517 1.9369 15.3555 1.87068 15.1857 1.87068H11.5914C10.8356 0.730477 9.56229 0 8.1171 0H8.11295C6.70502 0 5.41718 0.711853 4.64903 1.87068H1.41908C1.06709 1.87068 0.779297 2.15625 0.779297 2.51011V30.8601C0.779297 31.2139 1.06502 31.4995 1.41908 31.4995H23.5815C23.9335 31.4995 24.2213 31.2139 24.2213 30.8601V10.8992C24.2213 10.7295 24.153 10.5681 24.035 10.4481L24.0308 10.446ZM15.8234 4.0497L22.0349 10.2577H15.8234V4.0497ZM8.11295 1.27678H8.11502C8.75066 1.27678 9.3511 1.492 9.84802 1.87068H6.36547C6.85824 1.49406 7.46696 1.27885 8.11088 1.27678H8.11295ZM2.05679 30.2186V3.14747H10.8108C10.9309 3.46822 11.0013 3.80759 11.0013 4.15938L11.0096 12.9996C11.0096 13.9205 10.2621 14.6716 9.34075 14.6716C8.41939 14.6716 7.66987 13.9225 7.6678 13.0017L7.65952 5.57894C7.65952 5.27889 7.90384 5.04298 8.1937 5.04298C8.48357 5.04298 8.72996 5.28303 8.72996 5.57687L8.73824 12.3664C8.73824 12.7182 9.02397 13.0037 9.37802 13.0037C9.73207 13.0037 10.0178 12.7161 10.0157 12.3643L10.0074 5.57481C10.0074 4.57531 9.19375 3.76413 8.1937 3.76413C7.19366 3.76413 6.38203 4.57945 6.38203 5.57687L6.39031 12.9996C6.39031 14.624 7.71542 15.9443 9.34075 15.9443C10.9661 15.9443 12.2891 14.6199 12.2871 12.9934L12.2788 4.15317C12.2788 3.80759 12.2311 3.47029 12.1504 3.14333H14.548V10.893C14.548 11.2469 14.8337 11.5324 15.1878 11.5324H22.9418V30.2145H2.05679V30.2186Z" fill="black"/>
<path d="M19.9448 18.3344H5.05384C4.70186 18.3344 4.41406 18.6199 4.41406 18.9738C4.41406 19.3276 4.69979 19.6132 5.05384 19.6132H19.9448C20.2968 19.6132 20.5846 19.3276 20.5846 18.9738C20.5846 18.6199 20.2988 18.3344 19.9448 18.3344Z" fill="black"/>
<path d="M19.9448 22.0964H5.05384C4.70186 22.0964 4.41406 22.382 4.41406 22.7359C4.41406 23.0897 4.69979 23.3753 5.05384 23.3753H19.9448C20.2968 23.3753 20.5846 23.0897 20.5846 22.7359C20.5846 22.382 20.2988 22.0964 19.9448 22.0964Z" fill="black"/>
<path d="M19.9448 25.8584H5.05384C4.70186 25.8584 4.41406 26.144 4.41406 26.4978C4.41406 26.8517 4.69979 27.1373 5.05384 27.1373H19.9448C20.2968 27.1373 20.5846 26.8517 20.5846 26.4978C20.5846 26.144 20.2988 25.8584 19.9448 25.8584Z" fill="black"/>
</svg>
