<svg width="16" height="22" viewBox="0 0 16 22" fill="none" xmlns="http://www.w3.org/2000/svg">
<path d="M15.87 7.12978L10.141 1.40392C10.059 1.322 9.94877 1.27681 9.83289 1.27681H7.37961C6.8638 0.498576 5.9947 0 5.0083 0H5.00548C4.04451 0 3.16552 0.485865 2.64123 1.27681H0.436672C0.196432 1.27681 0 1.47172 0 1.71324V21.0631C0 21.3046 0.195019 21.4995 0.436672 21.4995H15.5633C15.8036 21.4995 16 21.3046 16 21.0631V7.4391C16 7.32328 15.9534 7.21311 15.8728 7.13119L15.87 7.12978ZM10.2682 2.76406L14.5077 7.00125H10.2682V2.76406ZM5.00548 0.871449H5.00689C5.44073 0.871449 5.85056 1.01834 6.18972 1.27681H3.81275C4.14909 1.01975 4.56456 0.872862 5.00406 0.871449H5.00548ZM0.871931 20.6252V2.14826H6.84685C6.92881 2.36718 6.97686 2.59881 6.97686 2.83892L6.98251 8.87268C6.98251 9.5012 6.47235 10.0139 5.84349 10.0139C5.21463 10.0139 4.70306 9.50261 4.70164 8.87409L4.69599 3.80782C4.69599 3.60303 4.86275 3.44201 5.06059 3.44201C5.25843 3.44201 5.4266 3.60585 5.4266 3.80641L5.43226 8.44049C5.43226 8.68059 5.62727 8.8755 5.86893 8.8755C6.11058 8.8755 6.3056 8.67918 6.30419 8.43907L6.29853 3.805C6.29853 3.12281 5.74316 2.56915 5.06059 2.56915C4.37803 2.56915 3.82406 3.12564 3.82406 3.80641L3.82971 8.87268C3.82971 9.98141 4.73415 10.8825 5.84349 10.8825C6.95283 10.8825 7.85586 9.97859 7.85444 8.86844L7.84879 2.83468C7.84879 2.59881 7.81629 2.36859 7.76117 2.14543H9.39763V7.43486C9.39763 7.67638 9.59265 7.87129 9.8343 7.87129H15.1267V20.6224H0.871931V20.6252Z" fill="#535353"/>
<path d="M13.0807 12.5139H2.91714C2.6769 12.5139 2.48047 12.7088 2.48047 12.9503C2.48047 13.1918 2.67549 13.3867 2.91714 13.3867H13.0807C13.321 13.3867 13.5174 13.1918 13.5174 12.9503C13.5174 12.7088 13.3224 12.5139 13.0807 12.5139Z" fill="#535353"/>
<path d="M13.0807 15.0816H2.91714C2.6769 15.0816 2.48047 15.2765 2.48047 15.518C2.48047 15.7595 2.67549 15.9544 2.91714 15.9544H13.0807C13.321 15.9544 13.5174 15.7595 13.5174 15.518C13.5174 15.2765 13.3224 15.0816 13.0807 15.0816Z" fill="#535353"/>
<path d="M13.0807 17.6493H2.91714C2.6769 17.6493 2.48047 17.8442 2.48047 18.0858C2.48047 18.3273 2.67549 18.5222 2.91714 18.5222H13.0807C13.321 18.5222 13.5174 18.3273 13.5174 18.0858C13.5174 17.8442 13.3224 17.6493 13.0807 17.6493Z" fill="#535353"/>
</svg>
