<svg width="13" height="12" viewBox="0 0 13 12" fill="none" xmlns="http://www.w3.org/2000/svg">
<path d="M1.804 11.75L9.244 0.549999H10.508L3.036 11.75H1.804ZM2.636 6.486C2.156 6.486 1.72933 6.358 1.356 6.102C0.993333 5.83533 0.705333 5.478 0.492 5.03C0.289333 4.57133 0.188 4.04867 0.188 3.462C0.188 2.87533 0.289333 2.35267 0.492 1.894C0.705333 1.42467 0.998667 1.062 1.372 0.806C1.74533 0.539333 2.172 0.405999 2.652 0.405999C3.132 0.405999 3.55333 0.539333 3.916 0.806C4.28933 1.062 4.57733 1.42467 4.78 1.894C4.99333 2.35267 5.1 2.87533 5.1 3.462C5.1 4.02733 4.99333 4.53933 4.78 4.998C4.56667 5.45667 4.27333 5.81933 3.9 6.086C3.52667 6.35267 3.10533 6.486 2.636 6.486ZM2.652 5.526C2.94 5.526 3.18533 5.446 3.388 5.286C3.60133 5.11533 3.76133 4.87533 3.868 4.566C3.98533 4.25667 4.044 3.88333 4.044 3.446C4.044 3.01933 3.98533 2.65133 3.868 2.342C3.76133 2.03267 3.60133 1.79267 3.388 1.622C3.17467 1.45133 2.924 1.366 2.636 1.366C2.348 1.366 2.09733 1.45667 1.884 1.638C1.67067 1.80867 1.50533 2.04867 1.388 2.358C1.28133 2.66733 1.228 3.03533 1.228 3.462C1.228 3.88867 1.28133 4.25667 1.388 4.566C1.50533 4.87533 1.67067 5.11533 1.884 5.286C2.09733 5.446 2.35333 5.526 2.652 5.526ZM9.724 11.894C9.244 11.894 8.81733 11.766 8.444 11.51C8.08133 11.2433 7.79333 10.886 7.58 10.438C7.36667 9.97933 7.26 9.45667 7.26 8.87C7.26 8.28333 7.36133 7.76067 7.564 7.302C7.77733 6.83267 8.07067 6.47 8.444 6.214C8.81733 5.94733 9.244 5.814 9.724 5.814C10.204 5.814 10.6253 5.94733 10.988 6.214C11.3613 6.47 11.6493 6.83267 11.852 7.302C12.0653 7.76067 12.172 8.28333 12.172 8.87C12.172 9.43533 12.0653 9.94733 11.852 10.406C11.6387 10.8647 11.3453 11.2273 10.972 11.494C10.6093 11.7607 10.1933 11.894 9.724 11.894ZM9.724 10.934C10.012 10.934 10.2627 10.854 10.476 10.694C10.6893 10.5233 10.8493 10.2833 10.956 9.974C11.0733 9.66467 11.132 9.29133 11.132 8.854C11.132 8.42733 11.0733 8.05933 10.956 7.75C10.8493 7.44067 10.6893 7.20067 10.476 7.03C10.2627 6.85933 10.012 6.774 9.724 6.774C9.42533 6.774 9.16933 6.85933 8.956 7.03C8.75333 7.20067 8.59333 7.446 8.476 7.766C8.36933 8.07533 8.316 8.44333 8.316 8.87C8.316 9.29667 8.36933 9.66467 8.476 9.974C8.59333 10.2833 8.75333 10.5233 8.956 10.694C9.16933 10.854 9.42533 10.934 9.724 10.934Z" fill="#939096"/>
</svg>
