<svg width="392" height="317" viewBox="0 0 392 317" fill="none" xmlns="http://www.w3.org/2000/svg">
<g clip-path="url(#clip0_797_2)">
<path fill-rule="evenodd" clip-rule="evenodd" d="M163.211 19.6986H155.223H103.608H95.6292L83.9249 53.375H103.608H155.223H174.916L163.211 19.6986Z" fill="#FC5E48"/>
<path d="M128.945 53.375H129.895V304.581H128.945V53.375Z" fill="#617084"/>
<path d="M150.792 53.375H151.742V76.1923H150.792V53.375Z" fill="#617084"/>
<path fill-rule="evenodd" clip-rule="evenodd" d="M151.271 76.183C149.982 76.183 148.947 77.2257 148.947 78.5032C148.947 79.7807 149.992 80.8234 151.271 80.8234C152.551 80.8234 153.595 79.7807 153.595 78.5032C153.595 77.2257 152.551 76.183 151.271 76.183Z" fill="#617084"/>
<path fill-rule="evenodd" clip-rule="evenodd" d="M108.867 288.434C112.066 288.471 112.517 292.473 112.461 294.333C112.405 296.193 112.452 294.634 112.433 294.784C112.348 296.644 112.056 302.881 112.028 303.764C111.859 305.85 110.946 306.695 109.544 306.714L82.3064 306.404L82.344 305.061C88.5255 304.403 98.6115 305.314 103.523 295.319C104.482 293.365 102.714 288.368 108.867 288.434Z" fill="#F9C9B3"/>
<path fill-rule="evenodd" clip-rule="evenodd" d="M119.593 168.702L112.282 298.015L102.093 297.734C102.582 296.897 103.523 295.451 103.353 292.05L97.2942 168.993C96.4945 152.798 120.571 151.389 119.583 168.702H119.593Z" fill="#A3A4A5"/>
<path fill-rule="evenodd" clip-rule="evenodd" d="M18.0459 260.234C11.4223 266.199 7.26366 274.822 7.26366 284.432C7.26366 302.421 21.8658 317 39.8833 317C57.9008 317 72.5029 302.421 72.5029 284.432C72.5029 274.832 68.3349 266.199 61.7207 260.234C68.3443 254.269 72.5029 245.645 72.5029 236.036C72.5029 226.426 68.3349 217.802 61.7207 211.837C68.3443 205.872 72.5029 197.249 72.5029 187.639C72.5029 178.03 68.3349 169.406 61.7207 163.441C68.3443 157.476 72.5029 148.853 72.5029 139.243C72.5029 121.254 57.9008 106.675 39.8833 106.675C21.8658 106.675 7.26366 121.254 7.26366 139.243C7.26366 148.843 11.4223 157.476 18.0459 163.441C11.4223 169.406 7.26366 178.03 7.26366 187.639C7.26366 197.249 11.4223 205.872 18.0459 211.837C11.4223 217.802 7.26366 226.426 7.26366 236.036C7.26366 245.645 11.4223 254.269 18.0459 260.234Z" fill="#F7F7EF"/>
<path d="M192.171 100.964H328.21C351.125 100.964 369.702 119.511 369.702 142.39V191.838C369.702 214.717 351.125 233.265 328.21 233.265H192.171C169.255 233.265 150.679 214.717 150.679 191.838V142.39C150.679 119.511 169.255 100.964 192.171 100.964Z" fill="#FC5E48"/>
<path d="M189.969 194.008H319.959C335.111 194.008 347.394 206.272 347.394 221.4V283.615C347.394 298.743 335.111 311.007 319.959 311.007H189.969C174.817 311.007 162.534 298.743 162.534 283.615V221.4C162.534 206.272 174.817 194.008 189.969 194.008Z" fill="#CC4D3B"/>
<path fill-rule="evenodd" clip-rule="evenodd" d="M392 195.812V272.079H347.394V195.812C347.394 183.515 357.376 173.549 369.692 173.549C382.008 173.549 392 183.515 392 195.812Z" fill="#FC5E48"/>
<path fill-rule="evenodd" clip-rule="evenodd" d="M369.702 249.816C382.017 249.816 392 259.783 392 272.079C392 284.376 382.017 294.342 369.702 294.342C357.386 294.342 347.403 284.376 347.403 272.079C347.403 259.783 357.386 249.816 369.702 249.816Z" fill="#CC4D3B"/>
<path fill-rule="evenodd" clip-rule="evenodd" d="M296.983 114.049L227.538 98.8594C223.304 97.9294 220.35 93.6646 220.961 89.3623C221.582 85.0694 225.553 82.3077 229.787 83.2376L299.231 98.4273C303.465 99.3572 306.42 103.622 305.808 107.924C305.187 112.217 301.217 114.979 296.983 114.049Z" fill="#F9C9B3"/>
<path fill-rule="evenodd" clip-rule="evenodd" d="M298.337 114.35L258.718 105.679L261.55 90.189L300.595 98.7278C304.077 99.4887 306.429 103.631 305.808 107.924C305.187 112.217 301.828 115.11 298.347 114.35H298.337Z" fill="#232017"/>
<path fill-rule="evenodd" clip-rule="evenodd" d="M260.486 157.147L311.434 210.879L289.672 231.452C277.704 242.762 258.633 242.245 247.305 230.296L237.567 220.019C226.239 208.071 226.757 189.03 238.724 177.72L260.486 157.147Z" fill="#A3A4A5"/>
<path fill-rule="evenodd" clip-rule="evenodd" d="M260.223 157.373C279.003 135.288 277.046 123.856 285.485 107.079C287.489 103.096 293.003 99.8081 298.093 99.5075C302.863 99.2257 307.473 101.875 310.305 104.834L364.96 161.994C371.132 168.448 371.489 174.187 368.563 178.79C365.618 183.412 359.333 186.897 352.183 188.898C339.886 192.336 326.177 197.249 311.18 211.114L260.214 157.373H260.223Z" fill="#232017"/>
<path fill-rule="evenodd" clip-rule="evenodd" d="M331.013 81.2556C334.476 81.2368 337.327 84.0549 337.345 87.5118L337.609 136.256C337.628 139.713 334.805 142.559 331.343 142.578C327.88 142.596 325.029 139.778 325.011 136.321L324.747 87.5775C324.728 84.1206 327.551 81.2743 331.013 81.2556Z" fill="#F9C9B3"/>
<path fill-rule="evenodd" clip-rule="evenodd" d="M331.192 84.6279L325.858 82.674C329.104 79.3956 334.401 79.3674 337.684 82.6083C340.968 85.8491 340.996 91.1377 337.75 94.4161C332.933 92.4716 330.12 88.3478 331.192 84.6185V84.6279Z" fill="#232017"/>
<path fill-rule="evenodd" clip-rule="evenodd" d="M326.177 98.7842L325.283 85.013L319.572 98.8124L326.177 98.7842Z" fill="#F9C9B3"/>
<path fill-rule="evenodd" clip-rule="evenodd" d="M162.534 197.315V273.582H117.928V197.315C117.928 185.018 127.91 175.052 140.226 175.052C152.542 175.052 162.524 185.018 162.524 197.315H162.534Z" fill="#FC5E48"/>
<path d="M139.315 295.832C127.011 295.322 117.451 284.949 117.962 272.664C118.473 260.379 128.863 250.834 141.167 251.345C153.472 251.855 163.032 262.228 162.52 274.513C162.009 286.798 151.62 296.343 139.315 295.832Z" fill="#CC4D3B"/>
<path fill-rule="evenodd" clip-rule="evenodd" d="M368.545 180.218L310.597 245.392C307.803 248.539 302.929 248.83 299.777 246.031C296.625 243.241 296.334 238.375 299.137 235.228L357.085 170.054C359.879 166.907 364.753 166.616 367.905 169.415C371.057 172.205 371.348 177.071 368.545 180.218Z" fill="#F9C9B3"/>
<path fill-rule="evenodd" clip-rule="evenodd" d="M368.544 180.218L336.724 215.999L325.726 205.318L357.075 170.054C359.869 166.907 364.743 166.616 367.895 169.415C371.047 172.205 371.339 177.071 368.535 180.218H368.544Z" fill="#232017"/>
<path fill-rule="evenodd" clip-rule="evenodd" d="M270.516 279.059C279.483 279.059 286.755 286.32 286.755 295.272C286.755 304.225 279.483 311.486 270.516 311.486C261.55 311.486 254.277 304.225 254.277 295.272C254.277 286.32 261.55 279.059 270.516 279.059Z" fill="#617084"/>
<path fill-rule="evenodd" clip-rule="evenodd" d="M270.535 273.263C275.474 273.263 279.52 277.302 279.52 282.234V295.019C279.52 299.95 275.474 303.99 270.535 303.99C265.595 303.99 261.55 299.95 261.55 295.019V282.234C261.55 277.302 265.595 273.263 270.535 273.263Z" fill="#B8C4D2"/>
<path fill-rule="evenodd" clip-rule="evenodd" d="M270.469 273.3C275.409 273.3 279.407 277.293 279.407 282.224C279.407 287.156 275.409 291.149 270.469 291.149C265.53 291.149 261.531 287.156 261.531 282.224C261.531 277.293 265.53 273.3 270.469 273.3Z" fill="#EFE8D6"/>
<path fill-rule="evenodd" clip-rule="evenodd" d="M279.059 284.695C277.987 288.415 274.543 291.139 270.469 291.139C266.395 291.139 262.952 288.415 261.879 284.695C262.952 280.975 266.395 278.251 270.469 278.251C274.543 278.251 277.987 280.975 279.059 284.695Z" fill="#FC5E48"/>
<path d="M269.105 256.148C267.552 257.566 266.997 258.806 266.997 259.933C266.997 261.267 267.759 262.451 268.54 263.606C270.102 265.936 271.297 268.735 268.315 270.67" stroke="white" stroke-width="1.12" stroke-miterlimit="22.93"/>
<path d="M273.047 256.148C271.495 257.566 270.94 258.806 270.94 259.933C270.94 261.267 271.702 262.451 272.483 263.606C274.045 265.936 275.239 268.735 272.257 270.67" stroke="white" stroke-width="1.12" stroke-miterlimit="22.93"/>
<path fill-rule="evenodd" clip-rule="evenodd" d="M332.66 289.007L336.837 291.026L332.66 293.055H308.809V291.026V289.007H332.66Z" fill="#617084"/>
<path d="M308.359 293.005C307.267 292.748 306.591 291.655 306.848 290.564C307.106 289.474 308.201 288.798 309.293 289.056C310.385 289.313 311.062 290.406 310.804 291.497C310.546 292.587 309.452 293.263 308.359 293.005Z" fill="#B8C4D2"/>
<path fill-rule="evenodd" clip-rule="evenodd" d="M332.66 292.99L336.837 291.026L332.66 289.073V292.99Z" fill="#B8C4D2"/>
<path d="M198.249 290.81H231.414C232.251 290.81 232.929 291.487 232.929 292.323V305.258C232.929 306.093 232.251 306.77 231.414 306.77H198.249C197.412 306.77 196.734 306.093 196.734 305.258V292.323C196.734 291.487 197.412 290.81 198.249 290.81Z" fill="#B8C4D2"/>
<path fill-rule="evenodd" clip-rule="evenodd" d="M231.527 298.795C231.527 299.528 230.925 300.129 230.191 300.129C229.457 300.129 228.855 299.528 228.855 298.795C228.855 298.062 229.457 297.461 230.191 297.461C230.925 297.461 231.527 298.062 231.527 298.795Z" fill="#617084"/>
<path fill-rule="evenodd" clip-rule="evenodd" d="M323.11 0.695129C340.432 0.695129 354.469 14.7105 354.469 32.0044C354.469 49.2982 340.432 63.3136 323.11 63.3136C305.789 63.3136 291.751 49.2982 291.751 32.0044C291.751 14.7105 305.789 0.695129 323.11 0.695129Z" stroke="#617084" stroke-width="1.49" stroke-miterlimit="22.93"/>
<path d="M323.11 32.0044L329.122 9.60037" stroke="#617084" stroke-width="1.49" stroke-miterlimit="22.93"/>
<path d="M323.11 32.0044L339.538 48.4152" stroke="#617084" stroke-width="1.49" stroke-miterlimit="22.93"/>
<path d="M323.11 5.48593V9.29038" stroke="#617084" stroke-width="1.49" stroke-miterlimit="22.93"/>
<path d="M323.11 54.7277V58.5228" stroke="#617084" stroke-width="1.49" stroke-miterlimit="22.93"/>
<path d="M349.671 32.0044H345.86" stroke="#617084" stroke-width="1.49" stroke-miterlimit="22.93"/>
<path d="M300.351 32.0044H296.55" stroke="#617084" stroke-width="1.49" stroke-miterlimit="22.93"/>
<path fill-rule="evenodd" clip-rule="evenodd" d="M273.518 240.733L140.339 270.943C131.278 273 124.523 269.186 123.46 263.954C122.415 258.834 124.561 252.86 135.418 249.506L265.304 208.268C275.644 205.065 282.569 211.49 285.495 219.277C288.618 227.609 286.963 237.557 273.518 240.733Z" fill="#A3A4A5"/>
<path fill-rule="evenodd" clip-rule="evenodd" d="M246.647 215.116L114.117 178.913C105.094 176.451 100.917 169.866 102.45 164.719C103.956 159.674 108.688 155.4 119.922 157.551L254.766 182.416C265.464 184.474 268.559 193.445 267.459 201.739C266.273 210.607 260.082 218.648 246.647 215.106V215.116Z" fill="#A3A4A5"/>
<path fill-rule="evenodd" clip-rule="evenodd" d="M23.2111 296.296C23.9732 299.218 20.3885 300.768 18.6573 301.247C16.9261 301.726 18.3751 301.322 18.2339 301.35C16.4933 301.801 10.66 303.304 9.83205 303.52C7.86565 303.962 6.85894 303.37 6.49201 302.092L4.76837e-05 277.18L1.25141 276.833C3.39657 282.281 5.0619 291.74 15.5149 293.375C17.5565 293.694 21.7339 290.669 23.2017 296.296H23.2111Z" fill="#F9C9B3"/>
<path fill-rule="evenodd" clip-rule="evenodd" d="M136.491 272.154L15.2139 302.13L12.937 292.764C13.8309 292.98 15.4021 293.422 18.507 292.304L130.686 251.911C145.448 246.594 152.73 268.143 136.5 272.145L136.491 272.154Z" fill="#A3A4A5"/>
<path d="M205.898 136.678H259.818V223.251H205.898V136.678Z" fill="#232017"/>
<path fill-rule="evenodd" clip-rule="evenodd" d="M180.89 122.259V208.841L205.907 223.26V136.678L180.89 122.259Z" fill="#617084"/>
<path fill-rule="evenodd" clip-rule="evenodd" d="M188.699 183.572L205.907 201.467V176.893L200.996 171.783L183.298 153.38L180.899 150.882V175.456L188.708 183.572H188.699ZM180.89 139.45L192.519 151.539L204.345 163.845L205.898 165.461V172.675L202.426 169.068L180.88 146.673V139.459L180.89 139.45Z" fill="white"/>
<path d="M220.641 147.575H224.564V151.708H220.641V147.575Z" fill="#EDEDE8"/>
<path d="M220.641 152.742H224.564V156.875H220.641V152.742Z" fill="#EDEDE8"/>
<path d="M220.641 157.899H224.564V162.032H220.641V157.899Z" fill="#EDEDE8"/>
<path d="M220.641 163.065H224.564V167.199H220.641V163.065Z" fill="#EDEDE8"/>
<path d="M220.641 168.222H224.564V172.356H220.641V168.222Z" fill="#EDEDE8"/>
<path d="M220.641 173.389H224.564V177.522H220.641V173.389Z" fill="#EDEDE8"/>
<path d="M220.641 178.546H224.564V182.679H220.641V178.546Z" fill="#EDEDE8"/>
<path d="M220.641 183.713H224.564V187.846H220.641V183.713Z" fill="#EDEDE8"/>
<path d="M220.641 188.879H224.564V193.012H220.641V188.879Z" fill="#EDEDE8"/>
<path d="M220.641 194.036H224.564V198.17H220.641V194.036Z" fill="#EDEDE8"/>
<path d="M220.641 199.203H224.564V203.336H220.641V199.203Z" fill="#EDEDE8"/>
<path d="M220.641 204.36H224.564V208.493H220.641V204.36Z" fill="#EDEDE8"/>
<path d="M220.641 209.527H224.564V213.66H220.641V209.527Z" fill="#EDEDE8"/>
<path d="M225.364 147.575H229.288V151.708H225.364V147.575Z" fill="#EDEDE8"/>
<path d="M225.364 152.742H229.288V156.875H225.364V152.742Z" fill="#EDEDE8"/>
<path d="M225.364 157.899H229.288V162.032H225.364V157.899Z" fill="#EDEDE8"/>
<path d="M225.364 163.065H229.288V167.199H225.364V163.065Z" fill="#EDEDE8"/>
<path d="M225.364 168.222H229.288V172.356H225.364V168.222Z" fill="#EDEDE8"/>
<path d="M225.364 173.389H229.288V177.522H225.364V173.389Z" fill="#EDEDE8"/>
<path d="M225.364 178.546H229.288V182.679H225.364V178.546Z" fill="#EDEDE8"/>
<path d="M225.364 183.713H229.288V187.846H225.364V183.713Z" fill="#EDEDE8"/>
<path d="M225.364 188.879H229.288V193.012H225.364V188.879Z" fill="#EDEDE8"/>
<path d="M225.364 194.036H229.288V198.17H225.364V194.036Z" fill="#EDEDE8"/>
<path d="M225.364 199.203H229.288V203.336H225.364V199.203Z" fill="#EDEDE8"/>
<path d="M225.364 204.36H229.288V208.493H225.364V204.36Z" fill="#EDEDE8"/>
<path d="M225.364 209.527H229.288V213.66H225.364V209.527Z" fill="#EDEDE8"/>
<path d="M230.097 147.575H234.02V151.708H230.097V147.575Z" fill="#EDEDE8"/>
<path d="M230.097 152.742H234.02V156.875H230.097V152.742Z" fill="#EDEDE8"/>
<path d="M230.097 157.899H234.02V162.032H230.097V157.899Z" fill="#EDEDE8"/>
<path d="M230.097 163.065H234.02V167.199H230.097V163.065Z" fill="#EDEDE8"/>
<path d="M230.097 168.222H234.02V172.356H230.097V168.222Z" fill="#EDEDE8"/>
<path d="M230.097 173.389H234.02V177.522H230.097V173.389Z" fill="#EDEDE8"/>
<path d="M230.097 178.546H234.02V182.679H230.097V178.546Z" fill="#EDEDE8"/>
<path d="M230.097 183.713H234.02V187.846H230.097V183.713Z" fill="#EDEDE8"/>
<path d="M230.097 188.879H234.02V193.012H230.097V188.879Z" fill="#EDEDE8"/>
<path d="M230.097 194.036H234.02V198.17H230.097V194.036Z" fill="#EDEDE8"/>
<path d="M230.097 199.203H234.02V203.336H230.097V199.203Z" fill="#EDEDE8"/>
<path d="M230.097 204.36H234.02V208.493H230.097V204.36Z" fill="#EDEDE8"/>
<path d="M230.097 209.527H234.02V213.66H230.097V209.527Z" fill="#EDEDE8"/>
<path d="M234.83 147.575H238.753V151.708H234.83V147.575Z" fill="#EDEDE8"/>
<path d="M234.83 152.742H238.753V156.875H234.83V152.742Z" fill="#EDEDE8"/>
<path d="M234.83 157.899H238.753V162.032H234.83V157.899Z" fill="#EDEDE8"/>
<path d="M234.83 163.065H238.753V167.199H234.83V163.065Z" fill="#EDEDE8"/>
<path d="M234.83 168.222H238.753V172.356H234.83V168.222Z" fill="#EDEDE8"/>
<path d="M234.83 173.389H238.753V177.522H234.83V173.389Z" fill="#EDEDE8"/>
<path d="M234.83 178.546H238.753V182.679H234.83V178.546Z" fill="#EDEDE8"/>
<path d="M234.83 183.713H238.753V187.846H234.83V183.713Z" fill="#EDEDE8"/>
<path d="M234.83 188.879H238.753V193.012H234.83V188.879Z" fill="#EDEDE8"/>
<path d="M234.83 194.036H238.753V198.17H234.83V194.036Z" fill="#EDEDE8"/>
<path d="M234.83 199.203H238.753V203.336H234.83V199.203Z" fill="#EDEDE8"/>
<path d="M234.83 204.36H238.753V208.493H234.83V204.36Z" fill="#EDEDE8"/>
<path d="M234.83 209.527H238.753V213.66H234.83V209.527Z" fill="#EDEDE8"/>
<path d="M241.895 171.36H252.725V188.748H241.895V171.36Z" fill="#EDEDE8"/>
<path fill-rule="evenodd" clip-rule="evenodd" d="M233.183 137.759C230.953 138.698 231.047 141.554 231.659 143.179C233.512 148.148 236.099 153.221 245.169 160.576L247.729 158.801C244.078 155.4 240.983 146.955 239.477 141.375C238.95 137.665 235.883 136.622 233.183 137.768V137.759Z" fill="#F9C9B3"/>
<path fill-rule="evenodd" clip-rule="evenodd" d="M226.954 82.984C222.523 83.6416 219.531 87.1924 220.331 90.8841L231.16 141.093C231.282 141.61 231.423 142.089 231.555 142.531L239.477 141.356C239.477 141.169 239.458 140.99 239.449 140.802L236.429 88.5075C236.212 84.7594 231.376 82.3358 226.954 82.984Z" fill="#F9C9B3"/>
<path fill-rule="evenodd" clip-rule="evenodd" d="M267.345 192.872C268.465 190.936 266.564 188.043 265.059 186.644C260.449 182.351 255.199 178.255 243.476 174.657L242.638 177.607C247.634 179.514 255.434 186.841 260.166 191.923C262.942 195.502 265.981 195.239 267.345 192.881V192.872Z" fill="#F9C9B3"/>
<path fill-rule="evenodd" clip-rule="evenodd" d="M307.228 246.453C310.23 243.851 310.267 238.891 307.294 235.444L266.781 188.56C266.348 188.081 265.943 187.649 265.548 187.254L260.176 191.913C260.298 192.101 260.43 192.289 260.562 192.477L296.371 244.913C298.93 248.67 304.227 249.055 307.228 246.453Z" fill="#F9C9B3"/>
<path fill-rule="evenodd" clip-rule="evenodd" d="M269.811 197.381C267.92 198.949 265.116 198.696 263.545 196.808C261.973 194.919 262.227 192.12 264.118 190.551C266.01 188.983 268.813 189.236 270.385 191.124C271.956 193.012 271.702 195.812 269.811 197.381Z" fill="#232017"/>
</g>
<defs>
<clipPath id="clip0_797_2">
<rect width="392" height="317" fill="white" transform="matrix(-1 0 0 1 392 0)"/>
</clipPath>
</defs>
</svg>
